<?xml version="1.0" encoding="UTF-8"?>
<svg id="_Слой_10" data-name="Слой 10" xmlns="http://www.w3.org/2000/svg" viewBox="0 0 582.184 658.637">
  <defs>
    <style>
      .cls-1 {
        fill: #181721;
      }

      .cls-1, .cls-2 {
        stroke: #000;
        stroke-miterlimit: 10;
        stroke-width: 3px;
      }

      .cls-3 {
        opacity: .67;
      }

      .cls-3, .cls-2 {
        fill: #0d0c12;
      }

      .cls-4 {
        fill: #07060b;
      }

      .cls-5 {
        fill: #070609;
      }
    </style>
  </defs>
  <g id="_ноги" data-name="ноги">
    <g>
      <path class="cls-2" d="M124.246,512.633c17.644,4.139,53.503,20.431,51.697,34.733-1.794,14.207-39.901,19.972-59.65,20.629-18.78,.625-44.058,1.466-53.814-15.111-8.966-15.234,.883-35.48,2.778-39.225,7.744-1.869,17.243-3.443,28.153-3.731,4.571-.121,17.602-.4,30.836,2.704Z"/>
      <path class="cls-1" d="M120.007,383.033c8.684,28.184,9.214,47.794,7.938,60.748-1.2,12.179-2.176,20.901-2.176,20.901-2.029,18.148-3.117,24.599-2.755,34.634,.282,7.838,1.315,14.154,2.085,18.069-3.264,1.975-6.948,3.772-11.076,5.18-23.872,8.143-46.557-2.18-54.624-6.357,.147-8.934,1.121-22.373,5.421-38.003,6.015-21.863,11.909-24.005,13.36-40.422,.918-10.386-.946-21.082-4.674-42.474-1.359-7.8-2.491-12.726-3.684-22.227-1.342-10.683-1.8-19.504-1.976-25.345,5.552,3.86,14.525,8.877,26.399,10.677,29.819,4.519,52.293-15.138,55.929-18.422-.042,3.185-.61,24.039-15.114,36.018-5.485,4.53-11.142,6.287-15.051,7.025Z"/>
      <path d="M79.538,427.501c3.905,4.547,9.991,7.272,16.044,6.659,2.054-.181,4.094-.716,6.025-1.545-1.818,1.052-3.815,1.845-5.912,2.286-6.488,1.44-13.431-.838-18.302-5.303,0,0,2.145-2.097,2.145-2.097h0Z"/>
      <path d="M78.785,433.086c2.451,3.198,6.539,5.028,10.595,4.766-2.034,.284-4.159,.075-6.13-.635-1.974-.704-3.784-1.911-5.228-3.485l.763-.646h0Z"/>
      <path class="cls-5" d="M79.747,428.014c1.119,1.251,4.268,4.44,9.514,5.738,5.697,1.41,10.305-.292,11.81-.922-2.5,.221-5.853,.254-9.708-.464-5.146-.959-9.089-2.867-11.616-4.352Z"/>
      <path class="cls-5" d="M79.659,434.194c.767,.77,2.245,2.054,4.482,2.893,2.166,.812,4.064,.839,5.14,.775-1.367-.254-2.968-.654-4.707-1.297-1.971-.729-3.613-1.582-4.915-2.371Z"/>
      <path class="cls-4" d="M60.561,543.594c2.045,2.958,5.432,7.156,10.595,10.889,11.041,7.982,22.642,8.282,36.453,8.817,20.211,.782,34.886-4.094,38.61-5.4,12.576-4.411,19.443-9.141,22.06-11.214,2.079-1.646,3.699-3.152,4.802-4.233-.017,.243-.05,.597-.117,1.018-.284,1.781-1.5,6.745-10.34,12.371-1.918,1.221-5.945,3.485-15.654,6.476-6.286,1.936-13.547,3.63-21.764,4.65-10.021,1.244-17.917,1.045-21.445,.889-10.017-.441-18.25-.883-27.56-5.21-7.587-3.526-10.478-6.607-11.94-8.741-2.66-3.881-3.44-7.859-3.701-10.313Z"/>
      <path class="cls-3" d="M69.432,353.543c.038,3.194,.191,6.616,.507,10.236,.326,3.741,.787,7.246,1.325,10.489,1.73,1.761,10.201,10.013,23.264,10,6.846-.006,18.24-2.286,18.956-6.847,.634-4.035-6.908-11.012-44.051-23.878Z"/>
    </g>
  </g>
</svg>