<?xml version="1.0" encoding="UTF-8"?>
<svg id="_Слой_10" data-name="Слой 10" xmlns="http://www.w3.org/2000/svg" viewBox="0 0 582.184 658.637">
  <defs>
    <style>
      .cls-1 {
        fill: #fab4a0;
      }

      .cls-1, .cls-2 {
        stroke: #000;
        stroke-miterlimit: 10;
        stroke-width: 3px;
      }

      .cls-3 {
        fill: #0f0e14;
      }

      .cls-2 {
        fill: #0c0b10;
      }
    </style>
  </defs>
  <g id="_тело" data-name="тело">
    <g id="_Слой_4" data-name="Слой 4">
      <g>
        <g>
          <path class="cls-1" d="M251.945,406.206c-2.838,.203-7.554,3.107-16.985,8.916-11.774,7.252-15.184,11.282-15.446,15.485-.057,.917-.118,2.169,.685,2.935,3.415,3.258,17.972-6.578,18.098-6.359,.135,.234-18.031,8.659-16.924,14.38,.323,1.672,2.241,2.844,3.62,3.228,2.576,.719,4.805-.879,10.859-4.793,2.743-1.774,8.793-5.654,9-5.38,.352,.465-16.928,12.077-14.967,16.533,.449,1.02,1.798,1.417,2.669,1.672,2.099,.617,4.37,.098,9.168-2.651,2.521-1.444,5.838-3.56,9.489-6.554-8.928,6.513-13.802,13.057-12.148,16.809,.503,1.141,1.467,1.701,1.778,1.876,4.108,2.311,12.038-2.199,19.989-10.37-.011,1.371-.203,3.399-1.173,5.556-1.5,3.334-3.617,4.214-3.523,6.574,.069,1.736,1.296,3.293,2.609,4.044,2.819,1.613,6.342-.315,7.435-.913,4.156-2.274,5.757-6.198,8.217-11.87,7.144-16.468,7.324-14.919,7.554-16.919,1.678-14.581-15.197-33.259-30.004-32.199Z"/>
          <path class="cls-2" d="M321.899,279.813c10.419,5.916,8.054,28.591,5.856,49.659-1.48,14.188-4.312,24.078-8.157,37.507-3.707,12.948-10.423,33.476-24.534,54.731-7.269,10.95-12.06,15.402-17.835,15.631-8.09,.319-14.704-7.786-17.238-10.892-1.547-1.896-6.85-8.573-7.543-18.181-.624-8.659,2.921-13.802,6.563-22.741,1.412-3.465,3.562-13.496,7.803-33.416,9.244-43.411,8.152-43.389,10.97-48.046,10.46-17.286,33.258-30.417,44.114-24.252Z"/>
          <path class="cls-3" d="M252.449,408.268c.511,12.658,10.383,21.115,12.816,23.057,3.042,2.427,7.465,5.956,12.783,5.217,2.434-.338,5.144-1.582,11.088-8.677,7.16-8.548,11.53-16.654,14.217-22.105,2.278-4.622,5.18-11.054,7.957-19.043-4.389,.077-17.022-.279-29.217-9-9.488-6.785-14.033-15.289-15.913-19.435-.304,5.777-1.287,14.398-4.634,24.236-4.668,13.724-9.462,16.663-9.095,25.751Z"/>
        </g>
        <path d="M315.025,381.694c.9,7.028-9.087,10.239-12.783,4.565,1.456,.194,2.69,.32,3.873,.263,3.741-.072,6.535-1.911,8.91-4.828h0Z"/>
      </g>
    </g>
  </g>
</svg>