<?xml version="1.0" encoding="UTF-8"?>
<svg id="_Слой_1" data-name="Слой 1" xmlns="http://www.w3.org/2000/svg" viewBox="0 0 822 3909">
  <defs>
    <style>
      .cls-1 {
        fill: #242424;
      }

      .cls-1, .cls-2, .cls-3, .cls-4, .cls-5, .cls-6, .cls-7, .cls-8 {
        fill-rule: evenodd;
      }

      .cls-2 {
        fill: #0f0f0e;
      }

      .cls-3 {
        fill: #fcfcfc;
        opacity: .129;
      }

      .cls-3, .cls-7 {
        isolation: isolate;
      }

      .cls-4 {
        fill: #700606;
      }

      .cls-5 {
        fill: #303030;
      }

      .cls-6 {
        fill: #8f1818;
      }

      .cls-7 {
        opacity: .966;
      }

      .cls-8 {
        fill: #0f0f0f;
      }
    </style>
  </defs>
  <path class="cls-7" d="M0,0H29C293.161,4.313,557.494,7.979,822,11V222c-1.43,687.167-2.93,1374.5-4.5,2062-23.976,14.4-48.143,28.4-72.5,42,22.013-15.43,44.18-30.77,66.5-46,.964-754,2.131-1508,3.5-2262-262.334-1.545-524.667-3.212-787-5-5.195-.321-10.195,.013-15,1-.333,754.334,0,1508.67,1,2263,90.405,47.95,180.572,96.28,270.5,145-.894,347.67-2.228,695.33-4,1043-62.591,71.15-84.925,153.48-67,247,26.607,99.61,90.441,159.77,191.5,180.5,60.097,10.99,116.097,.65,168-31,50.764-36.53,80.597-86.03,89.5-148.5,10.036-95.59-19.964-175.92-90-241-5.595-340.83-11.095-681.67-16.5-1022.5,.333-9.5,.667-19,1-28.5,13.463-7.63,26.797-15.47,40-23.5,.937-.69,1.603-.53,2,.5-5.026,7.35-10.026,14.68-15,22-1,.67-2,1.33-3,2-.667,0-1,.33-1,1-.667,0-1,.33-1,1-3.614,1.81-7.28,3.64-11,5.5,.944,2.72,1.277,5.55,1,8.5v7c4.976,340.34,10.476,680.68,16.5,1021,76.185,74.23,104.852,163.9,86,269-26.932,103.44-93.432,161.44-199.5,174h-43c-65.818-6-121.985-32.33-168.5-79-50.506-58.87-72.173-127.2-65-205,6.578-63.13,30.578-118.46,72-166,1.788-323.66,3.288-647.33,4.5-971-.333-19.67-.667-39.33-1-59-90.229-48.28-180.562-96.28-271-144V0Z"/>
  <path class="cls-5" d="M13,14c4.805-.987,9.805-1.321,15-1,260.163,4.192,520.496,7.859,781,11-1.04,751.002-2.706,1502-5,2253-66.938,39.61-133.938,78.27-201,116,44.491-60.97,88.991-121.97,133.5-183,.167-3.17,.333-6.33,.5-9.5-8.046-686.49-15.38-1372.991-22-2059.5C480.995,98.888,246.995,56.554,13,14Z"/>
  <path class="cls-2" d="M13,14c233.995,42.554,467.995,84.888,702,127,6.62,686.509,13.954,1373.01,22,2059.5-.167,3.17-.333,6.33-.5,9.5-44.509,61.03-89.009,122.03-133.5,183-1.093,1.85-2.426,3.52-4,5-.397-1.03-1.063-1.19-2-.5-13.203,8.03-26.537,15.87-40,23.5-.333,9.5-.667,19-1,28.5,5.405,340.83,10.905,681.67,16.5,1022.5,70.036,65.08,100.036,145.41,90,241-8.903,62.47-38.736,111.97-89.5,148.5-51.903,31.65-107.903,41.99-168,31-101.059-20.73-164.893-80.89-191.5-180.5-17.925-93.52,4.409-175.85,67-247,1.772-347.67,3.106-695.33,4-1043-89.928-48.72-180.095-97.05-270.5-145-1-754.33-1.333-1508.666-1-2263Z"/>
  <path class="cls-1" d="M28,13c262.333,1.788,524.666,3.455,787,5-1.369,754-2.536,1508-3.5,2262-22.32,15.23-44.487,30.57-66.5,46-5.488,3.91-11.155,7.58-17,11-47.983,27.64-95.983,55.31-144,83,4.974-7.32,9.974-14.65,15-22,1.574-1.48,2.907-3.15,4-5,67.062-37.73,134.062-76.39,201-116,2.294-751,3.96-1501.998,5-2253C548.496,20.859,288.163,17.192,28,13Z"/>
  <path class="cls-4" d="M357,194c41.137-2.895,80.804,3.272,119,18.5,53.896,26.251,89.73,68.085,107.5,125.5,16.531,61.088,18.864,122.754,7,185-8.448,41.56-26.448,78.226-54,110-33.567,34.365-74.401,54.198-122.5,59.5-45.704,5.947-89.704-.053-132-18-51.921-25.948-86.421-66.782-103.5-122.5-16.188-56.485-19.854-113.819-11-172,6.665-43.977,23.665-83.311,51-118,37.269-40.717,83.435-63.384,138.5-68Z"/>
  <path class="cls-6" d="M360,259c99.054-5.748,157.887,39.919,176.5,137,6.169,40.099,4.169,79.765-6,119-17.9,62.237-58.734,98.737-122.5,109.5-107.997,9.004-169.497-40.163-184.5-147.5-4.735-39.413-1.402-78.08,10-116,21.276-60.038,63.443-94.038,126.5-102Z"/>
  <path class="cls-8" d="M367,325c45.172-3.116,83.339,11.55,114.5,44,31.324,37.95,37.991,79.95,20,126-20.858,42.209-54.691,67.042-101.5,74.5-47.656,5.909-87.822-8.591-120.5-43.5-33.926-43.165-38.26-89.165-13-138,23.689-36.597,57.189-57.597,100.5-63Z"/>
  <path class="cls-4" d="M571,713c8.217,.028,13.383,4.028,15.5,12,.667,40,.667,80,0,120-2.042,11.253-7.542,20.419-16.5,27.5-35,25.667-70,51.333-105,77-2.667,3-2.667,6,0,9,35,25.667,70,51.33,105,77,8.329,6.66,13.829,15.16,16.5,25.5,.667,40.33,.667,80.67,0,121-3.01,12.21-10.177,15.38-21.5,9.5-63.191-48.69-126.524-97.19-190-145.5-61,45.17-122,90.33-183,135.5-9.521,1.82-15.354-2.02-17.5-11.5-.977-40.71-.644-81.38,1-122,3.423-9.01,8.923-16.51,16.5-22.5,32.667-22.33,65.333-44.667,98-67,2.667-3,2.667-6,0-9-32.667-22.333-65.333-44.667-98-67-9.531-7.229-15.365-16.729-17.5-28.5-.667-39-.667-78,0-117,3.2-10.017,9.7-13.184,19.5-9.5,60.192,45.026,120.526,89.859,181,134.5,65.077-50.183,130.411-99.85,196-149Z"/>
  <path class="cls-6" d="M512,776c6.579-1.462,11.079,.871,13.5,7,.963,31.706,.629,63.373-1,95-2.203,4.566-5.036,8.732-8.5,12.5-25.667,19-51.333,38-77,57-4.193,3.714-3.859,7.047,1,10,27.643,19.409,54.476,39.909,80.5,61.5,1.941,3.55,3.607,7.21,5,11,.667,30.33,.667,60.67,0,91-3.133,7.83-8.299,9.67-15.5,5.5-45.914-35.87-92.08-71.37-138.5-106.5-42.572,31.71-85.072,63.54-127.5,95.5-8.292,7.09-14.459,5.59-18.5-4.5-.976-30.06-.643-60.06,1-90,2.048-5.6,5.214-10.44,9.5-14.5,24.529-17.362,49.195-34.528,74-51.5,1.131-1.574,1.298-3.241,.5-5-24.5-17.167-49-34.333-73.5-51.5-5.474-5.108-9.307-11.275-11.5-18.5-.667-28.667-.667-57.333,0-86,2.134-8.806,7.301-11.306,15.5-7.5,43.5,32.833,87,65.667,130.5,98.5,47.019-36.197,93.852-72.53,140.5-109Z"/>
  <path class="cls-4" d="M357,1213c41.137-2.89,80.804,3.27,119,18.5,53.896,26.25,89.73,68.08,107.5,125.5,16.531,61.09,18.864,122.75,7,185-8.448,41.56-26.448,78.23-54,110-33.567,34.36-74.401,54.2-122.5,59.5-45.704,5.95-89.704-.05-132-18-51.921-25.95-86.421-66.78-103.5-122.5-16.188-56.49-19.854-113.82-11-172,6.665-43.98,23.665-83.31,51-118,37.269-40.72,83.435-63.38,138.5-68Z"/>
  <path class="cls-6" d="M362,1278c105.233-3.27,164.066,47.4,176.5,152,4.053,39.13,.387,77.46-11,115-21.368,58.79-63.202,91.96-125.5,99.5-46.629,5.93-88.295-5.4-125-34-23.023-21.2-38.523-47.03-46.5-77.5-9.327-39.99-10.994-80.33-5-121,5.596-35.19,20.263-65.85,44-92,26.182-24.17,57.016-38.17,92.5-42Z"/>
  <path class="cls-8" d="M371,1339c54.763-4.36,97.93,15.64,129.5,60,19.439,33.41,22.772,68.41,10,105-16.978,39.3-46.144,64.8-87.5,76.5-52.699,12.01-97.866-1.16-135.5-39.5-27.068-32.61-35.734-69.61-26-111,13.982-41.32,41.482-69.48,82.5-84.5,9.051-2.53,18.051-4.7,27-6.5Z"/>
  <path class="cls-4" d="M571,1732c8.217,.03,13.383,4.03,15.5,12,.667,40,.667,80,0,120-2.042,11.25-7.542,20.42-16.5,27.5-35,25.67-70,51.33-105,77-2.667,3-2.667,6,0,9,35,25.67,70,51.33,105,77,8.329,6.66,13.829,15.16,16.5,25.5,.667,40.33,.667,80.67,0,121-3.01,12.21-10.177,15.38-21.5,9.5-63.191-48.69-126.524-97.19-190-145.5-61,45.17-122,90.33-183,135.5-9.521,1.82-15.354-2.02-17.5-11.5-.977-40.71-.644-81.38,1-122,3.423-9.01,8.923-16.51,16.5-22.5,32.667-22.33,65.333-44.67,98-67,2.667-3,2.667-6,0-9-32.667-22.33-65.333-44.67-98-67-9.531-7.23-15.365-16.73-17.5-28.5-.667-39-.667-78,0-117,3.2-10.02,9.7-13.18,19.5-9.5,60.192,45.03,120.526,89.86,181,134.5,65.077-50.18,130.411-99.85,196-149Z"/>
  <path class="cls-6" d="M524,1786c6.761-.41,11.261,2.59,13.5,9,.667,30.67,.667,61.33,0,92-.906,4.63-2.573,8.96-5,13-3.167,3.17-6.333,6.33-9.5,9.5-25.333,18.67-50.667,37.33-76,56-3.478,2.71-3.811,5.71-1,9,25.667,19,51.333,38,77,57,7.577,5.26,12.411,12.42,14.5,21.5,.667,31,.667,62,0,93-3.168,8.51-8.668,10.68-16.5,6.5-47.973-37.65-96.306-74.82-145-111.5-45.192,34.36-90.525,68.53-136,102.5-7.025,3.31-12.191,1.48-15.5-5.5-.971-32.38-.637-64.71,1-97,2.726-5.39,6.226-10.23,10.5-14.5,25.587-17.71,51.087-35.54,76.5-53.5,.667-1.67,.667-3.33,0-5-25.413-17.96-50.913-35.79-76.5-53.5-5.75-5.33-9.584-11.83-11.5-19.5-.985-31.42-.651-62.75,1-94,3.81-5.17,8.643-6.34,14.5-3.5,45.475,33.97,90.808,68.14,136,102.5,49.661-37.67,98.995-75.67,148-114Z"/>
  <path class="cls-3" d="M728,2337c-52.79,36.23-105.79,72.23-159,108v-7c3.714-4.38,7.047-9.05,10-14,.667,0,1-.33,1-1,.667,0,1-.33,1-1,1-.67,2-1.33,3-2,48.017-27.69,96.017-55.36,144-83Z"/>
  <path class="cls-5" d="M434,3584c43.677,.23,72.511,20.9,86.5,62,7.188,38.13-4.979,68.29-36.5,90.5-40.612,20.88-76.445,14.71-107.5-18.5-19.057-26.26-22.724-54.59-11-85,14.151-28.49,36.984-44.82,68.5-49Z"/>
</svg>