<?xml version="1.0" encoding="UTF-8"?>
<svg id="_Слой_30" data-name="Слой 30" xmlns="http://www.w3.org/2000/svg" viewBox="0 0 4324.365 1591.987">
  <defs>
    <style>
      .cls-1, .cls-2, .cls-3, .cls-4, .cls-5 {
        fill-rule: evenodd;
      }

      .cls-1, .cls-3, .cls-4 {
        fill: #fff;
      }

      .cls-6 {
        opacity: .08;
      }

      .cls-2 {
        fill: none;
        stroke: #000;
        stroke-miterlimit: 10;
        stroke-width: 3px;
      }

      .cls-3 {
        opacity: .45;
      }

      .cls-4 {
        opacity: .14;
      }

      .cls-5 {
        fill: #0f0f0f;
      }
    </style>
  </defs>
  <g id="_Слой_24" data-name="Слой 24">
    <path class="cls-5" d="M3743.617,1463.847c-3.578,2.41-11.617,7.116-22.898,7.896-13.311,.921-23.174-4.174-26.846-6.317-.526-80.276-1.053-160.551-1.579-240.827,5.001-3.158,10.001-6.317,15.002-9.475,.526-334.526,1.053-669.051,1.579-1003.577-14.476-36.585-28.952-73.169-43.428-109.754,3.422-33.426,6.843-66.852,10.265-100.279,25.794,.263,51.587,.526,77.381,.79,4.474,33.426,8.949,66.852,13.423,100.279-12.897,37.111-25.793,74.222-38.69,111.333-.263,333.999-.527,667.999-.79,1001.998,5.264,3.422,10.528,6.843,15.792,10.265,.263,79.223,.527,158.446,.79,237.669Z"/>
    <g id="_Слой_26" data-name="Слой 26">
      <path class="cls-4" d="M3753.993,96.125c-11.031,36.373-22.062,72.745-33.093,109.118v401.59c2.045,203.027,4.09,406.053,6.135,609.08,.263-333.999,.526-667.999,.79-1001.998,12.897-37.111,25.793-74.222,38.69-111.333-4.474-33.426-8.948-66.852-13.423-100.279-25.793-.263-51.587-.526-77.381-.79,23.411,3.512,46.822,7.025,70.232,10.537,2.683,28.025,5.366,56.05,8.05,84.074Z"/>
      <path class="cls-3" d="M3686.018,29.939c-1.63,.031-2.823,23.283-3.578,69.764,6.857,18.484,13.714,36.969,20.571,55.453-3.578-18.186-7.155-36.373-10.733-54.559-2.531-47.135-4.618-70.689-6.261-70.658Z"/>
      <g class="cls-6">
        <path class="cls-1" d="M3691.981,1235.306c2.022,10.126,9.077,18.411,18.484,21.466,11.533,3.745,24.762-.965,32.05-11.776-.684,1.222-10.899,18.808-29.963,19.528-9.819,.371-17.184-3.914-20.25-5.965-.107-7.751-.214-15.501-.322-23.252Z"/>
        <path class="cls-1" d="M3692.204,1263.506c2.022,10.126,9.077,18.411,18.484,21.466,11.533,3.745,24.762-.965,32.05-11.776-.684,1.222-10.899,18.808-29.963,19.528-9.819,.371-17.184-3.914-20.25-5.965-.107-7.751-.214-15.501-.322-23.252Z"/>
        <path class="cls-1" d="M3692.428,1291.707c2.022,10.126,9.077,18.411,18.484,21.466,11.533,3.745,24.762-.965,32.05-11.776-.684,1.222-10.899,18.808-29.963,19.528-9.819,.371-17.184-3.914-20.25-5.965-.107-7.751-.214-15.501-.322-23.252Z"/>
        <path class="cls-1" d="M3692.652,1319.908c2.022,10.126,9.077,18.411,18.484,21.466,11.533,3.745,24.762-.965,32.05-11.776-.684,1.222-10.899,18.808-29.963,19.528-9.819,.371-17.184-3.914-20.25-5.965-.107-7.751-.214-15.501-.322-23.252Z"/>
        <path class="cls-1" d="M3692.875,1348.108c2.022,10.126,9.077,18.411,18.484,21.466,11.533,3.745,24.762-.965,32.05-11.776-.684,1.222-10.899,18.808-29.963,19.528-9.819,.371-17.184-3.914-20.25-5.965-.107-7.751-.214-15.501-.322-23.252Z"/>
        <path class="cls-1" d="M3693.099,1376.309c2.022,10.126,9.077,18.411,18.484,21.466,11.533,3.745,24.762-.965,32.05-11.776-.684,1.222-10.899,18.808-29.963,19.528-9.819,.371-17.184-3.914-20.25-5.965-.107-7.751-.214-15.501-.322-23.252Z"/>
        <path class="cls-1" d="M3693.322,1404.51c2.022,10.126,9.077,18.411,18.484,21.466,11.533,3.745,24.762-.965,32.05-11.776-.684,1.222-10.899,18.808-29.963,19.528-9.819,.371-17.184-3.914-20.25-5.965-.107-7.751-.214-15.501-.322-23.252Z"/>
        <path class="cls-1" d="M3693.546,1432.71c2.022,10.126,9.077,18.411,18.484,21.466,11.533,3.745,24.762-.965,32.05-11.776-.684,1.222-10.899,18.808-29.963,19.528-9.819,.371-17.184-3.914-20.25-5.965-.107-7.751-.214-15.501-.322-23.252Z"/>
      </g>
    </g>
    <path class="cls-2" d="M3743.617,1463.847c-3.578,2.41-11.617,7.116-22.898,7.896-13.311,.921-23.174-4.174-26.846-6.317-.526-80.276-1.053-160.551-1.579-240.827,5.001-3.158,10.001-6.317,15.002-9.475,.526-334.526,1.053-669.051,1.579-1003.577-14.476-36.585-28.952-73.169-43.428-109.754,3.422-33.426,6.843-66.852,10.265-100.279,25.794,.263,51.587,.526,77.381,.79,4.474,33.426,8.949,66.852,13.423,100.279-12.897,37.111-25.793,74.222-38.69,111.333-.263,333.999-.527,667.999-.79,1001.998,5.264,3.422,10.528,6.843,15.792,10.265,.263,79.223,.527,158.446,.79,237.669Z"/>
  </g>
</svg>