<?xml version="1.0" encoding="UTF-8"?>
<svg id="_Слой_30" data-name=" Слой 30" xmlns="http://www.w3.org/2000/svg" viewBox="0 0 197.089 938.038">
  <defs>
    <style>
      .cls-1, .cls-2 {
        fill: #0f0f0f;
      }

      .cls-3, .cls-4, .cls-5 {
        isolation: isolate;
      }

      .cls-3, .cls-5 {
        fill: #fff;
        opacity: .14;
      }

      .cls-3, .cls-2 {
        fill-rule: evenodd;
      }

      .cls-4 {
        fill: #ad2b2b;
        opacity: .52;
      }

      .cls-6 {
        fill: none;
        stroke: #000;
        stroke-miterlimit: 10;
        stroke-width: 3px;
      }
    </style>
  </defs>
  <g id="_Слой_27" data-name=" Слой 27">
    <path class="cls-2" d="M143.711,923.657c-20.976,18.802-56.243,16.263-76.919-2.683-23.612-21.637-25.817-62.494-.895-90.335,.298-82.882,.596-165.764,.895-248.646-21.764-11.627-43.528-23.255-65.292-34.882V1.521c64.696,.894,129.391,1.789,194.087,2.683-.298,180.969-.596,361.938-.894,542.907-19.975,11.627-39.95,23.255-59.926,34.882,1.328,83.462,2.656,166.924,3.985,250.386,29.351,26.889,28.366,70.298,4.959,91.279h0Z"/>
    <path class="cls-6" d="M143.711,923.657c-20.976,18.802-56.243,16.263-76.919-2.683-23.612-21.637-25.817-62.494-.895-90.335,.298-82.882,.596-165.764,.895-248.646-21.764-11.627-43.528-23.255-65.292-34.882V1.521c64.696,.894,129.391,1.789,194.087,2.683-.298,180.969-.596,361.938-.894,542.907-19.975,11.627-39.95,23.255-59.926,34.882,1.328,83.462,2.656,166.924,3.985,250.386,29.351,26.889,28.366,70.298,4.959,91.279h0Z"/>
    <path class="cls-3" d="M1.5,2.89c56.646,10.276,113.292,20.553,169.938,30.829,1.789,165.466,3.578,330.932,5.366,496.398-13.982,19.188-27.965,38.376-41.947,57.565,19.945-13.524,39.89-27.047,59.835-40.571,.298-180.969,.596-361.938,.894-542.907C130.891,3.766,66.195,3.328,1.5,2.89h0Z"/>
    <circle class="cls-5" cx="105.699" cy="879.831" r="19.677"/>
    <g>
      <path class="cls-4" d="M106.394,473.359l18.821,14.014c1.614,1.121,3.765,3.251,3.765,6.726v19.619c0,2.803-2.151,4.036-3.765,2.803l-34.954-26.906-32.803,24.663c-1.613,1.233-3.764,0-3.764-2.802v-19.059c0-3.364,2.151-5.605,3.764-6.726l17.746-12.332v-1.121l-17.746-12.332c-1.613-1.121-3.764-3.364-3.764-6.726v-19.059c0-2.803,2.151-4.036,3.764-2.803l32.803,24.664,34.954-26.906c1.614-1.233,3.765,0,3.765,2.803v19.619c0,3.475-2.151,5.605-3.765,6.727l-18.821,14.013v1.121Z"/>
      <path class="cls-4" d="M91.337,306.64c23.197,0,38.146,15.583,38.146,44.062s-14.949,44.062-38.146,44.062-38.146-15.583-38.146-44.062,14.95-44.062,38.146-44.062Zm0,24.717c-13.918,0-21.135,7.523-21.135,19.344s7.217,19.344,21.135,19.344,21.135-7.523,21.135-19.344-7.217-19.344-21.135-19.344Z"/>
      <path class="cls-4" d="M104.525,228.929l18.032,13.426c1.546,1.074,3.607,3.115,3.607,6.445v18.796c0,2.686-2.06,3.867-3.607,2.686l-33.488-25.778-31.427,23.63c-1.546,1.181-3.606,0-3.606-2.685v-18.259c0-3.222,2.06-5.37,3.606-6.444l17.002-11.815v-1.074l-17.002-11.815c-1.546-1.074-3.606-3.222-3.606-6.444v-18.259c0-2.685,2.06-3.867,3.606-2.685l31.427,23.63,33.488-25.778c1.546-1.181,3.607,0,3.607,2.686v18.796c0,3.33-2.06,5.37-3.607,6.445l-18.032,13.426v1.07Z"/>
      <path class="cls-4" d="M91.338,62.021c23.197,0,38.146,15.583,38.146,44.062s-14.949,44.062-38.146,44.062-38.146-15.583-38.146-44.062,14.95-44.062,38.146-44.062Zm0,24.717c-13.918,0-21.135,7.523-21.135,19.344s7.217,19.344,21.135,19.344,21.135-7.523,21.135-19.344-7.217-19.344-21.135-19.344Z"/>
    </g>
    <ellipse class="cls-1" cx="91.337" cy="107.359" rx="31.304" ry="29.516"/>
    <ellipse class="cls-1" cx="93.028" cy="350.701" rx="31.304" ry="29.516"/>
  </g>
</svg>