<?xml version="1.0" encoding="UTF-8"?>
<svg id="_Слой_30" data-name="Слой 30" xmlns="http://www.w3.org/2000/svg" viewBox="0 0 4324.365 2416.518">
  <defs>
    <style>
      .cls-1, .cls-2, .cls-3, .cls-4, .cls-5, .cls-6 {
        fill-rule: evenodd;
      }

      .cls-1, .cls-4, .cls-5 {
        fill: #fff;
      }

      .cls-2 {
        stroke-width: 8px;
      }

      .cls-2, .cls-3 {
        fill: none;
        stroke: #000;
        stroke-miterlimit: 10;
      }

      .cls-7 {
        opacity: .08;
      }

      .cls-3 {
        stroke-width: 3px;
      }

      .cls-4 {
        opacity: .45;
      }

      .cls-5 {
        opacity: .14;
      }

      .cls-6 {
        fill: #0f0f0f;
      }
    </style>
  </defs>
  <g id="_Слой_31" data-name="Слой 31">
    <path class="cls-2" d="M3781.272,1608.227c-3.552,14.897,44.174,39.689,78.708,49.193,82.683,22.754,168.62-20.424,166.36-39.354-3.611-30.257-237.609-41.125-245.068-9.839Z"/>
    <path class="cls-2" d="M3796.478,1603.755c.065,12.919,38.899,23.014,62.608,25.044,72.868,6.238,135.973-52.314,129.689-67.975-9.511-23.706-192.44,14.86-192.298,42.932Z"/>
    <path class="cls-6" d="M3803.092,1605.335c-11.238,7.114-22.898,7.896-22.898,7.896,0,0-13.313,.892-26.846-6.317-19.503-10.389-18.738-109.949-1.579-240.827,5-3.158,10.001-6.317,15.002-9.475,.526-334.526,1.053-669.051,1.58-1003.577,.292-36.359,.846-73.08,1.678-110.156,1.833-81.619,4.938-161.515,9.149-239.618,2.708,117.381,5.416,234.762,8.123,352.143-.263,333.999-.526,667.999-.79,1001.998,5.264,3.422,10.528,6.843,15.792,10.265,17.598,128.946,18.865,226.225,.79,237.669Z"/>
    <path class="cls-5" d="M3779.483,335.929c.297,137.464,.595,274.929,.892,412.393,2.045,203.027,4.09,406.053,6.135,609.08,.263-333.603,.526-667.206,.789-1000.809-.701-57.571-1.403-115.141-2.104-172.712-1.904,50.682-3.808,101.365-5.712,152.047Z"/>
    <path class="cls-4" d="M3776.419,74.53c-.745,.031-1.289,23.283-1.634,69.764,3.133,18.484,6.265,36.969,9.398,55.453-1.634-18.186-3.269-36.373-4.903-54.559-1.156-47.135-2.11-70.689-2.86-70.658Z"/>
    <g class="cls-7">
      <path class="cls-1" d="M3751.456,1376.794c2.022,10.126,9.077,18.411,18.484,21.466,11.533,3.745,24.762-.965,32.05-11.776-.684,1.222-10.899,18.808-29.963,19.528-9.819,.371-17.184-3.914-20.25-5.965-.107-7.751-.214-15.501-.322-23.252Z"/>
      <path class="cls-1" d="M3751.68,1404.995c2.022,10.126,9.077,18.411,18.484,21.466,11.533,3.745,24.762-.965,32.05-11.776-.684,1.222-10.899,18.808-29.963,19.528-9.819,.371-17.184-3.914-20.25-5.965-.107-7.751-.214-15.501-.322-23.252Z"/>
      <path class="cls-1" d="M3751.904,1433.196c2.022,10.126,9.077,18.411,18.484,21.466,11.533,3.745,24.762-.965,32.05-11.776-.684,1.222-10.899,18.808-29.963,19.528-9.819,.371-17.184-3.914-20.25-5.965-.107-7.751-.214-15.501-.322-23.252Z"/>
      <path class="cls-1" d="M3752.127,1461.396c2.022,10.126,9.077,18.411,18.484,21.466,11.533,3.745,24.762-.965,32.05-11.776-.684,1.222-10.899,18.808-29.963,19.528-9.819,.371-17.184-3.914-20.25-5.965-.107-7.751-.214-15.501-.322-23.252Z"/>
      <path class="cls-1" d="M3752.351,1489.597c2.022,10.126,9.077,18.411,18.484,21.466,11.533,3.745,24.762-.965,32.05-11.776-.684,1.222-10.899,18.808-29.963,19.528-9.819,.371-17.184-3.914-20.25-5.965-.107-7.751-.214-15.501-.322-23.252Z"/>
      <path class="cls-1" d="M3752.574,1517.798c2.022,10.126,9.077,18.411,18.484,21.466,11.533,3.745,24.762-.965,32.05-11.776-.684,1.222-10.899,18.808-29.963,19.528-9.819,.371-17.184-3.914-20.25-5.965-.107-7.751-.214-15.501-.322-23.252Z"/>
      <path class="cls-1" d="M3752.798,1545.998c2.022,10.126,9.077,18.411,18.484,21.466,11.533,3.745,24.762-.965,32.05-11.776-.684,1.222-10.899,18.808-29.963,19.528-9.819,.371-17.184-3.914-20.25-5.965-.107-7.751-.214-15.501-.322-23.252Z"/>
      <path class="cls-1" d="M3753.022,1574.199c2.022,10.126,9.077,18.411,18.484,21.466,11.533,3.745,24.762-.965,32.05-11.776-.684,1.222-10.899,18.808-29.963,19.528-9.819,.371-17.184-3.914-20.25-5.965-.107-7.751-.214-15.501-.322-23.252Z"/>
    </g>
    <path class="cls-3" d="M3803.092,1605.335c-11.238,7.114-22.898,7.896-22.898,7.896,0,0-13.313,.892-26.846-6.317-19.503-10.389-18.738-109.949-1.579-240.827,5-3.158,10.001-6.317,15.002-9.475,.526-334.526,1.053-669.051,1.58-1003.577,.496-58.969,1.648-119.096,3.531-180.336,1.802-58.614,4.21-116.166,7.155-172.621,2.464,55.362,4.422,111.72,5.814,169.043,1.536,63.244,2.327,125.353,2.45,186.282-.263,333.999-.526,667.999-.79,1001.998,5.264,3.422,10.528,6.843,15.792,10.265,17.598,128.946,18.865,226.225,.79,237.669Z"/>
  </g>
</svg>