<?xml version="1.0" encoding="UTF-8"?>
<svg id="_Слой_32" data-name="Слой 32" xmlns="http://www.w3.org/2000/svg" viewBox="0 0 1805.452 1668">
  <defs>
    <style>
      .cls-1 {
        fill: #ffe0ed;
      }

      .cls-2 {
        fill: #ff73ab;
        stroke: #000;
        stroke-miterlimit: 10;
        stroke-width: 6px;
      }

      .cls-3 {
        fill: #ffabcd;
      }
    </style>
  </defs>
  <g>
    <path class="cls-2" d="M229.245,1084.561c15.822,11.509,23.193,25.573,27,36.233,4.442,12.437,5.856,25.343,9,25.205,3.144-.138,4.033-13.147,8-25.205,3.868-11.757,11.7-25.759,29-36.233,5.114-130.842,8.114-261.696,9-392.561,1.258-185.759-1.742-371.549-9-557.37-2.665-26.489-8.136-45.56-12-50.411-2.588-3.249-4.45-4.782-4.45-4.782-4.773-3.951-8.456-3.734-11.583-10.851-8.847-20.137,6.841-53.278-.967-63.134-1.816-2.292-4.896-3.317-7-1.575-7.932,6.565,5.077,46.575-6,64.589-3.93,6.391-7.792,4.971-12.795,7.748,0,0-1.793,1.011-4.205,3.28-4.128,3.881-10.187,25.247-14,55.137,7.582,177.476,10.916,354.933,10,532.37-.718,139.197-4.051,278.384-10,417.561Z"/>
    <path class="cls-3" d="M261.106,109.434c3.372-1,6.391,.721,7.93,1.63,38.461,22.711,17.111,203.603,9.251,316.196-26.95,386.07,57.348,647.629-6.608,676.399-2.964,1.333-7.693,3.461-13.216,1.63-49.366-16.363,14.129-290.489-3.965-686.178-5.733-125.371-21.414-301.367,6.608-309.676Z"/>
    <path class="cls-1" d="M270.245,129.904c9.235,5.415,13.525,33.935,10,122.877-.793,20.007-5.947,150.024-13,149.658-3.056-.159-2.093-24.573-9-151.233-3.527-64.678-6.796-113.633,5-121.301,3.242-2.108,6.44-.328,7,0Z"/>
    <path class="cls-1" d="M265.245,892c1.498-.076,1.768,10.292,11.465,116.431,3.459,37.864,6.896,74.644-5,79-.361,.132-2.61,.919-5,0-12.12-4.66-6.852-43.741-4-81,5.671-74.081-.423-114.28,2.535-114.431Z"/>
  </g>
  <g>
    <path class="cls-2" d="M254.988,1382.594c18.697,4.101,44.031-13.931,45.076-43.437,.733-16.06,1.851-40.781,3.182-71.157,1.995-45.568,2.848-68.77-4.265-89.259-6.035-17.385-22.014-51.03-40-49.869-17.645,1.139-28.403,35.209-32.03,46.696-6.851,21.699-6.702,39.356-3.705,90.432,1.242,21.168,2.819,45.448,4.839,72.342-1.57,22.364,11.677,40.912,26.903,44.251Z"/>
    <path class="cls-3" d="M286.115,1339.74c.075,.99,1.302,21.287-13,30-4.574,2.786-13.635,5.988-19,2-7.372-5.479-3.446-21.371-.87-34.74,0,0,7.386-38.32,6-77-.742-20.728-4.91-39.1-9-87-.544-6.371-1.456-18.916,5.87-24.26,4.574-3.337,11.22-2.973,16-1,12.367,5.105,13.937,21.24,14,22,2.9,24.534,4.876,52.02,5,82,.134,32.366-1.914,61.888-5,88Z"/>
    <path class="cls-1" d="M281.115,1334.74c-2.067,8.991-6.749,28.654-14.87,29.26-2.751,.206-5.555-1.802-7-4-4.44-6.755,2.041-18.223,4-22,4.85-9.35,5.567-27.9,7-65,1.664-43.076,2.496-64.614-4-82-1.916-5.127-7.394-18.42-3-22,2.219-1.808,6.351-.646,8.87,.74,8.338,4.587,9.44,17.372,10,25,1.851,25.204,2.776,37.806,2.13,58.26-1.336,42.318,3.547,52.69-3.13,81.74Z"/>
  </g>
  <g>
    <path class="cls-2" d="M517.1,1129.127c2.329-10.594-1.04-20.203-4.854-26.127-7.616-11.83-21.348-15.714-38.582-18.949-43.766-8.214-79.821-6.551-89.418-6.051-18.278,.952-42.505,2.894-70.999,7.134-30.433-2.326-51.668,21.281-49.869,40,1.574,16.38,21.194,33.269,46.696,32.03,5.635,.035,14.017,.036,24.172-.164,33.349-.659,38.903-2.567,59-3,24.617-.53,64.007,1.304,79.603,2.031,7.99,.372,20.72,1.019,31.397-7.031,9.968-7.515,12.524-18.371,12.854-19.873Z"/>
    <path class="cls-3" d="M474.245,1098c.99-.075,21.287-1.302,30,13,3.454,5.67,5.988,15.258,2,19-5.27,4.945-18.7-3.055-31-8-12.45-5.005-34.3-5.003-78-5-52.503,.004-78.754,.006-91,6-5.66,2.771-17.596,9.423-23,5-3.947-3.231-2.978-11.209-1-16,5.105-12.367,21.24-13.937,22-14,24.534-2.9,52.02-4.876,82-5,32.366-.134,61.888,1.914,88,5Z"/>
    <path class="cls-1" d="M469.245,1103c1.999,.606,18.463,5.653,18,8-.596,3.017-28.427-2.179-75-4-37.24-1.456-55.86-2.184-72,1-19.358,3.818-35.575,5.693-36,4-.397-1.582,13.014-6.741,25-10,15.607-4.244,26.315-4.592,60-5,44.019-.533,59.259-.293,80,6Z"/>
  </g>
  <g>
    <path class="cls-2" d="M261.1,1130.059c4.101-18.697-13.931-44.031-43.437-45.076-31.314-5.423-57.865-6.842-77.418-6.983-35.948-.259-57.643,3.454-82.999,8.066-35.763,6.505-45.041,12.2-50.001,20.934-6.26,11.022-5.6,26.811,2,37,7.487,10.037,19.51,11.766,44.828,14.096,46.556,4.285,69.834,6.428,88.172,5.904,18.956-.542,44.484-2.22,74.603-7.038,22.364,1.57,40.912-11.677,44.251-26.903Z"/>
    <path class="cls-3" d="M218.245,1098.932c.99-.075,21.287-1.302,30,13,3.454,5.67,5.988,15.258,2,19-5.27,4.945-18.7-3.055-31-8-12.45-5.005-34.3-5.003-78-5-52.503,.004-78.754,.006-91,6-5.66,2.771-17.596,9.423-23,5-3.947-3.231-2.978-11.209-1-16,5.105-12.367,21.24-13.937,22-14,24.534-2.9,52.02-4.876,82-5,32.366-.134,61.888,1.914,88,5Z"/>
    <path class="cls-1" d="M213.245,1103.932c1.999,.606,18.463,5.653,18,8-.596,3.017-28.427-2.179-75-4-37.24-1.456-55.86-2.184-72,1-19.358,3.818-35.575,5.693-36,4-.397-1.582,13.014-6.741,25-10,15.607-4.244,26.315-4.592,60-5,44.019-.533,59.259-.293,80,6Z"/>
  </g>
</svg>