<?xml version="1.0" encoding="UTF-8"?>
<svg id="_Слой_12" data-name="Слой 12" xmlns="http://www.w3.org/2000/svg" viewBox="0 0 1078.846 1068.725">
  <defs>
    <style>
      .cls-1 {
        fill: #fff;
      }

      .cls-1, .cls-2, .cls-3, .cls-4, .cls-5 {
        fill-rule: evenodd;
      }

      .cls-2 {
        fill: #f6f9fb;
      }

      .cls-3 {
        fill: #090909;
      }

      .cls-4 {
        fill: #09090a;
      }

      .cls-5 {
        fill: #f3f6f9;
      }

      .cls-6 {
        fill: #cc3f3f;
      }
    </style>
  </defs>
  <g id="_голова" data-name="голова">
    <g>
      <g id="_глаза" data-name=" глаза">
        <g id="_Слой_4" data-name=" Слой 4">
          <g id="_Слой_9" data-name=" Слой 9">
            <g>
              <path class="cls-5" d="M867.151,611.48c38.761-35.647-29.055-73.971-53.586-35.662-23.624,33.246,28.933,59.818,53.586,35.662Z"/>
              <g>
                <path class="cls-6" d="M826.358,579.556c.433-1.183,1.017-2.512,.513-3.434-.394-.622-1.346-.406-2.164-.632-.477-.105-.901-.288-1.274-.52-1.122-.704-1.492-1.837-1.906-2.941-.404-1.109-.697-2.342-.137-3.742,.7-1.816,2.62-3.47,4.671-4.353-1.701,1.173-3.214,2.715-3.644,4.316-.437,1.512,.291,2.798,.821,4.172,.569,1.469,1.531,2.112,3.396,2.389,2.136,.531,.93,3.171-.277,4.746h0Z"/>
                <path class="cls-6" d="M822.327,572.106c.015-.988,.125-2.442,1.252-3.367,.386-.323,1.099-.44,1.43-.29,.972,.374,1.325,1.313,2.321,1.544,.789,.187,1.795-.269,2.671-.773,.502-.284,.998-.613,1.518-.943-1.608,2.246-4.455,3.73-6.242,2.121-.444-.36-.686-.768-1.118-1.009,.001-.007-.003-.017-.046,.002-.257,.15-.436,.424-.621,.684-.444,.663-.765,1.339-1.164,2.031h0Z"/>
                <path class="cls-6" d="M822.238,571.606c1.068,1.171,.61,3.085-1.258,4.483-.814,.642-1.609,1.039-2.4,1.603-1.349,.9-.648,1.76-.071,2.433,.288,.325,.623,.63,.948,.957-.532-.105-1.022-.27-1.475-.49-.988-.439-1.917-1.526-.946-2.79,.413-.572,1.085-1.025,1.712-1.42,2.593-1.487,3.631-2.513,3.49-4.776h0Z"/>
              </g>
              <g>
                <path class="cls-6" d="M837.543,611.287c-1.075,.029-2.878,.031-3.07,1.32-.034,.636-.159,1.453-.502,2.048-1.808,3.14-6.4,3.809-9.279,1.835,1.279,.433,2.581,.578,3.865,.445,1.83-.179,3.703-1.116,4.705-2.678,.502-.699,.357-1.582,.787-2.341,.776-1.119,2.371-.919,3.493-.629h0Z"/>
                <path class="cls-6" d="M831.748,616.281c-.353,.139-.717,.23-1.094,.298-.474,.061-1.104,.145-1.57-.205-.384-.279-.338-.877-.103-1.228,.217-.378,.449-.64,.636-.927,1.015-1.289-.064-2.335-1.058-3.256,1.133,.311,2.416,1.21,2.254,2.556-.091,.914-.822,1.525-1.228,2.207-.231,.414,1.842,.491,2.163,.555h0Z"/>
                <path class="cls-6" d="M831.356,616.489c.865-1.06,2.46-1.306,3.544-.411,.582,.422,.946,.968,1.499,1.358,.172,.1,.351,.164,.552,.126,.867-.259,1.365-1.203,1.926-1.889-.243,1.094-.798,2.6-2.127,2.685-.391,.01-.77-.165-1.067-.398-1.556-1.432-2.038-2.458-4.326-1.471h0Z"/>
              </g>
              <g>
                <path class="cls-6" d="M861.423,587.706c-.893-1.896-1.487-5.185,1.018-6.153,2.136-.603,3.378-1.567,4.415-3.556,.969-1.86,2.131-3.631,2.071-5.546-.028-2.032-1.267-3.845-2.818-5.155,2.018,.886,3.676,2.792,3.942,5.07,.226,1.754-.44,3.399-1.196,4.898-.765,1.493-1.49,3.019-2.924,4.082-.477,.352-.996,.646-1.552,.844-.965,.4-1.957,.242-2.564,1.104-.814,1.268-.539,2.924-.392,4.411h0Z"/>
                <path class="cls-6" d="M867.95,577.469c-.247-.851-.413-1.69-.718-2.497-.131-.315-.252-.65-.494-.812-.042-.02-.05-.006-.051,.003-.545,.371-.926,.934-1.516,1.461-2.402,2.33-5.166,.756-6.298-1.956,.482,.364,.937,.728,1.412,1.033,.826,.543,1.811,1.007,2.733,.661,1.164-.43,1.815-1.7,2.993-2.314,.406-.238,1.162-.179,1.497,.192,.987,1.061,.701,2.941,.443,4.228h0Z"/>
                <path class="cls-6" d="M868.188,576.806c-.884,3.403,.355,4.253,2.917,6.083,.436,.349,.872,.791,1.097,1.321,.72,1.522-.609,3.059-1.822,3.76-.562,.347-1.149,.625-1.765,.831,.45-.469,.904-.91,1.313-1.371,.825-.953,1.838-2.163,.6-3.163-.716-.634-1.483-1.048-2.202-1.779-1.671-1.577-1.644-4.021-.138-5.682h0Z"/>
              </g>
            </g>
            <g>
              <path class="cls-2" d="M879.006,662.403c2.222-1.051,16.247-7.687,17.621-22.394,.891-9.536-3.767-20.01-12.435-24.512-15.541-8.071-32.812,8.851-34.096,10.145-.652,.657-16.216,16.727-10.222,29.488,5.504,11.718,25.856,13.555,39.132,7.273h0Z"/>
              <g>
                <path class="cls-6" d="M877.351,646.018c-.32,1.276-.912,2.872,.04,3.947,.447,.395,1.026,.447,1.6,.8,.415,.228,.789,.526,1.122,.866,1.001,1.025,1.381,2.325,1.797,3.605,.406,1.282,.731,2.672,.321,4.031-.495,1.772-2.053,3.071-3.763,3.516,1.396-.839,2.606-2.119,2.893-3.724,.285-1.512-.405-3.061-.938-4.659-.542-1.674-1.464-2.655-3.045-3.382-1.864-1.084-.974-3.61-.026-5h0Z"/>
                <path class="cls-6" d="M881.22,654.958c.126,1.222-.216,4.272-2.094,3.254-.533-.371-.892-1.018-1.241-1.431-.849-1.183-1.89-1.175-3.09-.606-.418,.178-.82,.415-1.249,.64,1.241-1.998,3.622-2.898,5.236-.748,.331,.399,.677,1.046,1.018,1.347,.013,.056,.14-.036,.192-.092,.575-.658,.835-1.569,1.229-2.364h0Z"/>
                <path class="cls-6" d="M881.324,655.514c-1.418-2.411-.095-4.267,2.203-5.274,.442-.244,.917-.433,1.137-.893,.349-1.055-.919-2.398-1.477-3.282,1.254,.7,2.882,1.954,2.478,3.612-.076,.248-.2,.492-.373,.687-.326,.394-.811,.672-1.238,.895-2.19,.966-2.975,1.867-2.73,4.256h0Z"/>
              </g>
              <g>
                <path class="cls-6" d="M874.462,623.93c1.058-.193,2.839-.471,2.832-1.773-.063-.634-.065-1.46,.183-2.101,1.307-3.379,5.743-4.742,8.89-3.231-1.33-.232-2.639-.177-3.888,.151-1.781,.457-3.489,1.668-4.241,3.365-.389,.767-.111,1.618-.42,2.434-.596,1.224-2.203,1.27-3.356,1.156h0Z"/>
                <path class="cls-6" d="M879.427,618.109c.328-.191,.674-.337,1.036-.461,.459-.133,1.069-.312,1.583-.037,.422,.217,.468,.815,.289,1.197-.157,.407-.346,.702-.487,1.013-.807,1.429,.42,2.298,1.543,3.057-1.167-.135-2.573-.827-2.618-2.182-.05-.917,.579-1.632,.876-2.368,.165-.444-1.896-.204-2.222-.218h0Z"/>
                <path class="cls-6" d="M879.783,617.843c-.692,1.18-2.231,1.667-3.439,.947-.64-.329-1.082-.812-1.689-1.113-.185-.073-.372-.108-.564-.04-.817,.389-1.165,1.398-1.615,2.161,.073-1.118,.392-2.691,1.692-2.978,.384-.07,.786,.045,1.115,.23,1.757,1.178,2.39,2.118,4.5,.793h0Z"/>
              </g>
              <g>
                <path class="cls-6" d="M850.284,644.167c.097,1.441,.023,3.439-1.502,4.168-.616,.276-1.375,.133-1.966,.216-.385,.041-.762,.144-1.118,.289-1.452,.608-2.587,2.01-3.659,3.128-1.825,1.931-1.586,4.573-.106,6.647-1.272-1.178-2.052-2.995-1.705-4.76,.244-1.356,1.133-2.433,2.05-3.375,.915-.946,1.824-1.927,3.129-2.399,.434-.153,.885-.252,1.343-.279,.656-.07,1.222,.136,1.803-.042,1.345-.57,1.501-2.289,1.73-3.592h0Z"/>
                <path class="cls-6" d="M842.914,650.436c-.052,.885-.249,1.811-.051,2.669,.056,.179,.142,.264,.196,.256,.51-.037,1.045-.511,1.601-.742,1.625-.847,3.171-.18,3.868,1.469,.195,.444,.333,.9,.41,1.368-.496-.795-1.006-1.595-1.685-2.066-.713-.495-1.472-.367-2.226,.006-.502,.219-1.072,.627-1.695,.73-1.963,.089-.921-2.734-.418-3.692h0Z"/>
                <path class="cls-6" d="M842.578,650.886c.859-1.156,1.27-2.634,.404-3.89-.442-.735-1.156-1.408-1.485-2.252-.078-.223-.126-.463-.126-.7,.135-1.761,2.263-2.241,3.692-2.395-1.004,.528-2.31,.945-2.827,1.997-.141,.369-.014,.753,.186,1.076,.383,.64,.897,1.167,1.266,1.869,.896,1.524,.319,3.352-1.11,4.294h0Z"/>
              </g>
            </g>
          </g>
        </g>
      </g>
      <g id="_Слой_12-2" data-name=" Слой 12">
        <g>
          <path class="cls-3" d="M859.081,627.102c1.753,3.021,1.011,5.167-2.226,6.437-3.169-.13-4.426-1.721-3.771-4.772,1.539-2.279,3.538-2.834,5.997-1.665Z"/>
          <path class="cls-1" d="M856.216,629.436c-.313-.554-.341-1.076-.339-1.315,.155-.153,.494-.443,1-.546,.534-.109,1.512-.063,1.86,.661,.321,.667-.095,1.492-.661,1.86-.398,.259-.819,.259-1.005,.248-.199-.129-.574-.411-.855-.908h0Z"/>
        </g>
        <g>
          <path class="cls-4" d="M832.602,580.644c2.104,3.815,1.031,6.152-3.218,7.013-3.994-.966-4.769-3.058-2.325-6.277,1.701-1.52,3.548-1.765,5.542-.736Z"/>
          <path class="cls-1" d="M831.598,583.291c-.348,.292-.766,.308-.927,.305-.151-.02-.638-.104-1.035-.523-.52-.549-.474-1.24-.465-1.352,.117-.172,.333-.434,.683-.61,.475-.239,1.432-.44,1.962,.218,.476,.59,.319,1.513-.218,1.962h0Z"/>
        </g>
      </g>
    </g>
  </g>
</svg>