<?xml version="1.0" encoding="UTF-8"?>
<svg id="_Слой_12" data-name="Слой 12" xmlns="http://www.w3.org/2000/svg" viewBox="0 0 1078.846 1068.725">
  <defs>
    <style>
      .cls-1 {
        fill: #8a5033;
      }

      .cls-2 {
        fill: #100806;
      }

      .cls-3 {
        fill: #5e3722;
      }

      .cls-4 {
        fill: #6b3529;
      }

      .cls-5 {
        fill: #543a2e;
        opacity: .39;
      }

      .cls-5, .cls-6, .cls-7, .cls-8, .cls-9, .cls-10, .cls-11, .cls-12 {
        fill-rule: evenodd;
      }

      .cls-5, .cls-7, .cls-8, .cls-9, .cls-12 {
        isolation: isolate;
      }

      .cls-13 {
        fill: #7a472d;
      }

      .cls-6 {
        fill: #27221e;
      }

      .cls-7 {
        opacity: .86;
      }

      .cls-7, .cls-9 {
        fill: #472614;
      }

      .cls-8 {
        fill: #fff;
        opacity: .24;
      }

      .cls-9 {
        opacity: .5;
      }

      .cls-10 {
        fill: #d09961;
      }

      .cls-10, .cls-11 {
        stroke: #100806;
        stroke-miterlimit: 10;
        stroke-width: 2px;
      }

      .cls-11 {
        fill: #804b33;
      }

      .cls-12 {
        fill: #cc825a;
        opacity: .31;
      }
    </style>
  </defs>
  <g id="_голова" data-name="голова">
    <g>
      <g id="_голова-2" data-name=" голова">
        <path class="cls-10" d="M895.652,445.391c18.288,25.717,38.01,57.229,56.354,94.592,16.956,34.537,29.201,66.874,38.15,95.23-33.972,20.999-73.75,42.658-119.314,62.609-30.718,13.45-60.064,24.373-87.444,33.289,3.214-3.694,6.427-7.388,9.641-11.082-3.764,.752-7.528,1.504-11.292,2.257l4.407-9.53c-6.517-1.129-13.034-2.258-19.551-3.387,1.825-4.655,3.65-9.31,5.476-13.966-5.059-.429-10.119-.858-15.178-1.287,2.043-3.234,4.087-6.469,6.131-9.703-5.658-.413-11.316-.825-16.974-1.238,2.127-3.946,4.254-7.893,6.381-11.839-5.372-.966-10.743-1.932-16.115-2.898,2.749-6.298,5.498-12.597,8.247-18.895-7.765-1.564-15.53-3.128-23.295-4.692,2.5-5.49,5.001-10.98,7.501-16.471-4.72-1.031-9.441-2.061-14.161-3.092,2.58-4.359,5.161-8.717,7.741-13.076-3.572-.3-7.144-.601-10.717-.901,2.634-3.023,5.267-6.047,7.901-9.071l-20.188-5.339c8.224-5.618,19.645-13.502,33.163-23.106,13.453-9.559,29.578-21.016,43.897-32.062,27.898-21.523,32.966-29.165,58.872-50.989,13.477-11.353,33.726-27.499,60.367-45.353h0Z"/>
        <path class="cls-11" d="M895.652,445.391c-6.518-2.491-13.591-5.553-21.019-9.333-6.584-3.35-12.537-6.801-17.861-10.175-26.347,18.993-46.345,35.811-59.805,47.727-44.957,39.802-54.919,49.338-54.919,49.338-5.168,4.948-13.787,13.304-26.912,22.71-11.309,8.104-21.398,13.715-28.404,17.288,4.526,.463,9.052,.926,13.578,1.389-4.427,3.128-8.855,6.257-13.282,9.385,6.922-.931,13.844-1.861,20.766-2.792-3.016,4.346-6.033,8.691-9.049,13.037,3.611-1.043,7.222-2.085,10.833-3.128-3.408,5.355-6.817,10.71-10.225,16.065,31.61-19.166,56.126-37.617,73.731-52.014,20.853-17.053,29.718-26.543,52.88-46.133,27.566-23.316,51.904-41.08,69.687-53.363h0Z"/>
      </g>
      <g id="_тень" data-name=" тень">
        <path class="cls-5" d="M821.746,555.283c-3.665,.968-17.512,5.091-26.127,18.791-1.557,2.476-10.989,17.474-5.013,32.438,.732,1.833,4.391,10.414,12.778,15.123,8.768,4.923,17.059,7.657,17.059,7.657,2.32,.765,5.377,1.663,6.434,4.218,.639,1.544,.208,2.871-.69,7.367-.627,3.141-1.061,5.716-1.33,7.408h0c-.004,.024-1.208,7.334,1.427,14.428,3.448,9.28,12.858,16.327,23.114,18.066,16.286,2.761,27.587-9.07,28.424-9.977-6.917-7.05-7.481-16.681-3.662-21.013,4.367-4.953,16.366-5.137,24.099,4.167,1.104-.495,12.117-5.663,14.594-18.052,2.584-12.921-6.434-22.111-7.505-23.165-7.951-7.824-18.032-7.663-19.847-7.602,2.357-1.831,9.276-7.697,11.188-17.546,2.718-14.006-6.904-24.659-9.172-27.171-14.229-15.754-37.053-12.136-39.034-11.79,3.287,8.904-1.318,17.944-7.846,20.154-7.135,2.416-17.248-3.1-18.892-13.499h0Z"/>
        <g id="_Слой_8" data-name=" Слой 8">
          <path class="cls-7" d="M857.17,436.398c.621,1.287,1.364,3.182,1.673,5.554,.496,3.808-.552,5.575,.624,6.683,1.275,1.201,3.209-.214,7.169,.171,2.289,.223,4.136,.938,5.409,1.561-6.166,1.683-12.332,3.366-18.498,5.05,1.207-6.339,2.415-12.679,3.622-19.018h0Z"/>
          <path class="cls-12" d="M856.245,438.123c-.716,1.073-1.762,2.776-2.729,4.999-2.659,6.112-1.168,7.971-3.377,10.642-2.307,2.789-4.639,1.617-10.288,5.392-2.027,1.354-3.526,2.708-4.481,3.645l18.2-6.582c.892-6.032,1.783-12.064,2.675-18.096h0Z"/>
        </g>
      </g>
      <g id="_складки" data-name=" складки">
        <g id="_Слой_3" data-name=" Слой 3">
          <path class="cls-2" d="M858.387,430.084c-.077,4.636-.759,9.181-1.599,13.717-.887,4.527-1.928,9.003-3.57,13.34,.072-4.637,.755-9.182,1.599-13.717,.891-4.526,1.932-9.002,3.57-13.34h0Z"/>
          <path class="cls-2" d="M882.153,448.395c-12.242,2.562-24.224,6.26-35.718,11.191-4.59,1.903-9.162,3.867-13.397,6.447-4.173,2.585-8.09,5.658-11.434,9.258-3.362,3.652-6.177,7.827-9.344,11.685-7.929,9.782-17.606,18.192-28.287,24.76,10.099-7.431,19.249-15.987,26.911-25.855,3.109-3.954,5.847-8.179,9.276-11.918,1.723-1.889,3.607-3.637,5.594-5.236,5.914-4.843,12.936-8.079,20.026-10.769,11.657-4.699,23.928-8.016,36.375-9.565h0Z"/>
          <path class="cls-2" d="M775.019,518.536c-9.375,7.419-18.695,14.824-27.669,22.708-9.035,7.814-17.648,16.03-26.282,24.3,7.453-9.382,15.964-17.915,24.964-25.812,9.059-7.838,18.672-15.087,28.986-21.196h0Z"/>
        </g>
        <g id="_Слой_6" data-name=" Слой 6">
          <path class="cls-4" d="M812.913,626.041c-5.24-.759-10.236-3.145-14.312-6.518-1.195-1.069-2.388-2.162-3.397-3.414l-1.012-1.251c-.448-.632-.928-1.345-1.373-1.985-4.711-7.441-5.684-17.105-2.645-25.35-1.86,8.539-.656,17.932,4.281,25.23,4.24,6.514,11.041,11.1,18.458,13.288h0Z"/>
          <path class="cls-4" d="M793.302,578.074c6.263-16.5,21.11-29.032,38.347-32.728,5.701-1.223,11.579-1.624,17.335-.991-5.785-.036-11.526,.678-17.075,2.079-3.783,.996-7.517,2.365-11.055,4.028-.59,.305-2.236,1.156-2.85,1.474-.617,.367-2.162,1.288-2.761,1.634-.614,.372-2.045,1.379-2.666,1.784-8.212,5.784-14.768,13.762-19.274,22.72h0Z"/>
          <path class="cls-4" d="M876.672,551.468c5.766,2.674,10.813,7.071,14.391,12.348,3.288,4.917,5.355,10.692,5.784,16.599,.311,4.096-.1,8.234-1.258,12.125,2.587-16.705-4.792-31.999-18.918-41.073h0Z"/>
          <path class="cls-4" d="M824.92,647.251c-.6,8.672,1.959,17.421,7.572,24.081,1.851,2.202,3.955,4.208,6.282,6.006-5.314-2.629-9.671-7.251-12.159-12.639-2.506-5.381-3.197-11.709-1.695-17.447h0Z"/>
          <path class="cls-4" d="M846.078,679.059c7.336,1.261,13.546,.993,20.763-.801-6.149,3.71-14.349,4.038-20.763,.801h0Z"/>
          <path class="cls-4" d="M819.868,660.804c3.237,8.718,9.181,16.785,17.683,20.901,5.05,2.524,10.731,3.539,16.362,3.411-3.752,.68-7.678,.568-11.45-.302-11.548-2.586-20.239-12.609-22.595-24.01h0Z"/>
          <path class="cls-4" d="M861.303,684.134c19.625-5.803,36.455-18.184,48.051-35.018-4.881,8.969-11.917,16.791-20.152,22.828-8.26,6.007-17.855,10.329-27.899,12.189h0Z"/>
          <path class="cls-4" d="M900.73,608.789c7.319,4.188,12.117,12.399,12.538,20.793,.161,2.802-.127,5.627-.933,8.28,.419-5.124-.113-10.216-1.853-15.029-1.975-5.441-5.408-10.188-9.752-14.044h0Z"/>
          <path class="cls-4" d="M916.54,625.133c3.36,5.988,3.805,13.521,1.469,19.962-1.382,3.861-3.762,7.439-6.892,10.061,2.46-3.208,4.404-6.676,5.604-10.498,2.059-6.342,1.794-13.168-.181-19.525h0Z"/>
          <path class="cls-4" d="M839.185,538.944c12.161-2.708,25.285-.719,36.297,5.054,3.679,1.928,7.138,4.272,10.208,7.033-13.687-9.343-29.998-13.592-46.505-12.088h0Z"/>
          <path class="cls-4" d="M792.842,568.414c-1.822,3.86-3.632,7.657-5.171,11.619-1.575,3.948-2.841,7.959-4.147,12.023,.463-8.461,3.887-17.136,9.318-23.641h0Z"/>
          <path class="cls-4" d="M793.976,619.146c3.387,3.66,7.329,6.677,11.883,8.666,4.543,2.011,9.431,2.876,14.418,2.902-2.462,.573-5.044,.678-7.585,.397-7.61-.806-14.899-5.301-18.715-11.965h0Z"/>
          <path class="cls-4" d="M827.545,540.574c-4.141,2.238-8.286,4.361-12.355,6.696-4.088,2.303-8.032,4.776-12.077,7.185,3.369-3.329,7.266-6.083,11.369-8.431,4.119-2.32,8.48-4.257,13.063-5.45h0Z"/>
          <path class="cls-4" d="M902.67,574.49c4.531,8.292,3.282,19.09-2.555,26.444l-.294-1.067c6.109,2.473,11.361,7.161,14.279,13.087-3.653-5.272-8.803-9.487-14.792-11.797l-.846-.337c1.568-1.99,2.888-4.185,3.866-6.523,2.646-6.263,2.652-13.419,.343-19.807h0Z"/>
        </g>
        <g id="_Слой_5" data-name=" Слой 5">
          <path class="cls-3" d="M825.595,463.094c-4.011,4.71-11.264,7.279-17.344,6.109,1.528-.501,3.009-.905,4.467-1.352,4.447-1.283,8.564-3.029,12.877-4.757h0Z"/>
          <path class="cls-3" d="M760.643,516.801c-8.646,12.825-21.171,23.177-35.409,29.223,6.367-4.333,12.596-8.736,18.506-13.641,5.941-4.867,11.444-10.151,16.904-15.582h0Z"/>
          <path class="cls-3" d="M743.342,556.055c-5.031,10.974-16.014,19.21-27.97,20.915,11.414-4.713,20.226-11.304,27.97-20.915h0Z"/>
          <path class="cls-1" d="M884.006,470.926c-4.28,1.845-8.462,3.811-12.504,6.022-4.036,2.22-7.938,4.653-11.675,7.322-1.866,1.338-3.693,2.73-5.481,4.173-1.785,1.447-3.519,2.958-5.228,4.502-3.401,3.108-6.615,6.429-9.747,9.88,2.471-3.954,5.407-7.625,8.658-10.997,1.617-1.696,3.325-3.306,5.098-4.841,1.779-1.53,3.63-2.975,5.533-4.349,3.82-2.727,7.884-5.117,12.135-7.088,4.243-1.984,8.668-3.574,13.211-4.624h0Z"/>
          <path class="cls-1" d="M944.678,576.711c-6.639,9.013-18.023,15.414-29.205,16.224,5.315-1.908,10.423-4.067,15.323-6.81,4.913-2.721,9.44-5.928,13.883-9.414h0Z"/>
          <path class="cls-1" d="M750.112,577.496c-3.651,4.885-8.054,9.146-12.76,13.001-4.736,3.818-9.814,7.248-15.347,9.815,4.645-3.901,9.404-7.546,14.082-11.373,4.707-3.791,9.256-7.694,14.024-11.443h0Z"/>
          <path class="cls-1" d="M943.571,583.587c-4.918,8.612-15.081,14.202-24.995,13.651,9.763-2.482,17.622-6.793,24.995-13.651h0Z"/>
        </g>
        <g id="_Слой_16" data-name=" Слой 16">
          <path class="cls-9" d="M945.63,542.179c4.486,13.034,9.611,26.664,15.479,40.767,4.709,11.318,9.535,22.072,14.393,32.253-.352,.842-2.105,5.274-.028,10.162,2.563,6.035,8.728,7.509,9.348,7.646-5.51,3.657-10.073,6.086-12.683,7.245-3.32,1.476-6.243,2.211-6.243,2.211-.676,.17-1.186,.275-1.483,.339-4.422,.952-13.41,3.792-33.37,11.996,4.586-2.422,12.496-6.564,22.59-11.658,11.395-5.751,14.003-6.875,16.016-10.207,1.263-2.091,3.869-7.662-4.596-30.851-6.682-18.303-11.324-23.098-15.497-37.86-2.595-9.176-3.533-16.986-3.924-22.045h0Z"/>
          <path class="cls-8" d="M959.002,571.143c2.341,7.07,5.177,14.658,8.626,22.618,3.272,7.551,6.675,14.465,10.048,20.733-.487,1.255-2.609,7.091,.396,11.898,1.617,2.587,4.782,4.975,6.013,4.216,3.855-2.377-10.912-33.479-11.946-35.64-4.83-10.097-9.577-18.171-13.137-23.825h0Z"/>
          <path class="cls-1" d="M912.562,486.355c3.457,5.089,3.792,12.28,.773,17.648,.44-2.981,.745-5.885,.597-8.866-.117-2.983-.672-5.85-1.37-8.782h0Z"/>
          <path class="cls-1" d="M926.792,504.185c-6.404-.45-12.819,.333-18.761,2.74-5.259,2.091-9.921,5.31-14.037,9.219,3.117-4.38,7.539-7.849,12.429-10.09,6.317-2.843,13.662-3.649,20.369-1.869h0Z"/>
          <path class="cls-1" d="M799.833,716.887c3.3-1.58,6.599-3.063,9.844-4.726,3.262-1.631,6.411-3.408,9.642-5.126-2.724,2.478-5.851,4.478-9.125,6.149-3.287,1.645-6.751,2.977-10.362,3.703h0Z"/>
          <path class="cls-13" d="M976.021,613.8c-.732,2.892-1.084,5.941-.525,8.892,.917,5.208,4.319,8.694,9.325,10.316-2.062-.07-4.149-.738-5.915-1.964-5.458-3.77-6.17-11.826-2.885-17.244h0Z"/>
        </g>
      </g>
      <g id="_глаза" data-name=" глаза">
        <g id="_Слой_4" data-name=" Слой 4">
          <g>
            <path class="cls-6" d="M905.296,621.483c7.34,17.065-8.016,38.379-23.784,47.411-15.161,8.685-38.621,10.552-47.512-.851-4.175-5.355-5.962-14.695-4.913-22.463,.836-6.194,2.791-6.313,2.399-9.643-1.31-11.131-23.912-10.214-32.419-25.247-3.481-6.152-4.862-14.664-2.035-27.065,10.008-36.499,63.955-45.414,86.492-15.817,8.476,11.317,8.46,25.126,1.977,37.327,4.402,1.524,15.344,6.002,19.794,16.349h0Z"/>
            <path d="M905.401,621.438c6.008,14.41-3.159,30.377-13.368,40.42-5.419,5.311-11.949,9.509-19.139,11.979-11.524,4.061-28.827,5.607-38.185-3.745-4.035-4.233-5.652-10.126-6.271-15.787-.413-4.686-.221-9.614,1.587-14.025,.368-.88,.822-1.694,1.004-2.529,.235-1.065,.075-2.215-.256-3.246-3.749-10.667-28.711-8.91-34.631-29.291-2.14-7.34-1.507-15.192,.253-22.55,6.303-22.965,31.087-35.681,53.828-33.605,11.412,.936,22.675,5.667,30.654,14.013,5.356,5.477,9.051,12.697,9.793,20.356,.782,7.594-1.222,15.256-4.86,21.872l-.195-.495c4.67,1.718,9.143,4.11,12.902,7.393,2.902,2.533,5.35,5.697,6.883,9.242h0Zm-.211,.091c-1.549-3.492-3.98-6.614-6.888-9.082-3.882-3.256-8.489-5.568-13.298-7.108,8.416-16.209,4.697-33.2-9.789-44.334-10.116-7.897-23.504-10.782-36.14-9.354-20.272,2.142-39.012,15.912-42.142,36.858-1.925,11.198-.217,22.608,9.543,29.651,4.508,3.326,9.717,5.388,14.801,7.711,3.562,1.709,7.555,3.486,9.631,7.051,.777,1.52,1.237,3.29,.905,4.996-.197,.961-.653,1.806-1.004,2.688-.348,.846-.621,1.711-.826,2.601-1.15,5.383-.734,11.071,.748,16.346,1.516,5.353,4.397,9.922,9.499,12.437,12.34,6.049,30.578,2.194,42.024-4.545,14.506-8.604,30.176-28.355,22.935-45.918h0Z"/>
          </g>
        </g>
      </g>
    </g>
  </g>
</svg>