<?xml version="1.0" encoding="UTF-8"?>
<svg id="_Слой_12" data-name="Слой 12" xmlns="http://www.w3.org/2000/svg" viewBox="0 0 1078.846 1068.725">
  <defs>
    <style>
      .cls-1 {
        fill: #bfbfbf;
      }

      .cls-2 {
        fill: #ffcf98;
      }

      .cls-3, .cls-4 {
        fill: #cfcfcf;
      }

      .cls-5 {
        fill: #c79b6b;
        opacity: .65;
      }

      .cls-6 {
        fill: #a3deff;
      }

      .cls-7 {
        fill: #8f8f8f;
      }

      .cls-8 {
        fill: none;
      }

      .cls-8, .cls-9, .cls-4 {
        stroke: #000;
        stroke-miterlimit: 10;
        stroke-width: 2px;
      }

      .cls-10 {
        fill: #02304a;
      }

      .cls-11 {
        fill: #bcdce3;
      }

      .cls-12 {
        fill: #045380;
      }

      .cls-13 {
        fill: #12100f;
      }

      .cls-9 {
        fill: #1a1a1a;
      }

      .cls-14 {
        fill: #0473b0;
      }

      .cls-15 {
        fill: #525252;
      }

      .cls-16 {
        fill: #919191;
      }
    </style>
  </defs>
  <g id="_НОГИ" data-name="НОГИ">
    <g id="_нога1" data-name="нога1">
      <g>
        <path class="cls-9" d="M531.105,759.196c-2.657,3.282-6.584,8.991-8.937,17.025-2.906,9.923-1.941,18.378-1.117,22.785,11.65,6.318,26.944,13.199,45.58,18.221,25.88,6.974,48.548,7.759,64.694,7.012,1.559-1.118,8.739-6.51,9.454-15.376,.403-5.005-1.436-8.845-2.177-10.343-3.487-7.054-8.871-8.41-21.382-17.976-3.406-2.605-6.062-4.84-7.657-6.214-3.929,3.18-15.962,12.057-33.018,11.941-28.516-.195-44.393-25.351-45.441-27.075Z"/>
        <path class="cls-13" d="M532.282,785.506c3.729,4.439,9.87,10.752,18.889,16.138,11.402,6.809,21.486,8.601,32.952,10.64,8.478,1.507,20.917,3.615,36.934,1.364,8.232-1.157,14.959-3.121,19.723-4.785-.111,.977-.309,2.116-.661,3.362-.392,1.387-.878,2.567-1.344,3.523-15.882,3.835-53.313,10.345-89.287-8.875-7.332-3.917-13.618-8.377-18.969-12.91,.37-1.353,.721-2.798,1.037-4.329,.297-1.437,.535-2.817,.725-4.129Z"/>
        <path class="cls-13" d="M574.437,786.305c4.934,.122,13.074-.338,22.101-4.132,5.655-2.377,9.982-5.357,13.027-7.844,2.552,2.071,5.105,4.143,7.657,6.214,7.578,6.503,8.352,9.576,7.686,11.18-2.296,5.534-25.18,1.894-38.634-1.658-5.04-1.331-9.114-2.744-11.837-3.76Z"/>
        <path d="M617.221,780.544c4.059,2.771,13.974,11.171,4.918,14.113-3.618,.991-7.382,.759-11.036,.522-4.826-.423-9.579-1.212-14.278-2.217-4.701-.997-9.352-2.191-13.936-3.638,4.764,.634,9.489,1.398,14.213,2.102,8.116,.978,16.448,2.897,24.567,1.548,7.164-1.563-2.203-9.87-4.449-12.43h0Z"/>
      </g>
      <g>
        <path class="cls-3" d="M520.368,787.362c.138-3.322,.672-7.773,2.309-12.769,1.29-3.936,2.918-7.151,4.391-9.605,1.708,2.906,4.482,8.531,4.964,16.114,.359,5.643-.687,10.24-1.603,13.155,2.072,1.461,5.14,3.525,8.994,5.751,23.78,13.739,46.552,15.779,59.591,16.854,9.691,.799,23.457,1.092,39.921-1.412-.9,1.727-2.289,3.914-4.409,6.059-1.103,1.115-2.199,2.013-3.2,2.73-13.299,.624-30.194,.163-49.322-3.484-26.176-4.991-46.808-14.092-60.953-21.748-.358-1.827-.653-3.952-.763-6.324-.091-1.948-.042-3.733,.08-5.321Z"/>
        <path class="cls-4" d="M530.429,794.257c-1.739-.863-3.693-1.977-5.736-3.416-1.668-1.175-3.105-2.362-4.325-3.479"/>
        <path class="cls-16" d="M635.224,821.076c-1.197,.98-2.394,1.959-3.591,2.939-14.946,.853-35.902,.429-60.029-5.354-21.402-5.13-38.517-12.851-50.796-19.545-.151-1.768-.301-3.535-.452-5.303,5.983,4.113,14.776,9.463,26.172,14.068,6.857,2.771,12.099,4.238,18.406,5.983,9.788,2.707,22.629,6.191,39.543,7.512,7.784,.608,18.286,.903,30.748-.298Z"/>
        <path class="cls-8" d="M520.368,787.362c.138-3.322,.672-7.773,2.309-12.769,1.29-3.936,2.918-7.151,4.391-9.605,1.708,2.906,4.482,8.531,4.964,16.114,.359,5.643-.687,10.24-1.603,13.155,2.072,1.461,5.14,3.525,8.994,5.751,23.78,13.739,46.552,15.779,59.591,16.854,9.691,.799,23.457,1.092,39.921-1.412-.9,1.727-2.289,3.914-4.409,6.059-1.103,1.115-2.199,2.013-3.2,2.73-13.299,.624-30.194,.163-49.322-3.484-26.176-4.991-46.808-14.092-60.953-21.748-.358-1.827-.653-3.952-.763-6.324-.091-1.948-.042-3.733,.08-5.321Z"/>
      </g>
      <g>
        <path d="M523.78,789.538c-.418,3.688-.461,6.978-.173,10.678-3.024-2.653-2.926-8.121,.173-10.678h0Z"/>
        <path d="M528.553,793.042c-.496,3.36-.362,6.278,.512,9.563-3.471-1.728-3.765-7.44-.512-9.563h0Z"/>
        <path d="M533.921,796.683c-.194,3.035-.21,5.603-.225,8.644-2.724-2.005-2.626-6.797,.225-8.644h0Z"/>
        <path d="M539.423,800.008c-.031,2.657-.291,4.871-.907,7.456-2.188-1.97-1.681-6.064,.907-7.456h0Z"/>
        <path d="M545.631,803.189c.054,1.609-.111,3.163-.252,4.712-.065,.52-.116,1.066-.258,1.753-.621-.337-1.021-.877-1.289-1.469-.783-1.78-.114-4.247,1.798-4.997h0Z"/>
        <path d="M551.134,805.866c.042,2.263-.25,4.04-1.042,6.162-2.028-1.605-1.393-5.307,1.042-6.162h0Z"/>
        <path d="M522.776,772.727c2.44,.643,2.837,.694,5.346,.985-.886,2.689-5.486,1.824-5.346-.985h0Z"/>
        <path d="M520.727,783.624c2.44,.643,2.837,.694,5.346,.985-.885,2.689-5.486,1.824-5.346-.985h0Z"/>
        <path d="M521.256,778.128c2.44,.643,2.837,.694,5.346,.985-.886,2.689-5.486,1.824-5.346-.985h0Z"/>
        <path d="M557.589,808.359c.042,2.263-.25,4.04-1.042,6.162-2.028-1.605-1.393-5.307,1.042-6.162h0Z"/>
        <path d="M563.479,810.185c.042,2.263-.25,4.04-1.042,6.162-2.028-1.605-1.393-5.307,1.042-6.162h0Z"/>
        <path d="M569.181,811.618c.042,2.263-.25,4.04-1.042,6.162-2.028-1.605-1.393-5.307,1.042-6.162h0Z"/>
        <path d="M574.844,813.15c.042,2.263-.25,4.04-1.042,6.162-2.028-1.605-1.393-5.307,1.042-6.162h0Z"/>
        <path d="M580.514,814.014c.042,2.263-.25,4.04-1.042,6.162-2.028-1.605-1.393-5.307,1.042-6.162h0Z"/>
        <path d="M586.392,815.184c.042,2.263-.25,4.04-1.042,6.162-2.028-1.605-1.393-5.307,1.042-6.162h0Z"/>
        <path d="M590.673,815.596c2.691,1.208,1.912,5.903-1.042,6.162,.667-2.643,.818-3.447,1.042-6.162h0Z"/>
        <path d="M597.105,816.552c2.69,1.208,1.912,5.903-1.042,6.162,.667-2.643,.818-3.447,1.042-6.162h0Z"/>
        <path d="M602.987,817.118c2.691,1.208,1.912,5.903-1.042,6.162,.667-2.643,.818-3.447,1.042-6.162h0Z"/>
        <path d="M609.427,817.4c2.69,1.208,1.912,5.903-1.042,6.162,.667-2.643,.818-3.447,1.042-6.162h0Z"/>
        <path d="M615.479,817.207c2.871,1.506,2.036,6.6-1.199,7.087,.938-2.859,1.16-4.079,1.199-7.087h0Z"/>
        <path d="M622.266,817.243c2.871,1.506,2.036,6.6-1.199,7.087,.938-2.859,1.16-4.079,1.199-7.087h0Z"/>
        <path d="M628.9,816.895c2.871,1.506,2.036,6.6-1.199,7.087,.938-2.859,1.16-4.079,1.199-7.087h0Z"/>
      </g>
      <g>
        <g>
          <g>
            <circle class="cls-7" cx="579.708" cy="790.466" r="2.174"/>
            <path d="M581.55,789.31c1.63,2.678-2.271,5.3-4.107,2.577-1.658-2.84,2.404-5.212,4.107-2.577h0Zm0,0c-1.475-2.176-4.554-.069-3.26,2.046,1.343,2.09,4.58,.23,3.26-2.046h0Z"/>
          </g>
          <circle class="cls-15" cx="580.089" cy="790.227" r="1.031"/>
          <path class="cls-1" d="M579.022,789.236c-.118-.062-.894,.589-.763,1.312,.137,.758,1.18,1.078,1.274,.965,.079-.096-.55-.479-.648-1.242-.077-.593,.222-.99,.137-1.035Z"/>
        </g>
        <g>
          <g>
            <circle class="cls-7" cx="589.951" cy="793.543" r="2.174"/>
            <path d="M591.793,792.387c1.63,2.678-2.271,5.3-4.107,2.577-1.658-2.84,2.404-5.212,4.107-2.577h0Zm0,0c-1.475-2.176-4.554-.069-3.26,2.046,1.343,2.09,4.579,.23,3.26-2.046h0Z"/>
          </g>
          <circle class="cls-15" cx="590.332" cy="793.304" r="1.031"/>
          <path class="cls-1" d="M589.265,792.313c-.118-.062-.894,.589-.763,1.312,.137,.758,1.18,1.078,1.274,.965,.079-.096-.55-.479-.648-1.242-.077-.593,.222-.99,.137-1.035Z"/>
        </g>
        <g>
          <g>
            <circle class="cls-7" cx="602.276" cy="795.996" r="2.174"/>
            <path d="M604.118,794.841c1.63,2.678-2.271,5.3-4.107,2.577-1.658-2.84,2.404-5.212,4.107-2.577h0Zm0,0c-1.476-2.176-4.554-.069-3.26,2.046,1.343,2.09,4.579,.23,3.26-2.046h0Z"/>
          </g>
          <circle class="cls-15" cx="602.657" cy="795.758" r="1.031"/>
          <path class="cls-1" d="M601.59,794.766c-.118-.062-.894,.589-.763,1.312,.137,.758,1.18,1.078,1.274,.965,.079-.096-.55-.479-.648-1.242-.077-.593,.222-.99,.137-1.035Z"/>
        </g>
        <g>
          <path d="M602.137,796.322c4.203-7.299,12.961-11.951,21.369-11.196-7.961,2.101-15.09,5.878-21.369,11.196h0Z"/>
          <path d="M617.615,781.138c-10.6,.537-20.443,5.138-27.742,12.831,5.076-9.66,17.093-15.241,27.742-12.831h0Z"/>
          <path d="M615.124,778.427c-12.781,.346-25.047,4.616-35.298,12.253,8.423-9.894,22.555-14.789,35.298-12.253h0Z"/>
        </g>
      </g>
    </g>
    <g id="_1нога" data-name="1нога">
      <g>
        <path class="cls-12" d="M551.567,692.673c-2.016,5.011-3.986,10.154-5.901,15.429-7.259,20.004-12.74,39.252-16.875,57.397,1.758,2.571,13.765,19.508,36.654,22.282,23.156,2.806,38.984-11.121,41.253-13.187,4.547-8.803,10.619-23.179,12.794-41.887,2.019-17.365-.099-31.765-2.227-41.119-8.033,2.547-19.723,5.282-33.988,5.366-13.091,.077-23.968-2.104-31.711-4.281Z"/>
        <path class="cls-10" d="M540.135,724.461c1.809-5.734,3.618-11.469,5.428-17.204,21.988,1.236,43.976,2.473,65.963,3.709-3.739,1.359-9.416,3.127-16.547,4.174-2.279,.335-2.658,.295-11.329,.969-17.713,1.377-18.303,1.711-21.317,1.118-7.379-1.451-9.099-4.488-13.267-3.354-4.619,1.256-7.329,6.297-8.932,10.588Z"/>
        <path class="cls-10" d="M587.451,770.743c2.537,.213,8.287,.351,14.609-2.683,6.069-2.913,9.5-7.23,10.956-9.317-1.019,3.652-2.037,7.304-3.056,10.957-2.8,1.342-8.381,3.507-15.383,2.775-2.836-.296-5.241-.999-7.126-1.732Z"/>
        <path class="cls-10" d="M531.697,753.457c1.455-5.786,2.012-7.053,2.239-7.012,.371,.068-.761,3.141,.522,6.783,.86,2.44,2.17,3.335,2.683,6.335,.05,.29,.469,2.807-.071,2.999-.48,.17-1.793-1.474-5.373-9.105Z"/>
        <g>
          <path class="cls-10" d="M540.122,743.687c-.819,1.167-1.934,2.999-2.758,5.441-.842,2.498-1.503,4.458-.821,6.565,.57,1.762,1.912,2.812,4.571,4.839,1.484,1.131,3.638,2.603,6.476,4-1.196-.729-5.804-3.727-7.692-9.814-1.611-5.192-.291-9.565,.224-11.031Z"/>
          <path d="M543.281,727.216c-.022,4.951-.722,9.928-2.109,14.734-.665,2.407-1.581,4.767-2.572,7.043-.913,2.094-1.939,4.168-1.111,6.373,.632,1.931,2.71,3.361,4.672,4.725,1.994,1.382,4.117,2.644,6.187,3.983,4.177,2.628,8.327,5.304,12.374,8.161-4.467-2.137-8.839-4.44-13.169-6.817-7.014-4.13-16.113-7.458-10.674-17.203,3.239-6.636,5.146-13.693,6.401-20.999h0Z"/>
        </g>
      </g>
      <path class="cls-8" d="M551.314,692.673c-2.016,5.011-3.986,10.154-5.901,15.429-7.259,20.004-12.74,39.252-16.875,57.397,1.758,2.571,13.765,19.508,36.654,22.282,23.156,2.806,38.984-11.121,41.253-13.187,4.547-8.803,10.619-23.179,12.794-41.887,2.019-17.365-.099-31.765-2.227-41.119-8.033,2.547-19.723,5.282-33.988,5.366-13.091,.077-23.968-2.104-31.711-4.281Z"/>
      <g>
        <path class="cls-12" d="M624.343,712.63c-2.763-7.3-5.527-14.599-8.29-21.899-9.297-1.662-16.711-1.409-21.689-.894-16.432,1.699-24.433,8.112-33.913,4.174-11.749-4.88-11.812-4.916-11.812-4.916-2.926-1.666-5.31-3.414-6.971-2.463-1.224,.7-1.954,2.806-1.714,4.472,.171,1.185,.715,1.332,.667,2.312-.087,1.747-1.849,1.936-2.157,3.651-.336,1.869,1.547,2.818,.969,4.323-.395,1.03-1.372,.83-2.087,2.087-.606,1.066-.688,2.587-.149,3.503,1.051,1.787,4.531,1.389,6.866,1.351,6.596-.107,8.717,2.589,15.345,4.314,7.836,2.039,14.049,.659,19.677-.149,8.882-1.276,22.893-2.074,45.259,.135Z"/>
        <path class="cls-10" d="M624.343,712.63c.452-3.395-.383-5.215-1.209-6.246-4.674-5.832-18.299,2.103-44.199,3.354-6.75,.326-11.57,.559-17.963-.522-7.416-1.254-8.79-2.895-15.13-2.832-1.775,.018-5.724,.187-6.037-.969-.246-.909,2.012-1.694,2.087-3.578,.065-1.627-1.58-2.026-1.536-3.639,.047-1.726,1.948-1.959,2.556-4.065,.673-2.33-1.165-3.742-.499-4.743,1.438-2.16,11.467,2.212,11.573,1.935,.053-.139-2.519-1.09-5.908-2.605-4.234-1.894-5.287-2.676-6.41-2.087-1.326,.696-1.943,2.881-1.714,4.472,.171,1.185,.715,1.332,.667,2.312-.087,1.747-1.849,1.936-2.157,3.651-.336,1.869,1.547,2.818,.969,4.323-.395,1.03-1.372,.83-2.087,2.087-.606,1.066-.688,2.587-.149,3.503,1.051,1.787,4.531,1.389,6.866,1.351,6.596-.107,8.717,2.589,15.345,4.314,7.836,2.039,14.049,.659,19.677-.149,8.882-1.276,22.893-2.074,45.259,.135Z"/>
        <path class="cls-8" d="M624.343,712.63c-2.763-7.3-5.527-14.599-8.29-21.899-9.297-1.662-16.711-1.409-21.689-.894-16.432,1.699-24.433,8.112-33.913,4.174-11.749-4.88-11.812-4.916-11.812-4.916-2.926-1.666-5.31-3.414-6.971-2.463-1.224,.7-1.954,2.806-1.714,4.472,.171,1.185,.715,1.332,.667,2.312-.087,1.747-1.849,1.936-2.157,3.651-.336,1.869,1.547,2.818,.969,4.323-.395,1.03-1.372,.83-2.087,2.087-.606,1.066-.688,2.587-.149,3.503,1.051,1.787,4.531,1.389,6.866,1.351,6.596-.107,8.717,2.589,15.345,4.314,7.836,2.039,14.049,.659,19.677-.149,8.882-1.276,22.893-2.074,45.259,.135Z"/>
        <path d="M540.698,693.862c8.861,4.249,18.369,6.199,28.174,6.261-9.566,2.799-20.75,.45-28.174-6.261h0Z"/>
        <path d="M539.108,701.388c7.671,1.585,15.392,3.312,23.109,4.287,7.761,.937,15.512-.216,22.978-2.571-6.957,3.91-15.253,5.463-23.195,4.558-7.909-1.085-15.588-3.134-22.892-6.274h0Z"/>
        <path class="cls-14" d="M560.45,695.8c-.592,.545-.484,1.916,0,2.683,1.041,1.651,4.493,1.575,14.832-.745,11.052-2.48,11.896-3.468,17.888-4.323,8.297-1.184,14.141-.356,14.161-.745,.02-.373-5.304-1.584-11.702-1.267-5.627,.279-5.654,1.422-18.186,3.876-10.059,1.97-12.085,1.634-13.64,.969-.64-.273-2.556-1.182-3.354-.447Z"/>
      </g>
      <g>
        <path class="cls-12" d="M592.818,772.607c5.284-.234,8.829-1.775,11.18-3.28,4.667-2.988,7.516-7.684,9.615-6.783,.683,.293,1.144,1.117,1.29,1.743,.349,1.495-1.049,2.095-1.141,3.996-.085,1.775,1.087,2.219,.918,3.856-.06,.58-.32,1.62-1.813,3.002-4.227,3.912-13.553,5.765-14.981,6.037-3.321,.634-7.555,1.345-12.522,1.938"/>
        <path class="cls-10" d="M602.135,772.83c5.708-2.377,9.97-5.347,12.753-7.568-.373,.589-.83,1.473-1.083,2.62-.138,.626-.186,1.194-.191,1.668-2.301,1.082-5.701,2.55-9.952,3.904-7.552,2.404-13.864,3.194-13.899,3.028-.034-.157,5.622-.841,12.373-3.652Z"/>
        <path d="M613.986,768.954c-6.856,6.025-16.515,8.95-25.565,7.826,8.781-1.681,17.38-4.241,25.565-7.826h0Z"/>
        <path d="M592.818,772.607c5.114-.585,9.956-2.514,13.637-6.133,1.438-1.316,2.738-2.799,4.319-4.028,.582-.402,1.234-.901,2.3-.945,1.983,.014,3.268,2.38,2.715,4.146-.518,1.398-1.202,1.887-1,3.194,.05,.432,.311,.839,.63,1.61,.997,2.325-.977,4.825-2.635,6.005-2.251,1.693-4.846,2.572-7.357,3.256-5.058,1.286-9.987,2.484-14.77,4.597,2.191-1.396,4.531-2.565,6.952-3.554,4.394-2.046,15.201-3.615,16.102-8.976-.058-.912-.709-1.395-.894-2.614-.128-.84-.017-1.665,.28-2.426,.297-.743,.726-1.323,.832-1.682,.187-.528-.163-1.204-.551-1.544-.133-.098-.198-.111-.324-.123-.83,.044-1.922,1.077-2.642,1.686-4.866,4.842-10.565,7.951-17.593,7.532h0Z"/>
      </g>
      <g>
        <path class="cls-12" d="M538.049,762.694c-.383-1.099-3.278-9.152-7.826-9.689-.519-.061-1.777-.21-2.46,.522-1.057,1.133,.531,3.018-.447,5.217-.76,1.707-2.23,1.723-2.236,2.832-.007,1.22,1.767,1.844,3.95,3.503,1.26,.957,2.839,2.397,4.377,4.568"/>
        <path class="cls-10" d="M527.787,755.232c-.053,.035-.098,.103-.111,1.871-.007,.93-.01,1.395,0,1.565,.124,2.036,4.48,3.604,8.571,6.559,1.333,.962,2.343,1.859,2.981,2.46-1.208-1.553-2.929-3.72-5.068-6.261-2.783-3.306-5.742-6.611-6.373-6.194Z"/>
        <path d="M538.049,762.694c-1.901-3.321-4.382-8.668-8.523-8.799-1.568,.099-1.17,.503-.979,2.007,.355,1.673-.227,3.953-1.739,4.983-.341,.26-.667,.478-.77,.59-.057,.05-.087,.121-.062,.207,.02,.231,.629,.768,1.207,1.185,2.51,1.702,4.85,4.032,6.225,6.779-2.087-2.264-4.394-4-7.089-5.479-1.008-.569-2.319-1.476-2.103-2.921,.278-1.51,2.055-1.825,2.329-3.227,.283-.913-.042-1.972-.129-3.019-.274-1.865,1.372-3.182,3.153-2.994,5.192,.382,7.483,6.443,8.481,10.687h0Z"/>
        <path d="M527.004,758.967c5.806,1.543,11.03,5.484,14.087,10.658-5.015-3.199-9.637-6.712-14.087-10.658h0Z"/>
      </g>
      <g>
        <g>
          <path class="cls-6" d="M608.839,728.203c.565,.435,1.093,.354,1.198,.684,.097,.307-.34,.443-.554,1.035-.267,.739,.241,1.066-.081,1.445-.117,.137-.279,.229-1.999,.524-1.056,.181-1.369,.211-1.539,.457-.241,.347,.087,.71-.207,.977-.228,.207-.481,.039-.882,.235-.532,.26-.394,.707-.842,.905-.476,.211-.787-.226-1.382-.078-.57,.142-.584,.619-1.296,1.167-.507,.391-.6,.223-1.364,.657-1.138,.648-1.061,1.068-1.876,1.324-.808,.254-1.021-.115-1.669,.177-.791,.356-.675,.997-1.489,1.321-.467,.186-.661,.037-1.337,.113-1.231,.138-1.286,.711-2.349,.978-1.686,.423-2.637-.745-4.007-.116-.448,.206-.745,.514-1.07,.409-.353-.113-.241-.55-.545-1.037-.626-1.003-2.054-.679-2.522-1.552-.364-.681,.268-1.319-.153-1.626-.44-.32-1.257,.278-1.683-.027-.505-.362,.38-1.394-.196-2.065-.392-.457-.96-.161-1.648-.716-.621-.5-.363-.905-.951-1.263-.607-.369-1.122-.029-1.67-.436-.445-.33-.414-.655-.683-1.12-.809-1.401-2.732-1.296-2.812-2.103-.043-.432,.51-.446,1.426-1.58,.825-1.02,.802-1.535,1.452-1.748,.492-.162,.639,.09,1.632,.114,.605,.015,1.825,.045,2.566-.565,.717-.59,.389-1.289,1.054-1.579,.558-.244,.906,.197,1.715,.012,.356-.082,.447-.203,1.565-1.113,1.393-1.134,1.452-1.109,1.673-1.418,.528-.738,.373-1.138,.861-1.363,.434-.2,.649,.072,1.623-.002,.438-.033,1.066-.08,1.64-.422,.584-.348,.61-.7,1.033-.744,.361-.037,.537,.2,1.049,.425,.427,.188,.888,.228,1.794,.302,1.923,.156,2.219-.085,2.588,.211,.554,.445,.005,1.085,.605,1.648,.496,.465,1.028,.174,1.942,.679,.758,.419,.534,.698,1.244,1.141,1.125,.701,2.133,.278,2.619,.913,.276,.361-.018,.538,.139,1.212,.216,.924,1.071,1.877,2.143,2.209,1.065,.33,1.715-.289,2.366,.167,.489,.342,.253,.753,.877,1.233Z"/>
          <path class="cls-2" d="M606.268,729.1c.289,.516,.439,1.364-.224,1.702-.472,.241-1.093,.088-1.34,.345-.26,.271,.348,.523,.247,.944-.14,.585-1.559,1.12-2.816,1.192-.916,.052-1.382-.162-1.755,.053-.403,.232-.053,.596-.415,1.041-.312,.383-.895,.51-1.488,.699-2.643,.843-2.729,2.041-4.395,2.074-.845,.017-1.219-.283-1.838-.086-.641,.204-.514,.613-1.086,.961-.818,.498-2.47,.505-3.618,.133-1.435-.465-2.187-1.557-1.859-2.31,.144-.332,.495-.591,.287-.804-.211-.217-.76-.139-1.316-.236-.902-.159-1.053-.648-1.974-1.488-1.594-1.455-2.82-1.524-2.89-2.418-.034-.439,.236-.765-.08-.919-.44-.215-1.207,.299-2.067,.157-.888-.147-1.437-.921-1.455-1.534-.031-1.048,1.475-2.054,2.937-2.22,1.001-.114,1.618,.208,2.154-.067,.545-.28,.072-.699,.452-1.313,.502-.81,1.624-.557,3.998-1.8,.656-.344,1.143-.663,1.845-.639,.672,.023,1.035,.343,1.389,.231,.358-.112,.154-.492,.369-.974,.351-.785,1.655-1.484,2.984-1.565,.233-.014,1.012-.061,1.621,.222,.574,.266,.38,.538,.987,.943,.638,.425,1.08,.276,1.702,.693,.467,.313,.342,.48,.797,1.027,.259,.313,.7,.627,1.581,1.255,1.272,.907,1.541,.972,1.84,1.419,.249,.373,.174,.496,.471,.745,.502,.419,1.188,.461,1.933,.647,1.402,.35,2.58,1.105,3.021,1.892Z"/>
          <path class="cls-5" d="M584.707,725.223c2.79-1.123,3.86-.899,5.417-1.995,1.195-.842,1.175-1.403,2.136-1.644,1.521-.38,3.54,.535,5.027,1.382-.048-.158-.174-.392-.416-.65-.059-.063-.136-.128-.244-.201-.622-.417-1.064-.268-1.702-.693-.607-.404-.414-.676-.987-.943-.61-.283-1.388-.236-1.621-.222-1.33,.081-2.633,.779-2.984,1.565-.216,.482-.011,.862-.369,.974-.354,.111-.718-.209-1.389-.231-.702-.024-1.189,.295-1.845,.639-2.373,1.243-3.496,.991-3.998,1.8-.38,.613,.093,1.033-.452,1.313-.535,.275-1.153-.046-2.154,.067-1.462,.166-2.968,1.172-2.937,2.22,.018,.613,.567,1.388,1.455,1.534,.86,.142,1.627-.372,2.067-.157,.315,.154,.045,.479,.08,.919,.07,.894,1.296,.963,2.89,2.418,.921,.841,1.072,1.329,1.974,1.488,.286,.05,1.316,.236,1.316,.236h0c-.514-.53-1.301-1.325-2.313-2.283-1.098-1.041-1.469-1.334-1.982-1.969-.966-1.196-1.537-1.901-1.343-2.699,.298-1.227,2.244-2.01,4.378-2.869Z"/>
          <g>
            <path class="cls-11" d="M581.887,723.744c6.437,1.725,13.04,1.887,19.662,1.183-6.31,2.096-13.697,1.873-19.662-1.183h0Z"/>
            <path class="cls-11" d="M579.285,726.14c7.128,1.736,14.503,2.094,21.798,1.543,1.049-.056,2.092-.179,3.145-.274-8.101,2.255-17.165,2.065-24.943-1.268h0Z"/>
            <path class="cls-11" d="M575.277,728.811c9.14,2.478,18.71,2.955,28.112,2.114,1.351-.099,2.694-.277,4.046-.436-10.48,2.745-22.087,2.495-32.158-1.678h0Z"/>
            <path class="cls-11" d="M579.609,731.823c6.954,3.051,14.655,3.517,22.08,2.004-7.027,2.918-15.771,2.342-22.08-2.004h0Z"/>
            <path class="cls-11" d="M584.83,722.037c4.549,1.305,9.027,1.469,13.719,1.015-4.313,1.85-9.764,1.606-13.719-1.015h0Z"/>
          </g>
        </g>
        <g>
          <path class="cls-6" d="M611.843,753.006c.38,.246,.682,.143,.779,.36,.091,.202-.152,.334-.213,.76-.076,.53,.259,.708,.11,.997-.054,.105-.139,.182-1.119,.541-.602,.22-.782,.269-.856,.453-.104,.259,.129,.478-.015,.688-.112,.163-.279,.07-.493,.241-.285,.226-.155,.52-.396,.697-.257,.188-.487-.083-.821,.073-.32,.149-.276,.477-.635,.918-.256,.314-.329,.207-.731,.574-.598,.547-.507,.828-.959,1.078-.447,.248-.613,.014-.962,.273-.426,.316-.288,.745-.731,1.04-.254,.17-.385,.085-.774,.199-.709,.207-.679,.604-1.275,.883-.945,.443-1.633-.271-2.37,.285-.241,.182-.382,.42-.585,.378-.22-.045-.202-.355-.434-.661-.478-.63-1.283-.279-1.653-.834-.289-.433,.014-.928-.268-1.1-.294-.179-.709,.305-.993,.135-.337-.202,.071-.99-.341-1.397-.281-.277-.582-.023-1.048-.34-.42-.286-.312-.587-.697-.779-.398-.198-.663,.082-1.03-.147-.298-.185-.315-.411-.524-.705-.629-.886-1.749-.639-1.884-1.185-.072-.292,.251-.352,.666-1.212,.374-.774,.304-1.124,.663-1.329,.272-.155,.386,.004,.973-.07,.357-.045,1.079-.136,1.448-.621,.357-.469,.088-.918,.448-1.178,.302-.218,.554,.053,1.01-.148,.2-.088,.241-.18,.799-.905,.695-.904,.733-.892,.829-1.124,.23-.554,.095-.813,.358-1.012,.233-.177,.389-.01,.955-.149,.254-.063,.618-.152,.919-.438,.306-.291,.282-.535,.526-.604,.208-.058,.338,.088,.663,.196,.271,.09,.547,.076,1.088,.044,1.149-.068,1.296-.26,1.545-.091,.374,.255,.122,.743,.536,1.074,.343,.274,.624,.025,1.216,.288,.492,.218,.391,.43,.856,.668,.738,.378,1.285-.004,1.641,.387,.202,.222,.048,.37,.214,.817,.228,.613,.835,1.188,1.502,1.318,.662,.129,.977-.354,1.41-.101,.325,.19,.231,.493,.651,.765Z"/>
          <path class="cls-2" d="M610.429,753.854c.226,.327,.407,.895,.054,1.186-.251,.208-.633,.16-.751,.358-.124,.209,.262,.326,.249,.624-.018,.414-.794,.909-1.526,1.072-.533,.119-.831,.015-1.026,.196-.212,.196,.034,.413-.13,.751-.142,.291-.471,.431-.799,.614-1.462,.818-1.382,1.646-2.359,1.82-.495,.088-.748-.083-1.091,.108-.355,.198-.235,.467-.534,.757-.427,.415-1.398,.571-2.114,.42-.895-.188-1.457-.868-1.346-1.414,.049-.24,.226-.45,.081-.577-.148-.129-.462-.026-.8-.042-.548-.027-.69-.348-1.324-.84-1.096-.851-1.826-.788-1.964-1.393-.068-.298,.055-.545-.147-.622-.282-.107-.677,.315-1.199,.296-.538-.02-.946-.5-1.024-.919-.133-.715,.643-1.541,1.485-1.788,.576-.169,.975-.005,1.26-.242,.29-.242-.034-.486,.123-.94,.207-.6,.895-.53,2.155-1.597,.349-.295,.6-.558,1.016-.606,.398-.045,.646,.14,.843,.032,.198-.11,.037-.351,.111-.701,.121-.57,.811-1.167,1.585-1.343,.135-.031,.588-.134,.978,.005,.367,.13,.282,.334,.684,.556,.422,.233,.665,.091,1.077,.32,.309,.172,.254,.298,.581,.631,.187,.191,.48,.366,1.067,.716,.848,.506,1.013,.526,1.237,.805,.187,.233,.157,.324,.358,.467,.341,.242,.749,.208,1.208,.267,.863,.113,1.639,.522,1.984,1.021Z"/>
          <path class="cls-5" d="M597.322,753.159c1.519-1.023,2.172-.967,2.968-1.859,.611-.685,.538-1.068,1.077-1.32,.853-.399,2.141,.045,3.108,.49-.046-.104-.145-.252-.316-.408-.042-.038-.094-.075-.166-.115-.412-.229-.655-.087-1.077-.32-.401-.222-.317-.426-.684-.556-.39-.139-.843-.035-.978-.005-.773,.176-1.464,.773-1.585,1.343-.074,.35,.087,.591-.111,.701-.196,.108-.445-.078-.843-.032-.415,.048-.667,.311-1.016,.606-1.26,1.067-1.948,.996-2.155,1.597-.157,.455,.168,.699-.123,.94-.285,.237-.683,.073-1.26,.242-.842,.247-1.618,1.073-1.485,1.788,.078,.418,.485,.899,1.024,.919,.521,.019,.917-.403,1.199-.296,.202,.077,.079,.324,.147,.622,.139,.606,.868,.542,1.964,1.393,.634,.492,.776,.813,1.324,.84,.173,.008,.8,.042,.8,.042h0c-.36-.316-.91-.789-1.61-1.354-.76-.613-1.01-.78-1.381-1.168-.699-.731-1.112-1.163-1.085-1.726,.041-.867,1.1-1.581,2.262-2.363Z"/>
          <g>
            <path class="cls-11" d="M595.501,752.403c3.988,.545,7.829,.081,11.695-.978-3.425,2.051-7.991,2.564-11.695,.978h0Z"/>
            <path class="cls-11" d="M594.232,754.281c4.989,.579,9.988-.073,14.811-1.4-4.47,2.322-9.998,3.013-14.811,1.4h0Z"/>
            <path class="cls-11" d="M592.167,756.475c6.438,.941,12.919,.108,19.1-1.776-5.813,2.878-12.871,3.753-19.1,1.776h0Z"/>
            <path class="cls-11" d="M595.044,758.144c4.397,1.387,8.945,1.065,13.207-.635-3.725,2.692-9.258,3.051-13.207,.635h0Z"/>
            <path class="cls-11" d="M597.046,750.966c2.826,.428,5.424,.16,8.181-.552-2.271,1.704-5.715,2.018-8.181,.552h0Z"/>
          </g>
        </g>
      </g>
      <path class="cls-10" d="M585.331,753.844c1.684-6.604,6.9-12.852,13.875-14.357,6.981-1.417,12.992-.377,16.791-7.787,2.021-3.854,2.764-8.374,3.322-12.85,.159,2.263,.114,4.546-.148,6.826-.742,7.459-4.897,14.008-12.908,14.784-10.436,.589-16.168,3.768-20.932,13.384h0Z"/>
    </g>
  </g>
</svg>