<?xml version="1.0" encoding="UTF-8"?>
<svg id="_Слой_12" data-name="Слой 12" xmlns="http://www.w3.org/2000/svg" viewBox="0 0 1078.846 1068.725">
  <defs>
    <style>
      .cls-1 {
        fill: #fff;
      }

      .cls-1, .cls-2, .cls-3, .cls-4 {
        fill-rule: evenodd;
      }

      .cls-2 {
        fill: #543a2e;
        opacity: .55;
      }

      .cls-2, .cls-3 {
        isolation: isolate;
      }

      .cls-3 {
        opacity: .3;
      }

      .cls-3, .cls-4 {
        fill: #27221e;
      }

      .cls-5 {
        fill: #6b3529;
      }
    </style>
  </defs>
  <g id="_голова" data-name="голова">
    <g id="_рот" data-name=" рот">
      <path class="cls-4" d="M778.804,635.25c-.134-1.064,.313-1.989,.313-1.989,.418-.875,1.087-1.301,1.192-1.365,5.107-3.096,23.866,11.453,25.951,23.925,1.077,6.44-6.911,13.346-9.198,12.577-.831-.28-1.092-1.55-1.139-1.779-.669-3.253,3.858-5.088,5.366-8.87,1.992-4.995-1.567-12.675-6.559-16.323-6.095-4.454-15.636-3.855-15.927-6.177Z"/>
      <path class="cls-1" d="M806.261,655.821c-.081-.486-.19-.975-.32-1.465-.011,.003-.023,.005-.034,.009,.01-.01,.018-.021,.028-.031-.47-1.764-1.242-3.553-2.234-5.314l-.182-.322c-.922-1.59-2.02-3.153-3.232-4.65-1.266-1.558-2.83-3.277-4.734-5.019-1.751-1.602-3.454-2.916-5.002-3.985-.285,.06-1.472,.341-2.223,1.461-.17,.253-.71,1.059-.541,2.045,.238,1.386,1.691,2.042,2.081,2.218,1.936,.874,3.877-.072,4.212-.241-1.693,.629-2.783,1.93-2.706,3.126,.054,.826,.662,1.579,.784,1.729,.152,.188,.621,.755,1.382,1.069,1.559,.642,3.108-.29,3.302-.411-.402,.317-1.639,1.372-1.806,2.93-.029,.271-.073,.733,.137,1.255,.358,.889,1.177,1.265,1.344,1.341,1.032,.474,2.354,.204,3.412-.646-.147,.083-1.967,1.148-2.034,2.963-.009,.238-.037,1.008,.475,1.751,.053,.078,.483,.684,1.233,.98,1.049,.414,2.348,.072,3.354-.83-.569,.52-2.019,1.986-2.174,4.083-.041,.559-.088,1.348,.414,2.11,.07,.105,.652,.96,1.748,1.182,1.091,.22,2.258-.275,2.99-1.256,.525-1.798,.7-3.858,.328-6.083h0Z"/>
      <path class="cls-3" d="M789.359,634.266c1.096,.695,2.499,1.651,4.047,2.894,3.061,2.459,5.208,4.852,6.5,6.427,1.66,2.023,2.942,3.587,4.155,6.037,1.118,2.258,3.055,6.17,2.198,10.878-.298,1.637-.853,2.927-1.294,3.784,.224-2.16,.315-5.47-.661-9.286-1.278-4.997-3.723-8.277-6.213-11.615-1.836-2.462-4.655-5.779-8.731-9.119h0Z"/>
      <g id="_Слой_15" data-name=" Слой 15">
        <path class="cls-5" d="M777.655,640.575c5.367,2.653,9.883,7.124,12.664,12.432,2.483,4.67,3.652,10.112,3.168,15.37-.222-2.792-.675-5.535-1.448-8.179-2.278-8.016-7.615-14.826-14.383-19.623h0Z"/>
        <path class="cls-5" d="M808.439,662.195c.063,4.846-3.947,9.155-8.76,9.589-1.568,.143-3.162-.031-4.579-.633,2.608,.212,5.187-.14,7.467-1.376,2.951-1.56,4.91-4.393,5.872-7.58h0Z"/>
        <path class="cls-5" d="M786.256,627.884c-3.345-1.195-8.303-1.401-10.092,2.255-.509,1.118-.588,2.461-.483,3.812-.567-1.233-.785-2.703-.363-4.124,.632-2.182,2.887-3.497,5.047-3.692,2.091-.209,4.282,.46,5.891,1.749h0Z"/>
        <path class="cls-5" d="M771.685,630.709c-1.391,4.763,.442,9.067,4.826,11.382-5.333-.624-8.078-7.116-4.826-11.382h0Z"/>
        <path class="cls-5" d="M789.86,664.055c-.159,2.546,.296,5.059,1.732,7.153,1.417,2.112,3.577,3.462,6.008,4.243-1.327,.074-2.676-.266-3.893-.881-3.742-1.829-5.568-6.716-3.847-10.515h0Z"/>
      </g>
      <path class="cls-2" d="M788.03,653.785c3.054,5.527,4.548,10.634,5.323,14.312-.004-2.845-.394-9.021-4.116-15.607-3.753-6.642-8.901-10.173-11.342-11.636,2.886,2.669,6.803,6.901,10.134,12.93h0Z"/>
    </g>
  </g>
</svg>