<?xml version="1.0" encoding="UTF-8"?>
<svg id="_Слой_12" data-name="Слой 12" xmlns="http://www.w3.org/2000/svg" viewBox="0 0 1078.846 1068.725">
  <defs>
    <style>
      .cls-1 {
        fill: #ff9c2b;
        opacity: .55;
      }

      .cls-1, .cls-2, .cls-3, .cls-4, .cls-5, .cls-6, .cls-7 {
        fill-rule: evenodd;
      }

      .cls-2 {
        fill: #8f5f36;
        opacity: .16;
      }

      .cls-3 {
        fill: #ffe282;
        opacity: .73;
      }

      .cls-4 {
        fill: #f7b440;
      }

      .cls-5 {
        fill: none;
        stroke: #000;
        stroke-miterlimit: 10;
        stroke-width: 2px;
      }

      .cls-6 {
        fill: #b57300;
        opacity: .35;
      }

      .cls-7 {
        fill: #f7c185;
      }
    </style>
  </defs>
  <g id="_рука" data-name="рука">
    <path class="cls-6" d="M613.762,705.377c-.284,3.897,.979,9.872,4.919,12.075,2.343,1.31,4.611,.714,14.087-2.46,17.893-5.992,20.278-7.374,21.689-10.286,2.322-4.789-1.103-7.292,1.118-10.733,4.02-6.227,16.402,1.143,31.975-4.472,2.663-.96,10.829-4.027,16.547-12.075,6.259-8.81,9.426-23.368,4.025-27.95-5.455-4.628-15.271,4.542-59.702,28.174-20.52,10.914-33.875,16.984-34.658,27.727Z"/>
    <g id="_Слой_21" data-name="Слой 21">
      <path class="cls-7" d="M647.804,688.895c3.396,4.049,4.271,9.421,2.177,13.552-2.394,4.723-7.712,5.933-8.734,6.166-2.912,.663-5.378,.235-6.73-.106-2.489,1.437-7.014,3.597-12.984,3.964-8.873,.545-15.36-3.213-18.281-4.958-10.899-6.514-15.095-16.979-16.805-21.361-2.274-5.828-7.135-18.284-1.043-31.32,.473-1.013,8.283-17.031,25.004-18.898,7.41-.828,13.373,1.481,16.316,2.874,7.026,16.696,14.053,33.392,21.079,50.087Z"/>
      <path class="cls-5" d="M648.638,689.34c3.396,4.049,4.271,9.421,2.177,13.552-2.394,4.723-7.712,5.933-8.734,6.166-2.912,.663-5.378,.235-6.73-.106-2.489,1.437-7.014,3.597-12.984,3.964-8.873,.545-15.36-3.213-18.281-4.958-10.899-6.514-15.095-16.979-16.805-21.361-2.274-5.828-7.135-18.284-1.043-31.32,.473-1.013,8.283-17.031,25.004-18.898,7.41-.828,13.373,1.481,16.316,2.874,7.026,16.696,14.053,33.392,21.079,50.087Z"/>
      <path class="cls-2" d="M648.638,689.34c3.396,4.049,4.271,9.421,2.177,13.552-2.394,4.723-7.712,5.933-8.734,6.166-2.912,.663-5.378,.235-6.73-.106-2.489,1.437-7.014,3.597-12.984,3.964-8.802,.541-15.237-3.154-18.281-4.958-11.317-6.706-15.563-17.685-16.805-21.361,2.054,2.35,5.124,5.558,9.263,8.867,5.907,4.722,13.952,11.152,22.882,11.851,15.956,1.249,28.1-16.319,29.212-17.974Z"/>
    </g>
    <g>
      <path class="cls-4" d="M696.942,680.557c-5.348,1.609-13.441,3.842-23.478,5.814-15.974,3.138-24.063,4.631-29.101,.906-5.08-3.757-2.886-8.195-8.464-23.713-5.957-16.572-11.425-19.759-9.174-24.756,.631-1.4,2.875-5.177,29.969-8.785,9.368-1.247,17.279-1.885,23.031-2.236,15.434-1.192,28.95,9.156,31.537,22.88,2.149,11.397-3.546,23.5-14.319,29.89Z"/>
      <g>
        <path class="cls-3" d="M635.675,661.998c-1.714-3.876-3.429-7.752-5.143-11.627,7.028-2.957,14.497-5.848,22.401-8.594,14.473-5.028,28.204-8.804,40.89-11.657,4.106,3.108,8.212,6.216,12.318,9.323-12.776,1.479-28.597,4.595-45.87,11.15-9.308,3.532-17.513,7.484-24.596,11.404Z"/>
        <path class="cls-3" d="M640.951,682.119c-1.206-4.063-2.413-8.125-3.619-12.188,11.049-.644,23.955-2.147,38.145-5.25,13.718-3,25.708-6.856,35.776-10.733-.745,3.95-1.491,7.901-2.236,11.851-8.762,3.26-18.547,6.42-29.292,9.168-14.101,3.606-27.167,5.817-38.774,7.152Z"/>
        <path class="cls-1" d="M675.852,685.521c-4.172,.455-8.345,.911-12.517,1.366-4.432-5.502-9.614-13.007-14.087-22.584-5.496-11.768-7.979-22.503-9.168-30.41,4.289-1.316,8.578-2.632,12.867-3.947,1.002,7.3,2.945,16.457,6.81,26.531,4.834,12.596,11.007,22.284,16.095,29.044Z"/>
        <path class="cls-1" d="M702.475,676.576c-3.102,1.948-6.204,3.896-9.306,5.843-4.432-5.502-9.614-13.007-14.087-22.584-5.496-11.768-7.979-22.503-9.168-30.41,4.399-.571,8.797-1.142,13.196-1.713,1.058,6.77,2.961,15.123,6.481,24.297,3.94,10.269,8.721,18.475,12.884,24.567Z"/>
      </g>
      <path class="cls-5" d="M696.969,680.722c-5.348,1.609-13.441,3.842-23.478,5.814-15.974,3.138-24.063,4.631-29.101,.906-5.08-3.757-2.886-8.195-8.464-23.713-5.957-16.572-11.425-19.759-9.174-24.756,.631-1.4,2.875-5.177,29.969-8.785,9.368-1.247,17.279-1.885,23.031-2.236,15.346-1.233,28.85,9.016,31.51,22.715,2.225,11.46-3.465,23.655-14.293,30.056Z"/>
      <g>
        <path class="cls-4" d="M629.165,646.537c-6.226-11.236-6.88-14.912-5.671-15.614,1.118-.649,3.569,1.395,5.976,.248,2.345-1.118,2.133-4.068,3.375-4.536,1.281-.483,3.785,1.797,8.932,11.929"/>
        <path d="M629.31,630.739c3.36,1.794,5.686,5.601,5.868,9.401,.083,.922,.148,1.755,.336,2.546,.597,2.579,2.209,4.563,4.176,6.463-3.729-1.1-6.464-4.934-6.503-8.818-.183-3.645-1.718-6.646-3.877-9.591h0Z"/>
        <path d="M629.165,646.537c-1.652-2.455-10.368-14.974-5.701-16.628,1.686-.336,3.333,.903,4.863,.578,2.398-.304,2.119-3.127,3.779-4.492,3.982-2.281,8.54,9.825,9.673,12.57-2.069-3.087-3.979-6.303-6.247-9.093-.658-.734-1.548-1.866-2.359-1.975-.546,.748-.781,2.128-1.589,3.16-1.313,1.97-4.143,2.199-6.099,1.447-.556-.152-1.082-.355-1.521-.343,.01,.026,.055-.061,.042-.034-.309,1.398,.511,3.167,.932,4.575,1.252,3.421,2.812,6.792,4.228,10.236h0Z"/>
      </g>
      <g>
        <path class="cls-4" d="M657.321,679.006c3.511,12.356,3.313,16.085,1.976,16.494-1.237,.378-3.159-2.169-5.763-1.599-2.538,.556-3.001,3.477-4.317,3.651-1.357,.18-3.277-2.61-5.989-13.646"/>
        <path d="M653.592,694.358c-2.865-2.51-4.266-6.746-3.579-10.488,.129-.917,.255-1.743,.251-2.556,.005-2.647-1.115-4.946-2.599-7.242,3.382,1.919,5.174,6.274,4.329,10.065-.649,3.592,.164,6.863,1.597,10.221h0Z"/>
        <path d="M657.321,679.006c1.051,2.767,6.696,16.938,1.775,17.489-.96,.002-1.71-.527-2.412-.887-1.397-.794-2.802-1.198-4.072-.186-.894,.653-1.535,2.381-2.821,2.922-4.397,1.317-6.085-11.507-6.564-14.438,1.314,3.476,2.443,7.042,4.018,10.274,.474,.864,1.084,2.168,1.849,2.46,.702-.605,1.244-1.895,2.265-2.717,1.693-1.615,4.565-1.197,6.268-.024,.507,.274,.973,.592,1.404,.68-.004-.028-.067,.047-.048,.024,.619-1.291,.222-3.201,.132-4.667-.442-3.616-1.196-7.254-1.793-10.929h0Z"/>
      </g>
    </g>
  </g>
</svg>