<?xml version="1.0" encoding="UTF-8"?>
<svg id="_Слой_12" data-name="Слой 12" xmlns="http://www.w3.org/2000/svg" viewBox="0 0 1078.846 1068.725">
  <defs>
    <style>
      .cls-1 {
        fill: #ff9c2b;
        opacity: .55;
      }

      .cls-1, .cls-2, .cls-3, .cls-4, .cls-5 {
        fill-rule: evenodd;
      }

      .cls-2 {
        fill: #ffe282;
        opacity: .73;
      }

      .cls-3 {
        fill: #f7b440;
      }

      .cls-4 {
        fill: none;
        stroke: #000;
        stroke-miterlimit: 10;
        stroke-width: 2px;
      }

      .cls-5 {
        fill: #b57300;
        opacity: .35;
      }
    </style>
  </defs>
  <g id="_тело" data-name="тело">
    <g>
      <path class="cls-3" d="M664.767,575.511c24.579,1.001,47.379,1.824,69.284,15.29,42.715,26.259,67.121,90.44,45.898,121.505-9.323,13.647-26.979,20.205-40.306,25.155-10.754,3.994-20.626,5.956-46.864,8.365-16.835,1.546-39.574,3.201-66.873,3.899-8.263-20.776-11.643-32.523-13.176-39.483-.22-.999-1.066-4.569-2.175-9.733-.861-4.008-2.192-9.804-4.53-18.788-2.265-8.707-5.416-19.737-10.426-35.037-7.896-24.118-6.394-34.332-6.36-37.279,.123-10.437,1.972-18.954,3.541-24.568,16.059-4.894,41.171-10.58,71.985-9.326Z"/>
      <g>
        <path class="cls-2" d="M774.634,637.681c-24.508,7.13-56.893,14.012-95.289,15.572-32.355,1.315-60.525-1.492-83.008-5.311-1.496-4.557-2.991-9.114-4.487-13.671,23.679,4.195,53.705,7.433,88.39,6.237,35.433-1.222,65.731-6.728,89.374-12.721,1.674,3.298,3.347,6.596,5.021,9.894Z"/>
        <path class="cls-2" d="M787.602,679.027c-24.44,7.64-57.362,15.25-96.726,17.035-31.872,1.445-59.588-1.309-81.611-5.071-1.421-4.457-2.842-8.915-4.263-13.372,22.914,4.139,52.467,7.335,86.769,5.698,37.942-1.811,69.744-8.964,93.495-16.175,.779,3.962,1.558,7.924,2.337,11.886Z"/>
        <path class="cls-2" d="M778.505,714.04c-20.34,7.5-48.429,15.517-82.573,18.531-30.827,2.721-57.341,.546-77.474-2.597l-4.025-15.652c20.661,4.395,48.712,8.197,81.839,6.484,36.577-1.891,66.541-9.844,87.652-17.217-1.806,3.484-3.612,6.968-5.419,10.452Z"/>
        <path class="cls-2" d="M751.923,604.682c-22.43,4.681-49.719,8.638-80.875,9.559-31.377,.928-59.028-1.448-81.807-4.837,.273-4.382,.546-8.764,.819-13.146,3.683-.777,5.445-.053,6.373,.783,.878,.79,1.348,1.986,2.095,1.912,.667-.066,1.11-1.101,1.371-1.912,20.883,2.79,45.111,4.706,72.044,4.455,26.01-.242,49.437-2.457,69.72-5.461,3.42,2.882,6.84,5.765,10.26,8.647Z"/>
      </g>
      <g>
        <path class="cls-1" d="M730.483,741.153c-11.828-19.685-25.526-46.778-35.776-80.721-9.904-32.794-13.57-61.983-14.757-84.436,3.13,.046,6.26,.092,9.39,.138,2.334,22.481,7.174,50.415,17.217,81.391,10.492,32.36,23.655,58.765,35.454,78.818-3.843,1.603-7.685,3.206-11.528,4.81Z"/>
        <path class="cls-1" d="M689.756,745.134c-12.599-23.01-26.523-53.607-36.629-91.129-7.93-29.443-11.612-56.11-13.185-78.294,3.944-.232,7.888-.463,11.832-.695,.898,21.588,3.996,48.682,12.298,78.932,10.61,38.659,26.055,69.113,39.16,90.612-4.492,.191-8.984,.383-13.476,.574Z"/>
        <path class="cls-1" d="M652.9,748.447c-11.528-20.045-24.795-47.587-34.452-81.96-9.291-33.072-12.416-62.417-13.183-84.986,4.845-.969,9.689-1.938,14.534-2.907-.356,21.927,1.404,51.755,10.23,85.797,9.344,36.04,23.351,64.236,34.937,83.693-4.022,.121-8.045,.241-12.067,.362Z"/>
        <path class="cls-1" d="M757.737,730.322c-9.381-18.563-19.539-42.553-27.254-71.455-7.751-29.038-10.895-55.014-11.999-75.849,3.403,1.432,6.807,2.864,10.21,4.296,1.401,19.158,4.636,42.417,11.627,68.199,7.543,27.814,17.399,50.976,26.565,69.025-3.05,1.928-6.1,3.856-9.149,5.784Z"/>
      </g>
      <path class="cls-5" d="M687.327,577.029c3.89,.243,9.407,.79,15.898,2.143,0,0,16.345,3.407,30.825,11.294,17.987,9.797,73.344,82.127,45.898,121.505-3.358,4.817-9.573,11.463-21.74,16.437-7.341,4.091-18.77,9.581-33.562,13.089-11.082,2.628-18.357,2.792-42.687,4.352-9.376,.601-23.475,1.55-40.919,2.907-.918-3.812-1.835-7.624-2.753-11.436,1.543,1.07,3.913,2.549,7.001,3.833,12.488,5.196,23.961,1.913,34.658-.447,30.173-6.657,30.535-.757,52.059-7.998,11.917-4.009,27.029-9.093,27.991-17.94,.305-2.81-.762-4.469-13.416-19.677-10.906-13.106-16.371-19.794-16.994-26.385-.562-5.951,1.471-9.037-1.118-13.193-3.234-5.189-8.21-3.273-13.193-7.379-9.398-7.746,.036-21.383-9.615-34.435-5.203-7.036-11.75-8.219-11.851-14.311-.081-4.857,4.035-6.972,3.578-11.627-.477-4.859-5.536-8.405-10.062-10.733Z"/>
      <path class="cls-4" d="M664.767,575.275c24.579,1.001,47.379,1.824,69.284,15.29,42.715,26.259,67.121,90.44,45.898,121.505-9.323,13.647-26.979,20.205-40.306,25.155-10.754,3.994-20.626,5.956-46.864,8.365-16.835,1.546-39.574,3.201-66.873,3.899-8.263-20.776-11.643-32.523-13.176-39.483-.22-.999-1.066-4.569-2.175-9.733-.861-4.008-2.192-9.804-4.53-18.788-2.265-8.707-5.416-19.737-10.426-35.037-7.896-24.118-6.394-34.332-6.36-37.279,.123-10.437,1.972-18.954,3.541-24.568,16.059-4.894,41.171-10.58,71.985-9.326Z"/>
      <g>
        <path class="cls-3" d="M591.612,594.443c.173-12.844,1.43-16.36,2.829-16.369,1.293-.008,2.406,2.983,5.064,3.182,2.591,.194,3.871-2.472,5.181-2.262,1.352,.217,2.393,3.439,1.832,14.79"/>
        <path d="M599.58,580.801c.969,1.601,1.548,3.468,1.632,5.412,.112,1.929-.39,3.978-1.206,5.662-.386,.842-.743,1.597-.972,2.377-.256,.775-.345,1.605-.398,2.448-.063,1.692,.289,3.439,.815,5.236-1.252-1.388-2.129-3.186-2.374-5.157-.141-.983-.077-1.993,.12-2.99,.205-1,.618-1.916,.986-2.736,.763-1.609,1.277-3.152,1.474-4.888,.202-1.715,.106-3.499-.078-5.362Z"/>
        <path d="M591.612,594.443c-.215-2.953-1.567-18.145,3.306-17.265,.921,.273,1.487,.994,2.057,1.54,1.111,1.16,2.342,1.95,3.848,1.344,1.044-.37,2.152-1.842,3.539-1.992,4.59-.003,2.536,12.767,2.156,15.713-.264-3.707-.325-7.446-.908-10.994-.207-.963-.418-2.388-1.067-2.886-.846,.379-1.735,1.459-2.948,1.954-2.085,1.063-4.717-.16-6.013-1.771-.407-.408-.763-.845-1.15-1.053-.004,.027,.078-.026,.053-.009-.963,1.06-1.129,3.003-1.462,4.434-.611,3.591-.931,7.292-1.411,10.985h0Z"/>
      </g>
      <g>
        <path class="cls-3" d="M638.289,737.32c2.916,12.51,2.539,16.225,1.184,16.569-1.253,.318-3.051-2.318-5.68-1.873-2.562,.434-3.164,3.329-4.487,3.44-1.364,.114-3.149-2.764-5.329-13.917"/>
        <path class="cls-5" d="M638.351,736.753c.978,0,1.548,6.571,1.796,9.431,.496,5.714,.053,6.808-.612,7.138-1.388,.689-3.055-2.318-5.68-1.873-2.562,.434-3.164,3.329-4.487,3.44-3.309,.277-5.944-13.728-5.329-13.917,.327-.101,.843,3.861,4.145,5.66,.169,.092,3.194,1.686,5.702,.447,4.2-2.075,3.369-10.326,4.465-10.326Z"/>
        <path d="M630.979,734.669c1.824,1.529,3.054,3.948,3.063,6.402,.059,1.574-.626,3.09-.878,4.534-.369,2.169,.016,4.195,.628,6.412-2.38-2.185-3.101-5.993-2.035-9.003,.915-2.849,.233-5.532-.778-8.344h0Z"/>
        <path d="M638.289,737.32c.918,2.814,5.877,17.239,.936,17.554-.959-.044-1.682-.608-2.367-1.001-2.609-1.729-4.073-.837-5.795,1.523-5.199,5.003-6.852-11.02-7.086-13.856,1.146,3.535,2.103,7.151,3.521,10.455,.432,.886,.979,2.218,1.729,2.545,.73-.57,1.334-1.833,2.392-2.605,1.769-1.532,4.617-.977,6.262,.276,.493,.298,.944,.637,1.37,.746-.002-.028-.069,.044-.049,.021,.68-1.261,.374-3.186,.355-4.656-.269-3.633-.847-7.302-1.267-11.002h0Z"/>
      </g>
    </g>
  </g>
</svg>