<?xml version="1.0" encoding="UTF-8"?>
<svg id="_Слой_12" data-name="Слой 12" xmlns="http://www.w3.org/2000/svg" viewBox="0 0 502.324 709.214">
  <defs>
    <style>
      .cls-1 {
        fill: #2e5222;
      }

      .cls-2, .cls-3 {
        fill: #427430;
      }

      .cls-3 {
        stroke: #000;
        stroke-linejoin: round;
        stroke-width: 3px;
      }
    </style>
  </defs>
  <g id="_жопа" data-name="жопа">
    <path class="cls-3" d="M152.609,404.978c-13.993,13.534-39.593,14.947-61.435,1.37-1.435-4.696-2.87-9.391-4.304-14.087-2.509-.523-6.419-1.656-10.565-4.304-3.997-2.553-6.611-5.491-8.139-7.5-3.498,1.106-16.72,4.837-29.673-1.826-16.534-8.505-22.6-28.782-19.63-43.824,5.343-27.051,39.546-35.742,43.618-36.714,35.236-8.405,76.452,11.684,91.963,44.931,2.147,4.601,19.346,41.468-1.836,61.955Z"/>
    <path class="cls-1" d="M70.583,324.541c-16.205,7.973-23.694,24.686-19.331,37.702,3.933,11.734,16.135,16.397,18.13,17.125-1.75-5.606-3.415-12.935-3.819-21.597-.669-14.336,2.415-25.944,5.021-33.229Z"/>
    <g>
      <path class="cls-2" d="M69.166,379.457c-1.7-1.484-12.731-11.442-12.782-27.847-.055-17.597,12.57-27.963,14.152-29.216"/>
      <path d="M69.166,379.457c-14.091-10.078-18.428-29.943-9.798-45.005,2.784-4.838,6.559-9.098,11.167-12.058-7.378,7.685-12.443,17.576-12.612,28.257-.372,10.683,4.177,20.82,11.242,28.805h0Z"/>
    </g>
  </g>
</svg>