<?xml version="1.0" encoding="UTF-8"?>
<svg id="_Слой_12" data-name="Слой 12" xmlns="http://www.w3.org/2000/svg" viewBox="0 0 502.324 709.214">
  <defs>
    <style>
      .cls-1 {
        fill: #2e5222;
      }

      .cls-2 {
        fill: #427430;
        stroke: #000;
        stroke-miterlimit: 10;
        stroke-width: 3px;
      }
    </style>
  </defs>
  <g id="_ноги" data-name="ноги">
    <g>
      <path class="cls-2" d="M30.969,334.068c-1.409,18.968-1.16,45.381,6.261,75.578,4.595,18.696,10.868,34.485,16.953,47.093-3.404,12.391-6.582,25.845-9.28,40.292-3.567,19.099-5.739,36.955-6.984,53.228-7.698,.972-13.705,5.727-15.131,11.756-1.711,7.234,3.893,13.259,5.739,15.244,8.208,8.826,20.805,8.144,22.89,8.031,8.035-.435,6.862-3.361,20.741-6.271,9.25-1.939,17.082-2.172,21.326-2.152,3.705,.017,6.61,.086,8.609,.391,13.705,2.096,19.499,2.04,21.913,1.957,5.257-.182,9.025-.361,10.174-2.739,1.403-2.902-2.024-7.16-2.739-8.022,2.787-1.421,4.156-2.79,4.109-4.109-.092-2.555-5.505-4.918-16.239-7.089-.495-.689-1.266-1.667-2.348-2.693-4.961-4.708-11.182-5.431-15.457-5.87-10.597-1.087-19.633,2.225-24.261,4.304,20.659-37.708,23.039-66.008,23.087-79.63,.089-25.532-7.768-69.652-8.354-72.895-.201-1.111-.347-1.887-.403-2.175-2.764-14.296-6.547-25.82-9.463-33.626-2.612,.359-27.84,3.424-42.808-14.094-4.898-5.732-7.197-11.913-8.335-16.509Z"/>
      <path d="M38.509,548.735c-.118,1.515,.764,2.668,1.92,3.486,.567,.406,1.279,.573,1.816,1.044,.555,.462,1.109,.958,1.634,1.727l-.063,.19c-1.824,.492-3.414-.362-4.472-1.785-1.138-1.188-1.828-3.194-1.027-4.712,0,0,.193,.051,.193,.051h0Z"/>
      <path d="M77.779,552.227c-.613,1.566-1.599,3.009-2.861,4.148-1.207,1.342-2.951,2.178-4.796,1.547,0,0-.051-.193-.051-.193,1.177-1.391,2.352-1.962,3.891-2.637,1.352-.79,2.578-1.791,3.646-2.97,0,0,.17,.105,.17,.105h0Z"/>
    </g>
    <path class="cls-1" d="M55.864,457.944c-.148,.592-1.187,4.527,.894,6.857,2.913,3.261,7.992-1.029,18.484,.298,5.418,.685,7.622,2.28,13.863,1.938,5.643-.309,7.063-1.789,7.602-2.534,1.855-2.562,.628-6.648-.596-9.093-4.822-9.629-22.375-10.45-32.646-5.217-2.036,1.037-6.488,3.306-7.602,7.751Z"/>
  </g>
</svg>