<?xml version="1.0" encoding="UTF-8"?>
<svg id="_Слой_12" data-name="Слой 12" xmlns="http://www.w3.org/2000/svg" viewBox="0 0 502.324 709.214">
  <defs>
    <style>
      .cls-1 {
        fill: #2e5222;
      }

      .cls-2, .cls-3 {
        fill: #427430;
      }

      .cls-3 {
        stroke: #000;
        stroke-miterlimit: 10;
        stroke-width: 3px;
      }
    </style>
  </defs>
  <g id="_ноги" data-name="ноги">
    <g>
      <g>
        <path class="cls-3" d="M80.3,342.546c-.096,17.632,2.175,45.677,15.882,76.253,6.85,15.279,14.93,27.565,22.253,36.984-2.912,11.237-5.641,23.071-8.087,35.478-4.507,22.867-7.411,44.436-9.196,64.37-7.698,.972-13.705,5.727-15.131,11.756-1.711,7.234,3.893,13.259,5.739,15.244,8.208,8.826,20.805,8.144,22.89,8.031,8.035-.435,6.862-3.361,20.741-6.271,9.25-1.939,17.082-2.172,21.326-2.152,3.705,.017,6.61,.086,8.609,.391,13.705,2.096,19.499,2.04,21.913,1.957,5.257-.182,9.025-.361,10.174-2.739,1.403-2.902-2.024-7.16-2.739-8.022,2.787-1.421,4.156-2.79,4.109-4.109-.092-2.555-5.505-4.918-16.239-7.089-.093-.985-.448-3.218-2.152-5.237-3.085-3.653-7.863-3.368-8.413-3.326-4.111-.161-8.879-.07-14.14,.542-6.784,.79-12.631,2.244-17.36,3.762,20.659-37.708,23.039-66.008,23.087-79.63,.089-25.532-7.768-69.652-8.354-72.895-.201-1.111-.347-1.887-.403-2.175-2.764-14.296-6.547-25.82-9.463-33.626-11.681-2.092-26.679-6.095-42.808-14.094-8.655-4.292-16.055-8.95-22.237-13.404Z"/>
        <g>
          <path class="cls-2" d="M194.674,573.826c-5.347-2.282-13.706-5.09-24.261-5.674-12.738-.705-22.878,2.149-28.761,4.304"/>
          <path d="M194.086,575.206c-16.223-7.557-35.446-8.524-52.433-2.749,17.03-6.831,36.517-6.825,53.611-.01,0,0-1.178,2.759-1.178,2.759h0Z"/>
        </g>
        <g>
          <path class="cls-2" d="M182.544,562.628c-3.436-.476-7.309-.781-11.544-.737-9.594,.1-17.668,1.958-23.674,3.913"/>
          <path d="M182.338,564.114c-11.483-2.114-23.553-1.526-35.012,1.691,11.142-4.166,23.348-5.848,35.423-4.662l-.411,2.972h0Z"/>
        </g>
      </g>
      <g>
        <path class="cls-2" d="M118.435,455.783c3.217,3.652,6.435,7.304,9.652,10.957"/>
        <polygon points="119.561 454.791 128.087 466.739 117.31 456.774 119.561 454.791 119.561 454.791"/>
      </g>
    </g>
    <path class="cls-1" d="M116.283,471.228c-.159,.592-1.273,4.527,.959,6.857,3.124,3.261,8.571-1.029,19.824,.298,5.811,.685,8.175,2.28,14.868,1.938,6.052-.309,7.575-1.789,8.153-2.534,1.989-2.562,.674-6.648-.639-9.093-5.172-9.629-23.996-10.45-35.012-5.217-2.183,1.037-6.959,3.306-8.153,7.751Z"/>
  </g>
</svg>