<?xml version="1.0" encoding="UTF-8"?>
<svg id="_Слой_26" data-name="Слой 26" xmlns="http://www.w3.org/2000/svg" viewBox="0 0 1078.846 1068.725">
  <defs>
    <style>
      .cls-1 {
        fill: #fff;
        fill-rule: evenodd;
      }
    </style>
  </defs>
  <g id="_Слой_2" data-name=" Слой 2">
    <g id="_Слой_20" data-name=" Слой 20">
      <g id="_Слой_19" data-name=" Слой 19">
        <path class="cls-1" d="M304.317,380.948c-3.494,4.354-3.779,9.547-1.363,12.296,1.309,1.49,3.878,2.794,6.322,1.963,2.621-.891,4.408-4.002,3.915-7.516-.034,.224-.648,4.801,2.662,7.36,.527,.407,2.824,2.055,5.324,1.253,2.474-.794,4.209-3.686,3.915-7.046-.045,.287-.633,4.469,2.505,7.203,.264,.23,3.433,2.902,6.89,1.566,2.76-1.067,4.531-4.234,4.071-7.673-.815,2.899,.287,5.948,2.662,7.516,1.989,1.314,4.722,1.49,6.89,.157,2.388-1.469,3.558-4.441,2.819-7.303,.52-1.994,1.04-3.989,1.56-5.984-6.806,.276-14.364,.24-22.543-.336-9.494-.669-18.086-1.945-25.629-3.455h0Z"/>
        <path class="cls-1" d="M352.276,384.633c-2.651,4.913-1.994,10.072,.877,12.34,1.556,1.229,4.318,2.049,6.572,.791,2.417-1.349,3.614-4.732,2.494-8.099,.007,.226,.229,4.839,3.946,6.759,.592,.306,3.148,1.512,5.463,.272,2.29-1.227,3.475-4.385,2.579-7.637,.007,.29,.184,4.51,3.764,6.633,.301,.179,3.9,2.235,7.059,.297,2.522-1.547,3.692-4.982,2.62-8.281-.278,2.999,1.355,5.798,3.974,6.913,2.226,.947,4.961,.596,6.805-1.089,2.23-2.038,2.711-5.62,.974-8.495-.813-1.359-1.627-2.719-2.44-4.078-5.908,.977-12.204,1.819-18.858,2.45-9.215,.874-17.861,1.223-25.831,1.225h0Z"/>
      </g>
    </g>
  </g>
</svg>