<?xml version="1.0" encoding="UTF-8"?>
<svg id="_Слой_26" data-name="Слой 26" xmlns="http://www.w3.org/2000/svg" viewBox="0 0 1078.846 1068.725">
  <defs>
    <style>
      .cls-1, .cls-2, .cls-3 {
        fill: #fff;
      }

      .cls-1, .cls-2, .cls-3, .cls-4 {
        fill-rule: evenodd;
      }

      .cls-2 {
        opacity: .45;
      }

      .cls-2, .cls-3 {
        isolation: isolate;
      }

      .cls-5 {
        fill: none;
        stroke: #000;
        stroke-miterlimit: 10;
        stroke-width: 3px;
      }

      .cls-6 {
        opacity: .08;
      }

      .cls-3 {
        opacity: .14;
      }

      .cls-4 {
        fill: #0f0f0f;
      }
    </style>
  </defs>
  <g id="_Слой_24" data-name=" Слой 24">
    <path class="cls-4" d="M190.394,622.129c-.79-.702-2.398-2.323-3.271-4.953-1.031-3.103-.423-5.754-.139-6.757,19.02-5.022,38.039-10.045,57.058-15.067,1.055,.994,2.109,1.988,3.164,2.982,79.424-20.284,158.848-40.567,238.272-60.851,7.799-5.668,15.599-11.335,23.398-17.002,8.142-1.227,16.283-2.454,24.425-3.682,1.511,6.138,3.022,12.275,4.533,18.413-7.66,3.101-15.32,6.202-22.98,9.303-9.594-.797-19.188-1.593-28.783-2.39-79.283,20.314-158.566,40.628-237.849,60.942-.491,1.458-.982,2.916-1.473,4.374-18.786,4.896-37.571,9.792-56.357,14.687h0Z"/>
    <g id="_Слой_26-2" data-name=" Слой 26">
      <path class="cls-3" d="M515.624,541.15c-9.305-.399-18.61-.798-27.916-1.197l-95.308,24.5c-48.059,12.872-96.118,25.743-144.177,38.615,79.283-20.314,158.566-40.628,237.849-60.942,9.594,.797,19.188,1.593,28.783,2.39,7.66-3.101,15.32-6.202,22.98-9.303-1.511-6.137-3.022-12.275-4.533-18.413,.595,5.77,1.189,11.541,1.784,17.311-6.487,2.347-12.975,4.693-19.462,7.04h0Z"/>
      <path class="cls-2" d="M527.185,520.979c-.107-.385-5.698,.75-16.775,3.407-3.968,2.755-7.937,5.51-11.906,8.265,4.098-1.959,8.196-3.917,12.294-5.876,11.032-3.476,16.495-5.409,16.387-5.797h0Z"/>
      <g class="cls-6">
        <path class="cls-1" d="M241.483,595.931c-2.28,1.098-3.816,3.277-3.967,5.696-.185,2.966,1.74,5.818,4.75,6.888-.332-.088-5.129-1.439-6.462-5.92-.687-2.308-.119-4.317,.18-5.17,1.833-.498,3.666-.996,5.499-1.495h0Z"/>
        <path class="cls-1" d="M234.803,597.705c-2.28,1.098-3.816,3.277-3.967,5.696-.185,2.966,1.74,5.818,4.75,6.888-.332-.088-5.129-1.439-6.462-5.92-.687-2.308-.119-4.317,.18-5.17,1.833-.498,3.666-.996,5.499-1.495h0Z"/>
        <path class="cls-1" d="M228.124,599.478c-2.28,1.098-3.816,3.277-3.967,5.696-.185,2.966,1.74,5.818,4.75,6.888-.332-.088-5.129-1.439-6.462-5.92-.687-2.308-.119-4.317,.18-5.17,1.833-.498,3.666-.996,5.499-1.495h0Z"/>
        <path class="cls-1" d="M221.445,601.252c-2.28,1.098-3.816,3.277-3.967,5.696-.185,2.966,1.74,5.818,4.75,6.888-.332-.088-5.129-1.439-6.462-5.92-.687-2.308-.119-4.317,.18-5.17,1.833-.498,3.666-.996,5.499-1.495h0Z"/>
        <path class="cls-1" d="M214.766,603.025c-2.28,1.098-3.816,3.277-3.967,5.696-.185,2.966,1.74,5.818,4.75,6.888-.332-.088-5.129-1.439-6.462-5.92-.687-2.308-.119-4.317,.18-5.17,1.833-.498,3.666-.996,5.499-1.495h0Z"/>
        <path class="cls-1" d="M208.087,604.799c-2.28,1.098-3.816,3.277-3.967,5.696-.185,2.966,1.74,5.818,4.75,6.888-.332-.088-5.129-1.439-6.462-5.92-.687-2.308-.119-4.317,.18-5.17,1.833-.498,3.666-.996,5.499-1.495h0Z"/>
        <path class="cls-1" d="M201.408,606.572c-2.28,1.098-3.816,3.277-3.967,5.696-.185,2.966,1.74,5.818,4.75,6.888-.332-.088-5.129-1.439-6.462-5.92-.687-2.308-.119-4.317,.18-5.17,1.833-.498,3.666-.996,5.499-1.495h0Z"/>
        <path class="cls-1" d="M194.728,608.346c-2.28,1.098-3.816,3.277-3.967,5.696-.185,2.966,1.74,5.818,4.75,6.888-.332-.088-5.129-1.439-6.462-5.92-.687-2.308-.119-4.317,.18-5.17,1.833-.498,3.666-.996,5.499-1.495h0Z"/>
      </g>
    </g>
    <path class="cls-5" d="M190.394,622.129c-.79-.702-2.398-2.323-3.271-4.953-1.031-3.103-.423-5.754-.139-6.757,19.02-5.022,38.039-10.045,57.058-15.067,1.055,.994,2.109,1.988,3.164,2.982,79.424-20.284,158.848-40.567,238.272-60.851,7.799-5.668,15.599-11.335,23.398-17.002,8.142-1.227,16.283-2.454,24.425-3.682,1.511,6.138,3.022,12.275,4.533,18.413-7.66,3.101-15.32,6.202-22.98,9.303-9.594-.797-19.188-1.593-28.783-2.39-79.283,20.314-158.566,40.628-237.849,60.942-.491,1.458-.982,2.916-1.473,4.374-18.786,4.896-37.571,9.792-56.357,14.687h0Z"/>
  </g>
</svg>