<?xml version="1.0" encoding="UTF-8"?>
<svg id="_Слой_26" data-name="Слой 26" xmlns="http://www.w3.org/2000/svg" viewBox="0 0 1078.846 1068.725">
  <defs>
    <style>
      .cls-1 {
        fill: #fff;
      }

      .cls-1, .cls-2, .cls-3 {
        fill-rule: evenodd;
      }

      .cls-4 {
        fill: #b33232;
      }

      .cls-2 {
        fill: #ff6b6b;
      }

      .cls-3 {
        fill: #963f3f;
        isolation: isolate;
        opacity: .73;
      }
    </style>
  </defs>
  <g id="_Слой_2" data-name=" Слой 2">
    <g id="_Слой_20" data-name=" Слой 20">
      <g id="_Слой_19" data-name=" Слой 19">
        <path class="cls-1" d="M304.317,380.948c-3.494,4.354-3.779,9.547-1.363,12.296,1.309,1.49,3.878,2.794,6.322,1.963,2.621-.891,4.408-4.002,3.915-7.516-.034,.224-.648,4.801,2.662,7.36,.527,.407,2.824,2.055,5.324,1.253,2.474-.794,4.209-3.686,3.915-7.046-.045,.287-.633,4.469,2.505,7.203,.264,.23,3.433,2.902,6.89,1.566,2.76-1.067,4.531-4.234,4.071-7.673-.815,2.899,.287,5.948,2.662,7.516,1.989,1.314,4.722,1.49,6.89,.157,2.388-1.469,3.558-4.441,2.819-7.303,.52-1.994,1.04-3.989,1.56-5.984-6.806,.276-14.364,.24-22.543-.336-9.494-.669-18.086-1.945-25.629-3.455h0Z"/>
        <path class="cls-1" d="M352.276,384.633c-2.651,4.913-1.994,10.072,.877,12.34,1.556,1.229,4.318,2.049,6.572,.791,2.417-1.349,3.614-4.732,2.494-8.099,.007,.226,.229,4.839,3.946,6.759,.592,.306,3.148,1.512,5.463,.272,2.29-1.227,3.475-4.385,2.579-7.637,.007,.29,.184,4.51,3.764,6.633,.301,.179,3.9,2.235,7.059,.297,2.522-1.547,3.692-4.982,2.62-8.281-.278,2.999,1.355,5.798,3.974,6.913,2.226,.947,4.961,.596,6.805-1.089,2.23-2.038,2.711-5.62,.974-8.495-.813-1.359-1.627-2.719-2.44-4.078-5.908,.977-12.204,1.819-18.858,2.45-9.215,.874-17.861,1.223-25.831,1.225h0Z"/>
        <path class="cls-2" d="M328.38,418.382c-2.011,.78-5.08-.074-5.637-1.566-1.125-3.011,7.108-10.925,16.285-12.84,10.669-2.226,19.607,4.283,21.766,5.95,.953-1.45,3.909-5.527,9.082-6.733,5.512-1.285,10.13,1.455,11.901,2.505,12.179,7.229,15.812,27.708,11.744,43.219-1.402,5.346-3.746,14.283-11.744,18.321-5.127,2.589-11.851,2.797-17.381,.313-14.718-6.612-19.725-31.737-20.983-38.051-1.149-5.764-2.569-16.049-6.441-16.57-1.185-.159-2.943,.554-4.05,1.224-2.581,1.562-2.6,3.475-4.541,4.228h0Z"/>
        <path class="cls-4" d="M360.793,409.926c9.485,10.163,14.62,24.491,13.78,38.364-1.181-6.781-2.683-13.41-5.02-19.855-2.291-6.461-5.342-12.534-8.76-18.509h0Z"/>
        <path class="cls-3" d="M388.903,412.43c-1.917-2.737-4.26-5.069-7.126-6.731-1.94-1.125-6.494-3.766-11.901-2.505-5.173,1.206-8.129,5.284-9.082,6.733-2.159-1.667-11.097-8.177-21.766-5.95-9.177,1.915-17.41,9.83-16.285,12.84,.188,.503,.664,.93,1.285,1.25,1.042,.218,2.108,.413,3.169,.584,.415-.04,.817-.126,1.182-.268,1.941-.753,1.96-2.666,4.541-4.228,1.107-.67,2.866-1.384,4.05-1.224,2,.269,3.436,3.173,4.444,6.512,2.786-.211,6.093-.72,9.67-1.842,6.437-2.02,6.895-3.872,12.214-4.854,6.539-1.207,8.782,1.05,15.502,1.096,3.456,.024,7.001-.546,10.101-1.411h0Z"/>
      </g>
    </g>
  </g>
</svg>