<?xml version="1.0" encoding="UTF-8"?>
<svg id="_Слой_31" data-name="Слой 31" xmlns="http://www.w3.org/2000/svg" viewBox="0 0 1805.452 1668">
  <defs>
    <style>
      .cls-1 {
        stroke: #000;
        stroke-miterlimit: 10;
        stroke-width: 6px;
      }
    </style>
  </defs>
  <g id="_Слой_4" data-name="Слой 4">
    <g id="_голова" data-name="голова">
      <g id="_Слой_7" data-name="Слой 7">
        <path class="cls-1" d="M1434.621,564c10.519-29.405,26.217-45.7,36-54,7.633-6.476,21.982-18.65,31-14,9.619,4.96,7.135,25.946,7,27-.676,5.268-2.362,10.98-24,40-12.964,17.387-16.997,21.556-24,24-2.909,1.015-15.576,5.436-23-2-4.8-4.807-5.869-13.028-3-21Z"/>
        <path class="cls-1" d="M1612.569,656.011c17.984-23.119,22.986-43.742,24.634-55.661,1.286-9.3,3.704-26.782-4.513-31.581-8.765-5.119-24.127,7.404-24.893,8.042-3.83,3.185-7.503,7.393-19.589,39.119-7.241,19.009-8.513,24.298-6.924,31.071,.66,2.813,3.533,15.064,13.153,17.2,6.22,1.381,13.265-1.908,18.132-8.189Z"/>
      </g>
    </g>
  </g>
</svg>