<?xml version="1.0" encoding="UTF-8"?>
<svg id="_Слой_31" data-name="Слой 31" xmlns="http://www.w3.org/2000/svg" viewBox="0 0 1805.452 1668">
  <defs>
    <style>
      .cls-1 {
        fill: #fff;
      }

      .cls-2 {
        fill: #930a13;
      }

      .cls-2, .cls-3 {
        stroke: #000;
        stroke-miterlimit: 10;
        stroke-width: 6px;
      }

      .cls-3 {
        fill: none;
      }

      .cls-4 {
        fill: #d4d4d4;
      }
    </style>
  </defs>
  <g id="_Слой_4" data-name="Слой 4">
    <g id="_голова" data-name="голова">
      <g id="_рот" data-name="рот">
        <path class="cls-2" d="M1285.667,704.883c6.513,15.633,18.493,23.567,22.198,25.831,10.674,6.521,20.374,7.338,34.513,8.357,23.355,1.684,30.806-2.673,53.085-2.647,0,0,19.29,.022,40.935,4.928,50.465,11.44,84.014,45.179,89.669,51.005,23.93,24.656,22.559,37.742,48.591,54.561,11.205,7.239,27.055,17.156,43.645,12.046,19.361-5.964,26.677-28.374,27.387-30.659,8.819-28.399-10.745-56.809-26.955-79.658-35.576-50.147-80.358-75.689-96.889-84.365-57.546-30.2-108.118-32.019-134.53-32.662-3.492-.085-54.251-.855-86.634,21.18-11.871,8.078-16.144,15.731-18.042,21.621-4.215,13.08,.805,25.129,3.026,30.461Z"/>
        <path class="cls-1" d="M1317.379,669.346c-3.632,5.729-5.905,14.553-3.926,23.272,2.359,10.392,9.825,16.525,12.418,18.595,17.283,13.795,36.527,4.106,81.223,6.31,13.653,.673,26.657,1.314,43.045,5.671,29.989,7.972,50.509,22.856,63.11,32.173,31.183,23.058,53.623,49.695,53.623,49.695,15.343,18.212,21.584,30.144,33.439,30.262,11.004,.11,21.892-10.013,25.807-20.784,1.472-4.049,5.897-19.062-19.592-54.783-27.243-38.179-59.841-59.63-74.526-68.432-36.914-22.127-69.429-29.543-86.429-33.271-32.457-7.117-54.545-5.897-77.005-4.825-33.973,1.621-45.543,7.211-51.189,16.116Z"/>
        <path class="cls-4" d="M1359.681,677.126c-7.39,7.155-9.972,12.379-10.901,17.498-2.098,11.56,4.485,21.213,6.668,24.157-24.04-.846-41.414-15.687-42.619-31.123-1.048-13.434,10.408-24.018,11.019-24.568,6.672-5.993,14.387-7.835,31.274-9.377,12.903-1.178,30.471-2.118,51.647-1.257-13.377,3.306-32.055,10.116-47.089,24.671Z"/>
        <path class="cls-3" d="M1317.084,669.066c-3.632,5.729-5.905,14.553-3.926,23.272,2.359,10.392,9.825,16.525,12.418,18.595,17.283,13.795,36.527,4.106,81.223,6.31,13.653,.673,26.657,1.314,43.045,5.671,29.989,7.972,50.509,22.856,63.11,32.173,31.183,23.058,53.623,49.695,53.623,49.695,15.343,18.212,21.584,30.144,33.439,30.262,11.004,.11,21.892-10.013,25.807-20.784,1.472-4.049,5.897-19.062-19.592-54.783-27.243-38.179-59.841-59.63-74.526-68.432-36.914-22.127-69.429-29.543-86.429-33.271-32.457-7.117-54.545-5.897-77.005-4.825-33.973,1.621-45.543,7.211-51.189,16.116Z"/>
      </g>
    </g>
  </g>
</svg>