<?xml version="1.0" encoding="UTF-8"?>
<svg id="_Слой_31" data-name="Слой 31" xmlns="http://www.w3.org/2000/svg" viewBox="0 0 1805.452 1668">
  <defs>
    <style>
      .cls-1, .cls-2, .cls-3, .cls-4, .cls-5 {
        fill-rule: evenodd;
      }

      .cls-1, .cls-6 {
        fill: #fdc83c;
      }

      .cls-7, .cls-8, .cls-3 {
        stroke: #000;
        stroke-miterlimit: 10;
        stroke-width: 6px;
      }

      .cls-7, .cls-2 {
        fill: #fff;
      }

      .cls-8 {
        fill: #ffd3ba;
      }

      .cls-3 {
        fill: none;
      }

      .cls-4, .cls-9 {
        fill: #2b2b2b;
        opacity: .52;
      }

      .cls-10 {
        fill: #d61a19;
      }

      .cls-5 {
        fill: #0091e3;
      }

      .cls-11 {
        fill: #985b00;
      }

      .cls-12 {
        fill: #f5c1a4;
      }
    </style>
  </defs>
  <g id="_Слой_38" data-name="Слой 38">
    <path class="cls-8" d="M1304.784,924.909c29.099,18.805,65.75,4.149,86.002-3.949,17.734-7.091,39.261-15.699,48.905-38.5,7.279-17.208,6.431-39.291-4.32-55.591-17.177-26.044-52.633-26.713-82.925-27.285-29.01-.548-50.673-.956-65.244,13.902-25.723,26.232-17.963,88.453,17.581,111.422Z"/>
    <path class="cls-12" d="M1324.235,934.707c13.389,2.955,28.563-3.887,37.023-13.647,14.489-16.717,8.525-41.121,4.072-59.346-4.53-18.536-8.98-36.746-25.422-45.02-15.075-7.586-36.228-4.807-47.592,6.325-26.842,26.294-3.777,103.81,31.919,111.688Z"/>
    <path class="cls-7" d="M1389.707,755.667c-4.769,11.909-10.873,30.746-12.537,54.524-2.966,42.388,10.088,73.195,17.008,88.993,8.154,18.617,19.936,45.514,40.962,48.704,3.362,.51,6.477,.104,12.708-.71,10.892-1.421,31.868-4.158,44.905-20.212,3.083-3.796,8.077-11.237,10.035-23.223,2.326,2.357,9.536,9.054,21.144,10.859,4.303,.669,13.951,1.402,23.847-4.164,8.226-4.628,12.419-11.245,14.077-14.242,9.384-.182,17.802-5.232,21.423-13.004,4.781-10.263,.553-23.885-10.805-30.712,12.431-2.69,21.194-13.873,20.839-26.282-.371-12.996-10.648-23.992-23.926-25.25,14.489-3.925,21.86-18.19,18.664-28.577-3.476-11.298-19.801-19.127-34.581-11.668,12.636-2.489,21.782-11.461,22.954-21.751,.984-8.638-3.997-15.094-4.932-16.238-6.632-8.125-18.879-11.022-31.113-7.548-8.115,4.089-20.77,9.786-36.964,14.232-19.563,5.372-32.366,5.645-47.285,7.659-15.84,2.139-38.696,6.866-66.424,18.609Z"/>
    <path d="M1402.963,891.611c2.812,6.508,5.932,12.829,9.503,18.855,4.408,6.612,11.123,20.729,18.857,22.185,5.81,.801,10.544-3.955,9.309-9.846-.455-2.831-1.948-5.599-3.98-7.877l5.148-1.858c-.05,5.666,1.01,14.696,6.437,17.551,1.588,.503,2.888-.474,4.163-1.539,5.308-4.686,4.727-12.035,.024-16.995-1.555-1.644-3.459-3.005-5.575-3.99l2.682-3.084c5.85,11.424,22.538,20.677,28.783,4.345-.352,1.662-.909,3.298-1.729,4.836-2.58,5.242-8.472,7.086-13.949,5.81-7.124-1.617-12.956-6.767-16.808-12.794,0,0-3.442-5.49-3.442-5.49l6.125,2.406c8.317,3.036,15.064,12.169,12.501,21.262-1.38,4.584-4.293,8.694-8.879,10.611-5.375,2.284-10.649-1.964-12.878-6.504-4.159-7.55-3.358-16.126-3.143-24.176,0,0,4.949,5.708,4.949,5.708,5.516,5.951,8.126,16.852,1.42,23.055-4.788,4.61-12.817,5.083-17.812,.661-4.425-3.607-7.217-8.671-9.809-13.475-5.043-9.391-9.4-19.302-11.899-29.658h0Z"/>
    <path class="cls-9" d="M1425.289,769.334c1.586,7.572,36.743-3.509,52.814,15.737,15.962,19.114,1.879,54.707,7.437,56.122,2.905,.74,8.413-8.557,11.658-17.581,8.132-22.619,9.073-63.089-14.544-74.656-23.759-11.636-59.01,12.524-57.365,20.378Z"/>
    <path d="M1484.513,738.045c13.968,8.525,23.756,23.789,26.538,39.929,2.914,16.164-.903,33.659-10.531,46.845,5.377-15.76,7.618-32.389,4.098-48.599-3.096-14.377-10.364-27.009-20.106-38.175h0Z"/>
    <path d="M1425.845,773.599c18.288-8.551,43.04-4.738,53.487,14.197,5.151,8.79,7.214,19.623,5.023,29.578-1.796,9.418-2.129,18.828-1.848,28.435-2.794-9.318-3.732-19.339-2.832-29.036,1.107-9.082-.956-18.114-5.528-25.961-9.352-16.934-30.329-20.48-48.303-17.213h0Z"/>
    <path class="cls-4" d="M908.923,889.203c4.491,9.915,13.274,25.424,29.86,37.488,7.058,5.134,18.655,11.919,52.283,18.855,27.885,5.751,36.647,4.538,59.289,7.859,54.998,8.066,62.478,23.903,103.102,25.591,14.066,.584,34.703-.42,60.182-8.67-101.572-27.041-203.144-54.081-304.717-81.122Z"/>
    <path class="cls-2" d="M1330.612,970.557c-5.784,9.13-11.55,15.66-21.123,16.92-15.443,2.032-26.438-11.54-49.686-17.52-16.95-4.361-24.056-.478-46.981,1.156-2.661,.19-52.99,3.353-107.501-13.489-25.713-7.944-31.387-13.861-43.915-18.93-8.046-3.256-14.517-4.582-19.104-5.557-25.008-5.316-50.04-3.088-67.756-5.482-23.732-3.207-51.965-17.089-65.624-38.451-10.826-16.931-7.792-31.2,1.173-93.47,14.899-103.484,15.771-128.335,36.376-138.155,10.528-5.017,22.979-3.512,47.883-.501,30.003,3.628,47.174,5.704,57.696,17.211,25.4,27.78-13.409,82.693,8.469,100.887,5.232,4.351,7.771,1.477,64.659-2.222,31.395-2.041,47.064-2.5,54.687-2.399,30.65,.407,39.027,4.018,63.519-3.884,14.905-4.809,29.401-11.825,44.067-5.27,12.546,5.607,17.947,17.895,22.905,28.669,32.913,71.523,38.401,59.223,43.34,84.661,8.826,45.456-10.424,75.84-23.086,95.826Z"/>
    <g>
      <g>
        <path class="cls-5" d="M1041.949,898.466c-5.186,9.772-6.928,20.448-5.674,30.653,8.839,1.03,17.485,3.601,25.103,7.67,9.534,5.092,19.047,10.974,28.89,15.705,10.418,3.053,20.954,5.56,30.888,10.244,5.036-4.186,9.365-9.388,12.627-15.532,13.459-25.359,3.812-56.828-21.547-70.287-25.359-13.459-56.828-3.812-70.287,21.547Z"/>
        <path class="cls-2" d="M1111.041,905.782c-4.762-2.239-6.25-2.499-12.603-5.083-5.387-2.191-7.606-3.342-14.44-6.058-9.437-3.75-10.497-3.659-11.432-2.856-2.518,2.163-1.339,7.138-.949,28.401,.136,7.427,.239,14.868,.145,22.365,3.243,1.834,6.501,3.672,9.783,5.45,.015-.013,.033-.027,.048-.039,6.287-5.251,12.617-10.409,18.904-15.66,16.874-14.093,20.837-16.288,20.899-19.419,.044-2.209-3.433-3.847-10.355-7.102Z"/>
        <path class="cls-5" d="M1075.828,896.728c6.259,2.252,12.519,4.503,18.778,6.755-6.037,12.854-12.075,25.708-18.112,38.562-.222-15.106-.444-30.211-.666-45.316Z"/>
        <path class="cls-5" d="M1116.393,913.44c-6.033-2.813-12.067-5.627-18.1-8.44-5.598,12.163-11.197,24.326-16.796,36.489,11.632-9.35,23.264-18.699,34.895-28.048Z"/>
      </g>
      <g>
        <path class="cls-10" d="M1062.478,776.203c-8.505-4.064-12.172-14.598-9.708-23.347-13.108-6.695-29.012-7.638-43.509-1.192-25.485,11.33-36.96,41.175-25.63,66.66,11.33,25.485,41.175,36.96,66.66,25.63,25.278-11.238,36.76-40.69,25.888-66.037-4.475,.923-9.309,.384-13.701-1.715Z"/>
        <path d="M1036.612,815.072l-27.647-3.188,35.605,21.124,8.194-40.596-16.166,22.666,.013-.006Zm-23.423-53.562l-5.738,46.068,27.648,3.214,16.151-22.67-38.061-26.612Z"/>
      </g>
      <g>
        <path class="cls-10" d="M1223.89,877.619c-26.045,9.977-39.07,39.179-29.092,65.224,4.827,12.601,14.16,22.141,25.452,27.516,.274-.099,.542-.207,.817-.304,13.689-4.805,28.424-3.752,42.024,.575,23.977-11.025,35.599-38.92,26.023-63.918-9.977-26.045-39.179-39.07-65.224-29.092Z"/>
        <path d="M1259.554,918.857l-4.634,27.442,22.963-34.447-40.11-10.314,21.787,17.333-.005-.014Zm-54.718,20.58l45.703,8.148,4.661-27.441-21.792-17.318-28.572,36.612Z"/>
      </g>
      <g>
        <path class="cls-5" d="M1289.925,765.175c-2.254-1.097-4.392-2.318-6.421-3.653-1.311-.909-4.016-2.517-7.797-2.923-5.189-.557-9.092,1.505-10.43,2.293-2.218,.928-4.498,1.757-6.844,2.478-5.038,.851-10.077,1.701-15.115,2.552-11.573,21.197-7.093,48.303,12.054,64.527,21.745,18.425,54.225,15.877,72.853-5.593-.3-.497-.614-.98-.902-1.491-6.68-9.059-10.957-20.108-14.335-30.782-.552-1.744-1.067-3.497-1.586-5.247-2.613-2.97-5.205-5.961-7.705-9.046-3.044-3.757-5.666-6.79-7.906-10.556-1.99-.793-3.951-1.644-5.868-2.56Z"/>
        <path class="cls-2" d="M1307.232,782.526c-1.192-1.398-2.375-2.805-3.534-4.236-2.572-3.175-4.841-5.832-6.835-8.849-6.067,3.139-12.143,6.241-18.206,9.404-19.492,10.168-23.833,11.468-24.561,14.512-.514,2.149,2.533,4.491,8.601,9.147,4.175,3.204,5.573,3.775,11.229,7.655,4.795,3.29,6.718,4.888,12.815,8.999,8.419,5.677,9.475,5.814,10.559,5.229,2.922-1.576,2.832-6.688,6.987-27.545,.95-4.769,1.92-9.542,2.945-14.318Z"/>
        <path class="cls-5" d="M1302.431,776.737c-8.056,10.507-16.112,21.014-24.168,31.522,5.635,3.535,11.27,7.071,16.905,10.606,2.765-13.62,5.531-27.24,8.296-40.861-.349-.429-.695-.854-1.033-1.267Z"/>
        <path class="cls-5" d="M1259.102,793.882c5.294,4.036,10.588,8.072,15.882,12.108,8.065-10.688,16.129-21.377,24.194-32.065-13.359,6.652-26.718,13.305-40.076,19.957Z"/>
      </g>
      <g>
        <ellipse class="cls-11" cx="1159.679" cy="811.319" rx="35.289" ry="37.364" transform="translate(-198.631 1208.921) rotate(-51.293)"/>
        <path class="cls-6" d="M1154.358,806.948l-.226,.156-7.061-9.271c.249-.186,.557-.433,.913-.718,3.017-2.414,9.511-7.608,13.24-2.737,3.903,5.15-4.15,10.698-6.866,12.57Z"/>
        <path class="cls-6" d="M1165.637,822.237l.392-.272c3.337-2.313,12.805-8.877,8.889-13.935-3.709-4.95-11.737,1.339-15.332,4.154-.394,.309-.734,.576-1.01,.781l7.061,9.271Z"/>
        <path class="cls-1" d="M1179.457,768.128c-6.804,.705-13.801,.11-20.713-.687-4.753,.928-9.524,1.741-14.336,2.191-1.086,.102-2.105,.063-3.183,.057-2.443-.014-5.843-.224-9.277-.536-3.058,2.331-5.888,5.062-8.401,8.197-16.603,20.718-13.266,50.972,7.451,67.575,20.718,16.603,50.972,13.266,67.574-7.451,16.603-20.718,13.267-50.972-7.451-67.575-1.285-1.03-2.607-1.982-3.959-2.859-2.538,.452-5.106,.819-7.705,1.088Zm-11.229,18.516c3.429,3.815,3.7,7.431,2.14,10.774,5.066-2.053,9.664-1.31,13.675,5.05,5.046,7.958,1.402,13.799-5.609,19.785l5.884,7.702-4.307,3.29-5.885-7.702c-.477,.351-.964,.735-1.463,1.127-.667,.525-1.357,1.067-2.075,1.575l5.884,7.702-4.3,3.284-5.884-7.702-8.766,6.382-3.565-6.189s3.317-2.402,3.225-2.397c1.194-.92,.844-2.118,.468-2.795l-9.435-12.344-6.667-8.823c-.831-.816-2.241-1.481-4.029-.172,.024-.167-3.154,2.409-3.154,2.409l-3.945-5.158,8.828-6.743-5.764-7.544,4.447-3.397,5.764,7.544c.84-.68,1.693-1.319,2.557-1.964,.283-.212,.567-.424,.853-.64l-5.764-7.544,4.327-3.305,5.914,7.742c6.077-3.673,11.908-5.154,16.645,.052Z"/>
      </g>
      <g>
        <path class="cls-11" d="M928.249,683.687c-.139,1.633-.327,3.268-.619,4.907-.061,8.954-2.291,17.414-6.633,25.392-.263,.946-.512,1.895-.747,2.847,.248,2.18,.544,4.358,.628,6.605,.216,5.804-.515,11.417-1.433,17.004,.054,1.64,.044,3.283-.017,4.928,7.872,5.332,17.986,7.71,28.375,5.828,20.305-3.679,33.95-22.207,30.475-41.384-3.474-19.177-22.751-31.741-43.056-28.063-2.426,.44-4.754,1.097-6.972,1.936Z"/>
        <path class="cls-6" d="M934.72,717.62l-.031,.273-11.629-.758c.023-.31,.039-.704,.058-1.16,.16-3.861,.503-12.17,6.626-11.785,6.447,.436,5.347,10.153,4.976,13.431Z"/>
        <path class="cls-6" d="M953.659,719.146l.052-.475c.445-4.036,1.708-15.487-4.678-15.853-6.168-.451-6.693,9.734-6.929,14.293-.026,.5-.048,.932-.074,1.275l11.629,.759Z"/>
        <path class="cls-1" d="M926.872,666.486c1.809,7.31,2.08,14.678,.758,22.107-.012,1.794-.136,3.564-.322,5.319,.386-.045,.784-.075,1.199-.085,5.128-.083,8.035,2.086,9.533,5.458,1.777-5.169,5.355-8.151,12.786-7.002,9.316,1.416,11.33,7.999,11.245,17.218l9.673,.617-.345,5.409-9.673-.616c-.048,.59-.078,1.209-.11,1.844-.042,.848-.086,1.724-.173,2.599l9.673,.616-.345,5.4-9.673-.616-.938,10.802-7.009-1.373s.365-4.079,.308-4.007c.089-1.505-1.045-2.027-1.802-2.188l-15.506-.984-11.032-.762c-1.161,.091-2.588,.718-2.774,2.927-.11-.128-.253,3.961-.253,3.961l-1.613-.102c-.267,2.485-.629,4.953-1.034,7.413,.17,5.162-.232,10.345-1.21,15.551,8.917,4.399,19.269,6.085,29.804,4.176,26.124-4.733,43.466-29.747,38.733-55.871-4.733-26.124-29.747-43.466-55.871-38.733-1.37,.248-2.709,.564-4.028,.921Z"/>
      </g>
      <g>
        <path class="cls-11" d="M919.661,867.885c-5.711,5.518-9.371,12.319-10.952,19.394,2.561,1.935,5.032,4.049,7.361,6.464,6.334,6.569,9.36,10.29,12.005,14.976,5.483,2.193,10.719,4.727,15.579,7.905,.198,.057,.398,.102,.593,.178,5.933,2.213,11.866,4.426,17.799,6.638,.089,.046,.17,.094,.258,.141,.026,.008,.051,.018,.077,.026,2.223-1.409,4.346-3.06,6.321-4.969,14.84-14.339,15.891-37.325,2.349-51.341-13.543-14.015-36.551-13.753-51.391,.586Z"/>
        <path class="cls-6" d="M939.172,897.987l.126,.244-10.091,5.83c-.153-.271-.359-.607-.596-.997-2.012-3.299-6.342-10.398-1.038-13.48,5.602-3.219,10.087,5.472,11.599,8.403Z"/>
        <path class="cls-6" d="M955.768,888.734l-.221-.423c-1.872-3.603-7.184-13.826-12.697-10.582-5.379,3.052-.158,11.812,2.179,15.734,.256,.43,.478,.801,.647,1.101l10.091-5.83Z"/>
        <path class="cls-1" d="M907.077,856.827c-1.926,1.861-3.654,3.849-5.202,5.931,1.61,3.263,2.913,6.715,3.878,10.374,1.409,4.639,2.269,9.282,2.646,13.906,2.673,1.998,5.248,4.191,7.672,6.705,.492,.51,.958,.998,1.411,1.476-1.79-5.335-1.574-10.142,3.307-13.562,4.218-2.918,7.84-2.729,10.959-.758-1.395-5.285-.076-9.752,6.741-12.925,8.533-3.998,13.865,.357,18.915,8.069l8.385-4.861,2.718,4.689-8.385,4.862c.288,.517,.607,1.049,.933,1.594,.436,.728,.887,1.481,1.3,2.258l8.385-4.862,2.713,4.681-8.385,4.861,5.221,9.503-6.59,2.753s-1.963-3.594-1.97-3.503c-.762-1.301-1.995-1.105-2.714-.818l-13.44,7.796-9.596,5.495c-.394,.311-.765,.739-.983,1.273,2.992,1.45,5.889,3.047,8.66,4.859,.198,.057,.398,.102,.593,.178,5.933,2.213,11.866,4.426,17.799,6.638,.089,.046,.17,.094,.258,.141,3.457,1.107,6.807,2.407,10.002,3.834,.532-.471,1.061-.95,1.577-1.448,19.093-18.449,19.615-48.882,1.166-67.974-18.449-19.093-48.881-19.615-67.974-1.166Z"/>
      </g>
    </g>
    <g>
      <path class="cls-4" d="M1260.64,969.354c4.717-3.19,13.21-9.884,19.366-21.4,8.714-16.301,7.187-31.866,6.375-37.408,3.463,3.321,8.267,8.915,10.284,16.83,3.673,14.413-5.288,23.234-2.787,37.057,1.063,5.875,4.486,14.255,15.927,23.245-7.251-3.875-15.815-7.867-25.64-11.427-8.469-3.069-16.398-5.283-23.525-6.896Z"/>
      <path class="cls-4" d="M1266.495,818.298c-2.781-.937,4.755-14.489-1.453-29.119-6.306-14.859-21.436-18.21-20.398-23.365,.728-3.614,9.162-6.933,40.886-6.505,3.809,1.665,11.085,5.491,16.639,13.422,4.009,5.725,8.055,14.921,5.814,16.709-4.104,3.275-26.054-20.854-30.401-17.371-1.996,1.599,2.202,7.027,2.696,16.178,.883,16.352-10.789,31.06-13.783,30.051Z"/>
      <path class="cls-4" d="M1023.082,819.801c16.535-3.803,25.615-17.458,29.249-22.924,6.519-9.804,9.887-20.693,8.189-21.701-1.834-1.089-7.528,12.105-22.894,19.516-4.926,2.376-12.181,5.875-20.238,3.929-3.892-.94-5.169-2.474-7.999-2.005-7.024,1.165-13.519,12.957-10.364,19.406,3.113,6.366,16.795,5.449,24.057,3.779Z"/>
    </g>
    <g>
      <path d="M1016.171,818.944c10.922-2.467,20.857-7.157,28.551-15.064,7.677-7.928,12.074-17.978,14.239-28.97,1.384,5.699,.931,11.815-.759,17.58-4.937,17.438-24.071,30.128-42.032,26.453h0Z"/>
      <path d="M1003.661,795.095c16.277,3.075,33.221-.226,45.563-11.479,4.032-3.615,7.65-7.843,10.887-12.676-.918,5.792-3.692,11.262-7.472,15.931-11.273,14.191-33.818,18.532-48.978,8.223h0Z"/>
      <path d="M1265.266,822.503c3.075-16.277-.226-33.221-11.479-45.563-3.615-4.032-7.843-7.65-12.676-10.887,5.792,.918,11.261,3.692,15.932,7.472,14.191,11.273,18.532,33.818,8.223,48.978h0Z"/>
      <path d="M1250.441,970.274c10.906-5.415,20.136-12.843,26.626-22.959,7.72-12.2,10.043-26.653,8.398-41.09,1.634,3.053,2.666,6.405,3.402,9.825,5.419,25.039-12.745,51.424-38.426,54.225h0Z"/>
    </g>
    <path class="cls-3" d="M1331.547,969.847c-5.784,9.13-11.55,15.66-21.123,16.92-15.443,2.032-26.438-11.54-49.686-17.52-16.95-4.361-24.056-.478-46.981,1.156-2.661,.19-52.99,3.353-107.501-13.489-25.713-7.944-31.387-13.861-43.915-18.93-8.046-3.256-14.517-4.582-19.104-5.557-25.008-5.316-50.04-3.088-67.756-5.482-23.732-3.207-51.965-17.089-65.624-38.451-10.826-16.931-7.792-31.2,1.173-93.47,14.899-103.484,15.771-128.335,36.376-138.155,10.528-5.017,22.979-3.512,47.883-.501,30.003,3.628,47.174,5.704,57.696,17.211,25.4,27.78-13.409,82.693,8.469,100.887,5.232,4.351,7.771,1.477,64.659-2.222,31.395-2.041,47.064-2.5,54.687-2.399,30.65,.407,39.027,4.018,63.519-3.884,14.905-4.809,29.401-11.825,44.067-5.27,12.546,5.607,17.947,17.895,22.905,28.669,32.913,71.523,38.401,59.223,43.34,84.661,8.826,45.456-10.424,75.84-23.086,95.826Z"/>
  </g>
</svg>