<?xml version="1.0" encoding="UTF-8"?>
<svg id="_Слой_31" data-name="Слой 31" xmlns="http://www.w3.org/2000/svg" viewBox="0 0 1805.452 1668">
  <defs>
    <style>
      .cls-1, .cls-2, .cls-3 {
        fill-rule: evenodd;
      }

      .cls-1, .cls-4 {
        fill: #fdc83c;
      }

      .cls-5, .cls-2 {
        fill: #fff;
      }

      .cls-6 {
        fill: none;
        stroke: #000;
        stroke-miterlimit: 10;
        stroke-width: 6px;
      }

      .cls-7 {
        fill: #d61a19;
      }

      .cls-3, .cls-8 {
        fill: #0091e3;
      }

      .cls-9 {
        fill: #985b00;
      }
    </style>
  </defs>
  <g id="_тело" data-name="тело">
    <path class="cls-5" d="M1224.708,632.132c-.439-4.18-1.088-12.447-6.209-21.318-19.313-33.456-77.975-33.49-103.201-33.505-11.427-.007-50.715,4.87-129.291,14.623h0c-65.756,16.38-114.137,39.991-148.272,56.881-26.789,13.256-48.566,25.711-64.055,35.027,11.528,30.603,22.661,54.283,29.936,68.963,44.532,89.855,82.564,121.007,125.765,209.55,13.288,27.234,22.198,49.922,27.047,62.908,6.784,1.729,16.805,3.643,28.94,3.533,24.213-.22,42.177-8.365,53.863-13.811,69.069-32.186,83.355-40.273,83.355-40.273,100.248-56.747,94.095-50.114,108.545-61.213,49.635-38.124,75.201-57.707,79.45-88.953,8.552-62.883-77.439-112.035-85.874-192.413Z"/>
    <g id="_Слой_14" data-name="Слой 14">
      <g id="_Слой_12" data-name="Слой 12">
        <g>
          <ellipse class="cls-9" cx="1045.208" cy="779.551" rx="40.241" ry="38.005" transform="translate(-212.126 1124.908) rotate(-52.076)"/>
          <path class="cls-4" d="M1049.837,773.756l-.171-.241,9.88-7.741c.204,.266,.474,.593,.786,.973,2.644,3.214,8.333,10.131,3.142,14.218-5.488,4.279-11.582-4.312-13.638-7.209Z"/>
          <path class="cls-4" d="M1033.537,786.128l.299,.418c2.54,3.559,9.748,13.659,15.137,9.367,5.275-4.067-1.615-12.62-4.7-16.449-.338-.42-.631-.782-.856-1.076l-9.88,7.74Z"/>
          <path class="cls-1" d="M1017.616,821.82c22.555,17.574,55.087,13.536,72.661-9.019,17.574-22.555,13.536-55.087-9.019-72.661-22.555-17.574-55.087-13.536-72.661,9.019-17.574,22.555-13.536,55.087,9.019,72.661Zm54.29-33.426c5.537-5.178,3.856-11.435-.189-17.926l8.251-6.483-3.623-4.611-8.04,6.318c-.236-.304-.469-.607-.701-.909-.708-.92-1.408-1.83-2.153-2.724l8.04-6.318-3.724-4.74-8.04,6.318-7.392-9.408-5.496,4.325s2.821,3.385,2.641,3.361c1.436,1.907,.741,3.435-.126,4.341l-9.404,7.309-13.155,10.343c-.723,.414-2.009,.809-3.017-.463,.007,.099-2.629-3.438-2.629-3.438l-6.612,3.93,7.002,9.346-8.208,6.45,3.6,4.582,8.208-6.45c.558,.766,1.152,1.501,1.727,2.211,.43,.532,.85,1.051,1.235,1.559l-8.208,6.45,3.607,4.59,8.208-6.449c6.549,7.462,12.893,11.3,21.388,5.749,6.791-4.413,7.522-9.375,5.237-14.801,3.623,1.631,7.514,1.286,11.571-2.463Z"/>
        </g>
        <g>
          <ellipse class="cls-9" cx="859.873" cy="762.74" rx="37.364" ry="35.289" transform="translate(-48.038 1467.618) rotate(-79.399)"/>
          <path class="cls-4" d="M861.221,755.987l-.244-.126,4.851-10.596c.282,.132,.644,.288,1.063,.468,3.551,1.524,11.192,4.805,8.652,10.389-2.704,5.869-11.392,1.379-14.322-.135Z"/>
          <path class="cls-4" d="M853.049,773.14l.425,.218c3.612,1.854,13.863,7.113,16.479,1.276,2.619-5.603-6.711-9.722-10.887-11.566-.458-.202-.854-.377-1.165-.523l-4.852,10.596Z"/>
          <path class="cls-1" d="M855.127,809.368c26.097,4.884,51.211-12.311,56.095-38.408,4.884-26.096-12.311-51.211-38.408-56.095-26.096-4.884-51.211,12.312-56.095,38.408-4.884,26.097,12.312,51.211,38.408,56.095Zm30.539-50.712c2.361-6.631-1.693-11.077-7.796-14.707l4.043-8.865-4.954-2.26-3.939,8.638c-.325-.15-.646-.301-.966-.451-.976-.457-1.941-.91-2.937-1.33l3.939-8.638-5.092-2.323-3.939,8.638-10.107-4.61-2.691,5.91s3.77,1.59,3.611,1.647c1.997,.961,2.075,2.517,1.747,3.635l-4.642,10.037-6.444,14.138c-.42,.65-1.312,1.524-2.686,.904,.048,.078-3.634-1.715-3.634-1.715l-3.779,6.06,9.759,4.725-4.022,8.819,4.923,2.246,4.022-8.819c.786,.394,1.59,.747,2.367,1.088,.581,.256,1.149,.505,1.684,.76l-4.021,8.819,4.932,2.249,4.022-8.818c8.583,3.364,15.452,3.827,20.094-4.373,3.721-6.534,2.209-10.94-1.988-14.441,3.684-.198,6.746-2.142,8.496-6.963Z"/>
        </g>
        <g>
          <ellipse class="cls-9" cx="1004.301" cy="970.396" rx="35.992" ry="38.11" transform="translate(-278.05 1523.446) rotate(-67.346)"/>
          <path class="cls-4" d="M1010.75,973.179l.178-.217,9.536,7.096c-.192,.253-.424,.581-.693,.961-2.277,3.217-7.177,10.14-12.206,6.417-5.278-3.947,1.05-11.657,3.185-14.257Z"/>
          <path class="cls-4" d="M995.381,961.374l-.308,.378c-2.618,3.208-10.048,12.313-4.782,16.166,5.031,3.805,11.126-4.623,13.856-8.396,.299-.414,.558-.771,.77-1.051l-9.536-7.096Z"/>
          <path class="cls-1" d="M958.802,955.73c-10.43,24.99,1.373,53.703,26.363,64.133,24.99,10.43,53.703-1.373,64.133-26.363,10.43-24.99-1.373-53.703-26.363-64.133-24.99-10.43-53.703,1.373-64.133,26.363Zm44.079,41.263c6.112,3.768,11.409,.671,16.33-4.643l7.981,5.921,3.309-4.46-7.777-5.769c.219-.292,.438-.58,.655-.868,.664-.876,1.321-1.743,1.952-2.647l7.777,5.769,3.401-4.584-7.777-5.769,6.751-9.099-5.322-3.943s-2.389,3.422-2.412,3.251c-1.384,1.788-2.953,1.534-3.998,.968l-9.023-6.768-12.73-9.438c-.559-.558-1.24-1.633-.33-2.872-.088,.031,2.485-3.26,2.485-3.26l-5.24-5.061-6.792,8.728-7.94-5.89-3.288,4.432,7.94,5.89c-.56,.701-1.084,1.427-1.59,2.129-.379,.526-.748,1.039-1.116,1.518l-7.94-5.89-3.294,4.44,7.939,5.89c-5.183,7.845-7.108,14.598,.083,20.974,5.725,5.103,10.442,4.534,14.828,1.093-.587,3.717,.7,7.185,5.136,9.957Z"/>
        </g>
      </g>
      <g id="_Слой_15" data-name="Слой 15">
        <g>
          <circle class="cls-7" cx="951.163" cy="853.545" r="50.5"/>
          <path d="M935.834,864.021l-2.991-27.669-12.747,39.388,41.404-.965-25.675-10.766,.009,.012Zm47.074-34.664l-46.198,4.568,2.966,27.676,25.675,10.75,17.557-42.995Z"/>
        </g>
        <g>
          <circle class="cls-7" cx="1181.406" cy="723.965" r="52.454"/>
          <path d="M1163.55,716.679l22.266-18.435-41.434,11.506,24.544,35.329-5.371-28.415-.005,.014Zm56.995,20.947l-30.412-37.421-22.287,18.417,5.385,28.407,47.314-9.402Z"/>
        </g>
        <g>
          <circle class="cls-7" cx="932.172" cy="664.546" r="50.5"/>
          <path d="M915.925,655.56l23.374-15.106-40.915,6.313,19.469,36.554-1.92-27.774-.007,.013Zm52.121,26.475l-24.842-39.218-23.391,15.086,1.934,27.768,46.299-3.636Z"/>
        </g>
      </g>
      <g id="_Слой_13" data-name="Слой 13">
        <g>
          <circle class="cls-8" cx="1140.363" cy="905.526" r="51.5"/>
          <path class="cls-2" d="M1130.759,872.605c1.05-.623,2.1-.531,10.665,4.747,6.203,3.822,8.171,5.326,13.051,8.387,5.757,3.611,7.163,4.12,11.426,7.121,6.196,4.363,9.308,6.557,8.886,8.705-.598,3.044-4.841,4.506-23.722,15.364-7.035,4.046-14.096,7.993-21.131,12.038-2.723,1.566-6.458,3.72-8.381,2.377-1.847-1.289-1.082-5.147-.608-7.599,1.524-7.884,2.786-15.742,4.018-23.591,3.265-20.814,2.968-25.87,5.797-27.549Z"/>
          <path class="cls-3" d="M1133.094,877.987c5.722,3.27,11.443,6.541,17.165,9.811-8.095,11.507-16.19,23.014-24.286,34.521,2.374-14.777,4.747-29.555,7.121-44.332Z"/>
          <path class="cls-3" d="M1169.809,901.25c-5.404-3.78-10.809-7.56-16.214-11.34-7.549,10.908-15.097,21.816-22.646,32.724,12.953-7.128,25.906-14.256,38.859-21.384Z"/>
        </g>
        <g>
          <circle class="cls-8" cx="1054.016" cy="634.467" r="51.983"/>
          <path class="cls-2" d="M1074.197,606.343c1.149,.446,1.729,1.338,2.867,11.429,.824,7.308,.854,9.807,1.459,15.591,.714,6.822,1.185,8.256,1.454,13.512,.39,7.639,.584,11.478-1.386,12.48-2.79,1.42-6.594-1.042-26.974-9.286-7.594-3.072-15.126-6.226-22.719-9.297-2.939-1.189-6.975-2.816-7.106-5.18-.125-2.27,3.416-4.063,5.66-5.213,7.214-3.696,14.243-7.585,21.246-11.492,18.572-10.362,22.404-13.745,25.499-12.543Z"/>
          <path class="cls-3" d="M1071.374,611.549c.963,6.582,1.926,13.164,2.889,19.746-14.182,.73-28.365,1.461-42.547,2.191,13.22-7.312,26.439-14.625,39.658-21.937Z"/>
          <path class="cls-3" d="M1075.744,655.204c-.361-6.647-.721-13.295-1.082-19.942-13.366,.792-26.732,1.584-40.098,2.375,13.727,5.855,27.454,11.711,41.18,17.566Z"/>
        </g>
        <g>
          <circle class="cls-8" cx="1243.256" cy="842.696" r="51.983"/>
          <path class="cls-2" d="M1267.188,867.706c-.65,1.047-1.633,1.453-11.761,.715-7.334-.534-9.797-.964-15.594-1.434-6.837-.554-8.334-.354-13.549-1.057-7.58-1.022-11.389-1.538-12.012-3.658-.882-3.004,2.237-6.29,14.09-24.806,4.417-6.899,8.902-13.722,13.318-20.621,1.709-2.67,4.051-6.338,6.399-6.032,2.255,.295,3.366,4.106,4.083,6.522,2.306,7.771,4.835,15.395,7.387,22.998,6.768,20.161,9.389,24.55,7.638,27.371Z"/>
          <path class="cls-3" d="M1262.59,863.974c-6.647-.264-13.294-.529-19.941-.793,1.891-14.075,3.783-28.149,5.674-42.224,4.756,14.339,9.511,28.678,14.267,43.017Z"/>
          <path class="cls-3" d="M1218.877,860.238c6.6,.868,13.2,1.737,19.801,2.605,1.681-13.284,3.361-26.567,5.042-39.851-8.281,12.415-16.562,24.831-24.842,37.246Z"/>
        </g>
      </g>
    </g>
    <path class="cls-6" d="M1257.49,655.139c-28.317-44.491-46.8-57.008-60.638-63.727-15.095-7.329-31.555-8.735-64.474-11.547-68.558-5.856-119.513,9.134-145.251,12.329h0c-65.756,16.38-114.137,39.991-148.272,56.881-26.789,13.256-48.566,25.711-64.055,35.027,11.528,30.603,22.661,54.283,29.936,68.963,44.532,89.855,82.564,121.007,125.765,209.55,13.288,27.234,22.198,49.922,27.047,62.908,6.784,1.729,16.805,3.643,28.94,3.533,24.213-.22,42.177-8.365,53.863-13.811,69.069-32.186,83.355-40.273,83.355-40.273,37.066-20.982,59.586-33.299,73.98-41.052,14.606-7.867,19.027-9.896,27.849-15.303,17.285-10.595,39.496-24.209,58.783-47.348,4.928-5.913,19.88-23.852,27.384-46.462,18.43-55.538-17.256-111.607-54.211-169.668Z"/>
  </g>
</svg>