<?xml version="1.0" encoding="UTF-8"?>
<svg id="_Слой_31" data-name="Слой 31" xmlns="http://www.w3.org/2000/svg" viewBox="0 0 1805.452 1668">
  <defs>
    <style>
      .cls-1, .cls-2 {
        fill: #ffd3ba;
      }

      .cls-1, .cls-2, .cls-3, .cls-4, .cls-5 {
        fill-rule: evenodd;
      }

      .cls-2, .cls-3 {
        stroke: #000;
        stroke-miterlimit: 10;
        stroke-width: 6px;
      }

      .cls-3, .cls-4 {
        fill: #f5c1a4;
      }

      .cls-5 {
        fill: #b3b3b3;
      }
    </style>
  </defs>
  <g id="_Слой_22" data-name="Слой 22">
    <g>
      <path class="cls-5" d="M643.621,1034c-6.487,1.958-30.781,9.526-30,15,.658,4.612,18.827,5.698,27,6"/>
      <path d="M643.621,1034c-4.663,2.711-9.416,4.956-14.069,7.25-4.23,2.204-9.042,4.131-12.556,7.24-.297,.288-.447,.562-.443,.518,.086-.244,.028-.61-.128-.812,2.242,1.781,5.797,2.328,8.848,3.18,4.985,1.194,10.155,2.171,15.349,3.624-5.299,1.043-10.629,1.363-16.042,1.043-3.424-.27-7.24-.66-10.563-2.393-3.935-1.968-4.454-6.341-1.3-9.363,4.339-3.973,9.747-5.702,15.138-7.422,5.146-1.49,10.378-2.531,15.766-2.865h0Z"/>
    </g>
    <g>
      <path class="cls-5" d="M901.621,1065c50.051-1.373,75.717-6.373,77-15,1.007-6.768-12.994-15.768-42-27"/>
      <path d="M901.621,1065c16.435-2.321,32.818-3.705,49.109-6.367,5.28-.894,10.633-1.887,15.707-3.461,3.291-1.103,6.956-2.243,8.966-4.782,.943-1.476,.007-2.781-1.056-4.231-2.416-2.924-5.634-5.156-8.877-7.312-9.153-5.918-19.16-10.703-28.848-15.846,12.861,3.542,32.677,9.858,41.947,19.613,8.019,9.342-1.638,15.857-10.349,18.286-10.958,3.225-22.082,4.141-33.333,4.725-11.105,.46-22.196,.306-33.265-.624h0Z"/>
    </g>
    <path class="cls-3" d="M648.03,970.31c-7.298-7.306-11.018-7.962-13.076-7.073-2.234,.965-5.433,5.015,3.219,58.946,4.511,28.122,6.951,36.812,11.287,37.385,3.88,.512,7.922-5.658,10.704-10.882-4.045-26.125-8.089-52.25-12.134-78.376Z"/>
    <path class="cls-2" d="M837.621,700c-69.391-.707-124.087-1.265-178,35-14.679,9.874-69.766,47.074-81,114-1.639,9.763-12.44,74.107,29,113,12.615,11.84,26.349,17.828,36,21,.411,4.781,.881,11.685,1,20,.605,42.187-8.752,55.39-3,66,8.997,16.598,45.438,8.955,96,5,107.181-8.383,181.373,7.389,192-21,3.254-8.692-.941-17.542,7-32,6.911-12.582,16.163-16.939,24-24,17.551-15.813,20.448-38.384,24-60,20.258-123.274,54.084-160.339,28-197-27.389-38.496-83.846-39.071-175-40Z"/>
    <path class="cls-4" d="M646.621,982c-9.644-8.345-26.614-25.452-35-52-15.199-48.119,6.705-99.135,39-129,41.239-38.137,92.9-35.681,103-35-11.763,6.035-100.846,53.498-113,146-3.633,27.647,.586,51.865,6,70Z"/>
    <g>
      <path class="cls-1" d="M780.621,763c-14.867,.237-68.213,2.908-112,44-12.526,11.755-44.141,41.238-47.5,89.5-3.041,43.689,18.943,75.562,26,85"/>
      <path d="M780.621,763c-26.423,1.778-52.324,8.771-75.367,21.067-11.474,6.206-22.244,13.68-31.814,22.483-9.777,8.722-18.829,18.186-26.396,28.718-3.848,5.222-7.188,10.778-10.268,16.463l-2.128,4.356c-.345,.73-.733,1.442-1.043,2.188l-.926,2.238-1.844,4.481-1.574,4.581-.797,2.289c-.249,.768-.432,1.555-.652,2.332l-1.27,4.678c-.235,.775-.391,1.568-.537,2.363l-.464,2.38c-.298,1.589-.645,3.171-.906,4.766l-.57,4.821c-.164,1.61-.452,3.211-.482,4.832-.145,3.234-.449,6.474-.308,9.719,.035,1.622,.012,3.248,.092,4.869l.376,4.859c.074,.809,.099,1.625,.213,2.429l.337,2.416c.246,1.607,.396,3.233,.686,4.835,1.098,6.426,2.726,12.764,4.747,18.993,4.117,12.438,10.02,24.334,17.394,35.344-8.452-10.225-15.177-21.917-20.164-34.34-2.399-6.251-4.376-12.68-5.838-19.25-.376-1.639-.631-3.304-.934-4.96l-.435-2.489c-.147-.83-.204-1.671-.311-2.507l-.567-5.026c-.143-1.68-.182-3.367-.276-5.053-.678-13.489,1.165-27.126,5.261-40.051l1.582-4.834c.612-1.58,1.267-3.144,1.899-4.716l.958-2.356c.321-.785,.719-1.533,1.075-2.302l2.2-4.582c3.18-5.976,6.632-11.818,10.616-17.282,7.989-10.915,17.383-20.684,27.483-29.43,10.135-8.874,21.374-16.509,33.451-22.403,24.109-11.868,50.999-17.633,77.502-16.92Z"/>
    </g>
  </g>
</svg>