<?xml version="1.0" encoding="UTF-8"?>
<svg id="_Слой_12" data-name="Слой 12" xmlns="http://www.w3.org/2000/svg" viewBox="0 0 502.324 709.214">
  <defs>
    <style>
      .cls-1, .cls-2 {
        fill: #fff;
      }

      .cls-3, .cls-4, .cls-5, .cls-2, .cls-6 {
        stroke: #000;
        stroke-miterlimit: 10;
        stroke-width: 3px;
      }

      .cls-4 {
        fill: none;
      }

      .cls-5 {
        fill: #427430;
      }

      .cls-6 {
        fill: #b02128;
      }
    </style>
  </defs>
  <g id="_голова" data-name="голова">
    <g>
      <path class="cls-5" d="M213.23,255.634c3.303-6.61,11.351-23.074,29.474-31.902,27.566-13.428,56.035,1.632,59.384,3.473,1.497-.858,26.269-14.475,51.831-.757,25.172,13.508,27.825,41.024,27.973,42.914,3.317-.217,17.377-.768,28.411,9.244,14.694,13.334,11.346,33.9,10.774,37.414-3.112,19.118-18.909,35.101-40.286,41.703,1.422,1.686,5.993,7.535,5.158,14.896-1.082,9.54-10.835,18.006-23.863,18.729h0c-1.093-3.281-2.924-8.089-5.921-13.517-1.553-2.813-5.077-8.797-17.35-22.23-3.982-4.359-9.427-10.094-16.217-16.601-7.433,1.668-12.802,4.625-16.034,6.746-4.243,2.785-11.088,7.278-14.391,15.864-1.202,3.126-1.6,5.921-1.74,7.844,6.381,11.024,12.762,22.049,19.143,33.073-4.237-.359-10.433-1.149-17.663-3.092-44.498-11.957-84.418-55.844-86.625-102.851-.308-6.553-.991-23.072,7.942-40.95Z"/>
      <path class="cls-5" d="M408.609,297.336c-3.208-4.745-8.635-12.527-19.098-16.078-11.19-3.797-20.884-.292-23.954,.87-4.304,1.629-11.677,4.42-14.512,11.384-.625,1.536-1.365,4.098-.76,9.758,1.223,11.423,5.546,12.974,8.613,24.251,4.475,16.453,3.106,22.323,10.755,27.193,14.805,9.426,37.013,7.203,45.59-11.739,9.019-19.92-3.476-40.968-6.634-45.639Z"/>
      <path class="cls-5" d="M353.616,313.227c7.663-4.969,10.796-14.646,12.174-18.902,1.108-3.423,4.24-13.542,.966-25.317-5.282-18.996-22.964-26.935-25.811-28.155-15.603-6.685-40.553-6.472-49.301,9.839-9.816,18.301,8.514,42.418,9.878,44.166,12.926,16.562,37.637,27.744,52.093,18.37Z"/>
      <g>
        <g id="_морда_во_время_удара" data-name="морда во время удара">
          <path class="cls-6" d="M237.131,313.87c-1.189,6.028,3.877,10.787,14.609,22.956,16.5,18.711,13.397,17.522,18.783,21.913,11.552,9.418,14.853,5.937,29.217,16.696,11.339,8.493,10.353,11.464,18.522,14.87,10.212,4.257,17.851,2.156,21.325,7.965,2.007,3.356,1.99,8.29-.194,10.035-2.466,1.971-6.445-1.126-15.391-3.652-9.62-2.716-11.56-.982-17.478-2.87-8.991-2.868-10.936-8.918-19.304-17.217-16.061-15.929-24.097-8.716-37.826-23.739-8.895-9.733-5.316-12.536-16.435-24.522-5.061-5.456-10.145-9.556-11.217-16.956-.766-5.284,.866-9.812,1.649-11.985,.931-2.583,3.307-10.082,9.829-13.319,5.857-2.907,11.921-2.178,18-.783,16.122,3.7,28.247,11.142,36.587,16.826,12.695,8.652,20.997,16.214,31.891,26.217,6.414,5.89,16.781,15.756,27.986,29.799,16.218,20.326,13.961,25.399,13.101,26.81-1.677,2.751-5.94,3.853-9.13,3.13-5.501-1.246-7.464-7.837-11.02-14.575-3.415-6.47-9.577-12.657-21.901-25.03-6.709-6.736-5.625-4.778-24.992-21.699-10.738-9.382-17.545-15.64-28.956-22.696-10.815-6.687-16.5-8.361-21.13-6.261-3.051,1.384-5.811,4.481-6.522,8.087Z"/>
        </g>
        <path class="cls-3" d="M306.565,345.745c-12.529-10.744-21.204-18.239-25.493-21.95-12.061-10.433-22.537-19.57-32.593-18.833-1.545,.113-5.486,.402-8.328,3.327-3.114,3.205-3.087,7.702-3.082,8.595,.044,7.479,6.45,10.743,17.449,23.118,8.952,10.073,7.601,11.165,13.645,16.648,8.037,7.291,16.55,10.913,22.27,12.804,.262-2.702,1.114-7.714,4.389-12.952,3.965-6.344,9.276-9.492,11.743-10.756Z"/>
      </g>
      <g>
        <path class="cls-5" d="M410.194,343.277c5.985-13.75-1.151-26.905-4.084-32.311-2.687-4.953-10.046-18.519-22.624-19.875-14.931-1.609-30.748,14.689-32.578,32.193-1.704,16.288,8.437,36.17,26.386,38.816,13.676,2.016,27.582-6.607,32.9-18.822Z"/>
        <path class="cls-2" d="M366.334,302.187c8.338-3.909,21.999-4.847,31.754,1.769,17.18,11.654,17.225,43.343,5.644,50.77-7.187,4.609-18.204-.513-22.223-2.449-14.4-6.937-19.221-20.729-20.566-24.577-1.745-4.993-5.129-14.674-.214-21.341,.713-.968,2.174-2.564,5.604-4.172Z"/>
        <path class="cls-1" d="M365.852,309.781c-2.805,.778-4.601,3.045-4.444,5.057,.232,2.974,4.722,5.302,7.498,3.641,1.648-.985,2.673-3.363,1.874-5.579-.729-2.023-2.762-3.316-4.929-3.12Z"/>
        <path class="cls-5" d="M356.804,361.883c.399-2.314,.691-5.548,.192-9.34-.349-2.657-.997-4.908-1.648-6.673"/>
        <path class="cls-5" d="M359.526,303.096c-4.634,8.983-9.268,17.967-13.902,26.95"/>
      </g>
      <g>
        <g>
          <path class="cls-5" d="M351.74,313.435c6.934-4.984,9.366-13.258,10.556-17.303,.903-3.07,3.439-12.137,.026-22.289-5.14-15.288-20.245-21.418-24.704-23.234-16.238-6.614-41.228-6.676-48.682,6.421-4.17,7.326-1.445,16.294,.805,23.698,1.13,3.718,5.224,17.125,18.494,26.402,10.059,7.032,30.4,15.724,43.504,6.305Z"/>
          <path class="cls-2" d="M292.769,253.353c7.858-11.716,32.113-10.507,47.657-1.551,17.514,10.091,30.852,33.983,22.673,47.084-7.522,12.049-31.262,11.802-46.664,3.689-19.297-10.166-32.343-36.285-23.666-49.223Z"/>
          <path class="cls-1" d="M297.969,262.404c-1.019,.782-1.378,2.007-.981,2.804,.587,1.178,2.808,1.388,3.67,.25,.511-.676,.537-1.818-.156-2.592-.633-.707-1.678-.9-2.532-.461Z"/>
        </g>
        <path class="cls-4" d="M339.688,317.708c-4.338,1.293-11.865,2.875-20.923,1.335-4.697-.798-8.581-2.228-11.523-3.596"/>
      </g>
      <path class="cls-4" d="M415.895,312.489c-2.338-3.941-6.043-8.996-11.756-13.521-14.292-11.317-30.702-11.034-35.93-10.726"/>
    </g>
  </g>
</svg>