<?xml version="1.0" encoding="UTF-8"?>
<svg id="_Слой_12" data-name="Слой 12" xmlns="http://www.w3.org/2000/svg" viewBox="0 0 502.324 709.214">
  <defs>
    <style>
      .cls-1 {
        fill: #fff;
        stroke: #fff;
        stroke-width: .5px;
      }

      .cls-1, .cls-2, .cls-3, .cls-4, .cls-5 {
        stroke-miterlimit: 10;
      }

      .cls-2 {
        stroke-dasharray: 0 0 0 0 0 0 6.355 4.539 6.355 4.539 6.355 4.539;
      }

      .cls-2, .cls-3, .cls-4, .cls-5 {
        stroke: #000;
        stroke-width: 3px;
      }

      .cls-2, .cls-3, .cls-5 {
        fill: none;
      }

      .cls-4 {
        fill: #fc3021;
      }

      .cls-5 {
        stroke-dasharray: 0 0 0 0 6.355 4.539 6.355 4.539;
      }

      .cls-6 {
        opacity: .21;
      }
    </style>
  </defs>
  <g id="_Слой_11" data-name="Слой 11">
    <path class="cls-6" d="M306.448,227.186c-2.632-1.263-9.125-4.393-18.335-6.261-12.113-2.456-22.528-1.431-29.292-.224-5.408,16.595-2.693,25.708,.447,30.857,8.069,13.233,24.231,8.958,56.124,24.596,17.893,8.773,14.928,11.159,29.739,16.994,19.668,7.748,29.762,5.458,47.851,13.64,11.682,5.284,20.096,11.949,25.251,16.592,3.366-11.568,2.324-19.912,1.134-24.865-7.425-30.909-47.036-39.728-112.919-71.329Z"/>
  </g>
  <g id="_кепка" data-name="кепка">
    <g>
      <path class="cls-4" d="M310.63,191.849c.771-5.229,4.064-7.623,12.697-15.897,21.661-20.762,19.788-23.762,28.765-28.429,12.045-6.262,23.838-5.238,33.252-4.421,31.032,2.694,51.356,22.115,56.551,27.225,6.536,6.428,21.089,20.742,25.945,44.241,6.862,33.214-9.201,67.599-23.024,73.401-1.836,.771-6.854,2.389-11.63,7.046-5.722,5.58-5.313,9.882-8.688,12.133-8.738,5.829-29.491-10.994-31.717-12.827-21.854-17.995-16.797-27.717-38.39-48.946-9.332-9.175-16.907-13.877-31.208-29.737-8.971-9.948-13.619-16.558-12.552-23.789Z"/>
      <path class="cls-4" d="M391.342,293.225c-3.777-1.181-9.538-2.822-16.691-4.205-9.016-1.743-15.464-2.152-18.061-2.409-13.164-1.3-23.707-8.204-37.467-17.214-20.101-13.162-34.046-28.209-43.069-39.681-7.555-9.605-29.49-37.495-22.399-46.653,3.299-4.26,11.741-2.998,24.69-1.063,13.815,2.065,24.799,6.308,32.284,9.848,.688,2.828,1.912,6.993,4.153,11.696,4.478,9.397,10.059,14.733,22.207,26.039,22.982,21.389,23.561,21.422,26.441,25.54,5.554,7.94,6.028,11.572,13.384,21.542,5.509,7.466,10.829,12.999,14.528,16.559Z"/>
      <path class="cls-4" d="M436.419,165.581c1.004-1.187,5.298,.307,8.114,2.779,3.319,2.915,5.285,7.807,4.067,8.935-1.232,1.14-5.809-1.488-8.625-4.452-2.126-2.238-4.572-6.062-3.557-7.262Z"/>
      <g>
        <path class="cls-3" d="M448.6,177.294c.21,1.017,.421,2.17,.606,3.443"/>
        <path class="cls-5" d="M449.684,185.248c.32,4.836,.092,10.722-1.544,17.134-.188,.737-.39,1.459-.604,2.168"/>
        <path class="cls-2" d="M446.833,206.708c-4.194,11.959-11.864,19.712-16.74,24.546-15.124,14.995-25.215,13.537-38.747,28.431-4.582,5.044-7.843,10.074-10.125,14.239"/>
        <path class="cls-3" d="M380.161,275.932c-.585,1.147-1.088,2.204-1.518,3.15"/>
      </g>
      <g>
        <path class="cls-1" d="M362.41,169.567l-.467-.509,4.959-7.698-.078-.085-8.9,8.161,.753,.821c.097,.106,.133,.213,.106,.322-.026,.108-.095,.214-.207,.317-.107,.098-.217,.156-.33,.175-.113,.02-.218-.024-.315-.13l-1.507-1.643c-.097-.106-.131-.215-.103-.326,.029-.111,.097-.215,.204-.313,.112-.103,.224-.163,.334-.18,.111-.017,.214,.028,.312,.134l.345,.377,8.9-8.161-.258-.281c-.097-.106-.133-.213-.106-.322,.026-.108,.095-.214,.207-.317s.224-.163,.334-.179c.11-.017,.214,.028,.311,.134l1.001,1.092-4.886,7.582,7.953-4.237,1.001,1.091c.101,.11,.138,.219,.111,.327-.026,.108-.095,.214-.207,.317s-.224,.163-.334,.179c-.11,.017-.216-.03-.316-.139l-.253-.276-8.9,8.161,.341,.372c.1,.109,.138,.218,.111,.327-.026,.108-.095,.214-.208,.317-.107,.098-.217,.156-.329,.176-.113,.019-.22-.026-.32-.135l-1.502-1.638c-.097-.106-.132-.215-.105-.328,.028-.113,.094-.218,.201-.316,.112-.103,.224-.163,.334-.179,.111-.017,.216,.03,.316,.139l.753,.821,8.9-8.161-.087-.095-8.07,4.305Z"/>
        <path class="cls-1" d="M369.813,176.928l-2.683-2.926-3.276,1.901,.783,.854c.097,.106,.132,.213,.106,.322-.026,.108-.095,.214-.207,.317-.107,.098-.217,.156-.33,.175s-.218-.024-.315-.13l-1.527-1.665c-.097-.106-.131-.214-.102-.325s.096-.216,.203-.314c.112-.103,.224-.163,.334-.179,.111-.017,.214,.028,.311,.134l.316,.345,10.703-6.194-1.205-1.315c-.097-.106-.132-.213-.106-.322,.026-.108,.095-.214,.207-.317s.224-.163,.334-.179c.111-.017,.214,.028,.311,.134l2.056,2.242-7.654,11.018,.316,.345c.097,.106,.132,.213,.106,.322-.026,.108-.095,.214-.207,.317-.107,.098-.217,.156-.33,.175s-.218-.024-.315-.13l-1.521-1.659c-.101-.11-.136-.22-.107-.331s.096-.216,.203-.314c.112-.103,.224-.163,.334-.179,.111-.017,.216,.03,.316,.139l.778,.848,2.168-3.11Zm.591-.854l4.3-6.206-.151-.165-6.521,3.784,2.372,2.587Z"/>
        <path class="cls-1" d="M373.713,179.986l-3.322,3.046,.753,.821c.101,.11,.138,.219,.111,.327-.026,.108-.095,.214-.207,.317-.107,.098-.217,.156-.33,.175-.113,.02-.22-.026-.32-.135l-1.711-1.866c-.097-.106-.131-.214-.102-.325s.096-.216,.203-.314c.112-.103,.224-.163,.334-.179,.111-.017,.214,.028,.311,.134l.549,.599,8.9-8.161-.549-.599c-.097-.106-.132-.213-.106-.322,.026-.108,.095-.214,.207-.317s.224-.163,.334-.179c.111-.017,.214,.028,.311,.134l1.711,1.866c.101,.11,.138,.219,.111,.327-.026,.108-.095,.214-.207,.317s-.224,.163-.334,.179c-.11,.017-.216-.03-.316-.139l-.753-.821-4.592,4.211,7.411-1.136-.447-.488c-.101-.11-.138-.218-.111-.327,.026-.108,.095-.214,.207-.317s.224-.163,.334-.179c.111-.017,.216,.03,.316,.139l1.2,1.309c.097,.106,.133,.213,.107,.322-.026,.108-.095,.214-.208,.317s-.223,.163-.334,.18c-.111,.017-.214-.028-.312-.134l-.165-.18-5.914,.914c.085,.592,.052,1.18-.101,1.762s-.471,1.299-.953,2.153c-.268,.48-.957,1.541-2.068,3.184l.51,.556c.101,.11,.138,.218,.111,.327-.026,.108-.095,.214-.208,.317-.107,.098-.216,.157-.329,.176s-.22-.026-.32-.135l-.787-.859c1.71-2.426,2.726-4.08,3.047-4.96,.322-.88,.388-1.673,.199-2.378l-2.172,.342Z"/>
        <path class="cls-1" d="M380.631,185.623l-4.273,3.917,3.14,3.425,2.203-2.02c.178-.163,.323-.26,.437-.29s.202-.011,.264,.056c.062,.067,.073,.157,.033,.268s-.148,.248-.326,.411l-2.949,2.704-4.506-4.914c-.097-.106-.131-.215-.103-.326,.029-.111,.097-.215,.204-.313,.112-.103,.224-.163,.334-.18,.111-.017,.214,.028,.312,.134l.549,.599,8.9-8.161-.549-.599c-.097-.106-.133-.213-.107-.322,.026-.108,.095-.214,.208-.317s.224-.163,.334-.18c.111-.017,.214,.028,.312,.134l4.292,4.681-2.567,2.354c-.178,.163-.324,.259-.438,.289s-.202,.011-.264-.056c-.061-.067-.072-.156-.033-.267s.149-.248,.326-.411l1.821-1.67-2.926-3.192-3.882,3.559,1.463,1.596,.844-.774c.178-.163,.325-.259,.44-.287s.205-.009,.266,.058c.058,.064,.069,.153,.031,.266s-.146,.251-.324,.414l-2.434,2.232c-.178,.163-.325,.259-.44,.287s-.204,.01-.262-.054c-.061-.067-.073-.157-.035-.27s.146-.251,.324-.414l.844-.774-1.463-1.596Z"/>
        <path class="cls-1" d="M392.264,199.826l-3.518,3.225,1.4,1.527c.097,.106,.133,.213,.107,.322-.026,.108-.095,.214-.208,.317-.107,.098-.217,.156-.329,.176-.113,.019-.219-.024-.316-.131l-2.357-2.57c-.097-.106-.131-.215-.103-.326s.097-.215,.204-.313c.112-.103,.223-.163,.334-.18,.111-.017,.214,.028,.312,.134l.549,.599,8.9-8.161-.549-.599c-.097-.106-.133-.213-.107-.322,.026-.108,.095-.214,.208-.317s.223-.163,.334-.18c.111-.017,.214,.028,.312,.134l2.372,2.587c.56,.611,.716,1.387,.467,2.328-.25,.94-.779,1.783-1.591,2.527-.48,.44-.97,.773-1.47,1.001s-.941,.353-1.322,.377c-.575,.039-1.068-.012-1.481-.153-.3-.102-.59-.305-.869-.609l-1.278-1.394Zm.746-.684l1.303,1.421c.301,.329,.707,.524,1.217,.587,.51,.063,1.003-.002,1.48-.195,.477-.194,.899-.458,1.266-.795,.586-.538,.976-1.171,1.168-1.901s.078-1.324-.343-1.783l-1.453-1.585-4.637,4.251Z"/>
        <path class="cls-1" d="M398.549,205.166l-4.273,3.917,3.14,3.425,2.203-2.02c.178-.163,.323-.26,.437-.29s.202-.011,.264,.056c.062,.067,.073,.157,.033,.268s-.148,.248-.326,.411l-2.949,2.704-4.506-4.914c-.097-.106-.131-.215-.103-.326,.029-.111,.097-.215,.204-.313,.112-.103,.224-.163,.334-.18,.111-.017,.214,.028,.312,.134l.549,.599,8.9-8.161-.549-.599c-.097-.106-.133-.213-.107-.322,.026-.108,.095-.214,.208-.317s.224-.163,.334-.18c.111-.017,.214,.028,.312,.134l4.292,4.681-2.567,2.354c-.178,.163-.324,.259-.438,.289s-.202,.011-.264-.056c-.061-.067-.072-.156-.033-.267s.149-.248,.326-.411l1.821-1.67-2.926-3.192-3.882,3.559,1.463,1.596,.844-.774c.178-.163,.325-.259,.44-.287s.205-.009,.266,.058c.058,.064,.069,.153,.031,.266s-.146,.251-.324,.414l-2.434,2.232c-.178,.163-.325,.259-.44,.287s-.204,.01-.262-.054c-.061-.067-.073-.157-.035-.27s.146-.251,.324-.414l.844-.774-1.463-1.596Z"/>
        <path class="cls-1" d="M404.209,212.855l-3.518,3.225,1.4,1.527c.097,.106,.133,.213,.107,.322-.026,.108-.095,.214-.208,.317-.107,.098-.217,.156-.329,.176-.113,.019-.219-.024-.316-.131l-2.357-2.57c-.097-.106-.131-.215-.103-.326s.097-.215,.204-.313c.112-.103,.223-.163,.334-.18,.111-.017,.214,.028,.312,.134l.549,.599,8.9-8.161-.549-.599c-.097-.106-.133-.213-.107-.322,.026-.108,.095-.214,.208-.317s.223-.163,.334-.18c.111-.017,.214,.028,.312,.134l2.372,2.587c.56,.611,.716,1.387,.467,2.328-.25,.94-.779,1.783-1.591,2.527-.48,.44-.97,.773-1.47,1.001s-.941,.353-1.322,.377c-.575,.039-1.068-.012-1.481-.153-.3-.102-.59-.305-.869-.609l-1.278-1.394Zm.746-.684l1.303,1.421c.301,.329,.707,.524,1.217,.587,.51,.063,1.003-.002,1.48-.195,.477-.194,.899-.458,1.266-.795,.586-.538,.976-1.171,1.168-1.901s.078-1.324-.343-1.783l-1.453-1.585-4.637,4.251Z"/>
        <path class="cls-1" d="M410.494,218.194l-4.273,3.917,3.14,3.425,2.203-2.02c.178-.163,.323-.26,.437-.29s.202-.011,.264,.056c.062,.067,.073,.157,.033,.268s-.148,.248-.326,.411l-2.949,2.704-4.506-4.914c-.097-.106-.131-.215-.103-.326,.029-.111,.097-.215,.204-.313,.112-.103,.224-.163,.334-.18,.111-.017,.214,.028,.312,.134l.549,.599,8.9-8.161-.549-.599c-.097-.106-.133-.213-.107-.322,.026-.108,.095-.214,.208-.317s.224-.163,.334-.18c.111-.017,.214,.028,.312,.134l4.292,4.681-2.567,2.354c-.178,.163-.324,.259-.438,.289s-.202,.011-.264-.056c-.061-.067-.072-.156-.033-.267s.149-.248,.326-.411l1.821-1.67-2.926-3.192-3.882,3.559,1.463,1.596,.844-.774c.178-.163,.325-.259,.44-.287s.205-.009,.266,.058c.058,.064,.069,.153,.031,.266s-.146,.251-.324,.414l-2.434,2.232c-.178,.163-.325,.259-.44,.287s-.204,.01-.262-.054c-.061-.067-.073-.157-.035-.27s.146-.251,.324-.414l.844-.774-1.463-1.596Z"/>
        <path class="cls-1" d="M337.294,184.518l-3.198,2.932c-.625-.051-1.172-.173-1.641-.364s-.858-.454-1.166-.79c-.437-.476-.703-1.005-.799-1.584s-.045-1.19,.151-1.832,.494-1.274,.893-1.897c.399-.623,1.004-1.306,1.815-2.05l1.368-1.254c.817-.749,1.723-1.357,2.718-1.824,.995-.467,1.889-.677,2.684-.631,.794,.046,1.418,.316,1.872,.811,.658,.717,.885,1.625,.681,2.722,.29-.266,.471-.42,.541-.462s.146-.064,.226-.066c.08-.003,.143,.022,.188,.071,.058,.064,.069,.153,.031,.266s-.146,.251-.324,.414l-1.688,1.547c-.183,.168-.332,.265-.445,.291-.113,.025-.199,.006-.257-.058-.055-.06-.067-.142-.036-.245,.031-.103,.13-.234,.299-.396,.484-.483,.717-1.055,.698-1.718s-.228-1.211-.626-1.646c-.376-.41-.865-.643-1.467-.699-.602-.056-1.454,.158-2.558,.643-.726,.314-1.438,.792-2.137,1.432l-1.359,1.246c-1.238,1.135-2.013,2.262-2.327,3.382-.314,1.12-.106,2.078,.623,2.873,.246,.269,.523,.475,.828,.617s.718,.259,1.236,.35l2.763-2.533-1.405-1.532c-.097-.106-.132-.213-.106-.322,.026-.108,.095-.214,.207-.317s.225-.164,.339-.183,.218,.024,.315,.13l1.955,2.15c.097,.106,.133,.213,.107,.322-.026,.108-.095,.214-.208,.317-.077,.07-.16,.122-.252,.153-.091,.032-.163,.039-.215,.023-.053-.016-.161-.113-.323-.289Z"/>
        <path class="cls-1" d="M340.501,186.446l-3.891,3.567,.754,.822c.101,.11,.138,.218,.111,.327-.026,.108-.095,.214-.208,.317-.107,.098-.216,.157-.329,.176s-.22-.026-.32-.135l-1.711-1.866c-.097-.106-.131-.215-.103-.326,.029-.111,.097-.215,.204-.313,.112-.103,.224-.163,.334-.18,.111-.017,.214,.028,.312,.134l.549,.599,8.9-8.161-.549-.599c-.097-.106-.133-.213-.107-.322,.026-.108,.095-.214,.208-.317s.224-.163,.334-.18c.111-.017,.214,.028,.312,.134l2.469,2.693c.509,.555,.642,1.292,.401,2.212-.241,.92-.731,1.719-1.471,2.398-.533,.489-1.142,.831-1.829,1.028-.686,.196-1.438,.163-2.258-.1-.076,.655-.241,1.307-.496,1.956-.254,.65-.869,1.881-1.846,3.693l.311,.339c.097,.106,.133,.213,.106,.322-.026,.108-.095,.214-.207,.317-.107,.098-.217,.156-.33,.175-.113,.02-.218-.024-.315-.13l-.544-.594c1.147-2.066,1.863-3.508,2.148-4.326,.286-.818,.405-1.567,.36-2.247l-1.298-1.416Zm.746-.684l1.113,1.214c.356,.389,.798,.633,1.325,.732s1.015,.073,1.467-.076c.451-.15,.842-.377,1.174-.681,.497-.456,.835-1.04,1.011-1.751s.068-1.281-.324-1.708l-1.502-1.638-4.264,3.909Z"/>
        <path class="cls-1" d="M346.855,192.61l-4.273,3.917,3.14,3.425,2.203-2.02c.178-.163,.323-.26,.437-.29s.202-.011,.264,.056c.062,.067,.073,.157,.033,.268s-.148,.248-.326,.411l-2.949,2.704-4.506-4.914c-.097-.106-.131-.215-.103-.326,.029-.111,.097-.215,.204-.313,.112-.103,.224-.163,.334-.18,.111-.017,.214,.028,.312,.134l.549,.599,8.9-8.161-.549-.599c-.097-.106-.133-.213-.107-.322,.026-.108,.095-.214,.208-.317s.224-.163,.334-.18c.111-.017,.214,.028,.312,.134l4.292,4.681-2.567,2.354c-.178,.163-.324,.259-.438,.289s-.202,.011-.264-.056c-.061-.067-.072-.156-.033-.267s.149-.248,.326-.411l1.821-1.67-2.926-3.192-3.882,3.559,1.463,1.596,.844-.774c.178-.163,.325-.259,.44-.287s.205-.009,.266,.058c.058,.064,.069,.153,.031,.266s-.146,.251-.324,.414l-2.434,2.232c-.178,.163-.325,.259-.44,.287s-.204,.01-.262-.054c-.061-.067-.073-.157-.035-.27s.146-.251,.324-.414l.844-.774-1.463-1.596Z"/>
        <path class="cls-1" d="M353.956,203.458l-2.683-2.926-3.276,1.901,.783,.854c.097,.106,.132,.213,.106,.322-.026,.108-.095,.214-.207,.317-.107,.098-.217,.156-.33,.175s-.218-.024-.315-.13l-1.527-1.665c-.097-.106-.131-.214-.102-.325s.096-.216,.203-.314c.112-.103,.224-.163,.334-.179,.111-.017,.214,.028,.311,.134l.316,.345,10.703-6.194-1.205-1.315c-.097-.106-.132-.213-.106-.322,.026-.108,.095-.214,.207-.317s.224-.163,.334-.179c.111-.017,.214,.028,.311,.134l2.056,2.242-7.654,11.018,.316,.345c.097,.106,.132,.213,.106,.322-.026,.108-.095,.214-.207,.317-.107,.098-.217,.156-.33,.175s-.218-.024-.315-.13l-1.521-1.659c-.101-.11-.136-.22-.107-.331s.096-.216,.203-.314c.112-.103,.224-.163,.334-.179,.111-.017,.216,.03,.316,.139l.778,.848,2.168-3.11Zm.591-.854l4.3-6.206-.151-.165-6.521,3.784,2.372,2.587Z"/>
        <path class="cls-1" d="M364.96,203.065l-8.9,8.161,1.059,1.156c.097,.106,.133,.213,.106,.322-.026,.108-.095,.214-.207,.317-.107,.098-.217,.156-.33,.175-.113,.02-.218-.024-.315-.13l-2.532-2.762c-.097-.106-.131-.214-.102-.325s.096-.216,.203-.314c.112-.103,.224-.163,.334-.179,.111-.017,.214,.028,.311,.134l1.06,1.156,8.9-8.161-1.672-1.823-2.585,2.37c-.183,.168-.333,.267-.447,.297s-.202,.011-.264-.056c-.058-.064-.068-.151-.03-.264s.149-.254,.333-.422l3.331-3.054,4.573,4.988-3.331,3.054c-.183,.168-.333,.267-.447,.297s-.202,.012-.264-.056-.072-.156-.033-.267,.151-.251,.335-.419l2.585-2.37-1.672-1.823Z"/>
        <path class="cls-1" d="M371.874,223l-2.683-2.926-3.276,1.901,.783,.854c.097,.106,.132,.213,.106,.322-.026,.108-.095,.214-.207,.317-.107,.098-.217,.156-.33,.175s-.218-.024-.315-.13l-1.527-1.665c-.097-.106-.131-.214-.102-.325s.096-.216,.203-.314c.112-.103,.224-.163,.334-.179,.111-.017,.214,.028,.311,.134l.316,.345,10.703-6.194-1.205-1.315c-.097-.106-.132-.213-.106-.322,.026-.108,.095-.214,.207-.317s.224-.163,.334-.179c.111-.017,.214,.028,.311,.134l2.056,2.242-7.654,11.018,.316,.345c.097,.106,.132,.213,.106,.322-.026,.108-.095,.214-.207,.317-.107,.098-.217,.156-.33,.175s-.218-.024-.315-.13l-1.521-1.659c-.101-.11-.136-.22-.107-.331s.096-.216,.203-.314c.112-.103,.224-.163,.334-.179,.111-.017,.216,.03,.316,.139l.778,.848,2.168-3.11Zm.591-.854l4.3-6.206-.151-.165-6.521,3.784,2.372,2.587Z"/>
        <path class="cls-1" d="M379.104,230.118l-3.198,2.932c-.625-.051-1.172-.173-1.641-.364s-.858-.454-1.166-.79c-.437-.476-.703-1.005-.799-1.584s-.045-1.19,.151-1.832,.494-1.274,.893-1.897,1.004-1.306,1.815-2.05l1.368-1.254c.817-.749,1.723-1.357,2.718-1.824,.995-.467,1.89-.677,2.684-.631s1.418,.316,1.872,.811c.658,.717,.885,1.625,.681,2.722,.29-.266,.471-.42,.541-.462s.146-.064,.226-.066c.08-.003,.143,.022,.188,.071,.058,.064,.069,.153,.031,.266s-.146,.251-.324,.414l-1.688,1.547c-.183,.168-.332,.265-.445,.291-.113,.025-.199,.006-.257-.058-.055-.06-.067-.142-.036-.245,.031-.103,.13-.234,.299-.396,.484-.483,.717-1.055,.698-1.718s-.228-1.211-.626-1.646c-.376-.41-.865-.643-1.467-.699-.602-.056-1.454,.158-2.558,.643-.726,.314-1.438,.792-2.137,1.432l-1.359,1.246c-1.238,1.135-2.013,2.262-2.327,3.382s-.106,2.078,.623,2.873c.246,.269,.523,.475,.828,.617s.718,.259,1.236,.35l2.763-2.533-1.405-1.532c-.097-.106-.132-.213-.106-.322,.026-.108,.095-.214,.207-.317s.225-.164,.339-.183,.218,.024,.315,.13l1.955,2.15c.097,.106,.133,.213,.107,.322-.026,.108-.095,.214-.208,.317-.077,.07-.16,.122-.252,.153-.091,.032-.163,.039-.215,.023-.053-.016-.161-.113-.323-.289Z"/>
        <path class="cls-1" d="M383.82,236.028l-2.683-2.926-3.276,1.901,.783,.854c.097,.106,.132,.213,.106,.322-.026,.108-.095,.214-.207,.317-.107,.098-.217,.156-.33,.175s-.218-.024-.315-.13l-1.527-1.665c-.097-.106-.131-.214-.102-.325s.096-.216,.203-.314c.112-.103,.224-.163,.334-.179,.111-.017,.214,.028,.311,.134l.316,.345,10.703-6.194-1.205-1.315c-.097-.106-.132-.213-.106-.322,.026-.108,.095-.214,.207-.317s.224-.163,.334-.179c.111-.017,.214,.028,.311,.134l2.056,2.242-7.654,11.018,.316,.345c.097,.106,.132,.213,.106,.322-.026,.108-.095,.214-.207,.317-.107,.098-.217,.156-.33,.175s-.218-.024-.315-.13l-1.521-1.659c-.101-.11-.136-.22-.107-.331s.096-.216,.203-.314c.112-.103,.224-.163,.334-.179,.111-.017,.216,.03,.316,.139l.778,.848,2.168-3.11Zm.591-.854l4.3-6.206-.151-.165-6.521,3.784,2.372,2.587Z"/>
        <path class="cls-1" d="M394.828,235.641l-8.9,8.161,1.4,1.527c.097,.106,.133,.213,.107,.322-.026,.108-.095,.214-.208,.317-.107,.098-.216,.157-.329,.176s-.219-.024-.316-.131l-3.208-3.498c-.097-.106-.131-.214-.102-.325s.096-.216,.203-.314c.112-.103,.224-.163,.334-.179,.111-.017,.214,.028,.311,.134l1.4,1.527,8.9-8.161-1.4-1.527c-.097-.106-.132-.213-.106-.322,.026-.108,.095-.214,.207-.317s.224-.163,.334-.179c.111-.017,.214,.028,.311,.134l3.208,3.498c.097,.106,.133,.213,.107,.322-.026,.108-.095,.214-.208,.317s-.223,.163-.334,.18c-.111,.017-.214-.028-.312-.134l-1.4-1.527Z"/>
        <path class="cls-1" d="M392.948,252.957l-.525-.572,6.292-11.808-8.554,7.843,.753,.821c.101,.11,.138,.218,.111,.327-.026,.108-.095,.214-.207,.317-.107,.098-.217,.156-.33,.175s-.22-.026-.32-.135l-1.502-1.638c-.1-.109-.136-.22-.107-.331,.029-.111,.097-.215,.204-.313,.112-.103,.224-.163,.334-.18,.111-.017,.216,.03,.316,.139l.341,.372,8.9-8.161-.549-.599c-.097-.106-.133-.213-.106-.322,.026-.108,.095-.214,.207-.317s.224-.163,.334-.179c.11-.017,.214,.028,.311,.134l1.069,1.166-6.305,11.83,8.572-7.859-.753-.821c-.097-.106-.133-.213-.107-.322,.026-.108,.095-.214,.208-.317s.223-.164,.331-.182c.109-.018,.213,.027,.314,.137l1.506,1.643c.097,.106,.133,.213,.107,.322-.026,.108-.095,.214-.208,.317s-.223,.163-.334,.18c-.111,.017-.214-.028-.312-.134l-.345-.376-9.647,8.845Z"/>
      </g>
    </g>
  </g>
</svg>