<?xml version="1.0" encoding="UTF-8"?>
<svg id="_Слой_12" data-name="Слой 12" xmlns="http://www.w3.org/2000/svg" viewBox="0 0 502.324 709.214">
  <defs>
    <style>
      .cls-1 {
        fill: #427430;
        stroke: #000;
        stroke-miterlimit: 10;
        stroke-width: 3px;
      }
    </style>
  </defs>
  <g id="_рука" data-name="рука">
    <path class="cls-1" d="M242.434,350.673c-4.311,2.131-10.197,5.684-15.898,11.487-9.044,9.205-12.862,19.222-14.497,24.707-10.501,.008-23.11,.834-37.144,3.469-17.038,3.2-31.296,8.15-42.343,12.885-2.098-4.391-4.617-7.009-6.569-8.6-3.336-2.72-4.428-2.647-7.722-5.884-2.106-2.07-3.639-4.163-6.178-7.633-3.356-4.585-4.019-6.14-5.252-6.037-1.854,.155-3.255,3.915-3.465,6.745-.437,5.884,4.08,10.322,5.344,11.487,3.214,2.351,5.079,4.858,4.478,6.209-.708,1.593-4.827,1.556-7.894,.657-5.898-1.73-6.471-6.231-11.553-7.009-2.894-.443-6.662,.412-7.524,2.617-.787,2.014,1.059,4.616,2.51,5.937,1.957,1.782,3.242,1.271,8.13,2.989,2.902,1.02,4.404,2.225,8.271,3.411,.753,.231,1.381,.402,1.805,.513-.676,.804-1.8,1.881-3.442,2.399-.976,.308-2.898,.433-7.95-1.571-5.37-2.13-5.967-4.746-9.284-4.672-2.365,.053-5.299,1.455-5.861,3.802-.481,2.008,.932,4.05,2.226,5.105,1.611,1.313,3.118,1.16,5.843,1.579,.351,.054,5.384,1.08,10.499,3.355,1.642,.731,2.926,1.429,3.712,1.877-1.295,.508-3.108,1.05-5.3,1.157-4.896,.237-7.511-1.902-10.222-.231-.239,.148-1.77,1.09-1.905,2.598-.12,1.342,.931,2.413,1.245,2.733,2.414,2.461,6.709,1.1,12.018,1.194,7.246,.128,6.75,2.796,14.035,3.052,3.277,.116,10.008,.388,14.615-4.216,2.177-2.175,3.177-4.648,3.66-6.262,10.139,1.999,24.224,3.682,40.893,2.331,17.807-1.444,32.225-5.837,42.209-9.736,4.917,2.928,10.826,2.265,14.141-1.211,3.279-3.438,2.683-8.227,2.585-8.922,5.854-2.638,15.225-7.769,23.968-17.279,6.98-7.592,11.03-15.222,13.348-20.585-1.613-2.375-4.329-5.725-8.555-8.642-6.828-4.712-13.695-5.601-16.975-5.804Z"/>
  </g>
</svg>