<?xml version="1.0" encoding="UTF-8"?>
<svg id="_Слой_12" data-name="Слой 12" xmlns="http://www.w3.org/2000/svg" viewBox="0 0 502.324 709.214">
  <defs>
    <style>
      .cls-1 {
        fill: #427430;
      }

      .cls-1, .cls-2, .cls-3 {
        stroke: #000;
        stroke-miterlimit: 10;
        stroke-width: 3px;
      }

      .cls-2 {
        fill: #498dad;
      }

      .cls-3 {
        fill: #fff;
      }
    </style>
  </defs>
  <g id="_тело" data-name="тело">
    <g>
      <path class="cls-2" d="M219.343,252.408c-19.287-1.287-35.293-.699-46.812,.17-17.373,1.311-27.507,2.151-40.057,6.798-15.578,5.768-26.627,14.347-33.27,20.394-1.084-.276-15.909-3.795-25.753,5.942-.478,.473-7.319,7.442-6.977,17.021,.428,11.985,11.699,16.805,33.31,35.137,31.116,26.395,42.357,45.759,45.978,52.435,3.279,6.045,5.497,11.253,6.848,14.674,9.276,2.465,22.481,4.485,37.303,1.125,4.985-1.13,8.455-2.484,10.045-3.081,32.193-12.108,62.559-3.611,77.184-16.657,22.09-19.704,8.991-89.182-32.859-120.773-9.233-6.97-18.302-10.897-24.939-13.183Z"/>
      <path class="cls-3" d="M196.2,403.476c-14.723-4.953-26.193-15.137-27.235-26.723-1.704-18.953,25.375-31.959,31.804-35.046,12.238-5.878,23.594-6.954,30.341-7.084,.906,2.611,1.811,5.223,2.717,7.834-7.533-.099-22.363,.808-36.995,10.03-7.435,4.686-18.77,11.831-18.998,22.226-.23,10.523,10.986,21.567,27.699,25.998-3.112,.922-6.223,1.844-9.335,2.766Z"/>
      <path class="cls-1" d="M205.534,400.71c6.704-1.664,16.885-3.733,29.513-4.449,9.831-.558,13.508,.137,20.15-.832,7.772-1.134,18.659-4.408,31.166-14.23-14.069-23.557-34.825-38.244-52.536-38.742-4.029-.113-14.288,.328-25.854,4.464-4.36,1.559-9.381,3.398-14.794,7.465-3.999,3.004-15.095,11.339-15.125,21.651-.03,10.347,11.083,21.251,27.481,24.673Z"/>
    </g>
    <g>
      <path d="M100.957,282.193c18.976,7.041,33.275,26.081,34.659,46.286-7.279-18.983-18.489-33.964-34.659-46.286h0Z"/>
      <path d="M125.553,287.112c9.059,10.389,12.783,25.573,9.49,38.995,.413-13.651-2.839-27.065-9.49-38.995h0Z"/>
    </g>
  </g>
</svg>