<?xml version="1.0" encoding="UTF-8"?>
<svg id="_Слой_12" data-name="Слой 12" xmlns="http://www.w3.org/2000/svg" viewBox="0 0 502.324 709.214">
  <defs>
    <style>
      .cls-1 {
        fill: none;
      }

      .cls-1, .cls-2, .cls-3 {
        stroke: #000;
        stroke-miterlimit: 10;
        stroke-width: 3px;
      }

      .cls-2 {
        fill: #fc5034;
      }

      .cls-3 {
        fill: #fff;
      }
    </style>
  </defs>
  <g id="_штаны" data-name="штаны">
    <g>
      <path class="cls-2" d="M159.836,406.624c2.293,2.775,2.933,6.665,4.213,14.445,1.392,8.462,.213,9.852,1.057,19.196,.752,8.334,2.844,8.779,3.014,16.939,.123,5.944,.217,10.438-2.963,13.982-3.921,4.369-11.709,6.059-15.725,3.122-5.279-3.861-2.241-14.404-4.854-15.056-2.649-.661-4.299,10.54-12.851,14.424-6.794,3.085-16.493,.895-22.047-4.045-4.093-3.64-3.596-6.693-8.168-10.23-4.466-3.455-9.72-4.238-13.488-4.355-9.236,1.985-30.611,5.179-48.939-5.918-4.377-2.65-10.303-6.354-12.469-13.343-3.773-12.176,7.138-23.773,8.226-24.897-1.622-1.939-3.645-4.801-5.211-8.606-1.627-3.953-1.801-6.806-2.434-13.477-1.446-15.223-2.02-17.182-.864-17.742,2.593-1.256,6.77,7.974,18.224,14.165,6.804,3.677,10.788,3.37,18.312,5.334,16.347,4.266,19.305,11.396,30.725,16.199,28.18,11.853,56.317-12.149,66.243-.137Z"/>
      <path class="cls-3" d="M157.171,404.427c-2.456-.5-6.148-1.041-10.595-.846-7.4,.325-10.741,2.418-17.636,4.188-13.346,3.426-22.104,1.046-22.341,2.661-.242,1.649,8.784,4.817,17.581,6.335,2.766,.477,28.861,4.765,33.254-4.958,.621-1.374,1.101-3.676-.263-7.381Z"/>
      <path class="cls-3" d="M147.936,417.238c-.569,1.751-1.179,4.395-.867,7.527,.438,4.399,2.712,5.206,4.346,10.424,1.608,5.135,1.223,9.691,.995,11.483-.627,4.923-2.107,4.956-2.344,9.244-.276,4.984,1.49,9.131,2.228,10.815,2.256,5.149,5.133,7.337,4.351,8.473-.39,.566-1.718,.914-6.373-.7-4.442-6.762-5.436-12.328-5.496-16.214-.139-8.858,4.297-13.879,1.315-21.118-1.294-3.14-2.617-3.156-4.046-7.011-1.736-4.684-1.438-9.129-.879-12.234,2.257-.23,4.513-.459,6.77-.689Z"/>
      <path class="cls-3" d="M141.166,417.927c-2.501-.028-5.002-.056-7.502-.085-.413,1.837-.882,4.762-.554,8.286,.747,8.035,4.954,12.25,6.318,16.028,1.881,5.206,.027,14.231-17.753,30.879,2.695-.129,5.389-.258,8.084-.386,3.366-2.2,11.142-7.969,14.984-18.4,1.754-4.762,3.422-9.296,2.079-14.656-1.491-5.95-5.711-8.981-6.081-16.354-.113-2.259,.175-4.119,.426-5.311Z"/>
      <path d="M108.034,429.745c-5.098,.691-10.354,.228-15.424-1.157-5.011-1.563-9.384-3.737-14.216-5.506-3.516-1.449-7.256-2.42-10.728-4.134-5.811-2.975-10.88-7.536-14.365-12.932,5.01,3.975,10.067,7.371,15.826,9.722,3.486,1.337,7.187,2.177,10.706,3.613,4.693,1.735,9.339,4.27,13.801,6.274,4.528,1.87,9.371,3.146,14.4,4.12h0Z"/>
      <path d="M60.305,429.264c9.415,2.075,17.775-.699,23.937-7.955,2.819,11.489,10.406,19.329,20.809,24.588-10.716-2.279-20.111-10.649-22.892-21.372,0,0,2.464,.617,2.464,.617-1.568,1.601-3.384,2.956-5.373,3.985-5.801,3.097-13.127,3.155-18.944,.137h0Z"/>
      <path d="M85.051,428.205c1.514,4.582,1.211,9.62-.242,14.187-3.77,2.821-8.752,4.028-13.332,2.935-1.434-.345-2.816-.863-4.033-1.658,1.444,.096,2.826,.154,4.183,.077,3.935-.191,7.811-1.358,11.075-3.499,0,0-.575,.769-.575,.769,1.43-4.049,2.283-8.54,2.925-12.811h0Z"/>
      <path class="cls-1" d="M83.538,441.473c-.139,1.457-.204,4.157,.915,7.259,1.163,3.224,3.038,5.31,4.098,6.337"/>
      <path d="M27.638,386.073c2.441,4.202,5.777,7.273,10.042,9.575-5.206,.566-10.412-4.361-10.042-9.575h0Z"/>
    </g>
  </g>
</svg>