<?xml version="1.0" encoding="UTF-8"?>
<svg id="_Слой_12" data-name="Слой 12" xmlns="http://www.w3.org/2000/svg" viewBox="0 0 502.324 709.214">
  <defs>
    <style>
      .cls-1 {
        fill: #dd100b;
        stroke: #000;
        stroke-miterlimit: 10;
        stroke-width: 3px;
      }
    </style>
  </defs>
  <g id="_голова" data-name="голова">
    <path class="cls-1" d="M253.185,338.523c4.685-1.119,11.842-2.271,20.467-1.436,6.318,.612,17.471,1.693,26.609,9.391,7.419,6.25,4.162,8.988,12.522,16.174,6.678,5.74,11.764,6.579,16.956,14.087,1.103,1.596,4.793,6.931,3.13,9.13-1.636,2.165-7.602,.165-9.652-.522-7.518-2.519-13.179-6.986-22.174-16.174-11.522-11.77-12.374-14.8-18-16.957-6.885-2.639-13.836-1.254-18.522,.261-2.236-1.681-5.058-4.191-7.668-7.756-1.623-2.217-2.805-4.351-3.668-6.199Z"/>
  </g>
</svg>