<?xml version="1.0" encoding="UTF-8"?>
<svg id="_Слой_12" data-name="Слой 12" xmlns="http://www.w3.org/2000/svg" viewBox="0 0 1078.846 1068.725">
  <defs>
    <style>
      .cls-1 {
        fill: #8f5f36;
        opacity: .16;
      }

      .cls-1, .cls-2, .cls-3, .cls-4, .cls-5 {
        fill-rule: evenodd;
      }

      .cls-2 {
        opacity: .66;
      }

      .cls-2, .cls-5 {
        fill: #fff;
      }

      .cls-3 {
        stroke: #000;
        stroke-miterlimit: 10;
        stroke-width: 2px;
      }

      .cls-3, .cls-4 {
        fill: #ffcf98;
      }

      .cls-5 {
        opacity: .49;
      }
    </style>
  </defs>
  <g id="_ЖЭПА" data-name="ЖЭПА">
    <path class="cls-3" d="M598.333,587.762c-8.366-.095-9.487-.843-14.534-.894-1.737-.018-31.428,.148-48.251,22.884-2.518,3.403-8.681,11.96-9.558,24.318-.241,3.396-.85,17.893,7.85,29.106,2.58,3.325,5.134,5.272,7.698,10.45,3.019,6.096,3.479,11.474,3.723,13.862,1.41,13.841,2.952,28.971,10.141,36.672,9.31,9.975,30.977,10.578,41.62,1.476,8.086-6.915,4.717-15.078,13.974-23.098,8.435-7.308,15.754-4.448,25.571-8.309,17.865-7.027,31.269-31.307,30.189-54.815-1.285-27.974-23.015-53.405-40.696-53.888-5.872-.16-11.868,2.416-27.727,2.236Z"/>
    <path class="cls-1" d="M536.849,634.912c-2.008,4.855-4.779,13.536-4.149,25.222-1.005-2.436-9.085-22.948,2.236-41.59,1.381-2.274,7.656-12.606,19.569-17.033,9.276-3.447,21.157-3.012,23.065-2.942,.663,.024,3.129,.132,6.559,.149,3.562,.017,6.466-.072,8.348-.149-1.02,.642-2.643,1.527-4.77,2.087-4.326,1.14-7.968,.209-8.804,.04-7.807-1.575-32.264,10.541-42.053,34.216Z"/>
    <g>
      <path class="cls-4" d="M532.743,660.135c-5.341-16.05-1.669-33.614,9.619-45.582,14.881-15.776,35.49-13.867,37.857-13.607"/>
      <path d="M532.743,660.135c-8.817-22.096,2.272-48.713,24.982-56.784,7.195-2.674,15.016-3.445,22.494-2.404-7.484-.265-15.028,1.012-21.927,3.858-21.664,8.698-31.837,33.288-25.549,55.331h0Z"/>
    </g>
    <path class="cls-2" d="M576.726,589.806c-4.135,.389-7.877,2.45-7.845,3.059,.01,.198,.42,.278,7.883-.502,6.908-.721,7.413-.88,7.429-1.1,.045-.601-3.511-1.83-7.467-1.457Z"/>
    <path class="cls-5" d="M534.121,635.166c-2.85,8.563-.582,16.941,.037,16.916,.436-.018-.117-4.206,1.275-12.162,1.272-7.266,3.117-11.677,2.618-11.876-.456-.182-2.636,3.235-3.93,7.123Z"/>
  </g>
</svg>