<?xml version="1.0" encoding="UTF-8"?>
<svg id="_Слой_12" data-name="Слой 12" xmlns="http://www.w3.org/2000/svg" viewBox="0 0 1078.846 1068.725">
  <defs>
    <style>
      .cls-1 {
        opacity: .13;
      }

      .cls-1, .cls-2, .cls-3 {
        fill: #c4302d;
      }

      .cls-2 {
        opacity: .28;
      }

      .cls-3 {
        opacity: .22;
      }
    </style>
  </defs>
  <g id="_ШЛЕПКИ" data-name="ШЛЕПКИ">
    <g id="_Шлеп2" data-name="Шлеп2">
      <g id="_Слой_17" data-name="Слой 17">
        <path class="cls-1" d="M543.89,625.603c-2.716,6.753-3.29,12.817-3.29,12.817-.523,5.531,.469,7.142-.904,11.477-1.5,4.738-3.623,5.779-3.137,8.643,.553,3.261,4.071,6.437,7.001,6.117,3.392-.369,3.077-5.102,7.758-8.342,5.028-3.479,8.337-.058,14.76-2.97,4.048-1.835,6.329-5.047,10.891-11.47,4.257-5.993,6.564-9.241,7.465-14.305,.4-2.246,2.032-11.421-3.713-17.444-6.01-6.301-16.537-5.424-22.955-2.403-8.249,3.883-11.592,12.194-13.878,17.877Z"/>
      </g>
      <path class="cls-2" d="M539.417,656.598c1.224-.903,4.57-3.625,5.955-8.457,2.089-7.286-2.036-13.254-2.606-14.05,6.842-8.593,13.683-17.185,20.525-25.778,6.245,5.71,12.491,11.419,18.736,17.129-6.609,8.464-13.218,16.928-19.827,25.392-1.103-.343-6.314-1.835-11.906,.925-5.331,2.631-7.358,7.325-7.812,8.46"/>
      <path class="cls-3" d="M541.389,656.706c1.15-1.052,4.714-4.579,5.719-10.45,1.09-6.364-1.56-11.192-2.311-12.461,6.068-7.621,12.136-15.242,18.203-22.862,5.539,5.064,11.078,10.128,16.617,15.191-5.861,7.507-11.723,15.013-17.584,22.52-1.26-.344-5.708-1.395-10.559,.821-5.904,2.697-7.896,8.173-8.232,9.147"/>
    </g>
  </g>
</svg>