<?xml version="1.0" encoding="UTF-8"?>
<svg id="_Слой_12" data-name="Слой 12" xmlns="http://www.w3.org/2000/svg" viewBox="0 0 1078.846 1068.725">
  <defs>
    <style>
      .cls-1 {
        fill: #bfbfbf;
      }

      .cls-2, .cls-3 {
        fill: #cfcfcf;
      }

      .cls-4 {
        fill: #8f8f8f;
      }

      .cls-5 {
        fill: none;
      }

      .cls-5, .cls-3, .cls-6 {
        stroke: #000;
        stroke-miterlimit: 10;
      }

      .cls-5, .cls-6 {
        stroke-width: 2px;
      }

      .cls-7 {
        fill: #02304a;
      }

      .cls-8 {
        fill: #045380;
      }

      .cls-9 {
        fill: #12100f;
      }

      .cls-6 {
        fill: #1a1a1a;
      }

      .cls-10 {
        fill: #0473b0;
      }

      .cls-11 {
        fill: #525252;
      }

      .cls-12 {
        fill: #919191;
      }
    </style>
  </defs>
  <g id="_НОГИ" data-name="НОГИ">
    <g id="_Слой_15" data-name="Слой 15">
      <g>
        <path class="cls-6" d="M598.676,760.144c-1.969,3.735-4.712,10.099-5.46,18.437-.923,10.298,1.665,18.405,3.329,22.568,12.656,3.935,28.995,7.715,48.251,9.022,26.742,1.815,49.13-1.817,64.824-5.687,1.312-1.4,7.309-8.083,6.288-16.92-.576-4.988-3.127-8.398-4.144-9.723-4.791-6.243-10.336-6.527-24.466-13.481-3.847-1.893-6.887-3.57-8.718-4.609-3.236,3.882-13.317,14.928-30.07,18.126-28.011,5.347-48.472-16.247-49.834-17.734Z"/>
        <path class="cls-9" d="M604.941,785.724c4.52,3.63,11.77,8.631,21.663,12.162,12.507,4.465,22.747,4.265,34.391,4.038,8.609-.168,21.22-.517,36.495-5.835,7.851-2.734,14.068-5.967,18.418-8.524,.081,.979,.108,2.136,.005,3.426-.115,1.437-.363,2.689-.634,3.717-14.834,6.846-50.289,20.503-89.31,8.635-7.953-2.419-14.986-5.573-21.115-8.98,.1-1.4,.164-2.885,.177-4.448,.012-1.468-.022-2.867-.09-4.192Z"/>
        <path class="cls-9" d="M646.448,778.321c4.864-.838,12.759-2.871,20.878-8.346,5.086-3.43,8.752-7.193,11.255-10.224,2.906,1.536,5.812,3.072,8.718,4.609,8.696,4.908,10.052,7.771,9.711,9.474-1.178,5.874-24.332,6.749-38.22,5.877-5.202-.327-9.473-.921-12.342-1.39Z"/>
        <path d="M687.299,764.36c4.52,1.93,15.877,8.245,7.566,12.889-3.357,1.674-7.094,2.179-10.724,2.655-4.816,.522-9.632,.671-14.437,.598-4.805-.065-9.6-.333-14.377-.862,4.797-.304,9.58-.471,14.35-.699,8.152-.616,16.697-.353,24.4-3.253,6.724-2.924-4.078-9.255-6.778-11.329h0Z"/>
      </g>
      <g>
        <path class="cls-2" d="M593.614,789.859c-.509-3.285-.851-7.756-.215-12.974,.501-4.112,1.474-7.582,2.442-10.275,2.24,2.519,6.054,7.498,7.999,14.843,1.448,5.465,1.315,10.179,.983,13.216,2.316,1.031,5.726,2.459,9.939,3.895,25.995,8.859,48.73,6.437,61.73,4.959,9.662-1.098,23.223-3.485,38.886-9.139-.547,1.869-1.485,4.284-3.148,6.8-.865,1.308-1.767,2.402-2.609,3.3-12.924,3.195-29.587,6.024-49.059,6.161-26.647,.188-48.653-4.733-64.016-9.496-.706-1.723-1.408-3.75-1.977-6.055-.467-1.893-.766-3.654-.955-5.235Z"/>
        <path class="cls-3" d="M604.823,794.669c-1.873-.509-4.007-1.222-6.291-2.237-1.864-.829-3.505-1.714-4.918-2.573"/>
        <path class="cls-12" d="M712.831,800.624c-.984,1.193-1.968,2.387-2.952,3.58-14.496,3.74-35.135,7.394-59.926,6.406-21.991-.876-40.28-5.126-53.625-9.308-.491-1.705-.982-3.409-1.473-5.114,6.668,2.872,16.332,6.413,28.406,8.717,7.264,1.386,12.691,1.808,19.217,2.294,10.127,.755,23.4,1.678,40.249-.311,7.754-.915,18.113-2.666,30.104-6.264Z"/>
        <path class="cls-5" d="M593.614,789.859c-.509-3.285-.851-7.756-.215-12.974,.501-4.112,1.474-7.582,2.442-10.275,2.24,2.519,6.054,7.498,7.999,14.843,1.448,5.465,1.315,10.179,.983,13.216,2.316,1.031,5.726,2.459,9.939,3.895,25.995,8.859,48.73,6.437,61.73,4.959,9.662-1.098,23.223-3.485,38.886-9.139-.547,1.869-1.485,4.284-3.148,6.8-.865,1.308-1.767,2.402-2.609,3.3-12.924,3.195-29.587,6.024-49.059,6.161-26.647,.188-48.653-4.733-64.016-9.496-.706-1.723-1.408-3.75-1.977-6.055-.467-1.893-.766-3.654-.955-5.235Z"/>
      </g>
      <g>
        <path d="M597.384,791.331c.307,3.699,.903,6.935,1.904,10.509-3.482-2.015-4.447-7.398-1.904-10.509h0Z"/>
        <path d="M602.746,793.842c.166,3.393,.864,6.229,2.359,9.282-3.741-1.021-5.138-6.568-2.359-9.282h0Z"/>
        <path d="M608.719,796.37c.399,3.015,.883,5.537,1.458,8.523-3.061-1.438-3.896-6.157-1.458-8.523h0Z"/>
        <path d="M614.762,798.564c.485,2.612,.66,4.835,.558,7.491-2.529-1.507-2.826-5.622-.558-7.491h0Z"/>
        <path d="M621.47,800.478c.365,1.568,.506,3.124,.668,4.672,.037,.523,.093,1.068,.087,1.77-.674-.21-1.171-.662-1.549-1.19-1.114-1.594-.936-4.144,.794-5.251h0Z"/>
        <path d="M627.388,802.035c.48,2.212,.539,4.012,.175,6.247-2.301-1.181-2.397-4.936-.175-6.247h0Z"/>
        <path d="M593.134,775.035c2.519,.157,2.918,.13,5.436-.072-.346,2.81-5.027,2.855-5.436,.072h0Z"/>
        <path d="M593.24,786.122c2.519,.157,2.918,.13,5.436-.072-.346,2.81-5.027,2.855-5.436,.072h0Z"/>
        <path d="M592.692,780.628c2.519,.157,2.918,.13,5.436-.072-.346,2.81-5.027,2.855-5.436,.072h0Z"/>
        <path d="M634.204,803.227c.481,2.212,.539,4.012,.175,6.247-2.301-1.181-2.397-4.936-.175-6.247h0Z"/>
        <path d="M640.336,803.875c.481,2.212,.539,4.012,.175,6.247-2.301-1.181-2.397-4.936-.175-6.247h0Z"/>
        <path d="M646.209,804.173c.481,2.212,.539,4.012,.175,6.247-2.301-1.181-2.397-4.936-.175-6.247h0Z"/>
        <path d="M652.061,804.576c.481,2.212,.539,4.012,.175,6.247-2.301-1.181-2.397-4.936-.175-6.247h0Z"/>
        <path d="M657.791,804.322c.481,2.212,.539,4.012,.175,6.247-2.301-1.181-2.397-4.936-.175-6.247h0Z"/>
        <path d="M663.784,804.328c.481,2.212,.539,4.012,.175,6.247-2.301-1.181-2.397-4.936-.175-6.247h0Z"/>
        <path d="M668.064,803.901c2.874,.663,3.022,5.419,.174,6.247,.141-2.722,.133-3.54-.174-6.247h0Z"/>
        <path d="M674.558,803.59c2.874,.663,3.022,5.419,.174,6.247,.141-2.722,.133-3.54-.174-6.247h0Z"/>
        <path d="M680.439,803.002c2.874,.663,3.022,5.419,.174,6.247,.141-2.722,.133-3.54-.174-6.247h0Z"/>
        <path d="M686.811,802.029c2.874,.663,3.022,5.419,.174,6.247,.141-2.722,.133-3.54-.174-6.247h0Z"/>
        <path d="M692.71,800.663c3.109,.92,3.279,6.079,.201,7.185,.365-2.987,.346-4.226-.201-7.185h0Z"/>
        <path d="M699.375,799.381c3.109,.92,3.279,6.079,.201,7.185,.365-2.987,.346-4.226-.201-7.185h0Z"/>
        <path d="M705.815,797.751c3.109,.92,3.279,6.079,.201,7.185,.365-2.987,.346-4.226-.201-7.185h0Z"/>
      </g>
      <g>
        <g>
          <g>
            <circle class="cls-4" cx="652.427" cy="781.379" r="2.174"/>
            <path d="M654.009,779.888c2.12,2.311-1.198,5.64-3.528,3.326-2.179-2.464,1.346-5.579,3.528-3.326h0Zm0,0c-1.87-1.848-4.481,.816-2.801,2.64,1.723,1.79,4.537-.664,2.801-2.64h0Z"/>
          </g>
          <circle class="cls-11" cx="652.754" cy="781.071" r="1.031"/>
          <path class="cls-1" d="M651.515,780.306c-.127-.038-.762,.752-.493,1.435,.282,.717,1.367,.828,1.437,.699,.059-.11-.632-.363-.877-1.092-.19-.567,.026-1.015-.067-1.042Z"/>
        </g>
        <g>
          <g>
            <circle class="cls-4" cx="663.073" cy="782.408" r="2.174"/>
            <path d="M664.655,780.916c2.12,2.311-1.198,5.64-3.528,3.326-2.179-2.464,1.346-5.579,3.528-3.326h0Zm0,0c-1.87-1.848-4.481,.816-2.801,2.64,1.723,1.79,4.537-.664,2.801-2.64h0Z"/>
          </g>
          <circle class="cls-11" cx="663.4" cy="782.1" r="1.031"/>
          <path class="cls-1" d="M662.16,781.335c-.127-.038-.762,.752-.493,1.435,.282,.717,1.367,.828,1.437,.699,.059-.11-.632-.363-.877-1.092-.19-.567,.026-1.015-.067-1.042Z"/>
        </g>
        <g>
          <g>
            <circle class="cls-4" cx="675.639" cy="782.421" r="2.174"/>
            <path d="M677.222,780.93c2.12,2.311-1.198,5.64-3.528,3.326-2.178-2.464,1.346-5.579,3.528-3.326h0Zm0,0c-1.87-1.848-4.481,.816-2.801,2.641,1.723,1.79,4.537-.664,2.801-2.641h0Z"/>
          </g>
          <circle class="cls-11" cx="675.966" cy="782.113" r="1.031"/>
          <path class="cls-1" d="M674.727,781.348c-.127-.038-.762,.752-.493,1.435,.282,.717,1.367,.828,1.437,.699,.059-.11-.632-.363-.877-1.092-.19-.567,.026-1.015-.067-1.042Z"/>
        </g>
        <g>
          <path d="M675.566,782.767c2.705-7.977,10.393-14.241,18.787-15.133-7.401,3.607-13.661,8.697-18.787,15.133h0Z"/>
          <path d="M687.8,764.866c-10.294,2.585-19.056,9.011-24.721,17.974,3.103-10.462,13.807-18.271,24.721-17.974h0Z"/>
          <path d="M684.83,762.691c-12.47,2.822-23.673,9.392-32.246,18.875,6.341-11.342,19.254-18.888,32.246-18.875h0Z"/>
        </g>
      </g>
    </g>
    <g id="_нога2" data-name="нога2">
      <g>
        <path class="cls-8" d="M597.948,697.017c-.713,5.354-1.349,10.825-1.898,16.41-2.082,21.179-2.629,41.184-2.145,59.788,2.339,2.056,18.165,15.494,41.029,12.517,23.13-3.012,35.019-20.423,36.706-22.986,2.227-9.654,4.552-25.086,2.029-43.75-2.342-17.324-7.958-30.753-12.334-39.289-7.153,4.456-17.802,9.999-31.602,13.611-12.665,3.315-23.743,3.893-31.784,3.7Z"/>
        <path class="cls-7" d="M594.74,730.646c.334-6.004,.667-12.008,1.001-18.012,21.61-4.244,43.219-8.488,64.829-12.732-3.286,2.242-8.35,5.36-14.999,8.139-2.125,.888-2.502,.944-10.737,3.743-16.821,5.718-17.31,6.187-20.377,6.359-7.508,.42-9.927-2.096-13.684,.034-4.164,2.361-5.543,7.915-6.033,12.469Z"/>
        <path class="cls-7" d="M652.039,763.777c2.511-.422,8.116-1.711,13.49-6.215,5.159-4.324,7.415-9.356,8.31-11.739-.083,3.791-.166,7.581-.249,11.372-2.381,1.993-7.253,5.472-14.218,6.496-2.822,.415-5.325,.329-7.333,.086Z"/>
        <path class="cls-7" d="M593.741,760.827c-.022-5.966,.204-7.332,.434-7.347,.377-.026,.04,3.231,2.184,6.442,1.437,2.152,2.928,2.694,4.168,5.474,.12,.269,1.149,2.604,.674,2.923-.423,.283-2.102-.984-7.459-7.492Z"/>
        <g>
          <path class="cls-7" d="M599.486,749.276c-.505,1.334-1.132,3.384-1.325,5.954-.198,2.629-.353,4.691,.829,6.564,.988,1.566,2.548,2.251,5.627,3.557,1.717,.728,4.169,1.621,7.264,2.273-1.34-.41-6.545-2.175-9.881-7.605-2.845-4.632-2.649-9.195-2.514-10.743Z"/>
          <path d="M598.47,732.535c1.314,5.653,1.876,11.543,1.392,17.405-.109,1.463-.284,2.932-.524,4.373-.222,1.435-.495,2.852-.444,4.129,.036,.635,.15,1.23,.375,1.798,.227,.574,.554,1.107,.952,1.551,.797,.897,2.004,1.524,3.284,2.054,5.212,2.104,10.995,3.32,16.417,5.532,1.356,.531,2.694,1.121,3.999,1.53,1.291,.428,2.667,.422,4.09,.317,2.831-.181,5.596-1.115,8.186-2.419-2.362,1.694-5.134,2.865-8.065,3.392-.739,.113-1.468,.2-2.239,.22-.767,.015-1.554-.071-2.301-.241-1.494-.35-2.834-.89-4.206-1.333-5.432-1.883-11.093-2.959-16.659-5.157-1.368-.593-2.829-1.313-3.968-2.601-1.111-1.269-1.741-2.933-1.753-4.589-.002-1.63,.352-3.069,.61-4.485,.27-1.412,.512-2.812,.699-4.232,.729-5.674,.706-11.463,.155-17.243Z"/>
        </g>
      </g>
      <path class="cls-5" d="M597.703,697.079c-.713,5.354-1.349,10.825-1.898,16.41-2.082,21.179-2.629,41.184-2.145,59.788,2.339,2.056,18.165,15.494,41.029,12.517,23.13-3.012,35.019-20.423,36.706-22.986,2.227-9.654,4.552-25.086,2.029-43.75-2.342-17.324-7.958-30.753-12.334-39.289-7.153,4.456-17.802,9.999-31.602,13.611-12.665,3.315-23.743,3.893-31.784,3.7Z"/>
      <g>
        <path class="cls-8" d="M673.4,698.341c-4.484-6.389-8.968-12.777-13.452-19.166-9.42,.69-16.539,2.771-21.236,4.501-15.5,5.713-21.665,13.906-31.825,12.437-12.592-1.821-12.661-1.84-12.661-1.84-3.248-.89-5.989-1.993-7.363-.661-1.012,.981-1.199,3.203-.554,4.757,.459,1.106,1.023,1.113,1.218,2.075,.348,1.714-1.312,2.334-1.187,4.071,.137,1.894,2.196,2.348,2.009,3.949-.128,1.096-1.124,1.144-1.506,2.539-.324,1.182-.026,2.677,.723,3.431,1.46,1.472,4.734,.224,6.986-.391,6.364-1.736,9.087,.351,15.936,.382,8.097,.036,13.776-2.838,19.028-5.014,8.29-3.434,21.667-7.675,43.884-11.071Z"/>
        <path class="cls-7" d="M673.4,698.341c-.402-3.401-1.662-4.958-2.718-5.753-5.972-4.494-17.209,6.566-41.994,14.189-6.459,1.986-11.071,3.405-17.533,3.94-7.495,.621-9.233-.63-15.361,1.001-1.715,.456-5.5,1.598-6.089,.555-.463-.82,1.53-2.139,1.137-3.983-.34-1.592-2.032-1.572-2.389-3.146-.381-1.684,1.403-2.381,1.471-4.571,.075-2.424-2.055-3.337-1.657-4.472,.859-2.449,11.658-.695,11.691-.99,.017-.148-2.711-.432-6.369-1.062-4.571-.787-5.785-1.284-6.727-.436-1.113,1.002-1.17,3.272-.554,4.757,.459,1.106,1.023,1.113,1.218,2.075,.348,1.714-1.312,2.334-1.187,4.071,.137,1.894,2.196,2.348,2.009,3.949-.128,1.096-1.124,1.144-1.506,2.539-.324,1.182-.026,2.677,.723,3.431,1.46,1.472,4.734,.224,6.986-.391,6.364-1.736,9.087,.351,15.936,.382,8.097,.036,13.776-2.838,19.028-5.014,8.29-3.434,21.667-7.675,43.884-11.071Z"/>
        <path class="cls-5" d="M673.4,698.341c-4.484-6.389-8.968-12.777-13.452-19.166-9.42,.69-16.539,2.771-21.236,4.501-15.5,5.713-21.665,13.906-31.825,12.437-12.592-1.821-12.661-1.84-12.661-1.84-3.248-.89-5.989-1.993-7.363-.661-1.012,.981-1.199,3.203-.554,4.757,.459,1.106,1.023,1.113,1.218,2.075,.348,1.714-1.312,2.334-1.187,4.071,.137,1.894,2.196,2.348,2.009,3.949-.128,1.096-1.124,1.144-1.506,2.539-.324,1.182-.026,2.677,.723,3.431,1.46,1.472,4.734,.224,6.986-.391,6.364-1.736,9.087,.351,15.936,.382,8.097,.036,13.776-2.838,19.028-5.014,8.29-3.434,21.667-7.675,43.884-11.071Z"/>
        <path d="M587.713,700.858c9.479,2.613,19.529,2.144,28.847-.907-1.098,.564-2.244,1.028-3.401,1.469-8.151,2.956-17.466,2.932-25.446-.562h0Z"/>
        <path d="M588.034,708.544c7.841,.03,15.763-.088,23.521-1.071,7.79-.997,15.118-4.202,21.557-8.673-1.494,1.289-3.101,2.444-4.758,3.529-8.387,5.574-18.645,6.947-28.501,6.79-3.948,.043-7.902-.114-11.819-.576h0Z"/>
        <path class="cls-10" d="M607.329,697.847c-.439,.674,.005,1.976,.664,2.6,1.417,1.342,4.743,.414,14.186-4.393,10.095-5.138,10.667-6.304,16.262-8.616,7.746-3.201,13.613-3.844,13.536-4.227-.073-.366-5.531-.222-11.651,1.668-5.383,1.663-5.126,2.777-16.661,8.256-9.258,4.398-11.304,4.574-12.976,4.315-.688-.107-2.769-.513-3.36,.397Z"/>
      </g>
      <g>
        <path class="cls-8" d="M657.7,764.254c5.061-1.534,8.115-3.904,10.021-5.945,3.782-4.05,5.38-9.305,7.637-8.951,.734,.115,1.385,.799,1.681,1.369,.708,1.363-.498,2.29-.116,4.154,.357,1.741,1.603,1.881,1.844,3.508,.086,.577,.091,1.649-1.014,3.357-2.642,4.085-8.432,6.858-13.021,9.557-1.905,1.12-4.749,2.902-8.071,5.446"/>
        <path class="cls-7" d="M666.782,762.165c4.942-3.716,8.336-7.649,10.483-10.489-.215,.663-.439,1.633-.401,2.807,.021,.641,.115,1.202,.228,1.663-1.961,1.618-4.892,3.882-8.676,6.245-6.723,4.198-12.642,6.526-12.717,6.374-.071-.144,5.239-2.206,11.084-6.601Z"/>
        <path d="M677.305,755.476c-5.152,7.534-13.786,12.759-22.833,13.91,8.092-3.802,15.79-8.411,22.833-13.91h0Z"/>
        <path d="M657.7,764.254c2.716-1.062,5.323-2.397,7.473-4.28,2.202-1.823,3.801-4.173,5.286-6.649,.773-1.238,1.412-2.527,2.536-3.765,.286-.307,.636-.613,1.102-.857,.236-.111,.527-.206,.811-.242,.298-.01,.612-.021,.885,.066,.552,.157,.97,.451,1.316,.774,.342,.334,.63,.686,.848,1.169,.226,.47,.309,1.076,.243,1.562-.061,.484-.181,.858-.255,1.182-.16,.637-.169,1.127-.018,1.663,.141,.517,.422,.824,.984,1.491,.269,.326,.547,.784,.694,1.259,.149,.472,.213,.949,.189,1.43-.057,.954-.388,1.768-.773,2.484-.395,.714-.846,1.357-1.355,1.96-1.01,1.209-2.206,2.194-3.43,3.065-2.479,1.705-5.045,3.091-7.588,4.506-2.534,1.423-5.07,2.841-7.526,4.376-2.472,1.51-4.824,3.228-7.166,4.971,2.049-2.089,4.292-3.971,6.611-5.779,2.359-1.752,4.806-3.363,7.286-4.91,2.456-1.577,5.009-3.005,7.272-4.697,1.122-.848,2.194-1.735,3.038-2.78,.83-1.024,1.591-2.257,1.634-3.294,.019-.247-.019-.504-.086-.727-.069-.221-.166-.404-.354-.643-.182-.238-.454-.526-.714-.903-.261-.377-.474-.83-.595-1.277-.259-.871-.192-1.885,.024-2.653,.098-.383,.194-.709,.225-.949,.023-.237,.011-.379-.067-.572-.147-.398-.634-.88-.939-.959-.145-.037-.245-.027-.428,.038-.181,.091-.404,.248-.619,.469-.437,.43-.848,1.005-1.254,1.586l-1.222,1.795c-1.614,2.437-3.534,4.861-5.998,6.581-2.458,1.704-5.219,2.876-8.071,3.51Z"/>
      </g>
      <g>
        <path class="cls-8" d="M602.181,768.204c-.643-.97-5.441-8.056-9.981-7.451-.518,.069-1.774,.236-2.254,1.114-.744,1.359,1.262,2.793,.858,5.166-.314,1.842-1.734,2.221-1.465,3.298,.295,1.183,2.168,1.35,4.694,2.416,1.458,.615,3.344,1.62,5.372,3.342"/>
        <path class="cls-7" d="M590.391,763.515c-.043,.047-.07,.124,.355,1.841,.224,.903,.335,1.354,.387,1.516,.624,1.942,5.233,2.383,9.928,4.234,1.529,.603,2.73,1.222,3.497,1.645-1.555-1.206-3.758-2.879-6.46-4.812-3.515-2.514-7.2-4.985-7.708-4.424Z"/>
        <path d="M602.181,768.204c-2.663-2.747-6.391-7.314-10.435-6.416-1.494,.484-1.009,.777-.452,2.187,.758,1.533,.759,3.886-.451,5.259-.266,.336-.528,.628-.6,.762-.043,.062-.054,.139-.009,.216,.076,.219,.799,.589,1.463,.85,2.853,1.028,5.697,2.706,7.708,5.027-2.582-1.677-5.247-2.788-8.225-3.554-1.486-.314-3.406-1.475-2.58-3.33,.273-.546,.539-.814,.716-1.093,.771-1.071,.678-2.154,.134-3.366-1.998-3.663,1.094-5.513,4.528-4.759,3.919,1.184,6.468,4.888,8.203,8.216h0Z"/>
        <path d="M590.558,767.327c6.007,.058,12.044,2.584,16.287,6.84-5.651-1.858-10.998-4.118-16.287-6.84h0Z"/>
      </g>
      <path d="M613.389,776.408c7.56,1.617,15.148,1.385,22.509-1.044-6.143,5.088-15.866,5.427-22.509,1.044h0Z"/>
    </g>
  </g>
</svg>