<?xml version="1.0" encoding="UTF-8"?>
<svg id="_Слой_31" data-name="Слой 31" xmlns="http://www.w3.org/2000/svg" viewBox="0 0 1805.452 1668">
  <defs>
    <style>
      .cls-1, .cls-2, .cls-3, .cls-4, .cls-5 {
        fill-rule: evenodd;
      }

      .cls-1, .cls-6 {
        fill: #fdc83c;
      }

      .cls-7, .cls-8, .cls-3 {
        stroke: #000;
        stroke-miterlimit: 10;
        stroke-width: 6px;
      }

      .cls-7, .cls-2 {
        fill: #fff;
      }

      .cls-8 {
        fill: #ffd3ba;
      }

      .cls-3 {
        fill: none;
      }

      .cls-4, .cls-9 {
        fill: #2b2b2b;
        opacity: .52;
      }

      .cls-10 {
        fill: #d61a19;
      }

      .cls-5 {
        fill: #0091e3;
      }

      .cls-11 {
        fill: #985b00;
      }

      .cls-12 {
        fill: #f5c1a4;
      }
    </style>
  </defs>
  <g id="_Слой_37" data-name="Слой 37">
    <g id="_Слой_36" data-name="Слой 36">
      <path class="cls-8" d="M1138.621,1065c-2.878,34.526,27.316,59.951,44,74,14.609,12.302,32.344,27.235,57,25,18.608-1.687,37.687-12.838,47-30,14.88-27.421-1.233-59.011-15-86-13.184-25.847-23.029-45.148-43-51-35.257-10.331-86.484,25.826-90,68Z"/>
      <path class="cls-12" d="M1139.141,1086.772c3.701,13.203,16.885,23.364,29.479,26.228,21.572,4.905,40.288-11.853,54.265-24.367,14.216-12.728,28.182-25.232,27.735-43.633-.41-16.871-12.828-34.221-28-39-35.839-11.289-93.348,45.574-83.479,80.772Z"/>
      <path class="cls-7" d="M1327.913,1060.176c-12.752,1.404-32.242,4.894-54,14.629-38.787,17.354-59.811,43.382-70.485,56.928-12.58,15.964-30.755,39.027-23.663,59.077,1.134,3.206,2.96,5.762,6.613,10.875,6.385,8.938,18.682,26.151,38.984,30.087,4.801,.931,13.717,1.83,25.212-2.089-.983,3.162-3.494,12.677,.383,23.767,1.437,4.111,5.336,12.967,14.907,19.073,7.958,5.076,15.77,5.657,19.194,5.708,4.581,8.192,13.001,13.238,21.563,12.77,11.305-.617,21.329-10.765,22-24,8.229,9.698,22.222,12.159,33,6,11.289-6.45,16.146-20.695,11-33,10.288,10.932,26.344,10.713,34,3,8.328-8.389,7.543-26.476-6-36,8.148,9.973,20.371,13.814,30,10,8.083-3.202,11.431-10.637,12-12,4.043-9.678,.829-21.845-8-31-7.43-5.232-18.416-13.71-29.968-25.9-13.955-14.725-20.227-25.89-29.032-38.1-9.349-12.965-24.287-30.898-47.708-49.824Z"/>
      <path d="M1214.245,1135.913c-4.416,5.547-8.521,11.276-12.155,17.266-3.764,7.027-13.035,19.543-10.685,27.085,2.03,5.502,8.456,7.437,13.071,3.573,2.283-1.735,4.021-4.356,5.073-7.221l4.064,3.666c-4.944,2.6-10.084,6.263-12.128,11.544-.451,1.432-.6,2.543,.213,3.613,2.129,2.222,5.985,2.768,8.979,2.261,6.713-1.358,10.146-8.888,9.701-15.307,0,0,3.984,.913,3.984,.913-7.321,10.542-7.62,29.622,9.727,27.436-1.632,.472-3.338,.752-5.08,.754-10.419,.219-13.913-11.809-12.029-20.323,.815-5.512,4.141-10.979,6.92-15.72,.513,4.706,1.627,10.5,.144,15.142-1.552,5.791-6.166,11.134-12.245,12.438-4.694,.942-9.692,.309-13.543-2.832-4.526-3.62-3.29-10.362-.33-14.423,4.7-7.226,12.642-10.559,19.844-14.162,0,0-2.703,7.054-2.703,7.054-1.428,3.727-3.741,7.243-7.128,9.773-9.789,7.756-24.039-.806-21.514-13.06,1.097-5.603,4.248-10.45,7.265-15,5.908-8.873,12.597-17.385,20.554-24.468h0Z"/>
      <path class="cls-9" d="M1332.621,1098c-5.932,4.967,20.405,30.757,11,54-9.34,23.085-47.37,27.43-46,33,.716,2.911,11.511,3.39,21,2,23.783-3.484,59.923-21.719,59-48-.929-26.439-38.848-46.151-45-41Z"/>
      <path d="M1388.121,1135.5c-.469,8.053-2.876,16.062-6.776,23.326-1.955,3.633-4.301,7.075-6.969,10.257l-2.068,2.33-2.215,2.194c-.756,.713-1.468,1.477-2.28,2.129l-2.41,1.984c-6.498,5.225-14.163,8.866-22.063,11.105-7.939,2.117-16.227,2.876-24.219,1.675,7.944-1.303,15.534-3.316,22.728-6.151,7.144-2.921,13.911-6.581,19.847-11.345l2.225-1.785c.755-.58,1.398-1.288,2.113-1.916l2.103-1.934,1.992-2.052c2.605-2.788,5.005-5.779,7.205-8.942,4.41-6.332,7.891-13.365,10.789-20.876Z"/>
      <path d="M1329.121,1100.5c7.682,5.887,13.817,14.265,16.693,24.021,1.38,4.875,1.955,10.102,1.283,15.284-.207,1.288-.367,2.589-.737,3.85-.167,.633-.316,1.274-.503,1.901-.21,.619-.404,1.247-.632,1.857-.919,2.443-2.091,4.756-3.427,6.955-2.718,4.369-6.157,8.25-10.193,11.438-2.024,1.582-4.187,3.007-6.501,4.169-2.313,1.191-4.756,2.017-7.03,2.759-2.285,.74-4.48,1.48-6.674,2.335-2.185,.857-4.362,1.794-6.519,2.792-4.337,1.963-8.537,4.251-12.76,6.64,3.416-3.453,7.27-6.461,11.317-9.208,2.035-1.355,4.131-2.63,6.305-3.802,2.168-1.17,4.44-2.217,6.656-3.167,2.219-.959,4.28-1.862,6.181-2.999,1.902-1.151,3.725-2.448,5.415-3.918,1.693-1.463,3.289-3.051,4.735-4.768,1.463-1.701,2.799-3.515,3.964-5.422,1.184-1.895,2.197-3.887,3.01-5.93,.208-.509,.381-1.027,.576-1.54,.171-.519,.305-1.049,.462-1.572,.35-1.039,.495-2.131,.74-3.203,.765-4.339,.577-8.874-.237-13.343-1.733-8.968-6.204-17.49-12.124-25.128Z"/>
    </g>
    <g id="_Слой_29" data-name="Слой 29">
      <path class="cls-4" d="M983.621,699c-6.63,8.633-16.172,23.686-19,44-1.204,8.644-1.724,22.071,8,55,8.064,27.306,13.262,34.463,21,56,18.795,52.312,8.35,66.372,26,103,6.111,12.682,16.719,30.412,36,49-24-102.333-48-204.667-72-307Z"/>
      <path class="cls-2" d="M1110.524,1109.287c-10.778-.801-19.255-2.811-24.875-10.661-9.068-12.664-2.276-28.757-7.953-52.081-4.139-17.006-10.911-21.444-23.153-40.896-1.421-2.258-27.922-45.161-38.747-101.179-5.106-26.424-2.56-34.216-3.991-47.654-.919-8.632-2.797-14.963-4.098-19.469-7.093-24.563-20.851-45.594-27.085-62.348-8.352-22.444-9.407-53.887,3-76,9.834-17.526,23.85-21.572,83-43,98.3-35.611,120.63-46.549,139-33,9.385,6.923,13.924,18.615,23,42,10.935,28.174,17.193,44.298,12,59-12.538,35.492-79.258,27.13-85,55-1.373,6.665,2.359,7.551,32.422,55.988,16.591,26.731,24.377,40.336,27.879,47.108,14.081,27.228,14.842,36.318,33.351,54.198,11.264,10.881,24.281,20.363,25.409,36.387,.965,13.708-7.329,24.261-14.497,33.711-47.583,62.727-34.148,61.773-54.259,78.114-35.938,29.2-71.807,26.535-95.402,24.782Z"/>
      <g id="_Слой_30" data-name="Слой 30">
        <g>
          <g>
            <path class="cls-5" d="M1038.12,820.702c-11.062,.029-21.3,3.522-29.712,9.436,3.256,8.282,5.061,17.12,5.061,25.756,0,10.808-.706,21.971-.242,32.882,2.215,10.628,4.967,21.102,5.516,32.072,6.065,2.47,12.693,3.838,19.649,3.82,28.709-.075,51.922-23.41,51.847-52.119-.075-28.709-23.41-51.922-52.119-51.847Z"/>
            <path class="cls-2" d="M1064.218,885.093c-.269-5.255-.74-6.69-1.454-13.512-.605-5.784-.635-8.284-1.459-15.591-1.138-10.091-1.718-10.983-2.867-11.429-3.095-1.202-6.927,2.181-25.499,12.543-6.487,3.619-13.002,7.215-19.659,10.664-.09,3.725-.176,7.465-.199,11.197,.018,.008,.039,.016,.057,.024,7.594,3.072,15.125,6.226,22.719,9.297,20.38,8.245,24.184,10.706,26.974,9.286,1.969-1.002,1.776-4.841,1.386-12.48Z"/>
            <path class="cls-5" d="M1055.615,849.767c.963,6.582,1.926,13.164,2.889,19.746-14.182,.73-28.365,1.461-42.547,2.191,13.22-7.312,26.439-14.625,39.658-21.937Z"/>
            <path class="cls-5" d="M1059.984,893.422c-.361-6.647-.721-13.295-1.082-19.942-13.366,.792-26.732,1.584-40.098,2.375,13.727,5.855,27.454,11.711,41.18,17.566Z"/>
          </g>
          <g>
            <path class="cls-10" d="M1155.637,781.211c-.422-9.417,7.142-17.614,16.02-19.562-.27-14.716-6.931-29.189-19.446-38.94-22-17.142-53.732-13.203-70.874,8.797-17.142,22.001-13.203,53.732,8.797,70.874,21.822,17.003,53.209,13.256,70.445-8.275-2.923-3.513-4.725-8.03-4.943-12.893Z"/>
            <path d="M1109.165,776.706l-10.213-25.889-1.859,41.358,39.67-11.897-27.609-3.581,.012,.009Zm36.211-45.895l-43.338,16.642,10.19,25.902,27.606,3.566,5.542-46.109Z"/>
          </g>
          <g>
            <path class="cls-10" d="M1142.224,971.366c-21.071-18.273-52.965-16.005-71.238,5.066-8.841,10.194-12.859,22.921-12.28,35.414,.216,.195,.438,.38,.653,.577,10.688,9.811,16.701,23.305,19.291,37.339,21.021,15.956,51.102,13.066,68.64-7.158,18.273-21.071,16.005-52.965-5.066-71.238Z"/>
            <path d="M1122.651,1022.252l-26.389,8.84,41.203,4.027-9.799-40.239-5.025,27.383,.01-.011Zm-43.931-38.57l14.345,44.152,26.401-8.817,5.01-27.381-45.755-7.955Z"/>
          </g>
          <g>
            <path class="cls-5" d="M1272.518,976.64c-.094-2.505-.025-4.966,.198-7.385,.184-1.585,.328-4.729-1.095-8.255-1.953-4.84-5.611-7.311-6.937-8.119-1.864-1.519-3.669-3.14-5.41-4.869-3.124-4.043-6.248-8.087-9.372-12.13-24.149-.222-45.949,16.5-51.239,41.032-6.008,27.861,11.541,55.31,39.255,61.627,.297-.499,.575-1.003,.89-1.498,4.844-10.161,12.575-19.137,20.398-27.146,1.279-1.309,2.582-2.589,3.881-3.871,1.388-3.704,2.805-7.4,4.349-11.058,1.88-4.455,3.32-8.197,5.587-11.947-.239-2.129-.411-4.26-.506-6.382Z"/>
            <path class="cls-2" d="M1265.366,1000.081c.671-1.71,1.355-3.416,2.071-5.113,1.589-3.764,2.864-7.017,4.585-10.198-5.628-3.873-11.226-7.771-16.872-11.629-18.152-12.403-21.343-15.62-24.372-14.828-2.138,.559-2.768,4.35-4.016,11.897-.859,5.192-.704,6.694-1.463,13.511-.643,5.78-1.147,8.229-1.901,15.544-1.041,10.101-.665,11.096,.362,11.777,2.767,1.835,7.233-.653,27.588-6.814,4.655-1.409,9.321-2.802,14.017-4.147Z"/>
            <path class="cls-5" d="M1268.211,993.118c-13.064-2.156-26.127-4.312-39.19-6.468-.464,6.636-.927,13.272-1.391,19.908,13.317-3.977,26.634-7.955,39.95-11.932,.214-.51,.426-1.015,.631-1.508Z"/>
            <path class="cls-5" d="M1232.675,962.976c-1.066,6.571-2.132,13.142-3.198,19.714,13.227,2.078,26.455,4.157,39.682,6.235-12.161-8.649-24.323-17.299-36.484-25.948Z"/>
          </g>
          <g>
            <ellipse class="cls-11" cx="1170.455" cy="883.493" rx="37.364" ry="35.289" transform="translate(86.716 1871.437) rotate(-79.399)"/>
            <path class="cls-6" d="M1171.804,876.739l-.244-.126,4.851-10.596c.282,.132,.644,.288,1.063,.468,3.551,1.524,11.192,4.805,8.652,10.389-2.704,5.869-11.392,1.379-14.322-.135Z"/>
            <path class="cls-6" d="M1163.631,893.892l.425,.218c3.612,1.854,13.863,7.113,16.479,1.276,2.619-5.603-6.711-9.722-10.887-11.566-.458-.202-.854-.377-1.165-.523l-4.852,10.596Z"/>
            <path class="cls-1" d="M1217.871,880.591c-3.827-5.669-6.599-12.122-9.152-18.594-3.058-3.755-6.023-7.581-8.687-11.614-.601-.91-1.047-1.827-1.55-2.781-1.138-2.162-2.555-5.259-3.897-8.436-3.497-1.6-7.239-2.809-11.188-3.548-26.096-4.884-51.211,12.312-56.095,38.408-4.884,26.096,12.312,51.211,38.408,56.095,26.097,4.884,51.211-12.311,56.095-38.408,.303-1.618,.52-3.233,.656-4.839-1.594-2.025-3.128-4.118-4.59-6.283Zm-21.623-1.181c-1.75,4.821-4.812,6.765-8.496,6.963,4.197,3.501,5.709,7.907,1.988,14.441-4.642,8.2-11.511,7.737-20.094,4.373l-4.022,8.818-4.932-2.249,4.021-8.819c-.534-.255-1.102-.504-1.684-.76-.777-.341-1.581-.694-2.367-1.088l-4.022,8.819-4.923-2.246,4.022-8.819-9.759-4.725,3.779-6.06s3.682,1.794,3.634,1.715c1.374,.62,2.266-.254,2.686-.904l6.444-14.138,4.642-10.037c.329-1.117,.251-2.674-1.747-3.635,.159-.057-3.611-1.647-3.611-1.647l2.691-5.91,10.107,4.61,3.939-8.638,5.092,2.323-3.939,8.638c.996,.42,1.961,.872,2.937,1.33,.32,.15,.641,.301,.966,.451l3.939-8.638,4.954,2.26-4.043,8.865c6.103,3.63,10.157,8.076,7.796,14.707Z"/>
          </g>
          <g>
            <path class="cls-11" d="M1174.006,619.225c-1.506,.647-3.037,1.251-4.62,1.766-7.927,4.165-16.44,6.183-25.522,6.112-.958,.213-1.913,.441-2.864,.682-1.806,1.246-3.587,2.533-5.53,3.665-5.018,2.925-10.313,4.925-15.674,6.747-1.421,.82-2.875,1.586-4.354,2.306-.995,9.455,1.673,19.497,8.227,27.774,12.811,16.178,35.582,19.484,50.861,7.385,15.279-12.099,17.28-35.022,4.469-51.2-1.531-1.933-3.207-3.677-4.992-5.238Z"/>
            <path class="cls-6" d="M1147.123,640.92l-.256,.102-4.81-10.615c.285-.126,.64-.297,1.051-.495,3.481-1.678,10.972-5.289,13.517,.292,2.653,5.892-6.437,9.5-9.503,10.717Z"/>
            <path class="cls-6" d="M1154.7,658.344l.443-.178c3.77-1.509,14.466-5.79,11.779-11.595-2.508-5.653-11.739-1.318-15.872,.622-.453,.213-.845,.397-1.159,.536l4.809,10.615Z"/>
            <path class="cls-1" d="M1188.529,609.907c-5.596,5.039-11.968,8.75-19.143,11.084-1.589,.835-3.207,1.559-4.843,2.222,.221,.319,.436,.656,.64,1.018,2.489,4.485,1.945,8.07-.323,10.98,5.397-.868,9.713,.883,12.2,7.979,3.14,8.884-1.718,13.763-9.89,18.03l4.013,8.822-4.934,2.244-4.014-8.823c-.543,.236-1.104,.501-1.678,.772-.768,.363-1.561,.737-2.375,1.072l4.014,8.823-4.926,2.24-4.013-8.823-9.971,4.261-2.091-6.829s3.77-1.6,3.679-1.616c1.369-.63,1.296-1.876,1.081-2.62l-6.437-14.141-4.525-10.09c-.627-.981-1.853-1.944-3.889-1.068,.061-.157-3.613,1.643-3.613,1.643l-.67-1.471c-2.318,.935-4.665,1.778-7.026,2.581-4.473,2.582-9.235,4.669-14.287,6.258,.32,9.938,3.711,19.864,10.357,28.257,16.482,20.814,46.716,24.326,67.53,7.844,20.814-16.482,24.326-46.716,7.844-67.53-.864-1.091-1.774-2.124-2.71-3.119Z"/>
          </g>
          <g>
            <path class="cls-11" d="M1007.484,698.428c-7.558-2.438-15.281-2.462-22.267-.523-.5,3.17-1.201,6.346-2.234,9.539-2.81,8.682-4.666,13.104-7.554,17.645,.649,5.87,.881,11.682,.367,17.466,.044,.201,.098,.399,.122,.607,.843,6.276,1.687,12.552,2.53,18.828,.001,.1-.003,.195-.003,.294,.005,.027,.008,.054,.013,.08,2.29,1.297,4.747,2.392,7.361,3.235,19.64,6.334,40.41-3.567,46.393-22.115,5.982-18.548-5.089-38.72-24.728-45.054Z"/>
            <path class="cls-6" d="M990.124,729.82l-.156,.226-9.897-6.154c.167-.263,.367-.602,.598-.996,1.962-3.329,6.184-10.493,11.402-7.267,5.479,3.425-.074,11.475-1.947,14.19Z"/>
            <path class="cls-6" d="M1006.103,740.099l.27-.394c2.296-3.349,8.811-12.851,3.352-16.185-5.226-3.307-10.493,5.426-12.852,9.335-.258,.429-.482,.799-.666,1.089l9.896,6.155Z"/>
            <path class="cls-1" d="M1011.309,682.118c-2.549-.822-5.117-1.409-7.682-1.794-2.12,2.957-4.551,5.733-7.324,8.308-3.428,3.428-7.118,6.375-11.02,8.885-.503,3.299-1.225,6.604-2.3,9.926-.218,.674-.429,1.315-.637,1.94,3.862-4.092,8.204-6.167,13.521-3.473,4.561,2.346,6.101,5.63,5.831,9.309,4.005-3.72,8.567-4.661,14.577-.143,7.546,5.643,6.217,12.398,1.794,20.486l8.238,5.106-2.856,4.607-8.239-5.106c-.32,.498-.64,1.03-.967,1.574-.437,.728-.889,1.48-1.379,2.21l8.239,5.106-2.851,4.599-8.238-5.106-5.923,9.082-5.533-4.516s2.246-3.425,2.162-3.388c.789-1.285,.035-2.28-.557-2.779l-13.208-8.182-9.368-5.876c-.46-.202-1.012-.326-1.586-.268,.131,3.322,.087,6.63-.206,9.928,.044,.201,.098,.399,.122,.607,.843,6.276,1.687,12.552,2.53,18.828,.001,.1-.003,.195-.003,.294,.653,3.571,1.084,7.138,1.33,10.629,.666,.248,1.337,.488,2.02,.708,25.268,8.15,52.358-5.727,60.507-30.995,8.15-25.268-5.727-52.358-30.995-60.508Z"/>
          </g>
        </g>
        <g>
          <path class="cls-4" d="M1078.621,1047c5.036,2.657,14.942,6.995,28,7,18.484,.007,31.494-8.673,36-12-1.298,4.619-3.969,11.493-10,17-10.983,10.03-22.985,6.282-34,15-4.682,3.706-10.46,10.673-13,25,.002-8.222-.512-17.656-2-28-1.283-8.916-3.066-16.953-5-24Z"/>
          <path class="cls-4" d="M1214.621,981c-.483-2.895,15.021-2.632,25-15,10.136-12.562,5.963-27.487,11-29,3.531-1.061,10.432,4.816,25,33,.326,4.144,.379,12.364-4,21-3.161,6.234-9.366,14.135-12,13-4.822-2.077,6.12-32.806,1-35-2.351-1.007-5.161,5.253-13,10-14.008,8.483-32.48,5.115-33,2Z"/>
          <path class="cls-4" d="M1098.621,767c11.145,12.793,27.467,14.369,34,15,11.719,1.131,22.91-1.027,23-3,.097-2.131-14.225-.938-28-11-4.417-3.226-10.921-7.977-13-16-1.005-3.876-.253-5.725-2-8-4.337-5.647-17.798-5.82-22,0-4.148,5.745,3.105,17.382,8,23Z"/>
        </g>
      </g>
      <g>
        <path d="M1096.121,760.5c7.322,8.472,16.139,15.026,26.738,18.088,10.609,3.036,21.547,2.181,32.262-1.088-4.375,3.906-9.983,6.387-15.865,7.613-17.708,3.86-37.915-7.038-43.135-24.613h0Z"/>
        <path d="M1111.263,738.23c3.494,10.638,9.107,20.083,17.708,26.991,8.622,6.888,19.044,10.311,30.192,11.422-5.542,1.919-11.673,2.049-17.573,.915-17.828-3.258-32.279-21.099-30.327-39.328h0Z"/>
        <path d="M1210.333,981.896c10.638-3.494,20.083-9.107,26.991-17.708,6.889-8.622,10.311-19.044,11.422-30.192,1.919,5.542,2.049,11.673,.915,17.573-3.258,17.828-21.099,32.279-39.328,30.327h0Z"/>
        <path d="M1073.004,1038.437c9.914,7.068,20.815,11.711,32.796,12.67,14.398,1.062,28.242-3.698,40.201-11.951-1.923,2.879-4.393,5.369-7.063,7.629-19.533,16.577-51.365,12.984-65.933-8.348h0Z"/>
      </g>
      <path class="cls-3" d="M1111.59,1109.778c-10.778-.801-19.255-2.811-24.875-10.661-9.068-12.664-2.276-28.757-7.953-52.081-4.139-17.006-10.911-21.444-23.153-40.896-1.421-2.258-27.922-45.161-38.747-101.179-5.106-26.424-2.56-34.216-3.991-47.654-.919-8.632-2.797-14.963-4.098-19.469-7.093-24.563-20.851-45.594-27.085-62.348-8.352-22.444-9.407-53.887,3-76,9.834-17.526,23.85-21.572,83-43,98.3-35.611,120.63-46.549,139-33,9.385,6.923,13.924,18.615,23,42,10.935,28.174,17.193,44.298,12,59-12.538,35.492-79.258,27.13-85,55-1.373,6.665,2.359,7.551,32.422,55.988,16.591,26.731,24.377,40.336,27.879,47.108,14.081,27.228,14.842,36.318,33.351,54.198,11.264,10.881,24.281,20.363,25.409,36.387,.965,13.708-7.329,24.261-14.497,33.711-47.583,62.727-34.148,61.773-54.259,78.114-35.938,29.2-71.807,26.535-95.402,24.782Z"/>
    </g>
  </g>
</svg>