<?xml version="1.0" encoding="UTF-8"?>
<svg id="_Слой_31" data-name="Слой 31" xmlns="http://www.w3.org/2000/svg" viewBox="0 0 1805.452 1668">
  <defs>
    <style>
      .cls-1, .cls-2, .cls-3, .cls-4, .cls-5, .cls-6, .cls-7, .cls-8, .cls-9, .cls-10, .cls-11, .cls-12, .cls-13, .cls-14, .cls-15, .cls-16, .cls-17 {
        fill-rule: evenodd;
      }

      .cls-1, .cls-18 {
        fill: #fdc83c;
      }

      .cls-2 {
        fill: #ffe600;
      }

      .cls-2, .cls-3, .cls-4, .cls-7, .cls-10, .cls-14, .cls-15, .cls-16 {
        stroke-miterlimit: 10;
        stroke-width: 6px;
      }

      .cls-2, .cls-3, .cls-4, .cls-7, .cls-10, .cls-15, .cls-16 {
        stroke: #000;
      }

      .cls-3 {
        fill: #c90e0e;
      }

      .cls-4 {
        fill: #210e03;
      }

      .cls-5, .cls-14, .cls-16 {
        fill: #fff;
      }

      .cls-6 {
        fill: #4f7bff;
      }

      .cls-7 {
        fill: #541e03;
      }

      .cls-8 {
        fill: #f2d0d0;
      }

      .cls-9 {
        fill: #fff173;
      }

      .cls-10 {
        fill: none;
      }

      .cls-11 {
        fill: #f21111;
      }

      .cls-12 {
        fill: #733b1e;
      }

      .cls-13 {
        fill: #2b2b2b;
        opacity: .52;
      }

      .cls-14 {
        stroke: #c00;
      }

      .cls-15 {
        fill: #0f4bff;
      }

      .cls-19 {
        fill: #d61a19;
      }

      .cls-17, .cls-20 {
        fill: #0091e3;
      }

      .cls-21 {
        fill: #985b00;
      }
    </style>
  </defs>
  <g id="_Слой_20" data-name="Слой 20">
    <g id="_Слой_16" data-name="Слой 16">
      <g id="_Слой_19" data-name="Слой 19">
        <path class="cls-4" d="M840.621,1565c-9.744-8.447-11.335-27.603-3-40,10.968-16.314,36.431-16.922,52-7,18.258,11.635,24.521,38.78,16,48-1.729,1.871-4.178,3.123-29,3-30.495-.151-33.78-2.075-36-4Z"/>
        <path class="cls-7" d="M1256.621,1543c.228-4.842,.051-11.871-2-20-2.57-10.188-6.89-17.374-8-19-12.911-18.911-79.366-.111-97,5-91.086,26.401-91.187,36.494-134,42-16.952,2.18-58.89,7.161-106-7-32.019-9.625-61.44-26.593-69-31-10.429-6.08-18.9-11.728-25-16"/>
        <path class="cls-4" d="M963.621,1597c35.573-3.426,63.484-9.896,82-15,7.18-1.979,25.983-7.348,122-39,0,0,25.062-8.262,63-7,16.885,.562,24.989,2.879,27,8,2.836,7.221-7.446,17.46-11,21-21.96,21.87-53.582,27.337-82,31-38.207,4.924-70.534,8.909-125,7-31.717-1.111-57.909-3.764-76-6Z"/>
        <path class="cls-7" d="M827.621,1480c-2.286-1.955-6.805-5.245-11-4-2.926,.868-3.822,3.386-8,12-6.622,13.655-8.511,15.871-11,24-1.608,5.253-2.404,7.941-2,11,.666,5.04,3.502,8.365,10,15,12.551,12.816,21,20,21,20,3.846,3.27,9.278,7.78,16,13-1.415-4.128-3.235-11.309-2-20,.783-5.51,1.981-13.942,7-16,6.992-2.866,17.544,8.218,24,15,14.067,14.776,12.222,20.353,21,29,13.086,12.891,31.159,14.264,54,16,15.576,1.184,29.07,.225,45-2,8.857-1.237,40.912-5.999,102-26,12.986-4.252,31.991-10.733,62-20,16.228-5.011,27.189-8.217,42-10,17.752-2.137,32.703-1.227,43,0"/>
        <path d="M1144.621,1550c18.321,2.917,36.385,5.846,54.784,7.573,18.386,1.871,36.68,2.5,55.216,3.304-35.961,7.416-76.206,3.527-110-10.877h0Z"/>
        <path d="M1107.786,1567.609c18.321,2.917,36.385,5.846,54.784,7.573,18.386,1.871,36.68,2.5,55.216,3.304-35.961,7.416-76.206,3.527-110-10.877h0Z"/>
        <path d="M1055.786,1582.56c18.321,2.917,36.385,5.846,54.784,7.573,18.386,1.871,36.68,2.5,55.216,3.304-35.961,7.416-76.206,3.527-110-10.877h0Z"/>
        <path class="cls-12" d="M946.621,1567c-25.155-4.679-48.414-15.681-66-24-15.185-7.183-24.62-12.945-32-18-12.573-8.613-22.2-17.246-29-24,106.516-31.043,242.595-49.217,386-9,13.041,3.657,25.707,7.675,38,12-14.465,2.526-37.324,6.906-65,14-67.557,17.317-90.435,31.995-153,44-49.362,9.472-69.066,6.848-79,5Z"/>
      </g>
      <g id="_Слой_18" data-name="Слой 18">
        <path class="cls-5" d="M969.621,1430c-29.805,8.545-59.611,17.09-89.416,25.635l-34.238-125.41,80.07-21.86c14.528,40.545,29.056,81.09,43.584,121.635Z"/>
        <path class="cls-14" d="M930.241,1330.271c-11.782,2.253-24.376,5.105-37.62,8.729-13.042,3.568-25.158,7.459-36.299,11.452-.492-1.804-.985-3.608-1.477-5.411,11.628-3.813,23.894-7.525,36.777-11.04,12.831-3.502,25.234-6.525,37.143-9.14,.492,1.804,.985,3.608,1.477,5.411Z"/>
        <path class="cls-14" d="M936.983,1353.218c-11.607,2.46-23.754,5.359-36.363,8.782-13.258,3.6-25.787,7.443-37.557,11.398-.505-1.85-1.01-3.7-1.515-5.55,11.421-3.745,23.451-7.391,36.072-10.848,13.079-3.583,25.718-6.669,37.847-9.333,.505,1.85,1.01,3.7,1.515,5.55Z"/>
        <path class="cls-14" d="M947.103,1375.767c-13.081,3.017-26.592,6.411-40.482,10.233-12.517,3.444-24.588,7.029-36.201,10.702-.516-1.89-1.032-3.78-1.548-5.669,11.672-3.805,23.928-7.509,36.749-11.033,13.786-3.789,27.121-7.065,39.935-9.902,.516,1.89,1.032,3.78,1.548,5.669Z"/>
        <path class="cls-10" d="M969.804,1429.828c-29.805,8.545-59.611,17.09-89.416,25.635l-34.238-125.41,80.07-21.86c14.528,40.545,29.056,81.09,43.584,121.635Z"/>
      </g>
      <g>
        <path class="cls-2" d="M963.621,1413v-26c2.916-.016,7.187,.313,12,2,3.352,1.175,6.026,2.68,8,4-.313,2.341-.48,5.433,0,9,.718,5.337,2.575,9.438,4,12"/>
        <path class="cls-2" d="M959.621,1413c-3.128-5.877-6.457-11.885-10-18-2.997-5.173-6.002-10.173-9-15-15.543,1.813-26.661,6.237-34,10-4.332,2.222-6.721,3.892-32,20-4.675,2.979-8.509,5.417-11,7,.522,6.992-.214,12.356-1,16-.635,2.941-1.436,5.38-2,10-.532,4.356-.84,7.084,0,10,1.372,4.762,5.11,7.603,7,9,7.371,5.45,47.085,28.557,102,59,25.333-29.667,50.667-59.333,76-89-15.391-5.341-27.56-10.338-36-14-12.026-5.218-19.214-8.912-30-9-8.452-.069-15.397,2.107-20,4Z"/>
        <path class="cls-9" d="M878.621,1423c1.436-2.114,4.875-6.68,25-17,17.382-8.913,27.514-13.98,32-10,2.886,2.561,2.062,7.648,2,8-1.209,6.89-9.057,8.412-16,15-5.913,5.611-11.09,14.82-11,23,.205,18.56,27.584,36.84,47,33,9.541-1.887,15.233-8.735,17-7,2.231,2.191-3.343,16.55-14,21-9.708,4.054-16.89-2.932-48-18-27.999-13.561-37.382-15.266-40-25-2.73-10.152,4.225-20.388,6-23Z"/>
      </g>
      <g>
        <path class="cls-15" d="M821.621,1499c2.843-8.137,6.959-17.769,13-28,7.94-13.446,16.69-23.666,24-31,.014,2.691,.344,6.653,2,11,4.195,11.012,13.879,16.569,24,22,23.268,12.484,42.662,20.975,45,22,8.691,3.809,21.473,9.54,37,17-5.66,6.002-11.327,12.002-17,18-5.996,6.339-11.996,12.673-18,19-17.533-2.971-41.272-9.005-67-22-17.807-8.995-32.084-19.06-43-28Z"/>
        <path class="cls-6" d="M854.621,1464c-8.095,.233-18.08,15.424-15,26,3.453,11.854,20.061,6.722,54,24,16.715,8.51,27.201,17.144,39,13,.625-.22,8.59-3.113,9-8,.392-4.672-6.334-8.626-16-14-46.933-26.09-51.087-23.318-61-34-3.165-3.41-5.919-7.118-10-7Z"/>
      </g>
      <g id="_Слой_17" data-name="Слой 17">
        <path class="cls-16" d="M967.621,1461c10.76-5.711,14.505-9.408,26-17,8.216-5.426,12.482-8.243,19-12,8.762-5.05,12.278-6.427,12-8-.515-2.918-13.64-3.924-25-2-12.909,2.187-21.692,7.844-28,12-7.576,4.991-14.848,9.925-18,19-.469,1.351-3.172,9.489,0,12,1.604,1.269,4.58,1,14-4Z"/>
        <path class="cls-16" d="M974.621,1415c11.129-4.696,18.186-7.555,26-5,2.951,.965,8.103,3.321,8,6-.126,3.301-8.108,4.055-20,9-4.28,1.78-16.229,6.749-27,16-10.857,9.326-13.696,17.144-18,16-3.531-.939-5.435-7.213-5-12,.585-6.435,5.377-10.52,12-16,2.436-2.016,10.122-8.144,24-14Z"/>
        <path class="cls-16" d="M946.621,1415c-7.877,4.979-15.141,9.569-17,18-.891,4.039-.919,10.679,2,12,4.433,2.006,10.482-10.592,25-21,18.835-13.502,37.373-12.886,37-16-.315-2.626-13.612-3.995-25-2-10.52,1.843-17.643,6.247-22,9Z"/>
      </g>
      <g>
        <path class="cls-3" d="M1241.621,1501c-1.396-19.545-6.096-34.899-10-45-4.519-11.692-12.543-31.798-32-50-15.587-14.582-30.83-20.755-34-22-16.526-6.492-30.595-6.984-36-7-8.917-.026-23.478,1.156-39,8-12.425,5.478-14.212,9.621-42,34-26.503,23.251-29.255,23.323-42,37-13.184,14.149-23.483,28.286-24,29-8.108,11.195-11.07,16.987-22,31-7.211,9.244-11.788,14.244-17,19-6.523,5.952-12.584,10.194-17,13,5.786,1.618,14.007,3.611,24,5,24.341,3.384,44.783,1.182,63-2,22.774-3.978,31.206-7.591,73-20,66.973-19.885,89.167-23.625,98-25,23.909-3.722,43.816-4.734,57-5Z"/>
        <path class="cls-11" d="M1039.621,1436c-8.502,7.177-68.918,58.173-58,78,5.523,10.03,26.991,7.892,46,6,52.972-5.274,62.409-26.059,113-37,46.837-10.129,77.829-.765,83-15,2.91-8.01-4.587-17.351-15-30-16.022-19.462-38.453-46.708-72-51-33.823-4.327-59.315,17.191-97,49Z"/>
        <path class="cls-8" d="M1121.738,1392.973c-1.875,.163-15.691,1.548-17.145,8.981-1.006,5.142,4.299,11.155,9.797,13.063,11.887,4.126,27.664-9.896,26.126-16.329-1.135-4.748-11.928-6.309-18.778-5.715Z"/>
        <path class="cls-8" d="M1143.191,1409.392c-.44,.061-3.681,.585-4.023,3.392-.236,1.942,1.009,4.213,2.299,4.934,2.789,1.558,6.49-3.738,6.13-6.167-.266-1.793-2.798-2.383-4.406-2.159Z"/>
      </g>
    </g>
  </g>
  <g id="_Слой_26" data-name="Слой 26">
    <g id="_Слой_28" data-name="Слой 28">
      <g>
        <path class="cls-16" d="M855.78,1301.123c-6.78-2.59-16.865,23.757-18.261,49.625-1.168,21.648,3.426,48.968,9.912,50.89,6.405,1.898,13.74-21.237,16.08-40.11,3.136-25.3-.867-57.784-7.731-60.406Z"/>
        <path class="cls-16" d="M892.46,1277.61c-6.928,2.163,1.462,29.098,16.381,50.277,12.485,17.724,33.005,36.335,39.289,33.83,6.205-2.474-2.357-25.184-12.203-41.454-13.2-21.811-36.453-44.843-43.467-42.653Z"/>
        <path class="cls-16" d="M865.748,1285.254c-7.162-1.176-11.752,26.659-7.925,52.281,3.202,21.442,13.188,47.283,19.928,47.864,6.655,.574,9.197-23.563,7.699-42.521-2.007-25.415-12.451-56.433-19.701-57.624Z"/>
        <path class="cls-16" d="M876.796,1281.66c-7.212,.812-4.072,28.848,6.567,52.469,8.904,19.767,25.53,41.926,32.174,40.656,6.561-1.255,2.454-25.175-4.135-43.014-8.832-23.915-27.305-50.933-34.607-50.11Z"/>
      </g>
    </g>
    <path class="cls-5" d="M943.621,1076c7.402,7.035,13.069,17.89,22,35,8.541,16.363,13.934,26.694,17,41,6.479,30.231-5.947,38.485,3,60,8.033,19.316,20.312,18.105,22,33,1.553,13.706-7.964,25.47-27,49-12.436,15.372-18.654,23.057-27,28-21.626,12.806-36.035,2.775-64,7-47.247,7.138-59.554,43.841-79,36-19.996-8.063-23.37-53.479-21-79,2.485-26.768,11.818-37.351,8-64-2.706-18.888-8.538-21.552-12-38-5.746-27.299,1.971-59.622,19-82,34.848-45.794,110.838-52.762,139-26Z"/>
    <g id="_Слой_27" data-name="Слой 27">
      <g>
        <circle class="cls-19" cx="949.232" cy="1252.673" r="50.5"/>
        <path d="M958.522,1268.748l-27.816,.896,38.315,15.682,2.16-41.359-12.672,24.79,.012-.008Zm-31.015-49.554l1.071,46.411,27.821-.87,12.656-24.791-41.548-20.75Z"/>
      </g>
      <g>
        <ellipse class="cls-21" cx="875.568" cy="1133.231" rx="35.992" ry="38.11" transform="translate(-533.732 878.859) rotate(-42.078)"/>
        <path class="cls-18" d="M870.924,1127.961l-.253,.12-5.595-10.487c.281-.147,.631-.345,1.037-.573,3.432-1.937,10.819-6.106,13.777-.593,3.088,5.822-5.926,10.093-8.966,11.534Z"/>
        <path class="cls-18" d="M879.783,1145.197l.439-.21c3.737-1.784,14.342-6.846,11.225-12.578-2.925-5.589-12.035-.568-16.114,1.678-.447,.246-.833,.46-1.145,.622l5.594,10.488Z"/>
        <path class="cls-1" d="M910.454,1165.914c20.099-18.147,21.682-49.151,3.535-69.25-18.147-20.099-49.151-21.682-69.25-3.535-20.099,18.147-21.682,49.151-3.535,69.25,18.147,20.099,49.151,21.682,69.25,3.535Zm-22.248-56.13c-3.919-6.016-10.031-5.477-16.75-2.771l-4.69-8.761-4.896,2.621,4.571,8.537c-.323,.17-.643,.338-.963,.505-.975,.509-1.938,1.012-2.895,1.56l-4.571-8.537-5.033,2.694,4.571,8.537-9.99,5.347,3.13,5.837s3.621-2.075,3.569-1.91c2.014-1.026,3.325-.127,4.028,.831l5.271,9.972,7.483,13.969c.268,.743,.425,2.007-.928,2.738,.093,.01-3.639,1.887-3.639,1.887l2.578,6.813,9.868-4.994,4.666,8.716,4.866-2.604-4.666-8.715c.806-.394,1.589-.828,2.346-1.247,.567-.314,1.12-.62,1.657-.896l4.666,8.715,4.874-2.609-4.666-8.715c8.036-4.882,12.659-10.167,8.878-19.003-2.999-7.059-7.507-8.557-12.943-7.318,2.117-3.111,2.434-6.796-.394-11.197Z"/>
      </g>
      <g>
        <circle class="cls-20" cx="837.16" cy="1237.561" r="51.5" transform="translate(-629.889 954.435) rotate(-45)"/>
        <path class="cls-5" d="M827.557,1204.64c1.05-.623,2.1-.531,10.665,4.747,6.203,3.822,8.171,5.326,13.051,8.387,5.757,3.611,7.163,4.12,11.426,7.121,6.196,4.363,9.308,6.557,8.886,8.705-.598,3.044-4.841,4.506-23.722,15.364-7.035,4.046-14.096,7.993-21.131,12.038-2.723,1.566-6.458,3.72-8.381,2.377-1.847-1.289-1.082-5.147-.608-7.599,1.524-7.884,2.786-15.742,4.018-23.591,3.265-20.814,2.968-25.87,5.797-27.549Z"/>
        <path class="cls-17" d="M829.892,1210.022c5.722,3.27,11.443,6.541,17.165,9.811-8.095,11.507-16.19,23.014-24.286,34.521,2.374-14.777,4.747-29.555,7.121-44.332Z"/>
        <path class="cls-17" d="M866.607,1233.285c-5.404-3.78-10.809-7.56-16.214-11.34-7.549,10.908-15.097,21.816-22.646,32.724,12.953-7.128,25.906-14.256,38.859-21.384Z"/>
      </g>
    </g>
    <path class="cls-13" d="M871.621,1123c-5.685,4.83-9.496,10.81-19,49-7.814,31.398-11.721,47.096-14,65-6.007,47.183,.867,64.463-14,83-8.858,11.044-20.094,16.852-28,20-4.488-28.88-8.389-70.433-4-120,5.569-62.9,11.169-115.078,49-138,39.223-23.765,91.4-2.54,108,5-5.34,4.065-14.174,10.252-26,16-27.174,13.208-39.02,8.974-52,20Z"/>
    <path class="cls-10" d="M944.692,1078.017c7.402,7.035,13.069,17.89,22,35,8.541,16.363,13.934,26.694,17,41,6.479,30.231-5.947,38.485,3,60,8.033,19.316,20.312,18.105,22,33,1.553,13.706-7.964,25.47-27,49-12.436,15.372-18.654,23.057-27,28-21.626,12.806-36.035,2.775-64,7-47.247,7.138-59.554,43.841-79,36-19.996-8.063-23.37-53.479-21-79,2.485-26.768,11.818-37.351,8-64-2.706-18.888-8.538-21.552-12-38-5.746-27.299,1.971-59.622,19-82,34.848-45.794,110.838-52.762,139-26Z"/>
    <path d="M997.121,1229.5c-1.658,7.788-4.855,15.261-9.046,22.138-4.22,6.867-9.51,13.119-15.582,18.481-6.071,5.367-12.954,9.805-20.282,13.152-7.349,3.29-15.151,5.56-23.09,6.229,7.323-3.096,14.305-6.473,20.909-10.413,6.588-3.956,12.782-8.432,18.496-13.467,5.71-5.038,10.952-10.604,15.683-16.658,4.744-6.053,8.937-12.578,12.912-19.462Z"/>
    <path d="M984.121,1178.5c2.843,22.009-15.865,40.436-37.838,37.902-6.793-.79-13.255-3.557-18.162-7.902,6.173,2.173,12.323,3.34,18.386,3.19,20.008-.538,33.19-14.218,37.614-33.19h0Z"/>
    <path class="cls-13" d="M932.621,1289c8.761-6.738,24.973-21.096,36-45,9.073-19.667,10.792-37.466,11-48,.541,5.612,2.321,15.38,9,25,2.628,3.786,5.455,6.742,8,9-3.537,8.777-11.682,25.522-29,40-13.264,11.088-26.583,16.396-35,19Z"/>
  </g>
</svg>