<?xml version="1.0" encoding="UTF-8"?>
<svg id="_Слой_31" data-name="Слой 31" xmlns="http://www.w3.org/2000/svg" viewBox="0 0 1805.452 1668">
  <defs>
    <style>
      .cls-1, .cls-2, .cls-3, .cls-4, .cls-5, .cls-6, .cls-7, .cls-8, .cls-9, .cls-10, .cls-11, .cls-12, .cls-13, .cls-14, .cls-15, .cls-16 {
        fill-rule: evenodd;
      }

      .cls-1, .cls-17 {
        fill: #fdc83c;
      }

      .cls-2 {
        fill: #ffe600;
      }

      .cls-2, .cls-3, .cls-4, .cls-7, .cls-10, .cls-13, .cls-14, .cls-15 {
        stroke-miterlimit: 10;
        stroke-width: 6px;
      }

      .cls-2, .cls-3, .cls-4, .cls-7, .cls-10, .cls-14, .cls-15 {
        stroke: #000;
      }

      .cls-3 {
        fill: #c90e0e;
      }

      .cls-4 {
        fill: #210e03;
      }

      .cls-5, .cls-13, .cls-15 {
        fill: #fff;
      }

      .cls-6 {
        fill: #4f7bff;
      }

      .cls-7 {
        fill: #541e03;
      }

      .cls-8 {
        fill: #f2d0d0;
      }

      .cls-9 {
        fill: #fff173;
      }

      .cls-10 {
        fill: none;
      }

      .cls-11 {
        fill: #f21111;
      }

      .cls-12 {
        fill: #733b1e;
      }

      .cls-13 {
        stroke: #c00;
      }

      .cls-14 {
        fill: #0f4bff;
      }

      .cls-18 {
        fill: #d61a19;
      }

      .cls-16, .cls-19 {
        fill: #0091e3;
      }

      .cls-20 {
        fill: #985b00;
      }
    </style>
  </defs>
  <g id="_Слой_24" data-name="Слой 24">
    <path class="cls-15" d="M700.621,1300c-43.54,6.212-70.983,31.067-80,40,1.539,6.086,4.716,14.531,12,21,13.917,12.359,30.125,6.224,76,3,48.955-3.44,64.485,1.157,79-13,8.708-8.493,12.326-19.127,14-27-9.117-6.259-48.152-31.54-101-24Z"/>
    <g>
      <path class="cls-15" d="M674.353,1297.88c-5.811-4.347-22.725,18.231-31.15,42.729-7.05,20.501-10.112,48.035-4.4,51.66,5.64,3.579,19.03-16.663,26.447-34.175,9.943-23.475,14.987-55.813,9.103-60.214Z"/>
      <path class="cls-15" d="M743.105,1290.848c-7.037,1.776-.15,29.134,13.574,51.106,11.485,18.388,30.944,38.105,37.357,35.951,6.332-2.127-.96-25.276-9.891-42.066-11.973-22.508-33.917-46.791-41.041-44.992Z"/>
      <path class="cls-15" d="M723.483,1291.891c-7.037,1.776-.15,29.134,13.574,51.106,11.485,18.388,30.944,38.105,37.357,35.951,6.332-2.127-.96-25.276-9.891-42.066-11.973-22.508-33.917-46.791-41.041-44.992Z"/>
      <path class="cls-15" d="M700.134,1294.124c-5.484-4.754-23.978,16.549-34.143,40.378-8.507,19.941-13.541,47.183-8.105,51.209,5.368,3.976,20.179-15.251,28.837-32.183,11.607-22.699,18.963-54.59,13.412-59.403Z"/>
    </g>
  </g>
  <g id="_Слой_20" data-name="Слой 20">
    <g id="_Слой_21" data-name="Слой 21">
      <path class="cls-4" d="M643.166,1566.614c-9.028-9.208-9.063-28.43,.248-40.112,12.253-15.373,37.682-13.917,52.396-2.767,17.256,13.075,21.301,40.638,12.061,49.138-1.875,1.725-4.417,2.775-29.148,.642-30.383-2.62-33.501-4.803-35.558-6.902Z"/>
      <path class="cls-7" d="M1059.581,1578.366c.619-4.808,1.012-11.828-.374-20.096-1.737-10.363-5.461-17.875-6.435-19.585-11.337-19.894-79.097-6.536-97.086-2.87-92.924,18.94-93.842,28.992-136.961,31.013-17.073,.8-59.277,2.369-105.085-15.559-31.134-12.185-59.086-31.48-66.264-36.485-9.902-6.904-17.888-13.22-23.623-17.972"/>
      <path class="cls-4" d="M763.171,1608.467c35.733-.535,64.077-4.723,82.945-8.312,7.317-1.392,26.493-5.22,124.757-28.995,0,0,25.649-6.206,63.36-1.876,16.784,1.927,24.674,4.893,26.264,10.16,2.242,7.427-8.835,16.8-12.664,20.04-23.658,20.02-55.62,22.909-84.241,24.259-38.48,1.815-71.023,3.169-125.156-3.143-31.523-3.676-57.414-8.44-75.265-12.133Z"/>
      <path class="cls-7" d="M637.09,1480.84c-2.12-2.133-6.358-5.778-10.64-4.877-2.986,.628-4.084,3.065-8.945,11.313-7.706,13.074-9.768,15.129-12.907,23.031-2.028,5.105-3.039,7.721-2.884,10.802,.255,5.077,2.813,8.621,8.753,15.76,11.472,13.791,19.312,21.634,19.312,21.635,3.569,3.571,8.618,8.506,14.895,14.253-1.077-4.229-2.309-11.534-.374-20.096,1.227-5.429,3.103-13.736,8.272-15.381,7.201-2.291,16.821,9.612,22.707,16.894,12.824,15.867,10.534,21.275,18.583,30.605,11.999,13.908,29.902,16.74,52.527,20.319,15.429,2.441,28.956,2.577,45.014,1.65,8.928-.516,41.263-2.667,103.77-17.657,13.288-3.186,32.755-8.108,63.416-14.915,16.58-3.681,27.765-5.989,42.672-6.567,17.867-.693,32.695,1.425,42.859,3.481"/>
      <path d="M947.382,1576.275c18.025,4.391,35.792,8.772,53.991,11.983,18.174,3.353,36.357,5.462,54.767,7.764-36.443,4.48-76.242-2.654-108.758-19.747h0Z"/>
      <path d="M909.242,1590.845c18.025,4.391,35.792,8.772,53.991,11.983,18.174,3.353,36.357,5.462,54.767,7.764-36.443,4.48-76.242-2.654-108.758-19.747h0Z"/>
      <path d="M856.203,1601.536c18.025,4.391,35.792,8.772,53.991,11.983,18.174,3.353,36.357,5.462,54.767,7.764-36.443,4.48-76.242-2.654-108.758-19.747h0Z"/>
      <path class="cls-12" d="M748.656,1577.189c-24.693-6.7-46.985-19.549-63.84-29.265-14.553-8.389-23.492-14.895-30.438-20.532-11.834-9.603-20.73-18.987-26.962-26.269,108.679-22.318,245.783-29.415,385.461,22.281,12.702,4.701,25.001,9.731,36.904,15.037-14.622,1.346-37.76,3.861-65.92,8.692-68.737,11.79-92.728,24.568-156.06,31.468-49.967,5.444-69.394,1.233-79.145-1.412Z"/>
      <path class="cls-5" d="M782.672,1442.501c-30.399,6.104-60.798,12.208-91.198,18.312l-23.972-127.771,81.577-15.305c11.198,41.588,22.396,83.176,33.593,124.764Z"/>
      <path class="cls-13" d="M751.496,1339.911c-11.926,1.291-24.709,3.115-38.203,5.655-13.288,2.501-25.679,5.398-37.107,8.475-.345-1.838-.69-3.675-1.034-5.513,11.898-2.859,24.425-5.565,37.55-8.027,13.073-2.451,25.68-4.461,37.761-6.103,.345,1.838,.69,3.675,1.034,5.513Z"/>
      <path class="cls-13" d="M756.358,1363.328c-11.768,1.512-24.11,3.418-36.954,5.81-13.506,2.515-26.305,5.331-38.356,8.32-.354-1.885-.707-3.77-1.061-5.655,11.686-2.808,23.973-5.468,36.832-7.892,13.326-2.512,26.173-4.565,38.479-6.238,.354,1.885,.707,3.77,1.061,5.655Z"/>
      <path class="cls-13" d="M764.619,1386.623c-13.283,1.948-27.023,4.237-41.178,6.922-12.755,2.42-25.077,5.015-36.948,7.736-.361-1.925-.723-3.851-1.084-5.776,11.942-2.847,24.457-5.547,37.521-8.021,14.047-2.66,27.604-4.846,40.605-6.637,.361,1.925,.723,3.851,1.084,5.776Z"/>
      <path class="cls-10" d="M782.868,1442.344c-30.399,6.104-60.798,12.208-91.198,18.312l-23.972-127.771,81.577-15.305c11.198,41.588,22.396,83.176,33.593,124.764Z"/>
      <g>
        <path class="cls-2" d="M778.068,1425.071c.702-8.638,1.403-17.276,2.105-25.915,2.908,.22,7.138,.894,11.799,2.965,3.246,1.443,5.789,3.159,7.65,4.635-.502,2.308-.918,5.376-.729,8.97,.284,5.378,1.802,9.615,3.015,12.284"/>
        <path class="cls-2" d="M774.081,1424.747c-2.642-6.111-5.473-12.368-8.51-18.751-2.568-5.399-5.159-10.625-7.756-15.679-15.638,.548-27.079,4.058-34.698,7.214-4.498,1.864-7.014,3.335-33.514,17.344-4.901,2.591-8.919,4.71-11.531,6.086-.046,7.011-1.213,12.299-2.292,15.867-.871,2.88-1.867,5.246-2.803,9.805-.883,4.298-1.411,6.992-.81,9.967,.982,4.858,4.478,7.991,6.248,9.537,6.905,6.029,44.618,32.275,96.888,67.064,27.652-27.518,55.304-55.037,82.956-82.555-14.908-6.569-26.632-12.535-34.748-16.869-11.564-6.175-18.43-10.438-29.173-11.399-8.419-.753-15.517,.854-20.258,2.368Z"/>
        <path class="cls-9" d="M692.538,1428.156c1.603-1.991,5.4-6.264,26.294-14.92,18.047-7.477,28.555-11.707,32.705-7.376,2.669,2.786,1.436,7.79,1.346,8.136-1.763,6.77-9.708,7.651-17.162,13.655-6.348,5.114-12.254,13.873-12.826,22.034-1.298,18.516,24.511,38.952,44.174,36.697,9.663-1.108,15.89-7.473,17.511-5.601,2.046,2.364-4.672,16.225-15.654,19.798-10.005,3.255-16.597-4.289-46.385-21.827-26.809-15.784-36.024-18.242-37.845-28.156-1.899-10.34,5.862-19.979,7.842-22.439Z"/>
      </g>
      <g>
        <path class="cls-14" d="M629.572,1499.292c3.493-7.88,8.375-17.147,15.224-26.856,9.002-12.759,18.551-22.237,26.431-28.955-.204,2.684-.196,6.659,1.103,11.126,3.29,11.315,12.492,17.639,22.14,23.871,22.181,14.327,40.824,24.361,43.071,25.571,8.355,4.501,20.631,11.248,35.502,19.94-6.128,5.524-12.261,11.046-18.402,16.565-6.49,5.833-12.983,11.66-19.479,17.48-17.235-4.38-40.407-12.317-64.999-27.352-17.021-10.407-30.436-21.595-40.592-31.389Z"/>
        <path class="cls-6" d="M665.297,1467.079c-8.087-.423-19.27,13.91-17.056,24.7,2.482,12.094,19.451,8.324,51.88,28.293,15.971,9.835,25.724,19.29,37.819,16.115,.641-.168,8.814-2.408,9.618-7.245,.769-4.625-5.614-9.111-14.814-15.249-44.666-29.804-49.031-27.377-58.047-38.827-2.878-3.655-5.324-7.573-9.4-7.787Z"/>
      </g>
      <path class="cls-15" d="M778.169,1473.237c11.187-4.821,15.219-8.203,27.291-14.839,8.629-4.743,13.108-7.206,19.909-10.422,9.142-4.324,12.758-5.412,12.608-7.002-.277-2.95-13.277-5.016-24.756-4.017-13.044,1.134-22.255,6.062-28.88,9.694-7.955,4.361-15.603,8.691-19.479,17.48-.577,1.309-3.93,9.201-.972,11.961,1.495,1.395,4.484,1.367,14.278-2.853Z"/>
      <path class="cls-15" d="M788.87,1427.955c11.472-3.78,18.738-6.057,26.319-2.879,2.863,1.2,7.807,3.966,7.488,6.628-.393,3.28-8.41,3.385-20.663,7.351-4.41,1.427-16.723,5.413-28.207,13.761-11.577,8.416-15.039,15.979-19.236,14.49-3.443-1.222-4.834-7.629-4.012-12.365,1.104-6.366,6.211-10.05,13.256-14.976,2.591-1.812,10.748-7.297,25.055-12.011Z"/>
      <path class="cls-15" d="M760.962,1425.688c-8.255,4.324-15.866,8.312-18.402,16.565-1.215,3.954-1.781,10.569,1.022,12.123,4.256,2.359,11.305-9.709,26.618-18.907,19.866-11.933,38.294-9.818,38.174-12.952-.101-2.643-13.244-5.084-24.756-4.017-10.635,.985-18.091,4.798-22.656,7.189Z"/>
      <g>
        <path class="cls-3" d="M1048.031,1535.289c.191-19.594-3.251-35.278-6.324-45.662-3.557-12.02-9.927-32.709-27.847-52.427-14.356-15.796-29.049-23.183-32.107-24.68-15.946-7.808-29.929-9.438-35.315-9.892-8.885-.748-23.495-.748-39.52,4.816-12.828,4.454-14.944,8.439-44.615,30.488-28.299,21.029-31.048,20.877-44.858,33.478-14.286,13.035-25.696,26.292-26.269,26.962-8.988,10.502-12.409,16.035-24.438,29.117-7.935,8.63-12.902,13.243-18.482,17.561-6.983,5.405-13.368,9.142-17.997,11.581,5.636,2.081,13.669,4.733,23.516,6.927,23.987,5.343,44.54,4.804,62.955,3.107,23.021-2.121,31.718-5.04,74.38-14.024,68.363-14.397,90.787-16.328,99.702-16.984,24.132-1.774,44.055-1.171,57.218-.369Z"/>
        <path class="cls-11" d="M851.957,1454.148c-9.055,6.465-73.402,52.402-64.125,73.048,4.693,10.444,26.264,10.052,45.363,9.705,53.225-.968,64.314-20.921,115.625-27.73,47.504-6.304,77.635,5.539,83.942-8.231,3.549-7.748-3.167-17.665-12.522-31.116-14.394-20.695-34.546-49.668-67.635-56.662-33.361-7.051-60.512,12.332-100.649,40.986Z"/>
        <path class="cls-8" d="M937.288,1417.911c-1.882,.01-15.765,.272-17.816,7.563-1.419,5.044,3.382,11.466,8.708,13.813,11.514,5.075,28.374-7.624,27.362-14.16-.747-4.824-11.378-7.254-18.254-7.217Z"/>
        <path class="cls-8" d="M957.341,1436.013c-.443,.026-3.717,.285-4.284,3.055-.393,1.917,.664,4.281,1.892,5.104,2.654,1.779,6.772-3.2,6.609-5.651-.12-1.809-2.596-2.602-4.216-2.508Z"/>
      </g>
    </g>
  </g>
  <g id="_Слой_23" data-name="Слой 23">
    <g>
      <path class="cls-15" d="M687.359,1280.517c-5.852-4.293-22.555,18.442-30.751,43.017-6.86,20.566-9.665,48.127-3.92,51.698,5.673,3.527,18.874-16.84,26.128-34.419,9.725-23.567,14.467-55.95,8.543-60.296Z"/>
      <path class="cls-15" d="M728.956,1267.559c-7.253,.251-6.296,28.446,2.481,52.82,7.345,20.398,22.204,43.779,28.927,43.027,6.639-.742,4.397-24.909-.789-43.206-6.952-24.528-23.276-52.896-30.619-52.641Z"/>
      <path class="cls-15" d="M701.174,1267.855c-6.594-3.031-18.393,22.595-21.488,48.315-2.591,21.525,.195,49.087,6.54,51.432,6.266,2.316,15.109-20.286,18.686-38.964,4.795-25.039,2.939-57.715-3.737-60.784Z"/>
      <path class="cls-15" d="M712.779,1267.316c-7.17-1.127-11.567,26.74-7.563,52.335,3.351,21.419,13.515,47.19,20.259,47.725,6.659,.528,9.033-23.626,7.405-42.574-2.183-25.4-12.841-56.345-20.1-57.486Z"/>
    </g>
    <path class="cls-5" d="M666.621,1042c-4.551,2.174-13.229,7.375-26,8-14.296,.7-24.571-4.781-27-1-2.475,3.853,7.69,10.33,6,19-1.887,9.685-16.563,11.808-16,17,.661,6.1,20.956,3.464,27,14,4.326,7.542-3.016,14.223-9,36-.927,3.375-6.61,24.692-5,50,1.317,20.705,5.966,19.73,5,32-1.915,24.337-20.379,26.538-28,53-5.58,19.375-4.434,46.618,12,63,2.248,2.241,8.397,8.231,18,11,27.49,7.926,40.915-22.766,76-29,42.56-7.562,65.6,29.996,99,14,3.489-1.671,16.336-7.824,22-21,9.544-22.202-14.618-38.38-9-70,2.561-14.414,7.732-12.376,14-36,3.822-14.406,4.815-26.154,6-41,3.1-38.819-1.988-37.852,2-45,14.759-26.454,80.036-31.8,112-29,3.578,.313,23.012,2.154,27-6,2.086-4.265-1.489-8.328,1-16,2.365-7.29,7.218-8.63,7-12-.587-9.092-33-13-33-13-51.292-6.184-111.624-4.343-134-4-66.525,1.02-121.376-6.24-147,6Z"/>
    <g id="_Слой_25" data-name="Слой 25">
      <g>
        <ellipse class="cls-20" cx="678.847" cy="1086.705" rx="35.992" ry="38.11" transform="translate(-585.485 1294.613) rotate(-67.346)"/>
        <path class="cls-17" d="M685.296,1089.489l.178-.217,9.536,7.096c-.192,.253-.424,.581-.693,.961-2.277,3.217-7.177,10.14-12.206,6.417-5.278-3.947,1.05-11.657,3.185-14.257Z"/>
        <path class="cls-17" d="M669.927,1077.684l-.308,.378c-2.618,3.208-10.048,12.313-4.782,16.166,5.031,3.805,11.126-4.623,13.856-8.396,.299-.414,.558-.771,.77-1.051l-9.536-7.096Z"/>
        <path class="cls-1" d="M633.348,1072.04c-10.43,24.99,1.373,53.703,26.363,64.133,24.99,10.43,53.703-1.373,64.133-26.363,10.43-24.99-1.373-53.703-26.363-64.133-24.99-10.43-53.703,1.373-64.133,26.363Zm44.079,41.263c6.112,3.768,11.409,.671,16.33-4.643l7.981,5.921,3.309-4.46-7.777-5.769c.219-.292,.438-.58,.655-.868,.664-.876,1.321-1.743,1.952-2.647l7.777,5.769,3.401-4.584-7.777-5.769,6.751-9.099-5.322-3.943s-2.389,3.422-2.412,3.251c-1.384,1.788-2.953,1.534-3.998,.968l-9.023-6.768-12.73-9.438c-.559-.558-1.24-1.633-.33-2.872-.088,.031,2.485-3.26,2.485-3.26l-5.24-5.061-6.792,8.728-7.94-5.89-3.288,4.432,7.94,5.89c-.56,.701-1.084,1.427-1.59,2.129-.379,.526-.748,1.039-1.116,1.518l-7.94-5.89-3.294,4.44,7.939,5.89c-5.183,7.845-7.108,14.598,.083,20.974,5.725,5.103,10.442,4.534,14.828,1.093-.587,3.717,.7,7.185,5.136,9.957Z"/>
      </g>
      <g>
        <ellipse class="cls-20" cx="763.568" cy="1280.635" rx="35.992" ry="38.11" transform="translate(-661.383 841.799) rotate(-42.078)"/>
        <path class="cls-17" d="M758.924,1275.364l-.253,.12-5.595-10.487c.281-.147,.631-.345,1.037-.573,3.432-1.937,10.819-6.106,13.777-.593,3.088,5.822-5.926,10.093-8.966,11.534Z"/>
        <path class="cls-17" d="M767.783,1292.6l.439-.21c3.737-1.784,14.342-6.846,11.225-12.578-2.925-5.589-12.035-.568-16.114,1.678-.447,.246-.833,.46-1.145,.622l5.594,10.488Z"/>
        <path class="cls-1" d="M798.454,1313.318c20.099-18.147,21.682-49.151,3.535-69.25-18.147-20.099-49.151-21.682-69.25-3.535-20.099,18.147-21.682,49.151-3.535,69.25,18.147,20.099,49.151,21.682,69.25,3.535Zm-22.248-56.13c-3.919-6.016-10.031-5.477-16.75-2.771l-4.69-8.761-4.896,2.621,4.571,8.537c-.323,.17-.643,.338-.963,.505-.975,.509-1.938,1.012-2.895,1.56l-4.571-8.537-5.033,2.694,4.571,8.537-9.99,5.347,3.13,5.837s3.621-2.075,3.569-1.91c2.014-1.026,3.325-.127,4.028,.831l5.271,9.972,7.483,13.969c.268,.743,.425,2.007-.928,2.738,.093,.01-3.639,1.887-3.639,1.887l2.578,6.813,9.868-4.994,4.666,8.716,4.866-2.604-4.666-8.715c.806-.394,1.589-.828,2.346-1.247,.567-.314,1.12-.62,1.657-.896l4.666,8.715,4.874-2.609-4.666-8.715c8.036-4.882,12.659-10.167,8.878-19.003-2.999-7.059-7.507-8.557-12.943-7.318,2.117-3.111,2.434-6.796-.394-11.197Z"/>
      </g>
      <g>
        <circle class="cls-19" cx="678.16" cy="1203.557" r="51.5" transform="translate(-652.415 832.046) rotate(-45)"/>
        <path class="cls-5" d="M668.557,1170.636c1.05-.623,2.1-.531,10.665,4.747,6.203,3.822,8.171,5.326,13.051,8.387,5.757,3.611,7.163,4.12,11.426,7.121,6.196,4.363,9.308,6.557,8.886,8.705-.598,3.044-4.841,4.506-23.722,15.364-7.035,4.046-14.096,7.993-21.131,12.038-2.723,1.566-6.458,3.72-8.381,2.377-1.847-1.289-1.082-5.147-.608-7.599,1.524-7.884,2.786-15.742,4.018-23.591,3.265-20.814,2.968-25.87,5.797-27.549Z"/>
        <path class="cls-16" d="M670.892,1176.018c5.722,3.27,11.443,6.541,17.165,9.811-8.095,11.507-16.19,23.014-24.286,34.521,2.374-14.777,4.747-29.555,7.121-44.332Z"/>
        <path class="cls-16" d="M707.607,1199.281c-5.404-3.78-10.809-7.56-16.214-11.34-7.549,10.908-15.097,21.816-22.646,32.724,12.953-7.128,25.906-14.256,38.859-21.384Z"/>
      </g>
      <g>
        <circle class="cls-18" cx="777.16" cy="1147.557" r="50.5"/>
        <path d="M786.45,1163.633l-27.816,.896,38.315,15.682,2.16-41.359-12.672,24.79,.012-.008Zm-31.015-49.554l1.071,46.411,27.821-.87,12.656-24.791-41.548-20.75Z"/>
      </g>
      <g>
        <path class="cls-18" d="M657.199,1265.721c-19.223-14.978-45.874-13.86-63.732,1.337-2.53,5.385-3.286,11.168-3.626,17.211-.188,3.342-.49,6.729-.37,10.074,.131,3.653,1.52,6.771,2.555,10.214,1.182,3.934,1.748,8.032,2.491,12.062,.316,1.717,.739,3.42,1.036,5.138,.113,.654,.172,1.068,.199,1.332,.067,.055,.181,.225,.369,.598,.643,1.279,1.412,2.523,2.26,3.728,2.293,2.581,4.612,5.139,7.003,7.631,.327,.284,.653,.571,.982,.842,4.261,3.515,7.73,4.41,13.676,5.723,6.326,1.397,12.806,1.975,19.283,1.848,6.135-.12,9.809-2.716,14.733-6.132,5.235-3.631,11.184-5.459,16.758-8.204,11.24-21.242,5.998-48.118-13.617-63.402Z"/>
        <polygon points="644.822 1319.934 650.364 1273.824 607.026 1290.466 617.216 1316.368 644.822 1319.934"/>
        <path d="M604.753,1334.387l36.998-11.096-27.601-3.58-10.21-25.881-1.702,37.866c.828,.906,1.67,1.8,2.515,2.691Z"/>
      </g>
      <g>
        <path class="cls-16" d="M775.883,1037.143c-.241,4.751,.163,9.613,1.312,14.475,6.542,27.68,34.284,44.816,61.965,38.274,24.579-5.809,40.828-28.336,39.584-52.69-34.31-.278-68.676,2.092-102.86-.058Z"/>
        <path class="cls-5" d="M812.192,1038.046c-.155,.976-.317,1.95-.469,2.927-3.361,21.519-4.879,25.744-2.88,28.116,1.41,1.674,5.07,.623,12.352-1.475,5.01-1.443,6.287-2.222,12.708-4.447,5.444-1.887,7.848-2.48,14.713-4.921,9.479-3.372,10.208-4.132,10.38-5.341,.391-2.754-2.502-5.28-11.98-15.416-11.612,.229-23.223,.506-34.822,.558Z"/>
        <path class="cls-16" d="M828.951,1037.845c1.995,6.915,3.991,13.83,5.986,20.745,6.133-2.412,12.266-4.824,18.399-7.236l-12.416-13.743c-3.99,.082-7.98,.163-11.969,.234Z"/>
        <path class="cls-16" d="M817.013,1038.013c-1.603,9.131-3.205,18.262-4.808,27.394,6.332-1.846,12.663-3.692,18.995-5.538-2.173-7.318-4.346-14.635-6.518-21.953-2.557,.04-5.113,.073-7.669,.097Z"/>
      </g>
    </g>
    <path class="cls-10" d="M666.604,1042.083c-4.551,2.174-13.229,7.375-26,8-14.296,.7-24.571-4.781-27-1-2.475,3.853,7.69,10.33,6,19-1.887,9.685-16.563,11.808-16,17,.661,6.1,20.956,3.464,27,14,4.326,7.542-3.016,14.223-9,36-.927,3.375-6.61,24.692-5,50,1.317,20.705,5.966,19.73,5,32-1.915,24.337-20.379,26.538-28,53-5.58,19.375-4.434,46.618,12,63,2.248,2.241,8.397,8.231,18,11,27.49,7.926,40.915-22.766,76-29,42.56-7.562,65.6,29.996,99,14,3.489-1.671,16.336-7.824,22-21,9.544-22.202-14.618-38.38-9-70,2.561-14.414,7.732-12.376,14-36,3.822-14.406,4.815-26.154,6-41,3.1-38.819-1.988-37.852,2-45,14.759-26.454,80.036-31.8,112-29,3.578,.313,23.012,2.154,27-6,2.086-4.265-1.489-8.328,1-16,2.365-7.29,7.218-8.63,7-12-.587-9.092-33-13-33-13-51.292-6.184-111.624-4.343-134-4-66.525,1.02-121.376-6.24-147,6Z"/>
    <path d="M810.121,1256.5c-15.103,18.641-42.67,25.998-65.137,17.553-7.486-2.757-14.385-6.99-19.863-12.553,15.115,7.852,31.843,11.824,48.642,9.373,13.126-1.841,25.097-7.137,36.358-14.373h0Z"/>
    <path d="M627.121,1094.5c7.62,1.886,15.098,3.613,22.63,4.853,7.523,1.264,15.07,2.049,22.637,2.397,3.785,.156,7.573,.194,11.367,.137,3.794-.066,7.589-.277,11.393-.559,7.615-.565,15.212-1.639,22.973-2.828-7,3.571-14.578,5.987-22.335,7.502-3.881,.758-7.815,1.273-11.768,1.569-3.955,.275-7.927,.319-11.892,.171-7.926-.369-15.815-1.619-23.417-3.805-7.591-2.203-14.931-5.261-21.588-9.438Z"/>
    <path d="M715.121,1067.5c29.602-18.405,70.04-18.827,100-1-33.842-9.615-66.366-9.332-100,1h0Z"/>
    <path d="M685.121,1294.5c-31.678-3.204-58.609-.46-89,9,25.548-17.201,60.521-20.696,89-9h0Z"/>
  </g>
</svg>