<?xml version="1.0" encoding="UTF-8"?>
<svg id="_Слой_10" data-name="Слой 10" xmlns="http://www.w3.org/2000/svg" viewBox="0 0 582.184 658.637">
  <defs>
    <style>
      .cls-1, .cls-2, .cls-3, .cls-4 {
        stroke: #000;
        stroke-miterlimit: 10;
        stroke-width: 3px;
      }

      .cls-2 {
        fill: #fab4a0;
      }

      .cls-5 {
        fill: #d19684;
      }

      .cls-3 {
        fill: #fff;
      }

      .cls-4 {
        fill: #261318;
      }
    </style>
  </defs>
  <g id="_голова" data-name="голова">
    <g>
      <g>
        <g>
          <path class="cls-2" d="M281.207,204.279c-3.505,4.147-13.305,16.822-14.738,36.02-.343,4.6-1.421,22.382,9.581,38.361,16.414,23.839,47.824,26.395,66.811,27.939,12.563,1.022,23.076,.08,30.297-.969-.435,4.61-.686,12.457,1.755,21.539,7.12,26.497,33.419,49.647,55.438,47.321,2.73-.288,.523-.454,25.69-10.404,16.966-6.708,22.813-8.547,28.816-9.983,13.282-3.176,17.599-2.046,21.868-3.474,23.614-7.899,43.654-93.349,3.64-138.102-38.521-43.084-117.65-31.619-146.534-20.014-3.592,1.443-13.418,5.706-27.735,8.913-22.863,5.122-42.42,4.248-54.89,2.852Z"/>
          <path d="M382.228,248.035c-2.201,19.478,10.181,19.611,9.474,33.488-.312,4.219-2.01,8.085-4.337,11.328,1.218-3.806,2.14-7.639,1.996-11.374,.041-6.101-4.113-10.303-6.864-15.44-2.763-5.564-2.766-12.467-.269-18.002h0Z"/>
          <path d="M394.405,326.804c7.007-.506,13.621-4.008,17.775-9.591,0,0,.425-.561,.425-.561l.746,.196c10.663,2.882,20.753,8.458,28.553,16.341,4.888,5.243,6.444,12.997,4.896,19.879-6.485,3.065-11.488,8.69-13.889,15.498,1.286-7.154,6.028-13.602,12.389-17.207,0,0-.567,.794-.567,.794,.527-4.119,.051-8.33-1.646-12.006-1.723-3.771-4.683-6.644-8.023-9.102-6.73-5.234-14.218-9.427-22.342-12.094,0,0,1.171-.365,1.171-.365-4.692,5.609-12.232,8.871-19.488,8.218h0Z"/>
          <path class="cls-4" d="M409.764,341.505c2.119,3.54,5.303,2.127,9.727,5.961,5.51,4.774,4.451,10.324,8.502,11.428,3.098,.844,6.518-1.638,8.173-3.602,4.441-5.27,2.696-14.553-2.011-19.272-1.822-1.827-4.488-2.735-9.819-4.553-6.955-2.371-10.433-3.557-12.817-1.92-3.206,2.201-3.968,8.262-1.755,11.958Z"/>
          <path class="cls-5" d="M281.96,205.933c-.049,.503,9.02,2.513,20.006,3.169,5.418,.323,29.798,1.53,59.69-10.342,6.133-2.436,14.956-6.371,25.044-12.522-3.799,1.004-9.384,2.577-16.044,4.826-10.553,3.564-14.764,5.773-21.13,8.087-12.891,4.684-23.593,5.789-31.956,6.652-20.423,2.108-35.545-.517-35.609,.13Z"/>
          <path class="cls-1" d="M368.826,216.603c2.776,3.573,10.733,1.682,11.099,1.591,7.153-1.778,9.611-7.822,16.657-15.34,0,0,7.997-8.534,17.974-13.841,14.957-7.957,30.839-5.322,37.684-4.187,20.445,3.392,33.522,14.735,37.94,18.669,18.03,16.056,24.095,36.291,25.671,41.798,6.058,21.171,3.8,42.895,14.499,56.408,2.596,3.279,5.181,5.096,7.935,5.083,6.59-.032,10.891-10.526,11.3-11.556,2.885,2.429,6.587,4.574,10.605,4.169,12.113-1.222,18.979-24.807,20.205-34.795,5.144-41.914-60.14-79.8-66.683-83.506-4.779-6.808-16.119-20.963-36.038-29.53-7.41-3.187-21.25-8.934-38.525-6.309-19.098,2.902-30.928,14.293-42.896,25.817-15.314,14.747-32.855,38.543-27.427,45.528Z"/>
        </g>
        <path class="cls-3" d="M527.476,300.799c-1.618-5.95-6.983-11.068-13.696-9.789-10.571,2.013-20.853,19.192-23.189,32.256-2.028,11.342,.984,24.898,8.174,24.74,10.652-.234,33.22-30.63,28.711-47.207Z"/>
        <path class="cls-3" d="M419.262,266.731c8.998-1.73,18.834-9.91,24.41-19.681,7.924-13.885,5.954-28.719-1.176-35.824-12.059-12.016-38.817-1.866-47.253,12.534-10.33,17.631,3.742,46.868,24.019,42.971Z"/>
      </g>
      <path d="M382.199,341.194c.484-.795,1.662-1.276,2.543-1.37,1.339-.143,1.82,.626,4.304,1.37,2.152,.644,2.317,.224,3.13,.783,1.575,1.08,.931,2.631,2.348,4.5,1.633,2.154,3.375,1.262,4.696,3.13,1.693,2.395-.46,4.863,.978,6.457,1.918,2.125,6.795-1.107,8.804,.978,1.813,1.882-.881,5.899,.783,7.239,2.018,1.625,7.024-2.921,9.196-1.174,1.521,1.224-.107,4.124,1.565,5.478,1.893,1.533,5.237-1.161,6.848,.391,.946,.911,.896,2.902,.056,4.03-.462,.621-1.8,1.835-7.186,.888-3.089-.543-9.23-2.1-18.695-9.222-4.716-3.548-7.462-6.376-11.152-10.174-3.672-3.78-9.877-10.582-8.217-13.304Z"/>
    </g>
  </g>
</svg>