<?xml version="1.0" encoding="UTF-8"?>
<svg id="_Слой_10" data-name="Слой 10" xmlns="http://www.w3.org/2000/svg" viewBox="0 0 582.184 658.637">
  <defs>
    <style>
      .cls-1 {
        fill: #fab4a0;
      }

      .cls-1, .cls-2 {
        stroke: #000;
        stroke-miterlimit: 10;
        stroke-width: 3px;
      }

      .cls-2 {
        fill: #13121a;
      }

      .cls-3 {
        fill: #0a0a0f;
      }
    </style>
  </defs>
  <g id="_рука" data-name="рука">
    <g>
      <path d="M259.651,254.845c-1.417,16.401-8.969,32.439-20.735,43.957,4.064-7.1,8.061-14.069,11.5-21.444,3.538-7.342,6.331-14.861,9.234-22.513h0Z"/>
      <g>
        <path class="cls-1" d="M121.086,358.046c-5.54,5.143-6.944,12.117-8.664,20.656-.34,1.686-3.725,19.355,3.329,26.273,.98,.961,3.303,3.239,5.692,2.634,1.404-.355,2.275-1.566,2.713-2.323,.568,3.056,3.057,5.255,5.821,5.352,3.278,.116,5.226-2.785,5.322-2.933-.427,3.02,.85,5.736,2.986,6.732,2.425,1.131,4.972-.411,5.63-.81,3.965-2.401,4.145-7.566,4.156-8.114,1.625,5.149,4.903,9.177,8.189,9.302,4.281,.163,9.906-6.246,9.64-16.307,.086,.542,1.42,8.523,5.053,9.13,3.529,.589,7.295-6.101,8.778-10.106,3.863-10.432,.14-23.993-7.69-32.805-12.956-14.581-38.782-17.987-50.956-6.684Z"/>
        <path class="cls-2" d="M249.977,216.084c-12.323-6.624-33.271,9.804-52.734,25.069-13.108,10.28-21.126,19.225-32.013,31.372-10.497,11.711-26.618,31.107-38.863,58.266-6.308,13.991-7.733,21.494-4.37,27.345,4.711,8.196,16.835,9.698,21.481,10.274,2.836,.351,12.733,1.444,22.661-3.841,8.949-4.763,11.83-11.465,18.404-20.62,2.549-3.549,11.129-11.908,28.187-28.479,37.174-36.115,37.83-35.022,40.683-40.702,10.59-21.083,9.404-51.781-3.436-58.683Z"/>
        <path d="M164.764,275.194c.034,5.301,3.542,8.772,7.78,11.325,1.415,.891,2.934,1.694,4.546,2.631-7.326,1.395-17.194-6.441-12.326-13.957h0Z"/>
        <path d="M166.99,274.908c.977,4.984,4.53,8.587,9.391,9.929-5.211,.23-9.997-4.704-9.391-9.929h0Z"/>
        <path d="M162.631,281.505c1.3,4.105,4.383,7.258,8.718,8.138-4.579,.703-8.947-3.641-8.718-8.138h0Z"/>
        <path class="cls-3" d="M164.764,275.194c.03,1.414,.296,4.683,2.511,7.891,3.403,4.929,8.772,5.898,9.815,6.065-1.975-1.009-5.149-2.953-8.022-6.424-2.339-2.826-3.609-5.614-4.304-7.533Z"/>
        <path class="cls-3" d="M167.01,275.194c.198,1.121,.767,3.429,2.613,5.625,2.5,2.975,5.704,3.795,6.759,4.018-1.501-.697-3.915-2.04-6.099-4.439-1.778-1.952-2.744-3.879-3.272-5.204Z"/>
        <path class="cls-3" d="M162.631,281.505c.269,1.042,.912,2.94,2.524,4.744,2.313,2.586,5.15,3.333,6.193,3.554-1.397-.6-3.642-1.756-5.673-3.819-1.654-1.68-2.552-3.338-3.044-4.479Z"/>
      </g>
      <path d="M255.616,269.824c-3.16,8.118-4.776,16.49-4.96,25.196-2.659-8.451-.713-18.388,4.96-25.196h0Z"/>
    </g>
  </g>
</svg>