<?xml version="1.0" encoding="UTF-8"?>
<svg id="_Слой_10" data-name="Слой 10" xmlns="http://www.w3.org/2000/svg" viewBox="0 0 582.184 658.637">
  <defs>
    <style>
      .cls-1 {
        fill: #0b0c16;
      }

      .cls-2 {
        fill: #0d0c12;
      }

      .cls-3 {
        fill: #1a1b30;
      }

      .cls-3, .cls-4 {
        stroke: #000;
        stroke-miterlimit: 10;
        stroke-width: 3px;
      }

      .cls-4 {
        fill: #13121a;
      }

      .cls-5 {
        fill: #353142;
      }
    </style>
  </defs>
  <g id="_тело" data-name="тело">
    <g>
      <path class="cls-4" d="M312.351,231.629c-11.972-19.809-30.831-28.617-39.913-32.087-13.255-4.744-32.045-8.905-51.249-2.665-20.999,6.823-27.64,21.521-47.36,34.752-14.083,9.449-36.55,19.731-72.019,20.581,1.083,9.377,2.848,19.49,5.597,30.138,9.735,37.711,27.677,66.139,42.553,85.064,3-1.304,6-2.609,9-3.913,3.245,7.835,6.489,15.669,9.734,23.504-2.678,1.449-5.356,2.898-8.034,4.346,.172,5.49,.844,12.214,2.64,19.707,2.215,9.243,5.449,16.769,8.366,22.369,2.608-.484,6.433-1.289,10.957-2.607,7.048-2.053,25.547-8.194,59.351-37.274,14.135-12.159,24.062-22.409,31.632-30.262,11.471-11.902,20.581-22.415,27.088-30.239,24.67-32.102,29.146-72.478,11.659-101.413Z"/>
      <path class="cls-2" d="M172.558,431.781c27.07-12.211,92.076-46.251,127.793-119.543,10.418-21.378,16.265-41.83,19.565-59.478,1.329,4.855,2.974,12.538,2.915,21.951-.212,33.636-21.997,58.228-44.125,83.206-8.571,9.675-22.314,21.256-49.8,44.419-9.65,8.132-21.317,17.691-39.228,24.456-6.965,2.631-12.978,4.123-17.12,4.989Z"/>
      <path class="cls-3" d="M289.655,278.585c-15.076,13.914-33.007,28.782-54,43.435-26.919,18.789-52.63,32.866-75.13,43.435,3.035,7.56,6.071,15.121,9.106,22.681,17.317-6.353,38.577-15.897,61.137-30.414,25.652-16.506,44.931-34.26,58.627-48.877,1.233-4.937,2.306-11.654,1.826-19.565-.244-4.02-.844-7.612-1.565-10.696Z"/>
      <path class="cls-5" d="M279.286,204.14c-4.031-2.382-10.051-5.433-17.804-7.598-5.156-1.439-17.144-4.639-32.217-1.63-4.099,.818-13.425,2.775-22.826,9.326-3.676,2.561-4.411,3.768-12.717,11.087-7.079,6.237-13.436,11.433-15.913,13.37-13.6,10.636-27.9,15.072-38.755,18.44-8.718,2.705-20.749,5.589-35.413,6.603,7.748,1.209,19.606,2.165,33.538-.456,21.088-3.968,36.105-14.079,44.217-19.696,15.331-10.614,13.975-14.154,28.957-22.957,9.308-5.468,18.757-11.02,32.217-12.13,13.356-1.102,26.252,2.438,30.522,3.652,2.592,.737,4.72,1.46,6.196,1.989Z"/>
      <path class="cls-1" d="M288.049,308.052c.316-1.334,.708-3.153,1.056-5.328,.733-4.586,.85-8.11,.916-10.338,.091-3.082,.051-6.979-.378-11.49-5.117,4.411-10.235,8.821-15.352,13.232,.844,.368,2.157,.979,3.691,1.87,3.157,1.833,6.646,3.858,8.674,7.761,.456,.877,1.078,2.31,1.394,4.293Z"/>
      <path d="M170.699,253.15c-14.138,11.079-32.528,17.021-50.478,16.239,17.558-3.431,34.221-8.781,50.478-16.239h0Z"/>
      <path class="cls-1" d="M176.674,371.33c15.587-9.882,32.316-21.814,49.395-36.201,8.631-7.271,16.587-14.525,23.902-21.636-15.042,10.688-31.54,21.516-49.533,32.136-10.224,6.035-20.251,11.601-30.024,16.739,2.087,2.987,4.173,5.975,6.26,8.962Z"/>
      <path d="M212.177,221.455c8.772-10.729,23.778-16.34,37.435-13.957-13.45,1.934-26.008,6.599-37.435,13.957h0Z"/>
      <path d="M235.851,381.498c-8.003,4.481-15.408,9.711-21.744,16.25-4.263,4.359-7.922,9.555-12.992,13.191-7.548,5.58-17.066,8.361-26.307,8.515,11.83-2.559,23.138-7.563,30.992-16.937,7.841-9.483,18.22-17.348,30.052-21.02h0Z"/>
    </g>
  </g>
</svg>