<?xml version="1.0" encoding="UTF-8"?>
<svg id="_Слой_10" data-name="Слой 10" xmlns="http://www.w3.org/2000/svg" viewBox="0 0 582.184 658.637">
  <defs>
    <style>
      .cls-1 {
        fill: #fab4a0;
        stroke: #000;
        stroke-miterlimit: 10;
        stroke-width: 3px;
      }

      .cls-2 {
        fill: #d19684;
      }
    </style>
  </defs>
  <g id="_жопа" data-name="жопа">
    <g>
      <path class="cls-1" d="M101.856,257.024c-14.756,.162-27.366,10.313-30.548,12.953-13.445,11.155-23.517,30.047-21.391,48.783,3.974,35.024,48.336,49.775,61.043,54,6.708,2.23,52.166,17.396,65.739-.522,19.644-25.932-28.643-115.72-74.844-115.214Z"/>
      <path class="cls-2" d="M78.183,355.688c-16.03-14.62-19.193-41.26-3.888-57.573,4.827-5.236,10.992-9.105,17.621-11.182-12.096,6.242-21.801,17.143-24.081,30.711-2.423,13.466,2.188,27.283,10.348,38.044h0Z"/>
      <path d="M81.099,359.741c-14.875-15.969-19.481-41.355-5.617-59.408,4.332-5.768,10.041-10.408,16.434-13.4-5.752,4.069-10.748,9.023-14.518,14.745-12.232,18.18-7.726,40.644,3.701,58.063h0Z"/>
    </g>
  </g>
</svg>