<?xml version="1.0" encoding="UTF-8"?>
<svg id="_Слой_10" data-name="Слой 10" xmlns="http://www.w3.org/2000/svg" viewBox="0 0 582.184 658.637">
  <defs>
    <style>
      .cls-1 {
        fill: #0d0c12;
        opacity: .67;
      }

      .cls-2 {
        fill: #07060b;
      }

      .cls-3 {
        fill: #161420;
      }

      .cls-4 {
        fill: #181620;
      }

      .cls-4, .cls-5 {
        stroke: #000;
        stroke-miterlimit: 10;
        stroke-width: 3px;
      }

      .cls-6 {
        fill: #070609;
      }

      .cls-5 {
        fill: #0c0b12;
      }

      .cls-7 {
        fill: #24212e;
      }
    </style>
  </defs>
  <g id="_ноги" data-name="ноги">
    <g>
      <path class="cls-5" d="M170.203,533.879c22.253,5.459,58.84,21.895,57.619,37.492-1.213,15.497-39.418,25.938-67.477,26.014-12.866,.035-53.832,.217-64.242-25.13-6.817-16.599,2.793-34.668,5.74-39.79,9.086-1.579,20.185-2.784,32.834-2.622,5.299,.068,20.405,.327,35.526,4.037Z"/>
      <g>
        <g>
          <path class="cls-3" d="M196.811,543.734c5.282,2.874,9.456,5.805,9.693,9.846,.183,3.123-2.064,5.57-2.597,6.154-4.234,4.643-11.462,4.22-17.491,3.783-2.891-.21-11.11-1.042-22.311-6.53-8.963-4.392-17.369-8.503-17.07-13.289,.293-4.687,8.869-8.959,20.273-10.698,13.845,3.069,23.497,7.468,29.501,10.735Z"/>
          <path d="M196.811,543.733c3.811,2.191,8.626,4.517,9.746,9.163,.73,4.795-3.41,9.104-7.744,10.471-4.49,1.488-9.232,1.171-13.871,.97-4.665-.35-9.259-1.368-13.671-2.871-4.41-1.456-8.583-3.519-12.722-5.58-4.175-2.232-8.735-4.345-11.655-8.296-6.157-10.242,13.629-14.571,20.456-15.222,10.204,2.668,20.195,6.305,29.461,11.366h0Zm0,0c-9.231-4.99-19.344-8.23-29.636-10.128-3.219,.759-8.978,2.123-12.583,4.075-7.813,4.076-8.357,7.581-.579,12.303,9.691,5.51,19.958,10.861,31.124,12.469,4.471,.504,9.076,1.109,13.397,.004,4.155-1.034,8.317-4.941,7.758-9.516-.909-4.625-5.767-6.995-9.481-9.208h0Z"/>
        </g>
        <path d="M185.71,538.506c-.53,10.117-11.553,18.198-21.443,16.087,2.346-.736,4.548-1.473,6.622-2.438,6.42-2.786,11.223-7.655,14.821-13.649h0Z"/>
        <path d="M192.418,542.835c.806,7.257-5.819,14.5-13.112,14.382,5.49-3.959,9.714-8.521,13.112-14.382h0Z"/>
        <path d="M198.887,547.57c2.721,5.096-2.912,11.964-8.442,10.268,3.96-2.709,6.563-5.851,8.442-10.268h0Z"/>
        <path d="M197.417,543.511c10.448,2.383,14.226,13.764,4.038,19.626-10.339,4.689-25.179,.765-35.133-3.488-6.205-2.713-12.015-6.224-17.277-10.381,14.406,7.441,30.348,14.284,46.825,12.723,4.433-.422,9.014-3.185,9.64-7.874,.45-4.911-3.813-8.651-8.092-10.606h0Z"/>
      </g>
      <path class="cls-4" d="M173.633,401.851c2.672,3.581,21.989,30.355,12.676,61.212-3.734,12.37-10.731,20.963-15.668,25.955-.927,5.931-1.681,15.951,1.538,27.609,2.131,7.72,5.335,13.734,8.019,17.908-6,3.368-13.511,6.736-22.47,9.023-27.783,7.091-51.647-.771-62.257-5.087,2.306-17.927,5.574-32.271,8.145-42.095,7.162-27.356,14.044-39.239,14.686-62.76,.288-10.541,.441-20.599-5.233-30.784-3.224-5.787-6.607-8.524-9.545-15.789-3.378-8.352-3.561-16.241-3.143-21.745,9.866,4.359,25.412,9.712,45.008,10.432,31.583,1.161,55.344-10.385,65.938-16.411-.254,3.239-2.253,24.431-19.816,36.013-6.641,4.38-13.305,5.932-17.878,6.519Z"/>
      <path class="cls-1" d="M101.813,371.35c-.011,1.332,.051,3.168,.371,5.328,.296,1.996,.694,3.473,.741,3.633,.978,3.322,17.138,4.324,38.547,2.507-13.22-3.823-26.44-7.645-39.659-11.467Z"/>
      <path class="cls-7" d="M181.75,417.939c1.089,2.549,1.772,5.008,2.295,6.577,.647,1.939,1.343,4.498,1.997,8.237,2.522,14.424,.469,23.847-.023,25.965-1.127,4.85-2.683,8.477-3.534,10.436-1.402,3.228-3.91,8.878-9.025,14.758-1.629,1.873-3.127,3.314-4.218,4.301-.181,1.002-.412,2.429-.602,4.148-.288,2.609-1.081,11.34,1.533,22.254,1.998,8.338,5.248,14.875,7.988,19.396-3.424-4.213-8.182-11.278-10.674-21.01-.501-1.955-1.972-8.166-1.647-16.369,.199-5.008,1.006-9.214,1.811-12.348,2.528-2.603,5.802-6.484,8.702-11.752,2.065-3.75,4.754-9.682,6.001-17.154,1.875-11.232-.003-20.076-2.53-31.343-1.617-7.21-3.52-13.069-4.988-17.141,3.683,4.329,5.741,8.298,6.914,11.043Z"/>
      <path class="cls-2" d="M95.895,566.321c2.203,3.543,5.889,8.598,11.661,13.214,12.341,9.871,25.765,10.875,41.736,12.274,23.373,2.048,40.65-2.773,45.039-4.076,14.819-4.4,23.042-9.493,26.192-11.746,2.501-1.79,4.464-3.443,5.802-4.633-.034,.281-.091,.689-.193,1.173-.429,2.047-2.119,7.73-12.679,13.75-2.291,1.306-7.085,3.702-18.502,6.619-7.392,1.888-15.901,3.441-25.478,4.159-11.681,.875-20.818,.198-24.896-.181-11.581-1.077-21.094-2.054-31.636-7.593-8.591-4.513-11.767-8.247-13.34-10.802-2.863-4.646-3.542-9.3-3.705-12.158Z"/>
      <path d="M117.187,451.559c5.827,7.557,16.54,10.678,25.46,7.012-2.174,1.099-4.534,1.884-6.985,2.256-7.56,1.235-15.403-1.828-20.72-7.277,0,0,2.245-1.99,2.245-1.99h0Z"/>
      <path class="cls-6" d="M117.791,452.263c1.268,1.516,4.685,5.189,10.487,6.929,6.507,1.951,11.939,.249,13.735-.401-2.923,.106-6.805-.053-11.221-1.086-5.748-1.344-10.138-3.639-13-5.441Z"/>
      <path class="cls-6" d="M116.406,458.309c.837,1.074,2.677,3.131,5.751,4.456,2.434,1.049,4.619,1.199,5.911,1.188-1.537-.337-3.383-.878-5.38-1.769-2.706-1.208-4.793-2.659-6.282-3.875Z"/>
      <path d="M116.114,457.877c2.691,3.84,7.347,6.173,12.07,6.072-2.374,.201-4.817-.174-7.05-1.119-2.236-.937-4.248-2.442-5.814-4.345l.794-.608h0Z"/>
    </g>
  </g>
</svg>