<?xml version="1.0" encoding="UTF-8"?>
<svg id="_Слой_13" data-name="Слой 13" xmlns="http://www.w3.org/2000/svg" viewBox="0 0 820.202 550.415">
  <defs>
    <style>
      .cls-1 {
        fill: #943e3e;
      }

      .cls-1, .cls-2, .cls-3, .cls-4, .cls-5 {
        stroke-linejoin: round;
        stroke-width: 2px;
      }

      .cls-1, .cls-3, .cls-5 {
        stroke: #000;
      }

      .cls-6 {
        fill: #fff;
      }

      .cls-7 {
        fill: #521908;
      }

      .cls-8 {
        fill: #fd9753;
      }

      .cls-9 {
        fill: #d1d1d1;
      }

      .cls-2 {
        stroke: #ad4848;
      }

      .cls-2, .cls-3, .cls-5 {
        fill: none;
      }

      .cls-10 {
        fill: #9e4e26;
      }

      .cls-11 {
        fill: #fbaea1;
      }

      .cls-12 {
        opacity: .49;
      }

      .cls-12, .cls-13 {
        fill: #fdbe95;
      }

      .cls-14 {
        fill: #fe9d84;
      }

      .cls-15 {
        fill: #df7043;
      }

      .cls-16 {
        fill: #d6d6d6;
      }

      .cls-17 {
        fill: #ad4848;
      }

      .cls-18 {
        fill: #ffae6c;
      }

      .cls-19 {
        fill: #de6c36;
      }

      .cls-20 {
        fill: #fead6b;
      }

      .cls-4 {
        fill: #9b3d24;
        stroke: #472315;
      }

      .cls-4, .cls-5 {
        stroke-linecap: round;
      }

      .cls-21 {
        fill: #72250a;
        stroke: #4f1a07;
        stroke-miterlimit: 10;
      }

      .cls-22 {
        fill: #753300;
      }

      .cls-23 {
        fill: #febfaf;
      }

      .cls-24 {
        fill: #e68473;
      }
    </style>
  </defs>
  <g id="_Слой_6" data-name="Слой 6">
    <g id="_Слой_5" data-name="Слой 5">
      <g id="_Слой_3" data-name="Слой 3">
        <path class="cls-8" d="M321.256,66.783c.328-2.629,1.353-7.917,5.192-13.181,1.47-2.016,5.213-7.005,11.973-9.365,7.989-2.789,15.148-.146,20.23,1.729,3.042,1.123,7.568,2.847,11.856,7.089,1.381,1.367,3.259,4.511,7.016,10.801,0,0,3.255,5.45,3.1,10.011-.017,.512-.067,1.608-.688,1.891-.735,.336-1.792-.685-1.865-.758-1.132-1.117-1.016-2.786-.974-3.21,.435,2.287,.591,4.221,.649,5.629,.022,.526,.116,3.211-.44,6.661-.552,3.422-1.113,3.682-1.351,3.712-.41,.051-.787-.467-.994-.758-1.552-2.185-.862-5.677-.515-7.088,.028,1.408-.108,3.607-1.084,6.03-.384,.954-1.058,2.342-2.835,4.521-1.478,1.812-3.787,4.645-7.808,7.073-2.283,1.379-7.499,4.53-14.322,3.831-2.761-.283-4.928-1.108-6.272-1.727,2.109,.198,3.546,1.232,3.661,2.363,.038,.372-.046,.962-.459,1.261-.814,.59-2.306-.393-5.228-1.981-1.102-.599-2.746-1.468-4.814-2.465-4.677-10.69-9.353-21.38-14.03-32.071Z"/>
        <path class="cls-23" d="M338.091,74.573c1.692-3.153,3.074-5.712,5.205-8.875,3.227-4.79,5.049-7.495,8.508-9.851,2.4-1.634,6.008-4.091,9.82-3.01,3.098,.879,4.753,3.647,5.953,5.656,2.864,4.793,2.731,9.612,2.666,11.201-.344,8.483-5.541,14.221-7.447,16.326-2.424,2.677-8.023,8.859-16.755,9.212-4.417,.178-7.954-1.203-9.985-2.205-1.027-2.7-2.054-5.4-3.081-8.101,1.146-2.534,2.847-6.127,5.115-10.353Z"/>
        <path class="cls-14" d="M363.79,53.877c.451,1.794-9.448,3.465-10.535,9.319-.47,2.533,.977,4.402-.517,6.871-.994,1.643-2.264,1.854-2.739,3.604-.459,1.689,.557,2.109,.592,4.26,.027,1.645-.993,3.708-3.033,7.767-1.102,2.191-1.368,2.511-1.299,3.268,.244,2.666,4.323,3.548,4.068,4.732-.286,1.325-5.517,1.151-6.279,1.126-3.316-.11-6.234-.206-7.348-2.039-.62-1.02-.474-2.071-1.585-4.146-1.14-2.129-2.056-2.343-2.395-3.385-1.051-3.232,2.268-5.951,7.212-13.343,4.074-6.092,3.71-7.072,7.363-11.518,4.303-5.237,6.894-6.416,8.578-6.937,3.583-1.109,7.639-.69,7.917,.42Z"/>
        <path class="cls-10" d="M332.492,84.513c1.042-2.25,2.612-5.47,4.737-9.241,2.396-4.252,4.739-8.409,5.683-8.065,.936,.341,.041,4.936-.294,6.476-.331,1.523-.8,3.68-2.306,5.903-1.832,2.704-4.075,3.851-3.885,4.138,.157,.237,1.839-.322,3.318-1.49,1.823-1.439,1.701-2.508,3.56-4.336,.298-.293,3.054-2.964,4.235-2.266,.982,.58,.394,3.202,.222,3.967-.235,1.047-.752,3.356-2.675,4.737-1.277,.918-3.487,1.649-4.082,1.846-1.029,.341-1.743,.49-1.866,.987-.122,.492,.458,.837,1.522,2.14,.701,.859,1.397,1.724,1.808,2.878,.044,.124,.817,2.347,.055,2.866-.457,.312-1.335-.081-1.85-.485-1.035-.812-.881-1.892-1.561-2.095-.744-.222-1.309,.955-2.031,1.027-1.029,.104-2.482-2.016-4.59-8.988Z"/>
        <path class="cls-19" d="M327.022,52.83c.671,1.787,1.733,4.012,3.449,6.281,3.655,4.834,8.21,7.144,10.671,8.165-3.032,5.718-6.064,11.436-9.096,17.154,.533,1.03,1.262,2.568,1.935,4.514,.857,2.477,.82,3.291,1.483,4.185,.867,1.168,2.78,2.268,7.399,1.899,.713,1.096,1.782,3.056,2.151,5.72,.215,1.552,.326,2.347-.106,2.711-1.279,1.079-6.771-2.1-10.541-6.445-4.354-5.019-3.025-7.692-7.896-18.306-3.395-7.396-4.981-8.148-5.217-11.924-.358-5.745,2.901-10.659,5.766-13.953Z"/>
        <path class="cls-13" d="M365.407,48.979c-2.728-1.906-6.399-4.471-8.545-3.109-1.967,1.248-2.265,5.55-.606,6.91,1.214,.995,2.696-.222,4.897,.044,4.434,.535,7.656,6.591,8.881,10.687,2.069,6.914-1.205,9.395,1.213,16.939,1.196,3.729,3.436,7.616,4.705,7.343,1.22-.263,1.685-4.4,1.708-6.735,.03-3.148-.728-4.974,.408-6.058,.973-.928,2.18-.21,2.907-.935,.882-.879,.571-3.396-3.453-10.209-3.812-6.454-6.563-10.998-12.115-14.877Z"/>
        <path class="cls-5" d="M321.256,66.783c.328-2.629,1.353-7.917,5.192-13.181,1.47-2.016,5.213-7.005,11.973-9.365,7.989-2.789,15.148-.146,20.23,1.729,3.042,1.123,7.568,2.847,11.856,7.089,1.381,1.367,3.259,4.511,7.016,10.801,0,0,3.255,5.45,3.1,10.011-.017,.512-.067,1.608-.688,1.891-.735,.336-1.792-.685-1.865-.758-1.132-1.117-1.016-2.786-.974-3.21,.435,2.287,.591,4.221,.649,5.629,.022,.526,.116,3.211-.44,6.661-.552,3.422-1.113,3.682-1.351,3.712-.41,.051-.787-.467-.994-.758-1.552-2.185-.862-5.677-.515-7.088,.028,1.408-.108,3.607-1.084,6.03-.384,.954-1.058,2.342-2.835,4.521-1.478,1.812-3.787,4.645-7.808,7.073-2.283,1.379-7.499,4.53-14.322,3.831-2.761-.283-4.928-1.108-6.272-1.727,2.109,.198,3.546,1.232,3.661,2.363,.038,.372-.046,.962-.459,1.261-.814,.59-2.306-.393-5.228-1.981-1.102-.599-2.746-1.468-4.814-2.465-4.677-10.69-9.353-21.38-14.03-32.071Z"/>
        <path class="cls-5" d="M338.091,74.573c1.692-3.153,3.074-5.712,5.205-8.875,3.227-4.79,5.049-7.495,8.508-9.851,2.4-1.634,6.008-4.091,9.82-3.01,3.098,.879,4.753,3.647,5.953,5.656,2.864,4.793,2.731,9.612,2.666,11.201-.344,8.483-5.541,14.221-7.447,16.326-2.424,2.677-8.023,8.859-16.755,9.212-4.417,.178-7.954-1.203-9.985-2.205-1.027-2.7-2.054-5.4-3.081-8.101,1.146-2.534,2.847-6.127,5.115-10.353Z"/>
        <path d="M369.795,84.442c.222-7.045,.287-13.883,.239-20.931,2.809,6.561,2.711,14.435-.239,20.931h0Z"/>
        <path class="cls-5" d="M332.976,84.927c1.009-2.317,2.525-5.627,4.574-9.519,2.313-4.393,4.477-8.503,5.363-8.201,.859,.293,.116,4.594-.294,6.476-.331,1.523-.8,3.68-2.306,5.903-1.832,2.704-4.075,3.851-3.885,4.138,.157,.237,1.839-.322,3.318-1.49,1.823-1.439,1.701-2.508,3.56-4.336,.298-.293,3.054-2.964,4.235-2.266,.982,.58,.394,3.202,.222,3.967-.235,1.047-.752,3.356-2.675,4.737-1.277,.918-3.487,1.649-4.082,1.846-1.029,.341-1.743,.49-1.866,.987-.122,.492,.458,.837,1.522,2.14,.701,.859,1.397,1.724,1.808,2.878,.044,.124,.817,2.347,.055,2.866-.469,.319-1.361-.114-1.85-.485-.995-.755-.85-1.652-1.561-2.095-.45-.28-1.301-.413-3.057,.554-1.027-2.7-2.054-5.4-3.081-8.101Z"/>
      </g>
      <g id="_Слой_4" data-name="Слой 4">
        <path class="cls-8" d="M248.256,42.306c1.358-2.275,3.803-7.075,4.013-13.586,.081-2.493,.198-8.729-3.681-14.749-4.584-7.112-11.854-9.432-17.015-11.079-3.089-.986-7.719-2.41-13.708-1.702-1.93,.228-5.345,1.553-12.175,4.201,0,0-5.919,2.296-8.601,5.987-.301,.414-.936,1.309-.621,1.914,.373,.717,1.834,.562,1.937,.55,1.58-.185,2.515-1.572,2.742-1.932-1.75,1.536-3.062,2.964-3.974,4.04-.341,.402-2.066,2.46-3.75,5.523-1.67,3.038-1.387,3.588-1.218,3.758,.292,.292,.907,.116,1.25,.013,2.567-.769,4.171-3.946,4.765-5.272-.888,1.093-2.133,2.91-2.855,5.421-.284,.988-.606,2.498-.545,5.308,.051,2.338,.129,5.991,1.806,10.38,.952,2.492,3.127,8.184,8.937,11.83,2.351,1.475,4.567,2.157,6.007,2.496-1.784-1.141-3.554-1.21-4.34-.389-.258,.27-.555,.787-.414,1.276,.279,.966,2.06,1.108,5.34,1.653,1.238,.206,3.068,.532,5.312,1.017,10.263-5.553,20.525-11.106,30.787-16.659Z"/>
        <path class="cls-23" d="M230.19,38.094c.605-3.527,1.089-6.395,1.355-10.199,.402-5.761,.629-9.015-.65-13-.887-2.764-2.221-6.921-5.891-8.413-2.983-1.213-5.991-.047-8.172,.798-5.206,2.018-8.066,5.899-8.992,7.192-4.946,6.901-4.378,14.621-4.17,17.453,.265,3.601,.877,11.92,7.546,17.569,3.373,2.857,7.011,3.944,9.229,4.402,2.47-1.497,4.941-2.995,7.411-4.492,.655-2.703,1.524-6.582,2.335-11.31Z"/>
        <path class="cls-14" d="M222.656,5.97c-1.459,1.137,5.319,8.543,2.575,13.828-1.187,2.286-3.478,2.87-3.818,5.736-.227,1.907,.645,2.854-.057,4.526-.677,1.614-1.736,1.32-3.087,2.995-1.033,1.28-1.497,3.534-2.385,7.99-.479,2.405-.466,2.821-.986,3.376-1.832,1.952-5.591,.139-6.118,1.229-.59,1.22,3.642,4.301,4.258,4.75,2.682,1.953,5.043,3.672,7.048,2.912,1.116-.423,1.648-1.342,3.8-2.294,2.208-.977,3.063-.583,3.97-1.196,2.817-1.902,1.871-6.087,2.52-14.956,.535-7.309,1.424-7.858,1.278-13.611-.172-6.776-1.49-9.299-2.497-10.745-2.143-3.078-5.599-5.242-6.501-4.538Z"/>
        <path class="cls-10" d="M228.491,49.375c.562-2.415,1.305-5.92,1.949-10.2,.726-4.826,1.435-9.545,.479-9.855-.948-.307-3.068,3.867-3.751,5.287-.676,1.405-1.632,3.393-1.812,6.073-.219,3.258,.845,5.543,.518,5.653-.27,.09-1.252-1.385-1.7-3.215-.552-2.256,.201-3.024-.14-5.608-.055-.414-.585-4.215-1.945-4.392-1.131-.147-2.28,2.282-2.615,2.991-.459,.97-1.471,3.109-.804,5.381,.443,1.509,1.735,3.445,2.083,3.966,.602,.901,1.073,1.459,.864,1.926-.207,.463-.876,.378-2.516,.751-1.081,.246-2.162,.501-3.196,1.158-.111,.07-2.088,1.348-1.806,2.226,.169,.527,1.103,.757,1.757,.755,1.315-.004,1.858-.95,2.52-.691,.723,.283,.445,1.558,.97,2.059,.747,.714,3.197-.063,9.147-4.264Z"/>
        <path class="cls-19" d="M252.291,27.758c-1.628,.997-3.834,2.097-6.583,2.831-5.855,1.564-10.867,.583-13.436-.125-1.126,6.373-2.252,12.747-3.378,19.12-1.053,.484-2.575,1.249-4.302,2.369-2.199,1.426-2.671,2.091-3.744,2.388-1.402,.387-3.587,.078-7.002-3.054-1.236,.426-3.284,1.314-5.215,3.187-1.124,1.091-1.7,1.65-1.584,2.202,.345,1.637,6.631,2.509,12.276,1.401,6.521-1.279,7.116-4.205,17.485-9.578,7.226-3.744,8.939-3.361,11.447-6.194,3.816-4.31,4.269-10.189,4.035-14.548Z"/>
        <path class="cls-13" d="M224.393,1.113c3.324,.175,7.796,.411,8.65,2.804,.783,2.194-1.627,5.769-3.772,5.821-1.569,.038-1.99-1.833-3.888-2.977-3.825-2.305-10.09,.488-13.576,2.964-5.884,4.179-4.829,8.149-11.375,12.61-3.236,2.205-7.393,3.892-8.226,2.896-.8-.958,1.377-4.506,2.796-6.36,1.913-2.5,3.634-3.474,3.404-5.028-.197-1.33-1.589-1.506-1.717-2.525-.154-1.236,1.638-3.029,9.001-5.926,6.975-2.744,11.939-4.635,18.703-4.279Z"/>
        <path class="cls-5" d="M248.256,42.306c1.358-2.275,3.803-7.075,4.013-13.586,.081-2.493,.198-8.729-3.681-14.749-4.584-7.112-11.854-9.432-17.015-11.079-3.089-.986-7.719-2.41-13.708-1.702-1.93,.228-5.345,1.553-12.175,4.201,0,0-5.919,2.296-8.601,5.987-.301,.414-.936,1.309-.621,1.914,.373,.717,1.834,.562,1.937,.55,1.58-.185,2.515-1.572,2.742-1.932-1.75,1.536-3.062,2.964-3.974,4.04-.341,.402-2.066,2.46-3.75,5.523-1.67,3.038-1.387,3.588-1.218,3.758,.292,.292,.907,.116,1.25,.013,2.567-.769,4.171-3.946,4.765-5.272-.888,1.093-2.133,2.91-2.855,5.421-.284,.988-.606,2.498-.545,5.308,.051,2.338,.129,5.991,1.806,10.38,.952,2.492,3.127,8.184,8.937,11.83,2.351,1.475,4.567,2.157,6.007,2.496-1.784-1.141-3.554-1.21-4.34-.389-.258,.27-.555,.787-.414,1.276,.279,.966,2.06,1.108,5.34,1.653,1.238,.206,3.068,.532,5.312,1.017,10.263-5.553,20.525-11.106,30.787-16.659Z"/>
        <path class="cls-5" d="M230.19,38.094c.605-3.527,1.089-6.395,1.355-10.199,.402-5.761,.629-9.015-.65-13-.887-2.764-2.221-6.921-5.891-8.413-2.983-1.213-5.991-.047-8.172,.798-5.206,2.018-8.066,5.899-8.992,7.192-4.946,6.901-4.378,14.621-4.17,17.453,.265,3.601,.877,11.92,7.546,17.569,3.373,2.857,7.011,3.944,9.229,4.402,2.47-1.497,4.941-2.995,7.411-4.492,.655-2.703,1.524-6.582,2.335-11.31Z"/>
        <path d="M199.122,26.377c1.669-6.937,6.436-13.205,12.685-16.651-4.372,5.528-8.528,10.959-12.685,16.651h0Z"/>
        <path class="cls-5" d="M227.855,49.404c.629-2.447,1.47-5.99,2.249-10.319,.878-4.886,1.7-9.458,.815-9.765-.857-.298-2.917,3.551-3.751,5.287-.676,1.405-1.632,3.393-1.812,6.073-.219,3.258,.845,5.543,.518,5.653-.27,.09-1.252-1.385-1.7-3.215-.552-2.256,.201-3.024-.14-5.608-.055-.414-.585-4.215-1.945-4.392-1.131-.147-2.28,2.282-2.615,2.991-.459,.97-1.471,3.109-.804,5.381,.443,1.509,1.735,3.445,2.083,3.966,.602,.901,1.073,1.459,.864,1.926-.207,.463-.876,.378-2.516,.751-1.081,.246-2.162,.501-3.196,1.158-.111,.07-2.088,1.348-1.806,2.226,.173,.54,1.144,.747,1.757,.755,1.249,.017,1.686-.78,2.52-.691,.527,.056,1.28,.474,2.07,2.316,2.47-1.497,4.941-2.995,7.411-4.492Z"/>
      </g>
    </g>
    <g id="_Слой_11" data-name="Слой 11">
      <path class="cls-8" d="M236.812,174.146c-3.847-.811-13.318-3.011-26.075-8.773-8.937-4.036-15.06-6.802-22.439-12.447-4.322-3.307-12.958-10.04-19.119-20.915-1.891-3.337-.546-1.766-6.067-14.501-.829-1.913-1.776-4.063-1.603-6.929,.166-2.764,1.298-4.93,2.408-7.055,1.978-3.788,4.162-6.052,4.057-6.138-.092-.075-1.953,1.52-3.554,4.1-1.632,2.63-1.458,3.807-3.344,6.794-.533,.844-2.212,3.502-2.917,3.222-.56-.223-.215-2.302,.032-3.795,.287-1.732,.739-3.348,1.428-5.191,1.111-2.974,1.667-4.46,2.918-5.839,1.804-1.989,3.984-2.773,3.999-2.749,.014,.023-1.847,.858-3.999,2.749-1.702,1.496-2.442,2.649-2.886,2.44-.442-.208-.272-1.623,0-2.617,.763-2.79,3.235-4.099,7.228-6.571,6.807-4.212,5.483-4.035,9.457-6.156,4.334-2.313,6.569-3.477,9.89-3.857,2.932-.335,5.892,.027,5.897-.075,.003-.066-1.255-.061-3.006-.459-.785-.178-2.586-.646-4.572-1.822-.295-.175-2.305-1.365-2.145-1.732,.149-.345,2.096,.292,3.731,.644,0,0,4.914,1.056,10.1-.291,1.605-.417,3.456-1.21,9.89-7.347,6.217-5.93,5.656-6.304,10.503-10.773,5.056-4.662,4.957-3.601,11.336-9.359,2.695-2.432,3.752-3.56,6.044-4.622,3.504-1.625,7.36-1.923,9.158-2.062,1.607-.124,2.956-.116,3.916-.082-1.139,.045-2.454,.079-3.916,.082-1.588,.004-2.867-.03-4.273-.682-.549-.255-.979-.46-.994-.758-.045-.93,3.96-1.836,5.127-2.1,11.053-2.5,25.936-.002,25.936-.002,4.885,.82,11.891,2.033,20.785,5.262,8.957,3.253,15.15,6.852,19.433,9.37,0,0,13.011,7.649,19.871,16.668,.728,.957,3.21,4.221,2.578,4.904-.201,.217-.663,.098-1.248-.057-1.505-.401-2.517-1.194-3.448-1.964-.952-.787-2.039-1.731-3.211-2.839,.757,.591,1.796,1.452,2.948,2.579,1.288,1.261,4.051,3.968,5.692,7.464,1.073,2.287,1.158,3.83,1.661,7.425,1.189,8.511,1.794,7.635,2.672,14.455,.842,6.538,.172,6.464,1.125,15.003,.986,8.837,1.895,10.634,2.857,11.985,3.108,4.364,7.551,6.713,7.551,6.713,1.479,.782,3.38,1.544,3.273,1.904-.114,.384-2.419,.005-2.757-.051-2.278-.375-3.958-1.174-4.674-1.542-1.597-.82-2.558-1.633-2.598-1.58-.062,.081,2.439,1.706,4.47,3.847,2.301,2.425,3.264,4.753,5.099,9.311,1.682,4.179,.782,3.193,3.291,10.794,1.472,4.46,2.525,7.051,1.316,9.679-.485,1.056-1.238,2.125-1.682,2.006-.583-.157-.178-2.227-.935-5.495-.381-1.644-.903-2.93-1.006-2.904-.146,.037,.867,2.617,.731,6.056-.094,2.385-.702,4.24-1.09,5.393-.721,2.147-1.571,3.584-2.102,4.47-.851,1.42-1.864,3.111-2.414,2.929-.72-.238-.299-3.354-.165-4.343,.474-3.501,1.364-4.291,1.803-7.354,.445-3.104-.064-5.427-.088-5.426-.029,.001,.606,3.288-.286,7.274-.28,1.251-.98,4.229-3.238,6.989-1.818,2.221-3.809,3.342-5.681,4.279-12.413,6.211-10.373,5.87-13.966,7.212-11.709,4.374-22.652,3.983-28.089,3.74-9.06-.406-15.31-2.14-25.191-4.882-13.673-3.794-21.957-8.036-25.616-10.034-1.887-1.03-3.418-1.94-4.457-2.573-1.284-.208-3.141-.531-5.362-.999Z"/>
      <path class="cls-6" d="M340.495,180.669c3.431-3.458,3.832-8.145,4.025-10.404,.144-1.68,.428-7.335-2.876-13.023-3.791-6.524-10.187-9.446-15.848-12.032-1.896-.866-3.52-1.465-4.642-1.847,.903-1.01,1.795-2.366,1.491-3.661-.389-1.652-2.609-2.709-9.672-4.154-8.062-1.649-13.455-2.04-13.455-2.04-4.147-.301-9.644-.514-16.168-.251,.19-1.431,.385-3.535,.307-6.075-.113-3.69-.264-8.607-3.188-13.692-.954-1.658-3.363-5.72-8.334-8.267-1.426-.73-4.153-2.088-7.75-2.027-4.486,.077-7.565,2.314-12.011,5.545-4.766,3.463-7.743,7.28-9.063,8.996-.755,.983-1.35,1.835-1.764,2.452-5.169-4.906-9.89-8.355-13.409-10.669-1.783-1.172-.437-.198-7.055-4.153-4.901-2.928-8.485-5.163-11.665-4.561-.552,.105-1.765,.334-2.395,1.349-.613,.989-.323,2.158-.21,2.541-1.612-.95-4.045-2.206-7.176-3.166-3.846-1.179-10.375-3.182-17.365-.449-7.027,2.748-10.386,8.664-12.107,11.696-1.015,1.788-2.873,5.146-3.166,9.793-.061,.959-.165,2.825,.356,5.126,.706,3.119,2.159,5.268,4.444,8.279,3.618,4.768,5.426,7.151,7.973,9.666,10.33,10.2,26.803,17.839,28.324,18.533,7.849,3.586,19.433,7.966,34.259,10.478,2.423,1.696,5.869,3.901,10.232,6.044,1.604,.788,4.917,2.346,12.093,4.742,6.793,2.267,12.578,4.198,20.58,5.65,5.75,1.043,10.994,1.994,18.211,1.754,3.742-.124,10.789-.412,18.977-3.327,1.291-.46,.009-.058,11.291-5.092,4.24-1.892,5.397-2.384,6.759-3.756Z"/>
      <path class="cls-16" d="M167.353,127.699c-1.381-5.77,.749-11.11,2.427-14.233,1.566-.162,3.873-.265,6.586,.142,13.376,2.007,20.687,14.039,27.066,21.744,15.341,18.528,36.544,25.623,48.544,29.638,11.297,3.78,25.973,8.69,44.3,6.203,13.664-1.855,27.354-7.549,41.015-.465,2.939,1.524,5.092,3.233,6.402,4.38-.826,3.878-2.511,5.778-3.71,6.752-.623,.506-1.07,.725-4.738,2.559-5.131,2.565-4.931,2.473-5.139,2.572-2.925,1.385-8.923,3.658-16.172,4.952-9.261,1.652-16.616,.994-21.208,.563-4.432-.415-11.388-1.37-24.936-5.582-10.908-3.391-14.047-5.15-30.621-11.537-22.876-8.815-22.344-7.564-31.761-12.111,0,0-16.977-8.196-27.907-19.433-4.138-4.254-6.619-8.528-7.124-9.413-1.355-2.373-2.432-4.259-3.023-6.731Z"/>
      <g>
        <path class="cls-15" d="M337.235,109.205c-1.252,.547-2.875,1.114-4.818,1.454-3.109,.545-5.751,.286-7.521-.04,.36-1.266,1.169-4.759-.355-8.616-1.576-3.99-4.677-5.907-6.227-6.865-6.63-4.099-13.744-2.278-14.824-1.983-4.508,1.231-7.3,3.804-9.061,5.464-1.678,1.583-7.786,7.345-7.862,15.981-.017,1.936-.054,6.162,2.8,9.743,3.03,3.802,7.523,4.624,10.939,5.249,1.613,.295,3.678,.527,15.627-.66,7.49-.744,8.23-.989,11.252-1.062,5.584-.134,10.134,.534,13.08,1.11-.794-2.721-1.537-5.831-2.09-9.29-.618-3.861-.878-7.393-.94-10.486Z"/>
        <path class="cls-15" d="M212.384,63.148c.608,1.224,1.487,2.7,2.757,4.21,2.032,2.415,4.223,3.915,5.788,4.802,.538-1.201,2.163-4.397,5.808-6.374,3.772-2.044,7.379-1.521,9.183-1.259,7.714,1.12,11.995,7.087,12.633,8.006,2.663,3.84,3.15,7.606,3.431,10.009,.268,2.291,1.246,10.631-4.245,17.297-1.231,1.495-3.918,4.756-8.407,5.666-4.765,.966-8.735-1.291-11.754-3.008-1.426-.81-3.157-1.959-11.55-10.547-5.261-5.383-5.67-6.046-7.939-8.044-4.192-3.691-8.108-6.103-10.735-7.554,2.357-1.574,4.925-3.48,7.571-5.775,2.955-2.561,5.423-5.101,7.458-7.43Z"/>
      </g>
      <g id="_Слой_20" data-name="Слой 20">
        <path class="cls-12" d="M318.553,86.526c2.707-.767,3.836-7.684,2.036-8.792-1.594-.982-4.927,2.936-6.284,1.941-1.573-1.153,1.704-7.295,.185-8.316-1.136-.764-3.679,2.196-5.056,1.355-1.542-.942,.386-5.424-1.262-6.485-1.338-.862-3.559,1.482-4.763,.603-1.35-.985,.672-4.494-.878-5.935-1.214-1.129-3.068,.456-4.543-.642-1.928-1.436-.036-5.096-2.142-6.961-1.017-.901-1.593-.166-3.682-.972-3.553-1.371-3.443-4.1-6.373-4.819-2.298-.564-3.04,.949-4.836,.109-2.331-1.091-2.153-4.14-3.883-4.379-1.175-.163-1.415,1.223-3.554,1.941-1.662,.558-4.087,.584-5.66-.679-1.378-1.106-1.178-2.458-2.106-2.62-1.452-.254-2.353,2.983-4.214,2.948-1.559-.03-1.882-2.321-3.279-2.345-2.071-.036-2.605,4.979-5.46,5.458-1.694,.284-2.438-1.326-3.865-.844-1.675,.566-1.187,2.965-2.914,5.586-2.411,3.66-5.885,2.814-6.761,5.549-.905,2.824,1.798,6.85,3.625,6.742,1.111-.066,1.236-1.622,2.84-3.352,3.568-3.845,10.079-3.831,10.222-3.332,.128,.449-4.5,2.562-4.855,2.032-.342-.512,2.741-4.32,6.595-4.614,1.005-.077,2.184,.163,4.543,.642,3.153,.641,3.188,1.002,4.177,.898,3.224-.338,4.695-4.377,5.68-3.974,1.15,.471-.822,5.985,.713,6.87,1.581,.91,5.667-3.79,6.632-3.003,.556,.453-.752,2.055-.093,4.158,.321,1.023,1.191,2.433,2.417,2.675,2.31,.456,4.519-3.5,5.203-3.095,.871,.516-2.911,6.808-1.431,8.097,1.081,.942,4.701-1.025,6.705-2.508,1.749-1.295,2.715-2.554,2.986-2.362,.58,.409-3.613,6.329-2.438,7.437,.45,.425,1.803-.04,4.507-.97,2.241-.771,2.848-1.183,3.206-.878,.982,.835-2.398,4.935-1.027,6.723,.156,.203,.346,.341,4.249,1.393,2.07,.558,2.335,.605,2.565,.935,1.08,1.552-2.052,4.438-1.174,5.733,.889,1.312,4.396-1.206,8.811,.112,2.72,.812,3.271,2.329,4.634,1.943Z"/>
      </g>
      <path class="cls-5" d="M236.812,174.146c-3.847-.811-13.318-3.011-26.075-8.773-8.937-4.036-15.06-6.802-22.439-12.447-4.322-3.307-12.958-10.04-19.119-20.915-1.891-3.337-.546-1.766-6.067-14.501-.829-1.913-1.776-4.063-1.603-6.929,.166-2.764,1.298-4.93,2.408-7.055,1.978-3.788,4.162-6.052,4.057-6.138-.092-.075-1.953,1.52-3.554,4.1-1.632,2.63-1.458,3.807-3.344,6.794-.533,.844-2.212,3.502-2.917,3.222-.56-.223-.215-2.302,.032-3.795,.287-1.732,.739-3.348,1.428-5.191,1.111-2.974,1.667-4.46,2.918-5.839,1.804-1.989,3.984-2.773,3.999-2.749,.014,.023-1.847,.858-3.999,2.749-1.702,1.496-2.442,2.649-2.886,2.44-.442-.208-.272-1.623,0-2.617,.763-2.79,3.235-4.099,7.228-6.571,6.807-4.212,5.483-4.035,9.457-6.156,4.334-2.313,6.569-3.477,9.89-3.857,2.932-.335,5.892,.027,5.897-.075,.003-.066-1.255-.061-3.006-.459-.785-.178-2.586-.646-4.572-1.822-.295-.175-2.305-1.365-2.145-1.732,.149-.345,2.096,.292,3.731,.644,0,0,4.914,1.056,10.1-.291,1.605-.417,3.456-1.21,9.89-7.347,6.217-5.93,5.656-6.304,10.503-10.773,5.056-4.662,4.957-3.601,11.336-9.359,2.695-2.432,3.752-3.56,6.044-4.622,3.504-1.625,7.36-1.923,9.158-2.062,1.607-.124,2.956-.116,3.916-.082-1.139,.045-2.454,.079-3.916,.082-1.588,.004-2.867-.03-4.273-.682-.549-.255-.979-.46-.994-.758-.045-.93,3.96-1.836,5.127-2.1,11.053-2.5,25.936-.002,25.936-.002,4.885,.82,11.891,2.033,20.785,5.262,8.957,3.253,15.15,6.852,19.433,9.37,0,0,13.011,7.649,19.871,16.668,.728,.957,3.21,4.221,2.578,4.904-.201,.217-.663,.098-1.248-.057-1.505-.401-2.517-1.194-3.448-1.964-.952-.787-2.039-1.731-3.211-2.839,.757,.591,1.796,1.452,2.948,2.579,1.288,1.261,4.051,3.968,5.692,7.464,1.073,2.287,1.158,3.83,1.661,7.425,1.189,8.511,1.794,7.635,2.672,14.455,.842,6.538,.172,6.464,1.125,15.003,.986,8.837,1.895,10.634,2.857,11.985,3.108,4.364,7.551,6.713,7.551,6.713,1.479,.782,3.38,1.544,3.273,1.904-.114,.384-2.419,.005-2.757-.051-2.278-.375-3.958-1.174-4.674-1.542-1.597-.82-2.558-1.633-2.598-1.58-.062,.081,2.439,1.706,4.47,3.847,2.301,2.425,3.264,4.753,5.099,9.311,1.682,4.179,.782,3.193,3.291,10.794,1.472,4.46,2.525,7.051,1.316,9.679-.485,1.056-1.238,2.125-1.682,2.006-.583-.157-.178-2.227-.935-5.495-.381-1.644-.903-2.93-1.006-2.904-.146,.037,.867,2.617,.731,6.056-.094,2.385-.702,4.24-1.09,5.393-.721,2.147-1.571,3.584-2.102,4.47-.851,1.42-1.864,3.111-2.414,2.929-.72-.238-.299-3.354-.165-4.343,.474-3.501,1.364-4.291,1.803-7.354,.445-3.104-.064-5.427-.088-5.426-.029,.001,.606,3.288-.286,7.274-.842,3.767-2.672,6.253-3.238,6.989-1.628,2.12-3.253,3.2-5.647,4.791-3.328,2.212-6.487,3.544-12.173,5.942-.802,.338-1.53,.647-1.827,.758-11.709,4.374-22.652,3.983-28.089,3.74-9.06-.406-15.31-2.14-25.191-4.882-13.673-3.794-21.957-8.036-25.616-10.034-1.887-1.03-3.418-1.94-4.457-2.573-1.284-.208-3.141-.531-5.362-.999Z"/>
      <g>
        <path class="cls-16" d="M221.526,160.177c.984,3.086,3.582,9.708,10.085,15.011,1.168,.952,5.121,4.031,11.206,5.822,1.407,.414,6.021,1.669,12.086,1.224,7.958-.584,13.881-3.762,17.016-5.786"/>
        <path d="M221.525,160.177c5.74,14.72,20.53,23.025,36.046,20.966,4.972-.624,9.824-2.274,14.348-4.695-4.075,3.126-8.958,5.294-14.109,6.237-15.868,3.122-32.687-6.384-36.284-22.509h0Z"/>
      </g>
      <g id="_Слой_14" data-name="Слой 14">
        <g id="_Слой_7" data-name="Слой 7">
          <g id="_Слой_8" data-name="Слой 8">
            <path class="cls-6" d="M231.785,75.951c-3.042,.64-5.032,3.207-5.894,4.32-1.026,1.324-1.701,3.17-3.051,6.861-1.216,3.325-1.827,5.023-1.95,6.749-.129,1.79-.304,4.246,1.108,6.467,.279,.438,.859,1.245,5.517,3.911,3.562,2.038,5.369,3.057,6.648,3.022,3.06-.083,5.244-2.563,6.558-4.054,2.834-3.216,3.531-6.778,3.909-8.842,.518-2.831,1.2-6.558-.585-10.459-2.082-4.552-7.367-9.004-12.259-7.975Z"/>
            <g id="_Слой_9" data-name="Слой 9">
              <path class="cls-21" d="M230.862,79.739c-2.409,.758-3.658,2.777-5.028,4.992-1.282,2.072-4.004,6.472-2.766,11.962,.242,1.07,1.626,7.204,7.134,9.059,4.555,1.534,8.551-.996,8.995-1.288,3.908-2.565,4.648-6.851,4.949-8.59,.173-1,1.175-7.431-3.287-12.221-.408-.439-5.184-5.429-9.997-3.915Z"/>
              <g>
                <path class="cls-7" d="M241.808,93.913c-.2,.652-1.9,5.906-6.666,7.056-4.638,1.119-8.009-2.654-8.391-3.096-3.508-4.064-2.056-9.534-1.891-10.116,.369-1.305,1.855-5.678,5.947-7.179,.383-.141,3.021-1.063,5.779,.103,4.392,1.857,6.812,8.047,5.223,13.232Z"/>
                <g>
                  <path d="M237.646,91.289c-.172,.537-1.615,4.874-4.833,6.092-3.132,1.184-5.13-1.651-5.355-1.984-2.07-3.061-.778-7.558-.634-8.037,.323-1.074,1.571-4.689,4.365-6.146,.262-.137,2.061-1.041,3.812-.269,2.789,1.229,4.01,6.07,2.645,10.345Z"/>
                  <path class="cls-6" d="M232.328,86.574c-.034,.111-.322,1.008-1.173,1.19-.828,.177-1.445-.481-1.515-.558-.642-.709-.399-1.644-.372-1.743,.062-.223,.314-.969,1.043-1.214,.068-.023,.538-.173,1.037,.036,.794,.333,1.247,1.404,.979,2.289Z"/>
                </g>
              </g>
            </g>
            <path class="cls-5" d="M231.785,75.951c-3.042,.64-5.032,3.207-5.894,4.32-1.026,1.324-1.701,3.17-3.051,6.861-1.216,3.325-1.827,5.023-1.95,6.749-.129,1.79-.304,4.246,1.108,6.467,.279,.438,.859,1.245,5.517,3.911,3.562,2.038,5.369,3.057,6.648,3.022,3.06-.083,5.244-2.563,6.558-4.054,2.834-3.216,3.531-6.778,3.909-8.842,.518-2.831,1.2-6.558-.585-10.459-2.082-4.552-7.367-9.004-12.259-7.975Z"/>
          </g>
          <g>
            <path class="cls-18" d="M230.279,108.742c.824,.083,1.704,.142,2.636,.166,1.25,.032,2.415-.004,3.48-.082-1.847-3.869-4.217-6.244-5.679-7.499-2.911-2.499-5.9-3.717-8.08-4.605-1.572-.641-2.924-1.063-3.878-1.332,.195,1.09,.436,2.24,.732,3.439,.269,1.089,.558,2.119,.859,3.088"/>
            <path class="cls-22" d="M230.279,108.742c2.031-.094,4.06-.314,6.072-.525,0,0-.506,.871-.506,.871-2.709-4.894-6.956-8.655-12.066-10.899-1.487-.725-3.665-1.515-5.197-2.168,0,0,.824-.748,.824-.748,.282,2.217,.615,4.416,.944,6.643-.946-2.061-1.644-4.218-2.237-6.411-.152-.48,.364-.94,.824-.748,5.698,1.392,11.477,3.819,15.085,8.673,1.249,1.592,2.23,3.374,2.963,5.231,.115,.289-.025,.617-.314,.733-2.144,.073-4.298-.201-6.392-.653h0Z"/>
          </g>
          <path class="cls-20" d="M237.778,74.522c-3.267-.916-5.971-.167-7.208,.193-3.626,1.056-5.867,3.265-6.802,4.307,1.373-.349,3.676-.751,6.47-.343,.726,.106,4.084,.646,7.542,3.141,.484,.349,2.765,2.032,4.766,5.105,1.858,2.855,2.607,5.579,2.938,7.295,.365-.983,.795-2.386,1.019-4.11,.286-2.197,.858-6.618-1.88-10.638-.521-.765-2.712-3.79-6.844-4.949Z"/>
          <path d="M237.531,74.512c-4.811-.594-10.043,.865-13.298,4.501-.011,.032-.047,.111-.011,.017-.01,.013,.034-.153-.021-.272-.022-.099-.182-.309-.27-.355-.233-.114-.165-.064-.136-.077,10.516-3.116,21.216,6.38,21.891,16.721-2.095-7.218-7.855-13.489-15.213-15.138-2.243-.559-4.399,.049-6.674,.253-.374,.033-1.194-.236-1.321-.854-.069-.238-.064-.527-.021-.629,.555-1.558,2.183-2.324,3.45-3.1,3.495-1.977,7.865-2.391,11.626-1.066h0Z"/>
        </g>
        <g id="_Слой_10" data-name="Слой 10">
          <path class="cls-6" d="M317.408,104.519c1.92,2.444,1.795,5.691,1.74,7.097-.065,1.674-.733,3.522-2.071,7.218-1.205,3.329-1.828,5.023-2.842,6.424-1.052,1.454-2.495,3.449-5.004,4.244-.495,.157-1.458,.402-6.74-.549-4.039-.727-6.078-1.108-7.036-1.956-2.291-2.03-2.371-5.334-2.42-7.321-.105-4.285,1.65-7.463,2.686-9.286,1.422-2.502,3.295-5.795,7.169-7.638,4.521-2.15,11.43-2.165,14.518,1.767Z"/>
          <path class="cls-21" d="M315.68,108.015c1.359,2.128,1.018,4.479,.645,7.056-.349,2.411-1.091,7.532-5.567,10.942-.873,.665-5.875,4.475-11.287,2.357-4.476-1.751-5.911-6.258-6.065-6.767-1.346-4.477,.841-8.236,1.728-9.761,.51-.877,3.874-6.449,10.371-7.251,.595-.074,7.461-.828,10.175,3.424Z"/>
          <g>
            <path class="cls-7" d="M296.741,112.125c-.266,.628-2.339,5.746,.574,9.69,2.834,3.838,7.842,3.113,8.419,3.02,5.3-.86,7.702-5.984,7.95-6.536,.556-1.237,2.228-5.543,.056-9.321-.203-.354-1.632-2.756-4.494-3.635-4.559-1.4-10.391,1.789-12.505,6.783Z"/>
            <g>
              <path d="M298.583,112.748c-.214,.522-1.895,4.773-.211,7.773,1.639,2.92,4.991,2.031,5.378,1.921,3.553-1.015,5.453-5.291,5.65-5.751,.442-1.031,1.809-4.602,.605-7.515-.113-.273-.91-2.122-2.748-2.655-2.926-.851-6.973,2.074-8.674,6.227Z"/>
              <path class="cls-6" d="M301.828,111.148c-.046,.107-.401,.979,.134,1.666,.521,.668,1.416,.56,1.52,.545,.948-.131,1.362-1.003,1.405-1.097,.096-.211,.382-.945-.02-1.6-.038-.061-.302-.478-.818-.639-.822-.255-1.858,.274-2.221,1.125Z"/>
            </g>
          </g>
          <path class="cls-5" d="M317.408,104.519c1.92,2.444,1.795,5.691,1.74,7.097-.065,1.674-.733,3.522-2.071,7.218-1.205,3.329-1.828,5.023-2.842,6.424-1.052,1.454-2.495,3.449-5.004,4.244-.495,.157-1.458,.402-6.74-.549-4.039-.727-6.078-1.108-7.036-1.956-2.291-2.03-2.371-5.334-2.42-7.321-.105-4.285,1.65-7.463,2.686-9.286,1.422-2.502,3.295-5.795,7.169-7.638,4.521-2.15,11.43-2.165,14.518,1.767Z"/>
          <g>
            <path class="cls-18" d="M297.49,130.613c-.684-.466-1.397-.986-2.127-1.567-.978-.779-1.847-1.555-2.614-2.299,3.901-1.778,7.244-2.074,9.17-2.097,3.836-.045,6.909,.943,9.15,1.663,1.616,.519,2.923,1.064,3.827,1.472-.85,.71-1.773,1.436-2.77,2.165-.905,.662-1.789,1.265-2.643,1.814"/>
            <path class="cls-22" d="M297.49,130.613c-1.858-.936-3.529-2.138-5.165-3.428-.246-.19-.292-.545-.101-.791,1.733-1.114,3.782-1.787,5.811-2.256,5.885-1.401,11.87,.453,17.132,3.048,.477,.15,.576,.835,.151,1.102-1.864,1.3-3.784,2.504-5.834,3.475,1.684-1.495,3.352-2.966,4.993-4.483,0,0,.151,1.102,.151,1.102-1.609-.487-3.764-1.276-5.375-1.678-5.357-1.565-11.028-1.412-16.249,.597,0,0,.172-.993,.172-.993,1.406,1.454,2.82,2.926,4.315,4.303h0Z"/>
          </g>
          <path class="cls-20" d="M313.734,99.574c3.092,1.398,4.682,3.709,5.399,4.78,2.1,3.139,2.398,6.272,2.444,7.67-.828-1.149-2.335-2.938-4.737-4.42-.624-.385-3.544-2.129-7.797-2.44-.595-.044-3.425-.22-6.932,.849-3.258,.994-5.583,2.599-6.939,3.702,.352-.988,.924-2.339,1.86-3.804,1.193-1.867,3.596-5.622,8.276-6.943,.891-.251,4.513-1.162,8.424,.606Z"/>
          <path d="M313.93,99.725c3.733,1.402,6.815,4.526,8.223,8.287,.473,1.41,1.225,3.042,.651,4.592-.033,.106-.214,.331-.42,.469-.495,.388-1.292,.074-1.561-.195-1.612-1.619-2.873-3.47-4.951-4.482-6.699-3.465-15.138-2.361-21.384,1.823,7.161-7.489,21.462-7.889,27.517,1.255,.014,.028,.098,.034-.154-.029-.049,0-.117-.004-.216,.011-.191,.026-.383,.217-.41,.283-.032,.095-.009,.011,.003-.021-.158-4.879-3.228-9.357-7.297-11.994h0Z"/>
        </g>
      </g>
      <g>
        <path class="cls-4" d="M257.836,66.244c-.648-1.788-2.376-5.768-6.502-8.877-1.244-.937-4.297-3.176-8.862-3.613-1.156-.111-4.11-.46-7.336,.98-4.971,2.219-7.395,6.542-8.293,8.404,1.046-.917,2.801-2.236,5.273-3.157,1.399-.521,4.738-1.715,8.91-.771,1.174,.265,4.406,.997,6.867,3.688,2.635,2.881,1.784,5.164,4.189,7.949,1.94,2.247,4.574,3.171,6.497,3.6-.248-2.734-.496-5.468-.743-8.202Z"/>
        <rect class="cls-4" x="260.111" y="66.616" width="1.286" height="7.715" transform="translate(523.435 133.384) rotate(178.344)"/>
      </g>
      <g>
        <path class="cls-4" d="M299.632,81.451c1.646-.953,5.527-2.893,10.686-2.623,1.556,.081,5.334,.327,9.112,2.926,.957,.658,3.445,2.288,4.991,5.464,2.383,4.895,1.462,9.764,.953,11.768-.212-1.375-.71-3.513-2.012-5.808-.737-1.298-2.528-4.359-6.331-6.316-1.07-.551-4.017-2.067-7.632-1.587-3.871,.515-4.685,2.81-8.318,3.399-2.931,.475-5.542-.51-7.291-1.416,1.947-1.936,3.894-3.871,5.84-5.807Z"/>
        <rect class="cls-4" x="294.036" y="78.959" width="1.286" height="7.715" transform="translate(129.484 -174.875) rotate(41.64)"/>
      </g>
      <g>
        <g>
          <path class="cls-1" d="M227.158,145.134c2.382-1.179,7.419-3.274,14.089-3.083,6.599,.189,11.465,2.521,13.778,3.823,2.515,.459,7.495,1.718,12.421,5.59,5.387,4.233,7.809,9.31,8.772,11.698-.949,.099-2.367,.114-3.878-.459-2.353-.893-3.565-2.696-4.169-3.42-3.453-4.139-9.637-.088-17.585-3.007-7.786-2.86-10.534-9.939-15.477-8.962-.702,.139-2.53,.654-4.633-.02-1.56-.5-2.654-1.456-3.319-2.159Z"/>
          <path class="cls-3" d="M258.403,135.444c-1.156,3.586-2.312,7.172-3.469,10.758"/>
          <path d="M232.151,152.02c3.973-5.297,10.208,1.193,11.824,5.432-1.858-1.165-4.073-3.025-5.794-4.362-1.829-1.685-3.586-1.931-6.029-1.07h0Z"/>
          <path d="M254.941,160.887c3.156-.697,6.451-1.106,9.601-.199,1.942,.758,3.382,2.679,3.647,4.662-1.348-1.329-2.559-2.388-4.265-2.868-2.972-.486-6.095-.417-8.982-1.594h0Z"/>
        </g>
        <g>
          <path class="cls-6" d="M247.982,144.138c-.099,.384-.857,3.56,1.246,6.223,2.14,2.71,5.47,2.646,6.313,2.594,3.939-.24,6.072-3.406,6.31-3.772-.927-.415-1.93-.825-3.009-1.214-1.449-.522-2.824-.929-4.097-1.249-1.006-.496-2.128-.995-3.363-1.465-1.202-.458-2.343-.824-3.4-1.118Z"/>
          <path class="cls-9" d="M251.788,152.357c.745-1.394,1.49-2.789,2.235-4.183-.322,1.543-.645,3.087-.967,4.63-.096-.017-.217-.041-.356-.079-.127-.034-.316-.092-.537-.186-.106-.045-.234-.105-.375-.183Z"/>
        </g>
      </g>
      <g>
        <path class="cls-11" d="M257.747,136.755c2.527,1.016,2.986,1.015,3.333,.975,1.544-.176,2.586-1.311,2.837-1.585,.895-.975,.643-1.461,1.873-3.185,1.122-1.573,1.666-1.636,1.901-1.628,.571,.019,1.055,.511,1.265,.936,.486,.987-.068,2.499-1.462,3.692,.45-.066,1.092-.207,1.801-.535,1.646-.761,2.512-2.002,2.899-2.574,.655-.965,1.761-2.595,1.372-4.26-.236-1.008-.972-1.82-3.257-3.148-3.622-2.105-4.895-1.88-10.273-3.975-2.686-1.046-4.158-1.8-6.308-1.462-1.741,.273-2.78,1.082-3.023,1.279-.242,.196-1.815,1.512-2.136,3.744-.486,3.378,2.351,5.68,2.478,5.779-.02-.32-.147-2.947,1.395-3.835,.095-.055,.903-.52,1.426-.188,.488,.31,.454,1.139,.427,1.635-.088,1.619-.877,1.956-1.061,3.243-.248,1.737,.896,3.171,.982,3.277,.477,.58,1.501,1,3.53,1.815Z"/>
        <path class="cls-17" d="M251.947,120.486c4.234,4.101,9.379,6.65,15.258,7.276-5.836,2.4-13.387-1.343-15.258-7.276h0Z"/>
        <path class="cls-24" d="M248.57,125.029c1.633-.027,3.871,.217,5.299,1.757,1.255,1.353,.792,2.529,2.134,4.073,1.396,1.606,3.732,2.446,5.766,2.361,2.809-.117,3.554-1.935,6.314-1.986,1.856-.034,3.366,.754,4.286,1.356-2.873,2.686-3.791,3.3-3.944,3.16-.169-.155,.758-1.09,.687-2.501-.038-.76-.376-1.848-1.029-2.016-.842-.217-1.874,1.18-2.524,2.06-1.22,1.651-1.094,2.415-2.103,3.303-1.026,.903-2.246,1.073-2.706,1.137-3.583,.5-7.36-2.634-7.504-5.018-.054-.906,.159-1.706,.159-1.706,.264-.992,.636-1.153,.822-2.016,.019-.087,.367-1.779-.359-2.208-.564-.334-1.573,.217-2.136,.855-.956,1.082-.67,2.456-.985,2.521-.291,.06-.897-1.041-2.178-5.133Z"/>
        <path class="cls-2" d="M257.747,136.755c2.527,1.016,2.986,1.015,3.333,.975,1.544-.176,2.586-1.311,2.837-1.585,.895-.975,.643-1.461,1.873-3.185,1.122-1.573,1.666-1.636,1.901-1.628,.571,.019,1.055,.511,1.265,.936,.486,.987-.068,2.499-1.462,3.692,.45-.066,1.092-.207,1.801-.535,1.646-.761,2.512-2.002,2.899-2.574,.655-.965,1.761-2.595,1.372-4.26-.236-1.008-.972-1.82-3.257-3.148-3.622-2.105-4.895-1.88-10.273-3.975-2.686-1.046-4.158-1.8-6.308-1.462-1.741,.273-2.78,1.082-3.023,1.279-.242,.196-1.815,1.512-2.136,3.744-.486,3.378,2.351,5.68,2.478,5.779-.02-.32-.147-2.947,1.395-3.835,.095-.055,.903-.52,1.426-.188,.488,.31,.454,1.139,.427,1.635-.088,1.619-.877,1.956-1.061,3.243-.248,1.737,.896,3.171,.982,3.277,.477,.58,1.501,1,3.53,1.815Z"/>
      </g>
    </g>
    <g id="_Слой_12" data-name="Слой 12">
      <path class="cls-10" d="M296.27,51.308c.251-1.093,.771-2.817,1.93-4.651,.7-1.108,3.057-4.837,7.662-6.016,1.012-.259,2.875-.585,5.273-.104-1.089-.757-2.921-1.796-5.387-2.198-.881-.143-4.713-.673-8.387,1.469-1.21,.706-2.096,1.522-2.623,2.068-1.248,1.292-1.969,2.602-2.374,3.491,.931-2.022,2.802-5.402,6.315-8.529,3.331-2.965,6.701-4.422,8.769-5.137-2.048-.27-5.963-.467-10.048,1.46-3.623,1.709-5.881,4.381-7.127,5.854-.955,1.13-1.656,2.158-2.131,2.913,.404,1.614,.809,3.229,1.213,4.843-.879-3.719-2.396-6.335-3.533-7.948-4.099-5.812-9.947-8.065-13.466-9.42-3.398-1.309-6.417-1.895-8.606-2.179,2.461,.812,6.023,2.32,9.656,5.179,1.377,1.083,4.765,3.934,7.65,8.732,2.054,3.416,3.113,6.588,3.686,8.836-.771-3.005-2.97-9.855-9.273-15.786-1.871-1.761-7.927-7.3-17.478-8.461-4.578-.557-8.395,.083-10.841,.696,1.71,.111,4.582,.529,7.65,2.188,3.329,1.8,5.177,4.135,5.568,4.643,.64,.83,1.098,1.59,1.409,2.163,1.816,.31,4.426,.977,7.234,2.528,3.804,2.101,6.155,4.82,7.392,6.496-1.431-1.91-3.798-4.503-7.392-6.496-8.755-4.857-17.803-2.281-19.868-1.637,2.009,.063,6.057,.462,10.354,2.934,3.833,2.206,6.097,5.044,7.211,6.668,.781-.577,2.569-1.713,4.853-1.566,3.414,.219,6.546,3.217,7.506,7.49-.333-1.226-1.636-5.458-5.235-6.916-4.097-1.66-8.446,1.38-11.402,3.446-10.296,7.197-14.079,19.454-12.89,20.209,.887,.563,3.863-5.701,11.798-8.556,2.098-.755,6.726-2.42,9.762-.018,1.672,1.323,2.198,3.357,2.387,4.557,1.525-1.031,3.051-2.063,4.576-3.094,3.917-2.263,7.833-4.526,11.75-6.789,2.152-1.12,4.305-2.241,6.457-3.361Z"/>
      <path class="cls-19" d="M299.136,45.298c-.153-.022-.284-.065-.397-.121-1.281-.634-1.025-3.267-1.006-3.449-.418,.579-1.929,2.528-4.059,2.528-.213,0-.442-.02-.684-.067-.255,.433-.472,.842-.625,1.178,.162-.352,.364-.756,.587-1.181,.283-1.797-.206-3.327-.987-3.604-.884-.314-2.591,.816-3.359,3.195,.25,.998,.5,1.996,.75,2.994-.261-1.103-.581-2.097-.928-3.009,.223-1.166-.313-2.306-1.269-2.787-1.188-.598-2.372,.153-2.426,.188-.762,.501-1.197,1.387-1.141,2.32-.358,.064-.717,.128-1.076,.192-.022,.009-.047,.018-.07,.027,.868,1.785,1.469,3.436,1.897,4.855-.402-1.319-1.007-2.995-1.907-4.851-.35-.583-2.201-3.612-3.272-3.26-.518,.17-.731,1.092-1.099,2.693-.474,2.057-.324,2.89-.677,3.031-.395,.158-1.355-.581-3.946-5.03-2.891,.134-5.844,.471-5.97,1.357-.094,.667,1.515,.942,1.813,2.106,.562,2.194-4.464,3.921-4.995,6.968-.277,1.591,.568,4.139,6.323,8.091,.164,.1,.328,.21,.486,.335,1.672,1.323,2.198,3.357,2.387,4.557,1.525-1.031,3.051-2.063,4.576-3.094,3.917-2.263,7.833-4.526,11.75-6.789l6.457-3.361c.251-1.093,.771-2.817,1.93-4.651,.188-.297,.499-.785,.936-1.359Zm-22.503,1.692c1.134,1.268,2.004,2.924,2.435,4.841-.226-.832-.901-3.047-2.435-4.841Zm7.782,1.803c.048,.162,.095,.323,.138,.478-.043-.153-.089-.313-.138-.478Z"/>
      <path class="cls-5" d="M296.27,51.308c.251-1.093,.771-2.817,1.93-4.651,.7-1.108,3.057-4.837,7.662-6.016,1.012-.259,2.875-.585,5.273-.104-1.089-.757-2.921-1.796-5.387-2.198-.881-.143-4.713-.673-8.387,1.469-1.21,.706-2.096,1.522-2.623,2.068-1.248,1.292-1.969,2.602-2.374,3.491,.931-2.022,2.802-5.402,6.315-8.529,3.331-2.965,6.701-4.422,8.769-5.137-2.048-.27-5.963-.467-10.048,1.46-3.623,1.709-5.881,4.381-7.127,5.854-.955,1.13-1.656,2.158-2.131,2.913,.404,1.614,.809,3.229,1.213,4.843-.879-3.719-2.396-6.335-3.533-7.948-4.099-5.812-9.947-8.065-13.466-9.42-3.398-1.309-6.417-1.895-8.606-2.179,2.461,.812,6.023,2.32,9.656,5.179,1.377,1.083,4.765,3.934,7.65,8.732,2.054,3.416,3.113,6.588,3.686,8.836-.771-3.005-2.97-9.855-9.273-15.786-1.871-1.761-7.927-7.3-17.478-8.461-4.578-.557-8.395,.083-10.841,.696,1.71,.111,4.582,.529,7.65,2.188,3.329,1.8,5.177,4.135,5.568,4.643,.64,.83,1.098,1.59,1.409,2.163,1.816,.31,4.426,.977,7.234,2.528,3.804,2.101,6.155,4.82,7.392,6.496-1.431-1.91-3.798-4.503-7.392-6.496-8.755-4.857-17.803-2.281-19.868-1.637,2.009,.063,6.057,.462,10.354,2.934,3.833,2.206,6.097,5.044,7.211,6.668,.781-.577,2.569-1.713,4.853-1.566,3.414,.219,6.546,3.217,7.506,7.49-.333-1.226-1.636-5.458-5.235-6.916-4.097-1.66-8.446,1.38-11.402,3.446-10.296,7.197-14.079,19.454-12.89,20.209,.887,.563,3.863-5.701,11.798-8.556,2.098-.755,6.726-2.42,9.762-.018,1.672,1.323,2.198,3.357,2.387,4.557,1.525-1.031,3.051-2.063,4.576-3.094,3.917-2.263,7.833-4.526,11.75-6.789,2.152-1.12,4.305-2.241,6.457-3.361Z"/>
    </g>
  </g>
</svg>