<?xml version="1.0" encoding="UTF-8"?>
<svg id="_Слой_13" data-name="Слой 13" xmlns="http://www.w3.org/2000/svg" viewBox="0 0 820.202 550.415">
  <defs>
    <style>
      .cls-1 {
        fill: #7d9fff;
        opacity: .47;
      }

      .cls-2 {
        fill: none;
        stroke: #231f20;
        stroke-linecap: round;
        stroke-linejoin: round;
        stroke-width: 2px;
      }

      .cls-3 {
        fill: #324e99;
      }
    </style>
  </defs>
  <g id="_Слой_15" data-name="Слой 15">
    <g>
      <path class="cls-3" d="M256.213,203.717c3.568,1.544,7.136,3.089,10.704,4.633,2.039,51.408,4.078,102.816,6.117,154.224-2.685,10.37-5.369,20.74-8.053,31.11-4.281-9.928-8.563-19.858-12.845-29.786,1.359-53.394,2.719-106.787,4.078-160.181Z"/>
      <g>
        <path class="cls-1" d="M255.321,217.072c.161,1.778,.285,3.578,.328,5.417,.031,1.327,.018,2.642-.034,3.94l12.952,7.734c-.188-1.943-.33-3.915-.376-5.932-.027-1.166-.017-2.32,.021-3.464l-12.889-7.696Z"/>
        <path class="cls-1" d="M268.861,250.913c0-.192,.009-.381,.01-.572l-13.824-8.254c-.065,2.995-.341,5.912-.804,8.702l15.113,9.024c-.385-2.803-.556-5.72-.496-8.757v-.143Z"/>
        <path class="cls-1" d="M254.727,268.433c-.109,2.976-.435,5.864-.935,8.624l16.25,9.703c-.139-1.639-.248-3.295-.287-4.983-.034-1.463-.011-2.909,.056-4.337l-15.084-9.007Z"/>
        <path class="cls-1" d="M271.177,305.836l-17.045-10.177c-.107,2.977-.43,5.865-.928,8.628l17.623,10.523c-.006-.198-.023-.391-.028-.59-.067-2.867,.073-5.672,.378-8.383Z"/>
        <path class="cls-1" d="M253.204,324.697c.056,.952,.112,1.905,.135,2.873,.05,2.133-.017,4.231-.177,6.284l19.492,11.638c-.226-2.148-.386-4.341-.438-6.582-.022-.961-.015-1.912,.006-2.858l-19.018-11.355Z"/>
        <path class="cls-1" d="M252.953,351.651c-.081,2.989-.373,5.896-.849,8.675l19.081,11.393c.584-2.773,1.349-5.399,2.264-7.831l-20.496-12.238Z"/>
        <path class="cls-1" d="M260.018,382.434c1.704,3.342,3.092,7.294,4.116,11.641l.81,.483c.652-2.746,1.481-5.334,2.457-7.715l-7.383-4.409Z"/>
      </g>
      <g>
        <path class="cls-1" d="M255.452,214.571c.161,1.778,.285,3.578,.328,5.417,.03,1.327,.018,2.642-.034,3.94l12.951,7.734c-.188-1.943-.329-3.915-.376-5.932-.027-1.166-.017-2.32,.021-3.464l-12.89-7.696Z"/>
        <path class="cls-1" d="M268.992,248.411c0-.192,.009-.381,.01-.572l-13.824-8.254c-.065,2.995-.341,5.912-.804,8.702l15.113,9.024c-.385-2.803-.556-5.72-.496-8.757v-.143Z"/>
        <path class="cls-1" d="M254.858,265.932c-.109,2.976-.435,5.864-.935,8.624l16.25,9.703c-.139-1.639-.248-3.295-.287-4.983-.034-1.463-.011-2.909,.056-4.337l-15.084-9.007Z"/>
        <path class="cls-1" d="M271.308,303.335l-17.045-10.177c-.107,2.977-.43,5.865-.929,8.628l17.623,10.523c-.007-.198-.023-.391-.028-.59-.066-2.867,.073-5.672,.379-8.383Z"/>
        <path class="cls-1" d="M253.334,322.196c.056,.952,.112,1.905,.135,2.873,.05,2.133-.017,4.231-.177,6.284l19.492,11.638c-.226-2.148-.386-4.341-.438-6.582-.022-.961-.015-1.912,.006-2.858l-19.018-11.355Z"/>
        <path class="cls-1" d="M253.084,349.15c-.08,2.989-.372,5.896-.849,8.675l19.081,11.393c.584-2.773,1.349-5.399,2.264-7.831l-20.496-12.238Z"/>
        <path class="cls-1" d="M260.149,379.933c1.704,3.342,3.092,7.294,4.116,11.641l.81,.483c.652-2.746,1.481-5.334,2.457-7.715l-7.383-4.409Z"/>
      </g>
      <path class="cls-2" d="M256.213,203.717c3.568,1.544,7.136,3.089,10.704,4.633,2.039,51.408,4.078,102.816,6.117,154.224-2.685,10.37-5.369,20.74-8.053,31.11-4.281-9.928-8.563-19.858-12.845-29.786,1.359-53.394,2.719-106.787,4.078-160.181Z"/>
    </g>
  </g>
</svg>