<?xml version="1.0" encoding="UTF-8"?>
<svg xmlns="http://www.w3.org/2000/svg" viewBox="0 0 820.202 550.415">
  <defs>
    <style>
      .cls-1 {
        fill: #fff;
        opacity: .09;
      }

      .cls-2, .cls-3, .cls-4 {
        fill: #f1c9b9;
      }

      .cls-2, .cls-5, .cls-6, .cls-7 {
        stroke: #231f20;
        stroke-linecap: round;
        stroke-linejoin: round;
        stroke-width: 2px;
      }

      .cls-3 {
        mix-blend-mode: multiply;
      }

      .cls-8 {
        fill: #fdbe95;
        opacity: .49;
      }

      .cls-9 {
        isolation: isolate;
      }

      .cls-5 {
        fill: #1d1d3b;
      }

      .cls-10 {
        fill: #df7043;
        opacity: .59;
      }

      .cls-6 {
        fill: none;
      }

      .cls-11 {
        fill: #262262;
        opacity: .41;
      }

      .cls-7 {
        fill: #fd9753;
      }

      .cls-12 {
        fill: #231f20;
      }

      .cls-13 {
        fill: #324e99;
      }
    </style>
  </defs>
  <g class="cls-9">
    <g id="_Слой_13" data-name="Слой 13">
      <g id="_Слой_28" data-name="Слой 28">
        <g>
          <path class="cls-4" d="M315.15,344.248c-1.328,1.153-3.065,1.752-4.681,2.377-2.799,1.082-5.7,1.708-8.67,2.104-1.461,.195-2.867,.437-4.294,.816-1.404,.373-2.815,.78-4.272,.866-.013,0-.026,.009-.039,.013-.587-.036-1.173-.088-1.759-.176-.735-.11-1.466-.277-2.189-.462,.202,.475,.459,.925,.761,1.344,2.909,.729,6.127,.412,9.052,.239,3.01-.178,6.476-.54,9.232,.988,1.12,.621,1.889,1.745,1.083,2.954-.722,1.085-2.088,1.706-3.255,2.172-2.737,1.093-5.765,1.603-8.703,1.611-4.283,.011-8.404-1.122-12.64-1.532-2.921-.283-7.483-.461-8.84,2.819-.626,1.512-.46,3.243-.669,4.838-.212,1.62-.615,3.235-1.375,4.691-1.375,2.635-4.022,5.115-7.189,5.029-.772-.021-1.586-.253-2.14-.818-.675-.689-.174-1.429,.267-2.091,1.13-1.693,1.833-3.509,2.357-5.478,.603-2.264,.984-4.545,1.003-6.892,.015-1.865-.205-3.698-.413-5.54-.101-1.873,.057-3.75,.904-5.464,1.124-2.275,2.882-4.104,4.934-5.57,4.557-3.255,10.009-4.998,15.486-5.898,2.759-.453,5.551-.647,8.311-1.085,2.808-.446,5.431-1.347,8.094-2.316,1.358-.494,2.733-1.015,4.147-1.325,.828-.181,1.73-.274,2.56-.059,1.019,.264,1.361,1.064,.99,2.047-.368,.976-1.277,1.7-2.134,2.238-2.006,1.258-4.405,1.535-6.665,2.076-2.095,.502-4.591,1.099-6.032,2.831-.152,.183-.17,.4-.109,.558-.355,.069-.72,.129-1.079,.152,.111,.211,.23,.417,.359,.614,.214-.015,.425-.033,.626-.051,1.189-.104,2.368-.329,3.541-.545,2.853-.527,5.688-1.18,8.568-1.552,1.189-.153,2.406-.28,3.605-.187,.717,.055,1.682,.159,2.173,.759,.757,.925-.195,2.284-.912,2.906Z"/>
          <path class="cls-2" d="M315.15,344.248c-1.328,1.153-3.065,1.752-4.681,2.377-2.799,1.082-5.7,1.708-8.67,2.104-1.461,.195-2.867,.437-4.294,.816-1.404,.373-2.815,.78-4.272,.866-.013,0-.026,.009-.039,.013-.587-.036-1.173-.088-1.759-.176-.735-.11-1.466-.277-2.189-.462,.202,.475,.459,.925,.761,1.344,2.909,.729,6.127,.412,9.052,.239,3.01-.178,6.476-.54,9.232,.988,1.12,.621,1.889,1.745,1.083,2.954-.722,1.085-2.088,1.706-3.255,2.172-2.737,1.093-5.765,1.603-8.703,1.611-4.283,.011-8.404-1.122-12.64-1.532-2.921-.283-7.483-.461-8.84,2.819-.626,1.512-.46,3.243-.669,4.838-.212,1.62-.615,3.235-1.375,4.691-1.375,2.635-4.022,5.115-7.189,5.029-.772-.021-1.586-.253-2.14-.818-.675-.689-.174-1.429,.267-2.091,1.13-1.693,1.833-3.509,2.357-5.478,.603-2.264,.984-4.545,1.003-6.892,.015-1.865-.205-3.698-.413-5.54-.101-1.873,.057-3.75,.904-5.464,1.124-2.275,2.882-4.104,4.934-5.57,4.557-3.255,10.009-4.998,15.486-5.898,2.759-.453,5.551-.647,8.311-1.085,2.808-.446,5.431-1.347,8.094-2.316,1.358-.494,2.733-1.015,4.147-1.325,.828-.181,1.73-.274,2.56-.059,1.019,.264,1.361,1.064,.99,2.047-.368,.976-1.277,1.7-2.134,2.238-2.006,1.258-4.405,1.535-6.665,2.076-2.095,.502-4.591,1.099-6.032,2.831-.152,.183-.17,.4-.109,.558-.355,.069-.72,.129-1.079,.152,.111,.211,.23,.417,.359,.614,.214-.015,.425-.033,.626-.051,1.189-.104,2.368-.329,3.541-.545,2.853-.527,5.688-1.18,8.568-1.552,1.189-.153,2.406-.28,3.605-.187,.717,.055,1.682,.159,2.173,.759,.757,.925-.195,2.284-.912,2.906Z"/>
          <path class="cls-3" d="M299.06,351.368c-2.925,.173-6.142,.49-9.052-.239-.209-.289-.386-.597-.548-.914-1.7-.358-3.352-.988-4.738-2.045-.097,.181-.188,.365-.261,.559-.326,.871-.219,1.743,.478,2.393,.805,.75,1.972,1.094,3.015,1.345,2.719,.654,5.582,.709,8.365,.763,1.002,.02,2.009,.009,3.009,.08,1.153,.082,2.483,.325,3.472,.954,.749,.477,1.022,1.262,.555,2.045-.544,.912-1.63,1.509-2.55,1.963-.601,.296-1.226,.549-1.864,.766,2.448-.151,4.913-.651,7.179-1.556,1.167-.466,2.533-1.087,3.255-2.172,.805-1.21,.037-2.334-1.083-2.954-2.756-1.528-6.222-1.166-9.232-.988Z"/>
          <path class="cls-3" d="M313.888,340.583c-1.199-.092-2.416,.034-3.605,.187-2.879,.372-5.715,1.025-8.568,1.552-1.173,.216-2.352,.441-3.541,.545-.201,.018-.412,.036-.626,.051-.116-.177-.222-.363-.323-.552-1.291,.552-2.599,1.047-3.974,1.325,1.446,.693,3.052,.901,4.664,.817,1.664-.088,3.303-.415,4.946-.674,1.634-.258,3.351-.506,5.004-.289,1.269,.167,2.79,.656,3.458,1.846,.152,.271,.227,.542,.246,.81,1.275-.498,2.551-1.059,3.581-1.953,.716-.622,1.669-1.981,.912-2.906-.492-.601-1.456-.704-2.173-.759Z"/>
          <path class="cls-3" d="M270.615,358.566c1.389-2.482,2.637-5.114,3.335-7.882,.07-.277,.428-.209,.543-.02,.723,1.186,1.189,2.492,1.735,3.763,1.157-1.822,1.575-4.012,2.699-5.856,.211-.347,.488-.641,.746-.952,.127-.153,.252-.319,.405-.448,.418-.352,1.034-.514,1.523-.735,1.111-.501,2.279-.84,3.427-1.242,.952-.334,2.199-.698,2.874-1.504,.759-.906-.451-1.863-1.124-2.359-.199-.146-.141-.499,.122-.531,2.472-.299,4.917-.79,7.318-1.451,5.648-1.555,11.005-4.009,16.044-7-.205,.03-.408,.068-.606,.111-1.414,.309-2.79,.831-4.147,1.325-2.663,.969-5.286,1.871-8.094,2.316-2.76,.438-5.553,.632-8.311,1.085-5.477,.901-10.929,2.644-15.486,5.898-2.052,1.466-3.81,3.295-4.934,5.57-.846,1.713-1.005,3.59-.904,5.464,.209,1.842,.429,3.676,.413,5.54-.009,1.074-.102,2.134-.249,3.186,.956-1.384,1.85-2.812,2.67-4.278Z"/>
          <path class="cls-7" d="M277.749,333.748c.461,.461,.95,.893,1.479,1.278,2.447,1.786,5.214,1.549,8.023,1.222-.729,1.022-1.801,1.946-2.772,2.58-1.079,.705-2.784,.955-3.453,2.167-.139,.252-.18,.693,.184,.775,.977,.22,2.022,.135,3.005,.331-2.625,2.201-6.092,2.916-9.351,3.776-.366,.096-.623,.489-.506,.864,.308,.988,1.011,1.839,1.441,2.78-.911-.443-1.773-.975-2.615-1.54-.499-.123-.995-.26-1.488-.405-.098,.157-.159,.342-.161,.465-.022,1.546-.137,3.101-.436,4.62-.258,1.314-.67,2.74-1.53,3.807-.087-1.303,.011-2.642-.263-3.911-.354-.358-.694-.728-1.006-1.122-.094,.109-.167,.237-.187,.344-.398,2.131-.73,5.256-2.6,6.708-.254-2.178-.485-4.382-1.2-6.464-.125-.365-.273-.712-.431-1.049,.046-.034,.088-.079,.124-.13-.719-1.088-1.381-2.212-1.993-3.365-1.979-2.668-4.049-5.275-5.977-7.981-2.558-3.591-5.009-7.257-7.348-10.994-4.755-7.598-9.05-15.494-12.738-23.666-6.939-15.378-12.313-32.173-11.437-49.24,.224-4.369,.974-8.665,2.291-12.839,1.277-4.048,3.011-7.928,4.88-11.733,1.618-1.339,2.851-3.618,5.037-3.902,1.886-.245,3.109,1.896,4.136,3.131,1.897,2.28,3.512,4.728,4.771,7.417,1.215,2.594,2.132,5.323,2.89,8.082,.881,3.207,1.548,6.468,2.249,9.718,.128,.593,.769,.297,.913-.133,.708-2.105,1.185-4.294,2.123-6.308,.109,.613,.073,1.274,.041,1.862-.049,.888-.171,1.769-.238,2.655-.185,2.442-.338,4.936-.245,7.385,.023,.596,.774,.156,.815-.239,.219-2.09,1.287-4.031,2.51-5.737,.496,2.256,.354,4.658,.339,6.943-.018,2.773,.288,5.493,.688,8.235,.863,5.925,2.173,11.771,3.533,17.598,1.388,5.944,2.85,11.874,4.609,17.721,1.663,5.529,3.681,10.951,5.536,16.418,.533,1.571,1.077,3.167,1.662,4.757,1.215,2.514,2.738,5.049,4.697,7.117Z"/>
          <path class="cls-3" d="M276.933,358.08c-1.285,.227-2.516,.752-3.38,1.762-.85,.995-1.29,2.257-1.691,3.482-.369,1.129-.754,2.251-1.079,3.393-.323,1.134-.666,2.268-1.144,3.348-.841,1.901-2.392,4.039-4.77,3.418-.213-.056-.42-.138-.619-.237-.035,.293,.036,.587,.315,.871,.554,.565,1.368,.797,2.14,.818,3.167,.086,5.814-2.394,7.189-5.029,.76-1.456,1.163-3.071,1.375-4.691,.209-1.595,.043-3.326,.669-4.838,.534-1.291,1.569-2.042,2.802-2.466-.606,.01-1.21,.062-1.806,.167Z"/>
          <path class="cls-10" d="M234.263,238.323c-1.189-.119-5.147,13.022-4.603,28.512,.598,17.027,6.384,29.707,11.187,39.968,8.254,17.63,19.488,32.454,20.776,31.719,.471-.269-.383-2.627-7.907-19.717-14.648-33.27-15.433-33.467-17.102-39.523-6.269-22.739-.958-40.821-2.351-40.96Z"/>
          <path class="cls-8" d="M241.813,245.705c-.207-1.945-3.636-4.87-4.107,1.684-.224,3.108,.389,7.478,1.623,16.092,.316,2.212,3.023,21.1,3.676,20.469,.434-.419,.042-9.547-1.124-17.58-1.023-7.049-2.04-9.119-2.11-12.847-.108-5.762,2.223-6.122,2.042-7.818Z"/>
        </g>
        <g>
          <g>
            <path class="cls-13" d="M193.093,248.279c-1.636,6.263,.117,13.534,.602,15.544,1.352,5.605,3.614,9.461,6.725,14.67,4.219,7.063,8.326,12.074,10.991,15.213,9.15,10.774,14.289,14.769,19.69,20.536,5.655,6.04,13.013,15.536,19.209,30.037,2.393-2.753,6.387-6.672,12.283-9.887,7.216-3.935,13.915-4.981,17.839-5.291-3.012-12.753-4.524-23.149-5.338-30.008-2.106-17.733-1.162-25.335-5.824-38.906-4.21-12.256-9.053-17.912-10.449-19.479-2.286-2.567-9.055-10.167-19.755-13.104-18.588-5.101-42.082,5.781-45.973,20.675Z"/>
            <path class="cls-11" d="M200.034,249.923c-.531-1.054,18.418-19.512,37.401-14.07,12.313,3.53,18.618,15.389,22.963,23.561,5.631,10.591,1.651,10.475,9.462,34.057,3.336,10.071,5.798,15.334,3.066,20.583-2.195,4.218-6.478,5.992-12.513,8.49-5.153,2.134-15.888,6.579-19.978,2.042-2.028-2.249-2.116-6.366-.571-9.107,1.776-3.151,4.94-3.112,13.144-6.334,7.405-2.908,11.107-4.362,12.56-7.021,2.192-4.009-.662-7.817-3.91-17.808-5.034-15.485-1.74-17.304-5.951-25.046-4.166-7.66-11.979-14.319-20.675-16.823-17.753-5.112-34.512,8.44-34.998,7.477Z"/>
            <path class="cls-6" d="M193.093,248.279c-1.636,6.263,.117,13.534,.602,15.544,1.352,5.605,3.614,9.461,6.725,14.67,4.219,7.063,8.326,12.074,10.991,15.213,9.15,10.774,14.289,14.769,19.69,20.536,5.655,6.04,13.013,15.536,19.209,30.037,2.393-2.753,6.387-6.672,12.283-9.887,7.216-3.935,13.915-4.981,17.839-5.291-3.012-12.753-4.524-23.149-5.338-30.008-2.106-17.733-1.162-25.335-5.824-38.906-4.21-12.256-9.053-17.912-10.449-19.479-2.286-2.567-9.055-10.167-19.755-13.104"/>
          </g>
          <g>
            <path class="cls-13" d="M234.668,325.983c5.024-4.437,13.004-10.418,24.056-14.865,8.633-3.475,16.435-4.925,22.279-5.545,.411,8.454,.822,16.909,1.233,25.363-4.499,.357-11.62,1.505-19.34,5.449-5.402,2.76-9.407,6.025-12.141,8.648-5.362-6.35-10.725-12.7-16.087-19.049Z"/>
            <path class="cls-11" d="M235.292,325.437c2.314-3.338,3.658-3.788,4.455-3.597,1.153,.277,1.383,1.954,3.438,7.094,1.874,4.687,2.562,5.44,3.394,5.961,.664,.416,2.058,1.033,5.831,.157,4.56-1.058,7.296-3.066,9.635-4.424,7.861-4.566,16.254-4.705,16.366-4.322,.025,.087-.357,.268-7.513,3.002-7.583,2.897-8.268,2.884-10.597,4.15-5.579,3.032-7.581,5.981-8.151,6.876-.979,1.535-1.527,2.96-1.839,3.946-5.006-6.281-10.012-12.561-15.018-18.842Z"/>
            <path class="cls-6" d="M233.998,325.273c5.024-4.437,13.004-10.418,24.056-14.865,8.633-3.475,16.435-4.925,22.279-5.545,.411,8.454,.822,16.909,1.233,25.363-4.499,.357-11.62,1.505-19.34,5.449-5.402,2.76-9.407,6.025-12.141,8.648-5.362-6.35-10.725-12.7-16.087-19.049Z"/>
            <circle class="cls-5" cx="249.123" cy="330.47" r="2.943"/>
            <path class="cls-12" d="M267.908,322.565c5.061,.533,9.131-1.257,12.267-5.057-.407,5.594-8.038,8.747-12.267,5.057h0Z"/>
            <path class="cls-12" d="M267.524,315.379c4.064,3.064,8.474,3.628,13.119,1.987-3.232,4.584-11.396,3.355-13.119-1.987h0Z"/>
          </g>
          <path class="cls-12" d="M239.487,308.016c-2.84,4.223-3.165,8.657-1.276,13.207-4.752-2.979-3.965-11.198,1.276-13.207h0Z"/>
          <path class="cls-12" d="M246.016,311.041c-3.39,1.689-5.699,3.817-6.976,7.172-.404,1.07-.692,2.217-.922,3.489-2.538-5.001,2.372-11.64,7.898-10.662h0Z"/>
          <path class="cls-12" d="M254.197,258.82c3.754-.498,6.629-1.762,8.925-4.522,.729-.881,1.374-1.872,2.004-3.002,.778,5.554-6.018,10.242-10.929,7.524h0Z"/>
          <path class="cls-1" d="M209.646,252.529c-1.616-.6-7.206,2.564-9.255,6.571-1.731,3.385-.424,6.368,1.085,9.447,4.243,8.656,6.364,12.984,10.918,18.42,7.121,8.5,16.202,16.799,17.216,16.347,.656-.293-2.316-4.353-8.287-12.461-12.681-17.218-16.264-19.722-15.813-25.768,.524-7.032,5.986-11.868,4.137-12.555Z"/>
        </g>
      </g>
    </g>
  </g>
</svg>