<?xml version="1.0" encoding="UTF-8"?>
<svg xmlns="http://www.w3.org/2000/svg" viewBox="0 0 820.202 550.415">
  <defs>
    <style>
      .cls-1 {
        fill: #fff;
        opacity: .09;
      }

      .cls-2, .cls-3, .cls-4 {
        fill: #f1c9b9;
      }

      .cls-2, .cls-5, .cls-6, .cls-7 {
        stroke: #231f20;
        stroke-linecap: round;
        stroke-linejoin: round;
        stroke-width: 2px;
      }

      .cls-3 {
        mix-blend-mode: multiply;
      }

      .cls-8 {
        opacity: .43;
      }

      .cls-8, .cls-9 {
        fill: #231f20;
      }

      .cls-10 {
        isolation: isolate;
      }

      .cls-5 {
        fill: #1d1d3b;
      }

      .cls-11 {
        fill: #df7043;
        opacity: .59;
      }

      .cls-6 {
        fill: none;
      }

      .cls-12 {
        fill: #262262;
        opacity: .41;
      }

      .cls-7 {
        fill: #fd9753;
      }

      .cls-13 {
        fill: #324e99;
      }
    </style>
  </defs>
  <g class="cls-10">
    <g id="_Слой_13" data-name="Слой 13">
      <g id="_Слой_27" data-name="Слой 27">
        <g>
          <path class="cls-8" d="M129.658,235.558c-2.462,.181-3.723,8.069-4,9.802-1.401,8.769,.178,16.763,2.571,23.702,1.975,5.725,5.675,16.018,14.422,25.714,3.525,3.908,10.701,10.846,9.951,17.553-.074,.661-.265,1.676-.224,3.242,.098,3.738,1.417,6.831,3.578,10.51,4.117,7.011,6.584,11.212,8.72,10.844,3.203-.551,4.745-11.222,4.36-20.236-1.142-26.772-21.391-32.567-32.534-67.304-1.551-4.833-4.144-14.026-6.845-13.827Z"/>
          <path class="cls-4" d="M211.177,382.728c-3.167-.328-4.566-3.405-6.649-5.387-1.245-1.184-2.767-1.918-4.491-2.026-1.471-.092-3.274,.222-4.261,1.414-1.29,1.106-2.017,2.953-2.384,4.658-.613,2.852-.624,5.805-1.386,8.633-.365,1.355-.917,2.898-2.07,3.786-1.015,.781-2.987,1.023-3.945,.009-.883-.935-.552-2.544-.29-3.659,.335-1.424,.889-2.79,1.4-4.158,.617-1.65,1.148-3.412,1.172-5.184,.006-.453-.041-.909-.153-1.342-.119-.245-.27-.47-.49-.627-.293-.21-.631-.215-.957-.133,.002,.004,.005,.007,.007,.011-1.61,1.038-2.819,3.146-3.536,4.606-1.432,2.917-2.495,5.925-4.605,8.466-1.1,1.325-2.556,2.669-4.369,2.76-1.457,.073-2.232-.809-2.155-2.225,.08-1.469,.807-2.767,1.527-4.009,1.147-1.979,2.446-3.852,3.806-5.688,.796-1.074,1.864-2.413,2.109-3.824-.099-.54-.263-1.068-.485-1.584-.297-.076-.596-.144-.899-.19,.088,.181,.161,.374,.209,.576-.711-.109-1.534,.162-2.156,.477-1.185,.6-2.156,1.522-3.16,2.373-2.047,1.735-4.209,3.514-6.692,4.582-1.188,.511-2.641,.918-3.878,.327-.785-.375-1.268-1.127-1.128-2.009,.163-1.023,.983-1.67,1.746-2.275,2.877-2.28,6.213-3.972,9.237-6.051,2.895-1.99,6.113-4.286,7.462-7.669,.26-.474,.529-.942,.848-1.388,.659-.922,1.376-1.801,2.192-2.589,1.781-1.719,3.965-2.861,6.305-3.618,2.032-.657,4.152-1.12,6.249-1.521,1.71-.327,3.502-.577,5.231-.253,.39,.073,.774,.19,1.144,.34,1.077,.359,1.973,1.169,2.71,2.021,2.076,2.401,3.502,5.317,4.716,8.224,.714,1.709,1.495,3.366,2.439,4.962,.456,.772,.94,1.527,1.441,2.27,.944,.968,1.95,1.933,2.474,3.118,1.293,2.919-1.988,4.039-4.287,3.8Z"/>
          <path class="cls-2" d="M211.177,382.728c-3.167-.328-4.566-3.405-6.649-5.387-1.245-1.185-2.766-1.919-4.491-2.026-1.471-.092-3.274,.222-4.261,1.414-1.29,1.106-2.017,2.953-2.384,4.658-.613,2.852-.624,5.805-1.386,8.633-.365,1.355-.917,2.898-2.07,3.786-1.015,.782-2.987,1.023-3.945,.009-.884-.935-.552-2.545-.29-3.659,.335-1.424,.889-2.79,1.4-4.158,.616-1.649,1.148-3.412,1.172-5.184,.006-.453-.041-.909-.153-1.342-.119-.245-.271-.47-.49-.627-.293-.21-.631-.215-.957-.133,.002,.004,.005,.007,.007,.011-1.61,1.039-2.819,3.146-3.536,4.606-1.432,2.917-2.495,5.925-4.605,8.466-1.1,1.325-2.556,2.669-4.368,2.76-1.457,.073-2.232-.809-2.155-2.225,.08-1.469,.807-2.767,1.527-4.009,1.147-1.979,2.445-3.852,3.806-5.688,.795-1.074,1.864-2.412,2.109-3.824-.004-.385-.121-.658-.196-.801-.113-.215-.282-.535-.571-.558-.185-.014-.337,.099-.408,.16-.711-.109-1.534,.162-2.156,.477-1.185,.6-2.156,1.522-3.16,2.373-2.047,1.735-4.209,3.514-6.692,4.582-1.188,.511-2.641,.918-3.878,.327-.786-.375-1.268-1.126-1.128-2.009,.163-1.023,.983-1.67,1.747-2.275,2.877-2.28,6.213-3.972,9.237-6.052,2.895-1.99,6.113-4.286,7.462-7.669,.26-.474,.529-.942,.848-1.388,.659-.922,1.376-1.801,2.192-2.589,1.781-1.719,3.964-2.861,6.305-3.618,2.032-.657,4.152-1.12,6.249-1.521,1.71-.327,3.502-.577,5.232-.253,.391,.073,.774,.19,1.143,.34,1.077,.359,1.974,1.169,2.71,2.021,2.077,2.401,3.502,5.317,4.716,8.224,.714,1.709,1.495,3.366,2.439,4.963,.457,.772,.94,1.527,1.441,2.27,.944,.968,1.95,1.933,2.474,3.118,1.292,2.919-1.988,4.039-4.287,3.8Z"/>
          <path class="cls-3" d="M176.126,378.085c.622-.315,1.445-.586,2.156-.477-.048-.202-.121-.395-.209-.576,.303,.046,.602,.114,.899,.19,.073,.171,.131,.345,.191,.519,.159-.371,.292-.799,.177-1.191-.16-.546-.766-.748-1.263-.86-.951-.213-1.858,.117-2.702,.546-1.002,.509-1.92,1.168-2.821,1.836-.758,.563-1.529,1.106-2.292,1.661-.668,.486-1.308,1.007-1.986,1.481-.856,.599-1.749,1.166-2.708,1.585-.825,.36-1.772,.659-2.682,.512-.508-.082-.991-.318-1.383-.657-.112,.215-.195,.447-.235,.704-.14,.883,.342,1.634,1.128,2.009,1.237,.591,2.689,.184,3.878-.327,2.484-1.067,4.645-2.847,6.692-4.582,1.004-.851,1.975-1.773,3.159-2.373Z"/>
          <path class="cls-3" d="M186.681,378.722s-.005-.007-.007-.011c.307-.077,.622-.071,.903,.104-.043-.158-.109-.302-.215-.405-.13-.128-.351-.183-.577-.163-.727,.063-1.432,.518-2.019,.919-.885,.605-1.7,1.313-2.473,2.054-1.534,1.471-2.986,3.1-3.997,4.979-.694,1.291-1.373,2.596-2.212,3.8-.718,1.029-1.63,2.195-2.87,2.602-.403,.132-.812,.148-1.191,.075,.062,1.208,.816,1.944,2.147,1.877,1.813-.091,3.269-1.435,4.369-2.76,2.11-2.541,3.173-5.549,4.605-8.466,.717-1.46,1.926-3.567,3.536-4.606Z"/>
          <path class="cls-3" d="M215.464,378.928c-.525-1.185-1.53-2.15-2.474-3.118-.501-.743-.985-1.498-1.441-2.27-.943-1.597-1.725-3.253-2.439-4.962-1.214-2.907-2.64-5.823-4.716-8.224-.737-.852-1.633-1.662-2.71-2.021-.37-.15-.753-.267-1.144-.34-1.73-.324-3.521-.074-5.231,.253-2.097,.401-4.217,.864-6.249,1.521-2.341,.757-4.524,1.9-6.305,3.618-.816,.788-1.533,1.667-2.192,2.589-.319,.446-.588,.915-.848,1.388-.488,1.224-1.223,2.303-2.096,3.279,.711,.09,1.428,.133,2.137,.141,2.187,.025,4.374-.274,6.511-.718,1.882-.391,3.735-.907,5.56-1.511,1.453-.481,3.007-.672,4.533-.558,1.257,.094,2.496,.358,3.73,.623-.516-.433-.972-.927-1.236-1.56-.103-.248,.123-.5,.381-.417,2.496,.805,5.284,1.025,7.304,2.867,1.447,1.319,2.37,3.194,3.079,4.99,.714,1.809,1.378,3.918,1.092,5.886-.113,.776-.454,1.464-.95,1.972,.434,.184,.901,.317,1.419,.37,2.299,.238,5.58-.881,4.287-3.8Z"/>
          <path class="cls-3" d="M196.046,375.273c-2.577,.454-3.975,3.447-4.418,5.753-.456,2.375-.474,4.813-.974,7.183-.451,2.137-1.32,4.515-3.563,5.318-.396,.142-.799,.19-1.19,.163,.032,.041,.055,.086,.091,.124,.959,1.014,2.931,.772,3.945-.009,1.153-.888,1.705-2.431,2.07-3.786,.762-2.828,.773-5.78,1.386-8.633,.367-1.706,1.094-3.552,2.384-4.658,.585-.707,1.46-1.099,2.38-1.287-.67-.221-1.377-.298-2.11-.168Z"/>
          <path class="cls-7" d="M162.19,234.201c3.041-.299,16.923-1.335,27.362,8.274,8.328,7.666,9.9,17.906,10.72,23.244,.319,2.079,.482,4.063-1.313,25.004-1.293,15.072-1.614,16.16-1.696,21.764-.106,7.311,.292,14.66,1.154,21.922,.281,2.366,.723,4.705,1.235,7.03,.623,2.177,1.334,4.331,2.105,6.459,.74,2.044,1.534,4.06,2.428,6.042,.704,1.559,1.429,3.11,2.093,4.686,.504,.685,1.046,1.343,1.641,1.96-1.078,.61-2.69,.498-3.808,.39-1.439-.138-2.964-.436-4.241-1.144-.404-.224-.962,.408-.792,.793,.314,.712,.759,1.339,1.209,1.965-2.292-.245-4.442-.968-6.65-1.707-.315-.106-.699,.123-.8,.435-.476,1.461-.97,3.581-2.324,4.543,.123-1.037,.561-2.026,.548-3.093-.008-.597-.889-.197-.993,.157-.571,1.944-2.69,3.491-4.278,4.574-1.397,.952-3.389,2.233-5.223,2.195,1.105-1.585,2.206-3.255,2.533-5.181,.09-.532-.55-.485-.815-.223-1.685,1.666-3.326,3.874-5.665,4.596,.961-1.621,1.79-3.311,1.669-5.149,.044-.079,.072-.16,.061-.235-.533-3.462-1.377-6.886-2.165-10.299-.758-3.281-1.562-6.552-2.435-9.805-1.791-6.676-3.843-13.287-6.321-19.742-2.472-6.439-5.365-12.723-8.798-18.708-1.684-2.935-3.509-5.779-5.437-8.558-2.055-2.961-4.018-5.995-6.268-8.815-1.025-1.285-2.115-2.303-3.363-3.359-.499-.421-1.148-.818-1.448-1.421-.319-.641-.293-1.471-.261-2.166,.069-1.474,.358-2.918,.288-4.398-.022-.474-.066-.946-.118-1.417-.221-1.525-.586-3.027-1.164-4.449-.494,1.858-.872,3.968-1.921,5.634-.269-1.968,.073-4.013-.102-5.991-.063-.707-.146-1.411-.232-2.116-.455-1.507-1.011-2.982-1.543-4.465-.272,1.286-.43,2.597-.7,3.883-.234,1.114-.53,2.532-1.282,3.498-.551-6.517,.35-13.362-2.065-19.508-.839-1.379-1.675-2.775-2.171-4.315-.307-.951-.429-1.906-.353-2.843-.001-.027-.005-.053-.006-.08,0,0-.027-.399,.029-.859,.04-.327,.205-1.052,.572-1.958"/>
          <path class="cls-11" d="M157.342,243.186c.025-1.851,7.437-4.224,14.58-3.337,.613,.076,11.933,1.825,18.517,11.571,3.255,4.819,3.598,9.529,3.204,24.248-.567,21.16-1.924,28.136-1.872,39.666,.081,18.073,5.295,29.017,3.205,29.775-1.773,.642-7.044-6.492-9.654-14.764-2.347-7.44-1.707-13.157,1.565-35.277,2.975-20.119,3.746-24.187,1.195-30.011-3.531-8.06-10.594-13.017-12.615-14.349-9.34-6.155-18.153-5.501-18.126-7.523Z"/>
        </g>
        <g>
          <g>
            <path class="cls-13" d="M130.094,234.553c-2.763,5.854-2.381,13.323-2.275,15.389,.295,5.759,1.807,9.965,3.904,15.659,2.844,7.72,5.957,13.403,7.997,16.979,7.006,12.277,11.32,17.151,15.565,23.815,4.444,6.979,9.925,17.67,13.34,33.064,2.859-2.265,7.508-5.38,13.896-7.453,7.818-2.537,14.595-2.329,18.509-1.91-.609-13.089-.177-23.586,.287-30.478,1.2-17.817,3.53-25.114,1.451-39.313-1.878-12.822-5.595-19.274-6.678-21.072-1.774-2.945-7.025-11.663-17-16.522-17.328-8.441-42.427-2.079-48.997,11.842Z"/>
            <path class="cls-12" d="M136.614,237.449c-.328-1.134,21.7-15.781,39.354-6.932,11.451,5.74,15.46,18.558,18.224,27.391,3.581,11.448-.31,10.6,3.019,35.217,1.421,10.513,2.871,16.14-.782,20.795-2.936,3.741-7.472,4.694-13.864,6.037-5.458,1.147-16.829,3.536-20.012-1.677-1.578-2.584-.906-6.647,1.118-9.056,2.327-2.769,5.429-2.147,14.087-3.801,7.814-1.493,11.721-2.239,13.64-4.584,2.894-3.536,.791-7.805-.559-18.224-2.092-16.148,1.481-17.328-1.23-25.714-2.682-8.297-9.132-16.283-17.217-20.348-16.506-8.299-35.477,1.931-35.776,.894Z"/>
            <path class="cls-6" d="M130.094,234.553c-2.763,5.854-2.381,13.323-2.275,15.389,.295,5.759,1.807,9.965,3.904,15.659,2.844,7.72,5.957,13.403,7.997,16.979,7.006,12.277,11.32,17.151,15.565,23.815,4.444,6.979,9.925,17.67,13.34,33.064,2.859-2.265,7.508-5.38,13.896-7.453,7.818-2.537,14.595-2.329,18.509-1.91-.609-13.089-.177-23.586,.287-30.478,1.2-17.817,3.53-25.114,1.451-39.313-1.878-12.822-5.595-19.274-6.678-21.072-1.774-2.945-7.025-11.663-17-16.522"/>
          </g>
          <g>
            <path class="cls-13" d="M156.627,318.59c5.756-3.434,14.702-7.841,26.385-10.174,9.126-1.823,17.062-1.809,22.919-1.342-1.155,8.385-2.311,16.77-3.466,25.155-4.487-.479-11.698-.664-20.013,1.789-5.819,1.717-10.356,4.187-13.528,6.261-4.099-7.23-8.199-14.46-12.298-21.689Z"/>
            <path class="cls-12" d="M157.341,318.17c2.89-2.854,4.294-3.049,5.042-2.714,1.082,.485,.999,2.176,2.07,7.606,.977,4.952,1.515,5.819,2.236,6.485,.576,.531,1.832,1.394,5.702,1.23,4.677-.199,7.737-1.668,10.286-2.572,8.568-3.038,16.843-1.627,16.882-1.23,.009,.09-.4,.198-7.938,1.565-7.987,1.449-8.658,1.31-11.18,2.124-6.043,1.951-8.554,4.48-9.279,5.255-1.245,1.329-2.046,2.628-2.535,3.539l-11.285-21.289Z"/>
            <path class="cls-6" d="M156.099,317.769c5.756-3.434,14.702-7.841,26.385-10.174,9.126-1.823,17.062-1.809,22.919-1.342-1.155,8.385-2.311,16.77-3.466,25.155-4.487-.479-11.698-.664-20.013,1.789-5.819,1.717-10.356,4.187-13.528,6.261-4.099-7.23-8.199-14.46-12.298-21.689Z"/>
            <circle class="cls-5" cx="170.006" cy="325.667" r="2.943"/>
            <path class="cls-9" d="M189.926,321.362c4.876,1.456,9.206,.448,12.989-2.708-1.432,5.422-9.513,7.115-12.989,2.708h0Z"/>
            <path class="cls-9" d="M190.875,314.228c3.428,3.761,7.659,5.128,12.527,4.372-4.021,3.91-11.819,1.196-12.527-4.372h0Z"/>
          </g>
          <path class="cls-9" d="M164.676,301.82c-3.571,3.626-4.707,7.925-3.689,12.745-4.121-3.804-1.832-11.738,3.689-12.745h0Z"/>
          <path class="cls-9" d="M170.535,305.998c-3.643,1.035-6.305,2.7-8.179,5.762-.595,.977-1.089,2.051-1.55,3.26-1.572-5.384,4.477-11.003,9.729-9.022h0Z"/>
          <path class="cls-9" d="M188.207,256.181c3.782,.203,6.84-.51,9.606-2.799,.879-.731,1.695-1.587,2.523-2.581-.259,5.603-7.804,8.956-12.129,5.379h0Z"/>
          <path class="cls-1" d="M145.58,241.782c-1.477-.888-7.555,1.192-10.308,4.751-2.326,3.007-1.591,6.18-.676,9.485,2.574,9.29,3.86,13.935,7.333,20.117,5.431,9.668,12.826,19.499,13.906,19.242,.699-.167-1.473-4.705-5.847-13.776-9.288-19.261-12.348-22.384-10.79-28.242,1.812-6.815,8.072-10.561,6.381-11.577Z"/>
        </g>
      </g>
    </g>
  </g>
</svg>