<?xml version="1.0" encoding="UTF-8"?>
<svg id="_Слой_13" data-name="Слой 13" xmlns="http://www.w3.org/2000/svg" viewBox="0 0 820.202 550.415">
  <defs>
    <style>
      .cls-1 {
        fill: #7d9fff;
        opacity: .47;
      }

      .cls-2 {
        fill: #fff;
      }

      .cls-3 {
        opacity: .43;
      }

      .cls-3, .cls-4, .cls-5 {
        fill: #231f20;
      }

      .cls-6 {
        fill: #1e2d59;
        opacity: .42;
      }

      .cls-7 {
        fill: #26427f;
      }

      .cls-4 {
        opacity: .22;
      }

      .cls-8 {
        opacity: .23;
      }

      .cls-9 {
        fill: none;
        stroke: #231f20;
        stroke-linecap: round;
        stroke-linejoin: round;
        stroke-width: 2px;
      }

      .cls-10 {
        fill: #262262;
        opacity: .41;
      }

      .cls-11 {
        fill: #324e99;
      }
    </style>
  </defs>
  <g id="_Слой_25" data-name="Слой 25">
    <g>
      <path class="cls-2" d="M51.194,210.255c-5.006,2.632-10.011,5.263-15.016,7.895,1.995,4.781,5.159,11.674,9.844,19.475,5.129,8.539,9.598,14.031,15.016,20.879,10.988,13.887,16.965,21.442,22.858,29.826,14.543,20.691,21.815,31.036,25.194,43.862,1.597,6.063,2.643,12.883,8.009,20.352,4.778,6.65,10.633,10.549,14.849,12.808,3.448-3.684,6.896-7.369,10.344-11.053-30.366-48.014-60.733-96.029-91.099-144.043Z"/>
      <path class="cls-9" d="M132.226,338.38c-27.011-42.708-54.021-85.417-81.032-128.126-5.006,2.632-10.011,5.263-15.016,7.895,1.995,4.781,5.159,11.674,9.844,19.475,5.129,8.539,9.598,14.031,15.016,20.879,10.988,13.887,16.965,21.442,22.858,29.826,14.543,20.691,21.815,31.036,25.194,43.862,1.597,6.063,2.643,12.883,8.009,20.352,4.778,6.65,10.633,10.549,14.849,12.808,3.448-3.684,6.896-7.369,10.344-11.053"/>
      <path class="cls-5" d="M70.489,229.549c-3.914,3.588-6.392,8.391-6.473,13.707-.036,1.735,.132,3.498,.466,5.329-4.59-6.297-1.465-16.602,6.007-19.036h0Z"/>
      <path class="cls-5" d="M48.563,229.549c5.311,4.717,12.327,6.001,18.85,3.061-5.148,5.828-15.67,4.047-18.85-3.061h0Z"/>
      <path class="cls-5" d="M127.767,342.704c.524,5.206,2.503,10.198,6.624,13.515,1.328,1.079,2.823,1.995,4.493,2.783-7.892,.051-13.693-9.033-11.117-16.298h0Z"/>
      <path class="cls-8" d="M43.269,215.782c-.739,2.505,1.237,5.252,5.189,10.745,2.654,3.689,3.981,5.534,5.739,6.449,5.293,2.756,10.781-.841,11.846,1.14,.767,1.424-2.159,3.115-2.802,7.261-.771,4.968,2.369,9.314,3.219,10.459,3.168,4.263,6.446,4.673,10.262,7.106,2.623,1.673,4.949,3.95,13.264,20.615,9.164,18.365,7.031,16.988,10.762,22.37,6.969,10.053,11.009,9.95,14.599,19.036,1.843,4.665,1.976,7.723,5.256,12.194,2.635,3.592,4.562,4.361,6.088,6.475,.812,1.125,.654,1.548,1.169,2.123,2.629,2.932,9.263,1.142,11.908,.356,26.034-7.74,41.154-18.19,41.154-18.19,19.841-13.713,29.762-20.569,38.46-30.634,16.786-19.423,23.352-38.792,27.056-50.087,4.799-14.633,13.563-41.353,7.173-45.126-15.781-9.319-110.708,129.17-133.427,116.135-.922-.529-4.551-6.255-11.322-17.994-5.654-9.802-7.52-14.68-14.159-24.11-9.362-13.299-13.295-16.208-18.317-29.391,0,0-4.265-11.194-20.939-29.125-.461-.496-1.905-2.009-4.087-2.369-3.176-.524-7.192,1.513-8.092,4.562Z"/>
    </g>
  </g>
  <g id="_Слой_26" data-name="Слой 26">
    <path class="cls-2" d="M209.321,283.895c30.617-33.792,13.411-75.161,40.919-88.77,16.721-8.272,43.271-2.976,50.666,10.91,21.2,39.809-103.778,171.337-153.299,150.531-9.915-4.166-18.935-15.333-17.888-25.043,2.264-21.01,49.399-14.292,79.603-47.627Z"/>
    <path class="cls-11" d="M169.52,127.373c-4.848,.088-7.82,1.544-9.661,2.907-4.476,3.315-4.657,7.858-10.22,10.693-1.009,.514-.789,.255-4.716,1.605,0,0-4.512,1.551-10.957,4.249-4.769,1.996-20.604,9.067-31.751,15.428-27.871,15.906-56.802,44.717-59.254,47.18,16.044,19.755,32.858,42.523,49.416,68.422,14.142,22.12,26.103,43.404,36.224,63.28,11.306-2.306,27.587-6.903,45.167-16.77,11.215-6.295,40.407-23.163,57.689-56.572,5.788-11.188,21.509-46.014,18.335-63.503-.218-1.2-1.121-5.603,1.22-7.892,3.846-3.762,13.751,.822,19.128,2.972,9.85,3.939,24.481,7.704,45.331,6.786,1.64-3.28,3.28-6.559,4.919-9.838-.703-3.765-1.745-7.287-3.07-10.588-22.241-55.367-128.354-58.092-147.801-58.36Z"/>
    <path class="cls-3" d="M130.324,337.81c-.896-1.096,2.441-5.245,6.028-9.493,16.456-19.49,27.727-29.515,27.727-29.515,27.031-24.043,29.92-22.316,33.243-30.112,0,0,6.513-15.283,12.068-20.823,1.429-1.425,2.616-3.079,4.031-4.518,1.475-1.501,2.216-2.101,2.087-2.832-.254-1.444-3.457-.922-4.919-2.683-1.92-2.312,.839-6.538,2.981-13.565,.428-1.403,2.253-7.583,2.534-14.46,.392-9.592-2.458-14.732,0-16.397,1.476-1,4.277-.348,5.963,1.193,4.116,3.762,2.211,13.403,0,24.596-.877,4.438-1.688,7.277,0,9.54,2.268,3.042,6.646,1.823,8.199,4.77,1.567,2.974-1.26,7.309-1.938,8.348-3.659,5.61-7.778,4.051-11.18,8.795-3.144,4.383-.706,7.217-3.703,14.233-1.885,4.413-4.479,7.105-6.732,9.469-24.764,25.989-33.768,39.048-57.689,54.41-3.259,2.093-17.111,10.988-18.699,9.046Z"/>
    <path class="cls-7" d="M139.781,354.553c5.721,7.105,11.442,14.209,17.163,21.314,26.325-9.004,47.903-19.562,63.837-28.368,0,0,29.562-16.338,61.591-48.962,7.177-7.31,14.992-16.44,14.225-24.791-.277-3.006-1.882-8.277-.13-15.124,.215-.841,1.094-4.275,2.123-4.355,1.839-.142,1.885,10.624,3.382,10.743,2.306,.183,7.817-24.896,14.8-62.58-6.463-1.91-12.927-3.821-19.391-5.731-5.125,20.931-17.991,60.52-51.915,96.083-29.269,30.682-61.485,45.025-74.83,50.815-12.318,5.344-23.067,8.775-30.857,10.957Z"/>
    <path class="cls-7" d="M217.147,184.615c3.807,.834,9.376,2.372,15.652,5.366,5.607,2.676,10.909,5.205,14.087,9.391,5.262,6.931,3.616,16.973,.454,28.176-5.11,18.102-11.133,39.44-30.649,62.341-3.207,3.763-17.968,20.699-42.923,34.477-18.904,10.437-42.105,18.206-43.826,14.981-.787-1.474,3.191-4.733,16.994-16.099,28.048-23.098,46.062-38.053,54.559-50.981,4.841-7.366,10.741-16.341,10.957-21.466,.029-.682,.04-3.253,1.789-5.143,1.103-1.192,2.309-1.476,3.801-2.012,4.005-1.439,9.62-4.529,9.391-6.708-.144-1.372-2.58-2.137-2.907-2.236-4.611-1.395-8.266,3.081-10.062,2.012-2.398-1.427,1.123-11.193,2.459-15.652,2.398-7.998,4.057-19.896,.224-36.447Z"/>
    <path class="cls-3" d="M306.886,204.143c-2.848,13.678-8.562,33.508-20.87,54.857-4.332,7.514-20.383,34.127-51.875,57.54-36.313,26.998-73.258,34.948-92.976,37.67,19.179-5.033,57.718-17.903,94.019-51.683,39.097-36.382,54.52-77.406,60.373-96.447l11.329-1.938Z"/>
    <path class="cls-9" d="M139.957,354.553c5.721,7.105,11.442,14.209,17.163,21.314,26.325-9.004,47.903-19.562,63.837-28.368,0,0,29.562-16.338,61.591-48.962,7.177-7.31,14.992-16.44,14.225-24.791-.277-3.006-1.882-8.277-.13-15.124,.215-.841,1.094-4.275,2.123-4.355,1.839-.142,1.885,10.624,3.382,10.743,2.306,.183,7.817-24.896,14.8-62.58-6.463-1.91-12.927-3.821-19.391-5.731-5.125,20.931-17.991,60.52-51.915,96.083-29.269,30.682-61.485,45.025-74.83,50.815-12.318,5.344-23.067,8.775-30.857,10.957Z"/>
    <path class="cls-9" d="M169.52,127.373c-4.848,.088-7.82,1.544-9.661,2.907-4.476,3.315-4.657,7.858-10.22,10.693-1.009,.514-.789,.255-4.716,1.605,0,0-4.512,1.551-10.957,4.249-4.769,1.996-20.604,9.067-31.751,15.428-27.871,15.906-56.802,44.717-59.254,47.18,16.044,19.755,32.858,42.523,49.416,68.422,14.142,22.12,26.103,43.404,36.224,63.28,11.306-2.306,27.587-6.903,45.167-16.77,11.215-6.295,40.407-23.163,57.689-56.572,5.788-11.188,21.509-46.014,18.335-63.503-.218-1.2-1.121-5.603,1.22-7.892,3.846-3.762,13.751,.822,19.128,2.972,9.85,3.939,24.481,7.704,45.331,6.786,1.64-3.28,3.28-6.559,4.919-9.838-.703-3.765-1.745-7.287-3.07-10.588-22.241-55.367-128.354-58.092-147.801-58.36Z"/>
    <path class="cls-9" d="M217.147,184.615c3.807,.834,9.376,2.372,15.652,5.366,5.607,2.676,10.909,5.205,14.087,9.391,5.262,6.931,3.616,16.973,.454,28.176-5.11,18.102-11.133,39.44-30.649,62.341-3.207,3.763-17.968,20.699-42.923,34.477-18.904,10.437-42.105,18.206-43.826,14.981-.787-1.474,3.191-4.733,16.994-16.099,28.048-23.098,46.062-38.053,54.559-50.981,4.841-7.366,10.741-16.341,10.957-21.466,.029-.682,.04-3.253,1.789-5.143,1.103-1.192,2.309-1.476,3.801-2.012,4.005-1.439,9.62-4.529,9.391-6.708-.144-1.372-2.58-2.137-2.907-2.236-4.611-1.395-8.266,3.081-10.062,2.012-2.398-1.427,1.123-11.193,2.459-15.652,2.398-7.998,4.057-19.896,.224-36.447Z"/>
    <path class="cls-5" d="M285.095,215.586c-2.428-1.845-5.374-2.971-8.132-2.608-2.586,.343-5.039,2.452-5.324,5.061-.22,2.751,1.474,5.781,1.632,8.669,.364,3.135,.017,6.299-.922,9.227,.215-4.628-.259-8.962-1.871-13.253-.458-1.439-1.01-3.051-.825-4.871,.474-3.643,3.781-6.281,7.177-6.381,3.395-.109,6.418,1.73,8.265,4.157h0Z"/>
    <path class="cls-5" d="M258.054,239.677c-8.935,33.178-30.153,58.694-57.928,78.164-8.95,6.395-18.038,12.616-27.585,18.087,9.125-6.124,17.884-12.754,26.655-19.34,27.42-20.327,47.592-44.356,58.857-76.911h0Z"/>
    <path class="cls-10" d="M84.029,252.441c-4.703-9.219-8.793-14.433-15.354-24.149-6.997-10.361-10.495-15.541-10.584-16.994-.616-10.097,16.434-20.545,50.534-41.441,14.888-9.123,22.523-13.754,31.9-17.143,4.528-1.636,11.1-3.689,10.882-4.77-.213-1.061-6.873-.774-11.33-.149-12.62,1.77-20.095,8.01-32.049,16.249-16.61,11.447-14.357,7.794-31.901,19.975-25.476,17.688-26.686,22.932-26.683,25.938,.005,5.392,3.917,7.255,13.416,18.037,16.928,19.214,24.729,36.251,25.789,35.627,.816-.48-4.197-10.348-4.621-11.18Z"/>
    <path class="cls-5" d="M50.675,201.604c1.58,6.932,6.367,11.599,12.007,15.613-6.897-1.178-13.512-8.373-12.007-15.613h0Z"/>
    <path class="cls-5" d="M125.558,315.816c1.244,7.001,5.801,11.893,11.24,16.173-6.832-1.509-13.093-9.014-11.24-16.173h0Z"/>
  </g>
  <g id="_Слой_17" data-name="Слой 17">
    <path class="cls-4" d="M177.063,122.085c-10.165,5.696-17.888,14.981-17.888,14.981-3.787,4.553-5.681,6.83-6.038,9.391-.337,2.422-.294,9.066,33.317,32.646,13.741,9.64,20.611,14.459,25.938,15.876,8.385,2.229,15.879,1.778,25.267,7.826,2.358,1.519,6.038,3.889,8.944,7.826,5.704,7.727,4.96,16.791,3.354,32.422-3.434,33.414-5.425,44.462,.671,49.416,.422,.343,5.533,4.496,9.839,2.907,2.143-.791,3.265-2.7,3.668-3.385,5.355-9.108,.732-38.368,.58-61.459-.088-13.347,1.366-17.252,4.249-19.23,5.17-3.547,11.125,1.722,25.938,.671,6.376-.452,12.833-.911,16.994-5.366,5.569-5.964,3.931-15.775,3.354-19.23-6.446-38.609-114.283-78.686-138.186-65.292Z"/>
  </g>
  <g id="_Слой_15" data-name="Слой 15">
    <path class="cls-11" d="M320.392,196.321c-1.64,3.28-3.28,6.559-4.919,9.838-5.973,.52-12.399,.853-19.229,.895-8.881,.055-17.115-.39-24.597-1.118-1.495-1.505-4.148-3.754-8.049-5.143-7.404-2.637-13.954-.271-15.842,.49-15.184-4.022-36.642-11.599-59.208-26.546-17.199-11.392-29.95-23.691-38.907-33.764,3.407-3.564,6.813-7.128,10.22-10.693,8.493,9.836,20.449,21.709,36.513,32.829,22.387,15.498,43.872,23.388,58.998,27.58,.666,.929,3.834,5.142,9.791,6.302,5.614,1.094,9.916-1.26,10.97-1.877,6.729,.825,14.132,1.437,22.124,1.654,7.974,.217,15.385,.01,22.137-.447Z"/>
    <g id="_Слой_16" data-name="Слой 16">
      <g>
        <path class="cls-1" d="M161.426,154.515l6.397-16.599c-1.797-1.168-3.399-2.609-4.739-4.284l-6.062,15.729c1.739,1.448,3.218,3.197,4.404,5.154Z"/>
        <path class="cls-1" d="M174.846,166l5.866-15.22c-1.8-1.158-3.406-2.588-4.751-4.254l-5.518,14.319c1.74,1.449,3.217,3.199,4.403,5.156Z"/>
        <path class="cls-1" d="M189.869,175.911l5.291-13.728c-1.889-.82-3.605-1.939-5.125-3.282l-5.103,13.24c1.843,.991,3.504,2.265,4.938,3.77Z"/>
        <path class="cls-1" d="M207.018,186.203l5.104-13.242c-1.91-.74-3.664-1.764-5.222-3.031l-4.817,12.501c1.842,.992,3.503,2.267,4.936,3.773Z"/>
        <path class="cls-1" d="M220.173,191.904c.887,.288,1.715,.676,2.517,1.111-.026-.02-.052-.04-.078-.06,.041,.031,.084,.058,.126,.087,.771,.422,1.5,.914,2.194,1.467l4.965-12.884c-1.993-.447-3.85-1.199-5.543-2.199l-4.71,12.221c.177,.084,.354,.165,.529,.257Z"/>
        <path class="cls-1" d="M243.084,200.693l4.904-12.726c-2.047-.264-3.971-.84-5.744-1.677l-4.491,11.653c1.938,.638,3.724,1.577,5.33,2.75Z"/>
        <path class="cls-1" d="M303.845,207.026c1.548,0,3.034,.19,4.458,.52l4.106-10.654c-1.483,.371-3.006,.574-4.54,.574-.689,0-1.366-.036-2.032-.104l-3.759,9.754c.586-.058,1.176-.091,1.767-.091Z"/>
        <path class="cls-1" d="M281.783,206.504c2.078,0,4.054,.318,5.9,.899l4.405-11.431c-.942,.148-1.895,.227-2.852,.227-1.205,0-2.368-.126-3.499-.328l-4.1,10.637c.048,0,.097-.004,.145-.004Z"/>
      </g>
      <g>
        <path class="cls-1" d="M160.419,153.004l6.156-15.973c-1.756-1.347-3.291-2.97-4.532-4.823l-6.246,16.207c1.781,1.26,3.329,2.821,4.622,4.589Z"/>
        <path class="cls-1" d="M173.839,164.489l5.622-14.586c-1.759-1.337-3.295-2.954-4.542-4.796l-5.701,14.792c1.781,1.261,3.329,2.822,4.621,4.591Z"/>
        <path class="cls-1" d="M188.709,174.799l5.116-13.275c-1.845-.978-3.516-2.23-4.956-3.721l-5.271,13.677c1.886,.833,3.597,1.965,5.111,3.32Z"/>
        <path class="cls-1" d="M205.858,185.09l4.901-12.717c-1.869-.896-3.562-2.079-5.043-3.494l-4.968,12.889c1.886,.833,3.596,1.967,5.11,3.322Z"/>
        <path class="cls-1" d="M220.173,191.904c.887,.288,1.715,.676,2.517,1.111-.026-.02-.052-.04-.078-.06,.041,.031,.084,.058,.126,.087,.324,.177,.64,.367,.951,.567l4.765-12.364c-1.948-.599-3.755-1.488-5.378-2.625l-4.797,12.448c.644,.234,1.276,.511,1.895,.836Z"/>
        <path class="cls-1" d="M241.819,199.851l4.67-12.118c-2.001-.418-3.868-1.146-5.573-2.12l-4.599,11.933c1.982,.486,3.826,1.271,5.502,2.305Z"/>
        <path class="cls-1" d="M303.845,207.026c1.02,0,2.006,.1,2.974,.246l3.865-10.028c-.93,.144-1.87,.222-2.814,.222-1.217,0-2.392-.127-3.533-.333l-3.942,10.229c1.136-.216,2.29-.335,3.451-.335Z"/>
        <path class="cls-1" d="M281.783,206.504c1.548,0,3.033,.19,4.457,.52l4.188-10.869c-.396,.026-.793,.044-1.191,.044-1.734,0-3.387-.242-4.964-.653l-4.258,11.049c.587-.057,1.177-.091,1.769-.091Z"/>
      </g>
    </g>
    <path class="cls-9" d="M320.392,196.321c-1.64,3.28-3.28,6.559-4.919,9.838-5.973,.52-12.399,.853-19.229,.895-8.881,.055-17.115-.39-24.597-1.118-1.495-1.505-4.148-3.754-8.049-5.143-7.404-2.637-13.954-.271-15.842,.49-15.184-4.022-36.642-11.599-59.208-26.546-17.199-11.392-29.95-23.691-38.907-33.764,3.407-3.564,6.813-7.128,10.22-10.693,8.493,9.836,20.449,21.709,36.513,32.829,22.387,15.498,43.872,23.388,58.998,27.58,.666,.929,3.834,5.142,9.791,6.302,5.614,1.094,9.916-1.26,10.97-1.877,6.729,.825,14.132,1.437,22.124,1.654,7.974,.217,15.385,.01,22.137-.447Z"/>
    <g>
      <path class="cls-11" d="M256.853,206.277c-3.726-3.091-4.703-9.26-1.78-14.74,6.301,1.791,12.601,3.581,18.902,5.372-.443,5.65-4.052,10.141-8.704,11.219-.359,.083-4.909,1.061-8.418-1.85Z"/>
      <path class="cls-1" d="M253.488,194.606c.065,.543,.123,1.088,.148,1.64,.047,1.06-.009,2.104-.155,3.125l17.363,5.383c.669-1.422,1.517-2.76,2.508-3.99l-19.864-6.158Z"/>
      <path class="cls-1" d="M253.619,193.308c.065,.543,.123,1.088,.148,1.64,.047,1.06-.009,2.104-.155,3.125l17.363,5.383c.669-1.422,1.517-2.76,2.508-3.99l-19.864-6.158Z"/>
      <path class="cls-9" d="M256.853,206.277c-3.726-3.091-4.703-9.26-1.78-14.74,6.301,1.791,12.601,3.581,18.902,5.372-.443,5.65-4.052,10.141-8.704,11.219-.359,.083-4.909,1.061-8.418-1.85Z"/>
    </g>
    <path class="cls-6" d="M153.659,140.346c-.096-2.388,3.758-5.026,6.708-4.547,2.75,.447,4.349,3.546,4.77,4.323,4.123,7.604,16.912,16.765,27.951,24.671,17.593,12.601,45.1,20.609,54.559,26.758,.67,.436,2.616,1.7,2.46,2.012-.223,.446-4.606-1.316-6.857-2.236-19.793-8.087-31.826-14.236-31.826-14.236-16.226-8.291-24.339-12.436-26.683-14.236-13.055-10.023-19.583-15.034-21.764-19.081-.245-.453-2.063-3.883-3.876-3.652-1.51,.193-1.938,2.787-3.354,2.758-1.001-.021-2.039-1.344-2.087-2.534Z"/>
    <path class="cls-6" d="M276.491,201.091c.425-1.501,1.558-2.32,1.864-2.534,2.13-1.494,4.887-.731,8.199-.075,0,0,5.288,1.047,11.031,1.416,4.83,.31,9.49-.028,11.627-.224,3.506-.32,6.03-.784,6.112-.447,.083,.342-2.394,1.338-4.472,1.938-7.967,2.301-16.957,.78-21.764-.074-2.65-.471-4.828-.996-7.23,.074-2.676,1.193-3.921,3.605-4.919,3.13-.758-.36-.762-2.093-.447-3.205Z"/>
    <path class="cls-6" d="M262.255,215.7c-1.005,7.504-1.549,13.924-1.863,18.857-1.095,17.199,.683,15.134-.298,29.366-.645,9.357-1.834,16.347,1.184,17.844,1.01,.501,2.326,.304,3.214-.253,3.713-2.329,1.566-11.959,.895-15.28-1.779-8.802-3.369-23.614-3.13-50.534Z"/>
    <path class="cls-5" d="M260.316,259.976c-.171,5.335-.786,10.638-.018,15.908,.271,1.406,.917,5.73,2.836,5.317,1.003-.301,2.039-1.335,2.593-2.27,.646-1.06,.896-2.393,.883-3.749,1.017,2.713-.186,6.24-2.968,7.494-1.813,.839-3.517-.878-4.124-2.376-2.679-6.507-1.293-13.883,.797-20.324h0Z"/>
    <path class="cls-5" d="M259.05,198.631c-1.04,2.895-.059,6.892,2.555,8.093,1.307,.4,2.445-.842,3.286-1.851,1.039-1.237,1.687-2.749,1.986-4.528,.555,1.702,.288,3.76-.684,5.388-4.621,8.146-12.144-1.935-7.143-7.103h0Z"/>
    <path class="cls-5" d="M260.615,217.712c-1.621-1.713-2.25-4.518-1.499-6.823,.394-1.746,2.157-4.453,4.286-3.123,2.205,1.64,2.563,4.934,.791,6.891,.439-2.024-.2-4.217-1.732-5.248-.26-.12-.426,.11-.667,.387-1.612,2.306-1.813,5.103-1.179,7.917h0Z"/>
  </g>
</svg>