<?xml version="1.0" encoding="UTF-8"?>
<svg id="_Слой_13" data-name="Слой 13" xmlns="http://www.w3.org/2000/svg" viewBox="0 0 820.202 550.415">
  <defs>
    <style>
      .cls-1 {
        fill: #fd9753;
      }

      .cls-2 {
        fill: #fdbe95;
        opacity: .49;
      }

      .cls-3, .cls-4 {
        fill: #df7043;
      }

      .cls-4 {
        opacity: .59;
      }

      .cls-5 {
        fill: none;
        stroke: #231f20;
        stroke-linecap: round;
        stroke-linejoin: round;
        stroke-width: 2px;
      }
    </style>
  </defs>
  <g id="_Слой_24" data-name="Слой 24">
    <g id="Layer_2" data-name="Layer 2">
      <g>
        <path class="cls-1" d="M100.173,303.109c-4.804-10.711-10.062-21.211-15.861-31.42-5.955-10.485-12.472-20.635-19.581-30.376-3.585-4.913-7.181-9.825-11.07-14.504-1.479-1.78-3.05-3.822-4.734-5.773-.852,1.72-1.363,3.683-1.604,5.534-.08,.611-.123,1.211-.135,1.804-.244,1.347-.342,2.716-.222,4.093,.03,.345,.079,.688,.136,1.029-1.075-1.979-.897-4.741-.548-6.859,.143-.868,.34-1.723,.595-2.557-.208,.274-.737,.472-.779,.088-.206-1.865-.107-3.779,.235-5.654-.82-.825-1.665-1.599-2.538-2.284-3.052,3.738-5.352,6.45-6.32,7.521-4.663,5.161-10.388,12.036-14.053,16.869-3.575,4.713-9.246,12.191-12.415,19.584-7.09,16.539-4.258,38.198,6.75,52.864,2.125,2.832,6.724,8.816,14.791,12.636,6.268,2.968,9.904,2.391,21.023,3.307,23.824,1.964,29.687,6.473,51.987,6.119,3.224-.051,5.838-.189,7.425-.287-3.533-10.901-8.396-21.284-13.083-31.732Z"/>
        <path class="cls-4" d="M84.313,271.69c-2.243-3.949-4.592-7.833-6.996-11.683-1.534-.142-2.982-.102-4.167,.133-2.952,.781-3.316,4.016-4.542,6.433,.383-.06,.759-.1,1.127-.124,5.512-.351,10.099,3.053,12.685,5.451,.629,.24,1.551,.619,2.646,1.155-.254-.453-.496-.913-.752-1.364Z"/>
        <path class="cls-3" d="M109.939,325.605c-.613,.978-1.598,2.311-3.104,3.531-6.667,5.404-16.16,2.6-30.745-.782-20.369-4.724-37.948-7.627-37.677-10.397,.026-.265,.192-.286,2.683-2.907,1.171-1.232,2.486-2.649,2.907-3.13,3.2-3.663,3.611-9.228,3.131-9.391-.486-.165-1.732,5.243-6.596,9.056-1.659,1.301-3.274,2.051-4.807,1.677-.08-.019-1.618-.412-1.789-1.342-.168-.916,1.108-1.721,2.159-2.67,2.953-2.666,4.237-6.556,3.766-6.945-.772-.639-6.083,8.315-11.739,7.491-2.27-.331-3.973-2.718-7.379-7.491-4.063-5.694-7.482-10.486-5.814-13.975,.63-1.319,1.294-1.001,3.686-3.361,3.718-3.667,5.566-7.84,5.119-8.188-.299-.233-1.423,1.407-4.222,2.605-1.391,.595-3.183,1.363-4.249,.559-.958-.722-1.121-2.558-.559-3.913,.9-2.168,3.126-1.823,5.813-4.584,1.614-1.658,2.57-3.59,2.236-3.913-.402-.389-2.281,1.944-5.478,2.348-1.622,.205-3.576-.088-4.249-.671-1.673-1.448,.236-8.442,16.264-33.06-1.151,1.368-2.888,3.439-4.996,5.964-3.853,4.618-8.251,9.931-8.943,10.794-5.151,6.431-10.236,22.672-6.127,39.557,.257,1.055,6.75,26.285,25.86,33.538,6.427,2.439,16.365,3.636,19.765,4.046,6.783,.817,6.948,.253,14.524,1.212,9.087,1.15,10.611,2.184,19.484,3.023,.394,.037,4.314,.172,12.156,.443,7.019,.242,10.545,.329,11.404-1.342,.631-1.229-.171-2.979-1.243-4.551-.401-1.082-.822-2.155-1.243-3.229Z"/>
        <path class="cls-1" d="M48.632,220.695c-.327-.374-.658-.744-.994-1.107-.195,1.384-.316,2.785-.394,4.195,.35-1.076,.805-2.113,1.388-3.088Z"/>
        <path class="cls-5" d="M48.632,220.695c-.327-.374-.658-.744-.994-1.107-.195,1.384-.316,2.785-.394,4.195,.35-1.076,.805-2.113,1.388-3.088Z"/>
        <path class="cls-5" d="M100.173,303.109c-4.804-10.711-10.062-21.211-15.861-31.42-5.955-10.485-12.472-20.635-19.581-30.376-3.585-4.913-7.181-9.825-11.07-14.504-1.479-1.78-3.05-3.822-4.734-5.773-.852,1.72-1.363,3.683-1.604,5.534-.08,.611-.123,1.211-.135,1.804-.244,1.347-.342,2.716-.222,4.093,.03,.345,.079,.688,.136,1.029-1.075-1.979-.897-4.741-.548-6.859,.143-.868,.34-1.723,.595-2.557-.208,.274-.737,.472-.779,.088-.206-1.865-.107-3.779,.235-5.654-.82-.825-1.664-1.598-2.538-2.284-3.123,3.824-5.459,6.571-6.32,7.521-6.22,6.864-13.456,16.096-15.168,18.342-2.628,3.448-12.104,15.879-14.537,30.278-.34,2.014-3.717,25.905,12.178,42.979,1.13,1.214,6.334,6.665,14.873,10.653,7.018,3.278,10.531,2.879,25.755,4.736,24.057,2.934,31.216,5.895,47.801,4.301,1.874-.18,3.428-.373,4.506-.516-3.524-10.785-8.341-21.067-12.982-31.415Z"/>
        <path class="cls-2" d="M37.894,234.108c-2.658-.923-7.548,4.097-6.708,6.037,.744,1.718,5.72,.419,6.261,2.012,.627,1.847-5.578,5.001-4.919,6.708,.493,1.277,4.273,.31,4.919,1.789,.724,1.656-3.425,4.223-2.684,6.037,.602,1.473,3.766,.826,4.249,2.236,.541,1.581-3.127,3.297-2.683,5.366,.348,1.622,2.775,1.385,3.354,3.13,.757,2.282-2.892,4.196-2.236,6.932,.317,1.322,1.21,1.049,2.459,2.907,2.125,3.16,.471,5.334,2.459,7.602,1.56,1.779,3.035,.965,4.025,2.683,1.285,2.23-.609,4.626,.671,5.814,.87,.807,1.86-.191,4.025,.447,1.682,.496,3.684,1.864,4.249,3.801,.495,1.696-.444,2.689,.224,3.354,1.044,1.04,3.638-1.095,5.143,0,1.261,.918,.211,2.981,1.342,3.801,1.676,1.217,4.989-2.587,7.603-1.342,1.551,.739,1.237,2.484,2.683,2.907,1.697,.496,2.673-1.749,5.59-2.907,4.074-1.617,6.435,1.068,8.721-.671,2.36-1.796,2.454-6.644,.895-7.602-.948-.583-1.942,.621-4.249,1.118-5.127,1.105-10.455-2.639-10.286-3.13,.152-.441,5.156,.48,5.143,1.118-.013,.615-4.723,1.968-8.049,0-.868-.513-1.696-1.386-3.354-3.13-2.216-2.333-2.038-2.649-2.907-3.13-2.836-1.571-6.356,.895-6.932,0-.672-1.045,4.105-4.433,3.354-6.037-.773-1.652-6.816-.144-7.155-1.342-.196-.69,1.794-1.252,2.46-3.354,.324-1.022,.419-2.676-.447-3.578-1.631-1.698-5.709,.278-6.038-.447-.418-.923,6.288-3.91,5.814-5.814-.346-1.391-4.439-1.855-6.932-1.789-2.175,.058-3.688,.536-3.801,.224-.241-.668,6.588-3.115,6.261-4.696-.125-.606-1.5-1-4.249-1.789-2.278-.653-3.011-.663-3.13-1.118-.326-1.247,4.794-2.669,4.696-4.919-.011-.256-.088-.478-2.683-3.578-1.376-1.644-1.566-1.834-1.565-2.236,.005-1.89,4.225-2.46,4.249-4.025,.024-1.585-4.293-1.532-7.155-5.143-1.763-2.224-1.345-3.783-2.683-4.248Z"/>
      </g>
    </g>
  </g>
</svg>