<?xml version="1.0" encoding="UTF-8"?>
<svg xmlns="http://www.w3.org/2000/svg" viewBox="0 0 820.202 550.415">
  <defs>
    <style>
      .cls-1, .cls-2 {
        fill: #f1c9b9;
      }

      .cls-1, .cls-3 {
        stroke: #231f20;
        stroke-linecap: round;
        stroke-linejoin: round;
        stroke-width: 2px;
      }

      .cls-2 {
        mix-blend-mode: multiply;
      }

      .cls-4 {
        fill: #fd9753;
      }

      .cls-5 {
        fill: #fdbe95;
        opacity: .49;
      }

      .cls-6 {
        fill: #fff;
        opacity: .23;
      }

      .cls-7 {
        isolation: isolate;
      }

      .cls-8, .cls-9 {
        fill: #df7043;
      }

      .cls-9 {
        opacity: .59;
      }

      .cls-3 {
        fill: none;
      }

      .cls-10 {
        fill: #262262;
        opacity: .41;
      }

      .cls-11 {
        fill: #231f20;
      }

      .cls-12 {
        fill: #324e99;
      }
    </style>
  </defs>
  <g class="cls-7">
    <g id="_Слой_13" data-name="Слой 13">
      <g id="_Слой_24" data-name="Слой 24">
        <g id="_Слой_29" data-name="Слой 29">
          <g>
            <g>
              <path class="cls-1" d="M216.743,503.027c-1.727,.296-3.562-.094-5.218-.58-1.498-.44-2.946-1.005-4.301-1.784-2.006-1.154-4.166-2.006-6.197-3.112-.843-.459-1.684-.93-2.473-1.479-.707-.692-1.438-1.356-2.182-1.991-1.764-1.503-3.721-2.917-5.806-4.113-1.25-.257-2.515-.465-3.778-.569,.347,.151,.695,.297,1.037,.462,2.103,1.011,4.102,2.235,5.965,3.638,1.897,1.428,3.647,3.049,5.238,4.811,1.156,1.28,2.293,2.627,3.194,4.103,.702,1.151,1.317,2.367,1.818,3.619,.472,1.177,.996,2.569,.831,3.863-.165,1.296-1.395,1.401-2.495,1.168-2.054-.436-3.842-2.003-5.387-3.334-.882-.76-1.741-1.547-2.64-2.286-1.006-.826-2.109-1.519-3.187-2.246-1.3-.876-2.684-1.633-3.972-2.522-.646-.446-1.256-.964-1.933-1.353-.381-.339-.767-.674-1.162-.997-2.128-1.743-4.415-3.16-7.012-4.093-1.916-.688-3.897-1.145-5.891-1.54-.454-.022-.909-.037-1.364-.039-1.013-.002-2.146,.034-3.239,.232,1.873,.47,3.788,.782,5.672,1.209,2.607,.59,5.177,1.383,7.498,2.735,2.28,1.328,4.328,3.095,6.156,4.987,1.85,1.915,3.551,4.059,4.727,6.459,.746,1.523,1.291,3.251,1.233,4.964-.022,.66-.158,1.499-.777,1.868-.749,.446-1.747,.08-2.469-.243-1.799-.805-3.286-2.121-4.987-3.091-2.345-1.337-4.812-2.484-7.314-3.495-5.073-2.049-10.386-3.479-15.804-4.241-5.371-.756-10.952-.88-16.305,.089-2.907,.526-5.754,1.335-8.598,2.121-2.694,.744-5.423,1.571-8.204,1.918-4.05,.505-9.194,.195-11.648-3.579-2.039-3.136-.88-7.153,.685-10.216,1.146-2.242,2.51-4.483,4.248-6.359,1.974-2.132,4.454-3.378,6.854-4.947,1.915-1.252,3.827-2.22,6.024-2.893,4.771-1.462,9.819-1.786,14.782-1.811,9.855-.05,19.784,.549,29.508,2.187,9.804,1.652,19.485,4.432,28.349,8.997,2.634,1.356,5.189,2.867,7.567,4.637,1.298,.966,2.558,2.012,3.631,3.229,.788,.893,1.664,2.029,1.706,3.275,.045,1.367-1.165,2.136-2.382,2.345Z"/>
              <path class="cls-2" d="M202.224,502.413c-.901-1.476-2.038-2.823-3.194-4.103-1.591-1.762-3.341-3.383-5.238-4.811-1.864-1.403-3.862-2.627-5.965-3.638-.342-.164-.691-.311-1.037-.462,1.264,.104,2.528,.312,3.778,.569,2.085,1.196,4.042,2.611,5.806,4.113,.744,.634,1.475,1.298,2.182,1.991,.789,.549,1.63,1.02,2.473,1.479,.731,.398,1.48,.761,2.232,1.12-.054-.075-.113-.148-.166-.225-.433-.633-.896-1.411-.808-2.211,.082-.748,.709-1.252,1.387-1.471,.872-.282,1.83-.213,2.718-.051,1.1,.201,2.172,.562,3.206,.984,1.802,.735,3.632,1.651,5.18,2.844,1.102,.849,2.058,1.83,2.87,2.961,.211,.294,.411,.596,.605,.901,.533-.397,.9-.964,.875-1.721-.042-1.246-.918-2.382-1.706-3.275-1.072-1.216-2.333-2.262-3.631-3.229-2.379-1.771-4.934-3.281-7.567-4.637-8.864-4.564-18.544-7.345-28.349-8.997-9.724-1.638-19.653-2.238-29.508-2.187-4.963,.025-10.011,.349-14.782,1.812-2.197,.673-4.11,1.642-6.024,2.893-1.604,1.048-3.239,1.958-4.739,3.078,.916,.768,1.876,1.49,2.88,2.156,4.637,3.077,9.952,5.004,15.34,6.291,5.596,1.336,11.329,2.017,17.054,2.504,1.899,.161,3.791,.265,5.692,.36,2,.1,4.004,.271,5.972,.649,1.802,.346,3.805,.833,5.252,2.03,.578,.478,1.04,1.089,1.226,1.824,.211,.835,.024,1.703-.314,2.478-.048,.111-.164,.178-.285,.164-.658-.077-1.301-.238-1.929-.447-1.367-.455-2.647-1.125-3.973-1.681-1.398-.586-2.897-.943-4.381-1.235-3.016-.593-6.079-.747-9.121-1.131-6.268-.792-12.629-1.021-18.898-.109-2.126,.309-4.183,.795-6.256,1.339-1.849,.485-3.715,.945-5.617,1.169-1.781,.21-3.67,.237-5.379-.382-1.702-.617-3.001-1.946-3.571-3.667-.36-1.087-.462-2.227-.401-3.367-1.375,2.955-2.223,6.603-.338,9.502,2.454,3.775,7.598,4.085,11.648,3.579,2.78-.347,5.51-1.173,8.204-1.918,2.845-.786,5.692-1.595,8.598-2.121,5.352-.969,10.933-.845,16.305-.089,5.418,.763,10.732,2.192,15.804,4.241,2.502,1.011,4.968,2.158,7.314,3.495,1.701,.97,3.188,2.285,4.987,3.091,.722,.323,1.721,.69,2.469,.243,.619-.369,.755-1.209,.777-1.868,.058-1.713-.486-3.441-1.233-4.964-1.176-2.4-2.877-4.544-4.727-6.459-1.828-1.893-3.876-3.659-6.156-4.987-2.321-1.352-4.891-2.144-7.498-2.735-1.884-.427-3.799-.739-5.672-1.208,1.093-.197,2.226-.234,3.239-.232,.455,.001,.91,.017,1.364,.039,1.994,.394,3.975,.852,5.891,1.54,2.597,.933,4.883,2.349,7.012,4.093,.394,.323,.78,.657,1.162,.997,.677,.389,1.287,.907,1.933,1.353,1.006,.694,2.069,1.309,3.106,1.962-.472-.589-.927-1.191-1.326-1.833-.448-.721-.987-1.642-.845-2.531,.148-.928,1.062-1.303,1.891-1.437,2.617-.423,5.28,.786,7.222,2.463,2.122,1.831,3.689,4.253,4.905,6.755,.773,1.592,1.421,3.258,1.916,4.965,.422-.172,.735-.516,.812-1.123,.165-1.293-.36-2.686-.831-3.863-.501-1.252-1.116-2.468-1.818-3.619Z"/>
            </g>
            <path class="cls-4" d="M155.761,417.362c1.985-4.409,4.436-10.632,6.351-18.324,6.057-24.34,2.006-44.408,.125-53.23-2.109-9.886-5.201-18.629-8.61-26.167,.652,1.935,1.274,3.881,1.859,5.841,1.735,5.817-7.336,8.279-9.061,2.498-2.001-6.707-4.451-13.239-7.105-19.691-14.604,1.926-29.208,3.851-43.812,5.778-.571,3.132-1.52,8.465-2.408,14.211-.748,4.835-1.121,7.254-1.137,7.884-.038,1.533,.044,2.662-.513,4.075-.811,2.055-2.44,3.358-3.739,4.154,1.002,.498,2.073,1.25,2.258,2.337,.376,2.21-3.205,4.099-2.684,5.375,.195,.48,.982,.901,3.415,.786-.216,8.015,.519,14.323,1.281,18.742,.976,5.666,2.075,8.695,1.117,13.655-.713,3.694-2.401,7.603-1.5,8.113,.75,.424,2.608-1.888,3.212-1.456,.777,.556-1.991,4.6-.711,6.079,.496,.573,1.456,.594,2.352,.464,3.936,7.549,7.872,15.099,11.808,22.648-.106,9.133-.212,18.265-.318,27.398-1.886,3.041-2.539,4.851-1.959,5.433,.312,.313,.981,.27,2.007-.129-2.218,2.42-2.495,3.48-2.195,3.969,.353,.574,2.243,1.571,2.246,1.591,.002,.014,.002,.027,.002,.027v.004c-.182,11.254,3.667,18.346,3.667,18.346,6.667,6.817,10.218,10.039,10.649,9.664,.082-.071,.052-.272-.092-.604-.712,3.156-.435,4.058-.02,4.269,1.068,.541,3.538-3.251,4.812-2.654,1.202,.563,.187,4.498,1.022,4.758,.933,.29,2.638-4.486,4.239-4.245,1.322,.199,1.284,3.625,2.587,3.834,1.572,.252,2.346-4.615,5.035-5.152,3.153-.63,5.912,5.303,8.11,4.493,1.966-.725,1.038-5.941,3.003-6.533,1.689-.509,3.644,2.964,4.751,2.46,.604-.275,.893-1.705-.056-6.205,2.204-2.263,5.076-5.826,6.819-10.787,2.644-7.525,.773-13.804-1.071-24.457-1.348-7.786-3.209-17.714-5.736-29.251Z"/>
            <path class="cls-5" d="M97.085,335.013c-2.188-.907-5.029,6.05-4.047,8.454,.87,2.128,4.432-.061,5.126,1.928,.804,2.305-3.368,7.005-2.565,9.128,.601,1.588,3.311-.05,4.064,1.782,.844,2.051-1.865,5.781-.98,8.033,.719,1.828,3.015,.667,3.632,2.426,.691,1.973-1.801,4.56-1.098,7.171,.551,2.046,2.359,1.488,3.108,3.668,.979,2.851-1.463,5.691-.481,9.134,.475,1.664,1.107,1.221,2.387,3.475,2.177,3.835,1.3,6.799,3.215,9.504,1.502,2.121,2.483,.921,3.54,3.024,1.372,2.729,.352,6.004,1.537,7.395,.805,.945,1.384-.44,3.146,.153,1.369,.46,3.136,2.008,3.908,4.436,.676,2.126,.136,3.499,.762,4.283,.979,1.226,2.579-1.787,3.919-.538,1.123,1.047,.687,3.805,1.693,4.74,1.492,1.387,3.345-3.844,5.556-2.519,1.312,.786,1.381,3.06,2.557,3.451,1.38,.459,1.728-2.526,3.746-4.318,2.819-2.503,5.091,.698,6.527-1.774,1.482-2.553,.697-8.788-.66-9.855-.825-.649-1.371,1.001-3.04,1.88-3.712,1.956-8.432-2.293-8.39-2.943,.038-.582,4.014,.077,4.116,.897,.099,.792-3.251,3.022-6.133,.843-.752-.568-1.537-1.602-3.108-3.668-2.1-2.763-2.02-3.188-2.768-3.715-2.438-1.721-4.685,1.815-5.282,.726-.696-1.271,2.346-6.122,1.491-8.103-.881-2.041-5.219,.529-5.689-.973-.271-.866,1.146-1.796,1.283-4.564,.066-1.347-.153-3.48-.972-4.547-1.543-2.009-4.301,.954-4.679,.058-.481-1.141,4.102-5.678,3.404-8.074-.509-1.75-3.71-1.918-5.597-1.571-1.647,.302-2.716,1.074-2.857,.685-.302-.832,4.471-4.689,3.942-6.685-.203-.765-1.319-1.128-3.553-1.852-1.851-.6-2.412-.536-2.583-1.108-.469-1.567,3.182-3.929,2.71-6.808-.054-.327-.151-.604-2.676-4.313-1.339-1.967-1.517-2.191-1.587-2.707-.33-2.428,2.785-3.601,2.527-5.613-.261-2.037-3.542-1.518-6.359-5.854-1.736-2.671-1.692-4.717-2.794-5.174Z"/>
            <path class="cls-9" d="M159.191,335.886c-.642-.691-1.375-1.534-2.055-2.683-1.256-2.122-1.485-3.854-1.485-5.649-.656,4.24-7.724,5.46-9.226,.426-1.94-6.503-4.303-12.842-6.864-19.104-5.338,1.072-11.079,1.071-16.269,1.628-5.243,.563-10.465,1.295-15.703,1.91-1.951,.229-8.958,.183-12.145,1.137-.279,2.917-.038,6.318-.321,9.036-.015,.141-.057,.259-.08,.392,.038,.13,.074,.25,.113,.381,1.219,4.131,1.943,6.059,3.591,8.073,2.386,2.916,6.248,5.449,7.316,4.593,.39-.313,.332-1.016,.329-1.05-.1-1.05-1.396-1.3-2.659-2.626-1.034-1.085-1.53-2.349-1.408-2.443,.327-.254,5.662,7.534,10.897,8.227,.65,.087,1.54,.094,1.646-.211,.152-.437-1.467-1.044-2.798-2.89-.672-.931-1.21-2.095-1.015-2.252,.352-.284,2.387,3.323,6.6,5.314,2.33,1.102,2.51,.377,4.811,1.597,2.864,1.519,3.512,3.133,5.563,3.148,1.36,.01,2.895-.687,3.057-1.569,.163-.882-1.164-1.304-2.252-3.293-.9-1.645-1.103-3.386-.876-3.483,.308-.132,1.224,2.849,4.053,5.928,2.336,2.541,3.936,2.929,4.357,3.019,1.565,.332,2.854-.049,3.897-.358,.966-.286,3.856-1.141,4.07-2.757,.094-.712-.411-.959-1.015-2.252-1.016-2.177-1.048-4.619-.659-4.755,.491-.172,1.076,3.54,4.246,5.948,2.023,1.536,4.162,1.83,5.331,1.977,2.722,.342,6.601-.07,8.097-1.5-.41-1.277-.786-2.564-1.146-3.858Z"/>
            <path class="cls-9" d="M155.486,325.482c.098,.329,.152,.645,.184,.952,.018-.526,.04-1.061,.051-1.624-.007-.019-.014-.037-.021-.055-.424-1.016-.901-2.009-1.397-2.992,.4,1.237,.81,2.471,1.183,3.719Z"/>
            <path class="cls-8" d="M107.806,470.23c.027,.66,3.738,2.722,11.16,6.82,7.071,3.904,8.35,4.367,10.191,4.416,4.097,.109,4.264-2.01,10.242-2.516,3.808-.322,4.954,.436,8.306-.503,2.244-.628,2.205-1.101,5.86-2.739,6.135-2.751,8.716-2.528,9.274-4.36,.714-2.346-2.657-5.536-3.363-6.205-12.385-11.723-51.927-1.234-51.67,5.087Z"/>
            <path class="cls-3" d="M155.761,417.362c1.985-4.409,4.436-10.632,6.351-18.324,6.057-24.34,2.006-44.408,.125-53.23-2.109-9.886-5.201-18.629-8.61-26.167,.652,1.935,1.274,3.881,1.859,5.841,1.735,5.817-7.336,8.279-9.061,2.498-2.001-6.707-4.451-13.239-7.105-19.691-14.604,1.926-29.208,3.851-43.812,5.778-1.493,8.812-2.986,17.623-4.478,26.435-3.709,3.894-4.238,5.203-3.92,5.625,.436,.578,2.523-.444,2.885,.176,.249,.426-.609,1.132-1.599,2.938-.616,1.124-1.459,2.66-.99,3.211,.545,.642,2.633-.316,3.008-.492,.876,11.006,1.753,22.012,2.629,33.018-1.495,5.598-1.885,8.545-1.168,8.844,.456,.19,1.361-.694,2.714-2.653-.792,4.407-1.212,7.844-.618,8.015,.573,.165,2.28-2.649,2.28-2.649,0,0,1.732,4.727,1.836,5.008,.91,2.473,3.371,7.665,10.171,19.591-.105,9.461-.209,18.924-.314,28.385-2.078,1.818-2.932,3.663-2.391,4.457,.467,.685,1.903,.491,2.294,.434-1.79,1.843-2.24,3.786-1.558,4.567,.096,.111,.525,.552,1.751,.419-.352,2.158-1.433,10.383,3.669,18.378,3.536,5.541,8.302,8.245,10.557,9.34-.391,3.687,.031,4.639,.503,4.807,1.197,.427,3.404-3.932,4.64-3.466,1.152,.435,.293,4.623,1.174,4.863,.966,.263,2.547-4.621,4.137-4.416,1.317,.17,1.344,3.668,2.683,3.857,1.469,.208,2.003-3.925,4.528-4.64,3.317-.939,6.754,4.956,8.888,3.913,1.826-.892,.525-5.804,2.236-6.429,1.528-.558,3.624,2.975,4.751,2.46,.617-.282,.887-1.752-.056-6.205,2.204-2.263,5.076-5.826,6.819-10.787,2.644-7.525,.773-13.804-1.071-24.457-1.348-7.786-3.209-17.714-5.736-29.251Z"/>
          </g>
          <g>
            <path class="cls-12" d="M157.136,333.203c-34.146,4.811-48.651,2.731-55.082-.791-1.394-.763-7.153-4.193-10.684-2.007-1.839,1.138-3.007,3.776-2.526,5.901,.542,2.396,2.998,2.16,4.764,4.834,1.144,1.732,1.259,3.565,.493,11.551-.459,4.791-.688,7.186-.96,8.795-1.506,8.927,.014,23.009,2.72,42.908,3.677,27.043,3.971,23.835,4.871,34.212,1.693,19.518-.14,21.709,2.895,26.136,11.014,16.065,53.705,14.285,63.074-2.986,.529-.975,.878-1.864,1.094-2.752,2.2-9.044,.08-16.97-.708-19.518-1.417-4.58-.095-3.648,1.102-42.83,.813-26.598,.31-30.496-.189-33.444-2.246-13.282-7.158-23.537-10.862-30.008Z"/>
            <path class="cls-10" d="M135.28,348.944c-5.044-3.234-11.691-.657-18.532,2.104-7.939,3.206-14.984,6.05-19.65,12.66-5.969,8.454-.847,12.868-4.157,28.909-.231,1.118-.448,2.021-.763,3.017,.82,.38,1.488,1.144,1.761,2.393,1.35,6.187,2.735,12.365,4.092,18.551,1.72-3.647,3.165-7.552,4.169-11.678,4.108-16.895-.419-32.087,8.691-37.412,1.735-1.014,1.54-.253,11.904-3.212,14.787-4.221,16.435-6.126,16.817-7.811,.625-2.755-1.899-5.961-4.331-7.521Z"/>
            <path class="cls-11" d="M101.114,444.081c6.193,9.353,14.252,18.622,25.981,20.217-12.248,1.373-22.374-9.392-25.981-20.217h0Z"/>
            <path class="cls-11" d="M134.966,442.706c11.154,1.188,23.433,.886,32.137-7.136-6.747,10.313-21.497,11.255-32.137,7.136h0Z"/>
            <path class="cls-11" d="M142.021,396.238c6.193,9.353,14.252,18.622,25.981,20.217-12.247,1.373-22.374-9.392-25.981-20.217h0Z"/>
            <path class="cls-11" d="M164.348,416.843c-7.892,.075-15.55,1.894-21.93,6.711,4.451-7.061,14.296-9.559,21.93-6.711h0Z"/>
            <path class="cls-6" d="M148.894,400.272c-.192,.198,2.654,4.64,7.427,8.925,4.058,3.644,5.349,3.439,5.947,3.162,.609-.283,.884-.82,2.098-4.796,1.939-6.35,2.112-7.839,1.473-9.352-.342-.81-1.034-1.904-1.508-1.782-1.155,.298,.866,7.36-1.852,9.934-1.313,1.243-3.194,.93-4.378,.734-5.579-.927-8.986-7.051-9.206-6.825Z"/>
            <path class="cls-10" d="M119.06,467.889c10.466,.687,11.264,1.508,15.494,1.323,5.8-.255,10.113-2.054,13.793-3.59,5.677-2.369,8.971-3.744,11.526-6.991,5.36-6.813,2.779-15.897,4.157-16.061,1.126-.134,4.37,6.178,2.834,12.471-1.648,6.75-7.998,10.207-12.849,12.849-12.247,6.669-24.273,5.176-28.91,4.535-6.86-.949-13.577-3.746-13.415-4.535,.027-.131,.295-.464,7.369,0Z"/>
            <path class="cls-3" d="M157.136,333.348c-34.146,4.811-48.651,2.731-55.082-.791-1.394-.763-7.153-4.193-10.684-2.007-1.839,1.138-3.007,3.776-2.526,5.901,.542,2.396,2.998,2.16,4.764,4.834,1.144,1.732,1.259,3.565,.493,11.551-.459,4.791-.688,7.186-.96,8.795-1.506,8.927,.014,23.009,2.72,42.908,3.677,27.043,3.971,23.835,4.871,34.212,1.693,19.518-.14,21.709,2.895,26.136,11.014,16.065,53.705,14.285,63.074-2.986,.529-.975,.878-1.864,1.094-2.752,2.2-9.044,.08-16.97-.708-19.518-1.417-4.58-.095-3.648,1.102-42.83,.813-26.598,.31-30.496-.189-33.444-2.246-13.282-7.158-23.537-10.862-30.008Z"/>
          </g>
        </g>
      </g>
    </g>
  </g>
</svg>