<?xml version="1.0" encoding="UTF-8"?>
<svg xmlns="http://www.w3.org/2000/svg" viewBox="0 0 820.202 550.415">
  <defs>
    <style>
      .cls-1, .cls-2 {
        fill: #f1c9b9;
      }

      .cls-1, .cls-3 {
        stroke: #231f20;
        stroke-linecap: round;
        stroke-linejoin: round;
        stroke-width: 2px;
      }

      .cls-2 {
        mix-blend-mode: multiply;
      }

      .cls-4 {
        fill: #fd9753;
      }

      .cls-5 {
        fill: #fdbe95;
        opacity: .49;
      }

      .cls-6 {
        fill: #fff;
        opacity: .23;
      }

      .cls-7 {
        isolation: isolate;
      }

      .cls-8, .cls-9 {
        fill: #df7043;
      }

      .cls-9 {
        opacity: .59;
      }

      .cls-3 {
        fill: none;
      }

      .cls-10 {
        fill: #262262;
        opacity: .41;
      }

      .cls-11 {
        fill: #231f20;
      }

      .cls-12 {
        fill: #324e99;
      }
    </style>
  </defs>
  <g class="cls-7">
    <g id="_Слой_13" data-name="Слой 13">
      <g id="_Слой_24" data-name="Слой 24">
        <g id="_Слой_30" data-name="Слой 30">
          <g>
            <g>
              <path class="cls-1" d="M105.614,538.52c-1.737-.231-3.373-1.149-4.81-2.105-1.3-.865-2.514-1.836-3.576-2.982-1.572-1.698-3.381-3.153-4.991-4.813-.669-.689-1.331-1.389-1.922-2.148-.469-.871-.97-1.722-1.492-2.549-1.237-1.959-2.685-3.892-4.32-5.654-1.117-.617-2.263-1.191-3.438-1.667,.286,.247,.575,.49,.853,.749,1.707,1.59,3.252,3.353,4.614,5.247,1.386,1.928,2.575,3.996,3.571,6.151,.723,1.566,1.408,3.19,1.83,4.867,.329,1.308,.554,2.651,.66,3.996,.1,1.264,.187,2.749-.355,3.935-.543,1.188-1.748,.923-2.729,.373-1.831-1.027-3.073-3.055-4.152-4.785-.616-.988-1.202-1.995-1.841-2.967-.715-1.087-1.562-2.077-2.375-3.091-.981-1.223-2.077-2.357-3.043-3.589-.484-.618-.913-1.294-1.443-1.867-.263-.438-.532-.872-.813-1.297-1.514-2.297-3.275-4.33-5.478-5.992-1.624-1.227-3.38-2.252-5.167-3.222-.427-.156-.857-.306-1.291-.443-.967-.304-2.06-.605-3.161-.742,1.649,1.005,3.384,1.872,5.056,2.84,2.313,1.339,4.531,2.86,6.346,4.841,1.782,1.946,3.212,4.242,4.395,6.592,1.197,2.378,2.183,4.931,2.593,7.572,.26,1.676,.265,3.488-.299,5.106-.217,.623-.597,1.385-1.298,1.553-.848,.203-1.692-.444-2.285-.967-1.478-1.304-2.507-3.003-3.843-4.434-1.842-1.974-3.856-3.803-5.944-5.511-4.234-3.465-8.882-6.41-13.828-8.748-4.904-2.319-10.195-4.097-15.594-4.763-2.932-.362-5.891-.436-8.84-.531-2.793-.09-5.645-.113-8.403-.608-4.017-.722-8.836-2.547-10.057-6.881-1.014-3.601,1.286-7.091,3.692-9.551,1.76-1.8,3.729-3.534,5.946-4.809,2.519-1.448,5.257-1.901,8.015-2.686,2.2-.626,4.314-.982,6.612-.971,4.99,.022,9.906,1.214,14.652,2.666,9.425,2.882,18.726,6.406,27.523,10.862,8.87,4.492,17.286,10.025,24.392,17.019,2.112,2.078,4.102,4.28,5.847,6.678,.952,1.308,1.844,2.682,2.507,4.162,.487,1.087,.986,2.432,.655,3.634-.363,1.318-1.748,1.693-2.972,1.531Z"/>
              <path class="cls-2" d="M91.933,533.617c-.421-1.677-1.106-3.301-1.83-4.867-.995-2.155-2.185-4.223-3.571-6.151-1.362-1.894-2.906-3.657-4.614-5.247-.278-.259-.567-.502-.853-.749,1.176,.476,2.321,1.05,3.438,1.667,1.635,1.762,3.083,3.695,4.32,5.654,.522,.827,1.023,1.678,1.492,2.549,.59,.759,1.253,1.458,1.921,2.148,.58,.598,1.187,1.167,1.798,1.732-.029-.088-.064-.175-.092-.264-.225-.733-.436-1.614-.114-2.351,.301-.69,1.049-.985,1.762-.993,.916-.01,1.81,.34,2.61,.76,.991,.519,1.906,1.182,2.768,1.893,1.502,1.238,2.976,2.656,4.1,4.256,.8,1.138,1.421,2.359,1.86,3.68,.114,.344,.215,.691,.31,1.04,.627-.22,1.146-.653,1.347-1.383,.331-1.202-.168-2.547-.655-3.634-.662-1.48-1.555-2.854-2.506-4.162-1.745-2.398-3.735-4.599-5.847-6.678-7.106-6.994-15.522-12.527-24.392-17.019-8.798-4.456-18.099-7.979-27.523-10.862-4.746-1.452-9.662-2.643-14.652-2.666-2.298-.01-4.412,.346-6.612,.971-1.843,.524-3.675,.906-5.44,1.53,.647,1.006,1.348,1.98,2.108,2.915,3.513,4.316,8.014,7.737,12.776,10.567,4.946,2.94,10.217,5.294,15.539,7.461,1.765,.719,3.54,1.38,5.328,2.036,1.879,.69,3.742,1.449,5.509,2.395,1.618,.866,3.385,1.927,4.411,3.499,.41,.628,.669,1.349,.628,2.106-.047,.86-.484,1.633-1.037,2.272-.079,.092-.21,.122-.321,.072-.605-.269-1.172-.614-1.709-1-1.17-.841-2.193-1.861-3.293-2.786-1.16-.976-2.485-1.762-3.815-2.482-2.703-1.463-5.582-2.52-8.373-3.792-5.749-2.62-11.754-4.73-18.011-5.723-2.122-.337-4.23-.484-6.371-.582-1.91-.087-3.828-.202-5.71-.554-1.763-.329-3.575-.864-5.022-1.964-1.441-1.095-2.287-2.751-2.319-4.563-.021-1.144,.221-2.264,.618-3.334-2.191,2.413-4.085,5.644-3.148,8.971,1.221,4.334,6.04,6.159,10.057,6.881,2.758,.496,5.61,.518,8.403,.608,2.95,.095,5.908,.169,8.84,.531,5.398,.666,10.69,2.444,15.594,4.763,4.946,2.339,9.594,5.284,13.829,8.748,2.088,1.709,4.102,3.538,5.944,5.511,1.336,1.432,2.365,3.13,3.843,4.434,.593,.523,1.438,1.17,2.285,.967,.7-.168,1.08-.93,1.298-1.553,.564-1.618,.559-3.43,.299-5.106-.409-2.641-1.396-5.194-2.593-7.572-1.183-2.35-2.613-4.646-4.395-6.592-1.814-1.981-4.033-3.502-6.346-4.841-1.672-.968-3.407-1.835-5.057-2.84,1.102,.137,2.195,.438,3.161,.742,.434,.136,.864,.286,1.291,.442,1.786,.969,3.542,1.995,5.167,3.221,2.202,1.663,3.964,3.695,5.478,5.992,.28,.425,.55,.859,.813,1.297,.53,.573,.959,1.249,1.443,1.867,.754,.962,1.586,1.865,2.382,2.797-.276-.703-.531-1.413-.721-2.145-.213-.822-.454-1.861-.054-2.668,.417-.842,1.401-.928,2.233-.809,2.625,.374,4.807,2.321,6.164,4.499,1.481,2.379,2.257,5.157,2.675,7.908,.265,1.749,.388,3.533,.353,5.309,.454-.039,.855-.274,1.109-.831,.542-1.186,.455-2.671,.355-3.935-.106-1.344-.332-2.688-.66-3.996Z"/>
            </g>
            <path class="cls-4" d="M43.378,317.558c-1.476,2.82-3.967,7.63-6.524,12.853-2.151,4.395-3.227,6.592-3.43,7.189-.492,1.453-.749,2.556-1.701,3.739-1.385,1.721-3.328,2.481-4.805,2.854,.809,.773,1.607,1.81,1.461,2.902-.298,2.222-4.278,2.96-4.161,4.334,.044,.517,.669,1.152,3.027,1.765-2.59,7.589-3.763,13.83-4.35,18.275-.753,5.7-.604,8.919-2.993,13.37-1.779,3.315-4.554,6.545-3.845,7.3,.59,.628,3.052-1.028,3.499-.436,.576,.762-3.269,3.801-2.487,5.593,.303,.694,1.214,1,2.108,1.142,1.513,8.378,3.026,16.756,4.54,25.134l-8.449,26.065c-2.706,2.342-3.867,3.877-3.486,4.605,.205,.392,.856,.55,1.955,.474-2.838,1.651-3.417,2.581-3.276,3.137,.166,.653,1.674,2.167,1.671,2.186-.002,.014-.006,.027-.006,.027,0,.002-.001,.004-.001,.004-3.521,10.691-1.954,18.607-1.954,18.607,.8,3.046,2.667,8.185,7.294,12.394,1.124,1.023,2.259,1.852,3.339,2.526-2.109,2.58-2.376,3.468-2.135,3.752,.595,.699,4.395-2.133,5.433-1.125,.826,.804-.764,3.399-.224,3.745,.757,.486,4.189-4.414,5.59-3.745,.918,.438,.302,2.949,1.174,3.242,.906,.304,2.19-2.194,2.973-1.892,.797,.307-.267,3.005,1.164,4.408,.628,.616,1.748,.993,2.627,.671,1.939-.711,1.502-4.381,2.992-4.778,.55-.146,1.4,.142,2.758,1.823,.53,.81,2.086,3.088,2.914,2.787,1.087-.395,.266-4.999,.168-5.534,4.1-1.29,10.102-3.908,14.486-9.551,4.147-5.336,4.658-11.549,6.249-23.669,1.028-7.835,2.203-17.868,3.22-29.634,3.206-3.619,7.397-8.832,11.512-15.607,13.02-21.438,15.119-41.803,15.946-50.785,1.489-16.183-.326-30.304-2.881-41.283-17.131-2.954-34.262-5.909-51.393-8.863Z"/>
            <path class="cls-5" d="M38.656,338.026c-1.819-1.517-6.6,4.282-6.377,6.869,.198,2.291,4.25,1.26,4.321,3.365,.082,2.44-5.299,5.687-5.163,7.953,.101,1.695,3.176,.937,3.351,2.91,.196,2.209-3.499,4.965-3.324,7.378,.142,1.959,2.681,1.533,2.746,3.396,.073,2.089-3.075,3.819-3.18,6.521-.082,2.117,1.81,2.122,1.877,4.426,.087,3.013-3.089,4.998-3.175,8.578-.041,1.73,.694,1.495,1.246,4.028,.938,4.309-.781,6.878,.244,10.03,.804,2.472,2.096,1.618,2.481,3.94,.499,3.013-1.449,5.837-.731,7.517,.488,1.142,1.452-.009,2.958,1.081,1.17,.846,2.397,2.85,2.412,5.397,.013,2.231-.91,3.382-.546,4.316,.57,1.462,2.994-.94,3.901,.651,.761,1.333-.475,3.837,.207,5.029,1.012,1.768,4.336-2.675,6.054-.753,1.019,1.141,.409,3.332,1.415,4.056,1.181,.849,2.401-1.898,4.861-3.008,3.435-1.551,4.654,2.18,6.759,.246,2.174-1.997,3.279-8.183,2.3-9.606-.595-.865-1.606,.548-3.462,.891-4.126,.764-7.368-4.697-7.135-5.304,.209-.545,3.809,1.267,3.663,2.08-.141,.785-4.003,1.918-6.107-1.019-.549-.766-.991-1.986-1.877-4.426-1.183-3.262-.981-3.644-1.538-4.37-1.816-2.368-5.013,.34-5.259-.877-.287-1.421,4.06-5.147,3.832-7.294-.234-2.21-5.14-1.046-5.142-2.621-.001-.907,1.628-1.374,2.582-3.976,.464-1.266,.889-3.368,.424-4.63-.875-2.377-4.39-.368-4.485-1.336-.12-1.232,5.604-4.202,5.651-6.696,.034-1.823-2.972-2.934-4.877-3.164-1.663-.201-2.913,.218-2.932-.195-.041-.884,5.663-3.148,5.751-5.21,.034-.791-.925-1.469-2.842-2.825-1.589-1.124-2.143-1.229-2.136-1.826,.019-1.635,4.207-2.805,4.612-5.694,.046-.329,.035-.622-1.272-4.913-.693-2.276-.797-2.543-.711-3.057,.407-2.416,3.73-2.61,4.082-4.608,.356-2.023-2.93-2.503-4.331-7.48-.863-3.067-.213-5.007-1.129-5.771Z"/>
            <path class="cls-9" d="M97.694,357.325c-.408-.851-.856-1.874-1.164-3.172-.849-3.579,.216-5.651,1.144-8.435-.002-.02-.002-.039-.004-.059-.543-5.814-2.37-11.467-3.752-17.112-.207-.846-.179-1.631-.009-2.352-.187-.174-.372-.332-.559-.473-7.389,.889-15.238-1.891-22.385-3.303-5.173-1.021-10.377-1.875-15.56-2.845-1.931-.362-8.607-2.489-11.934-2.525-1.134,2.703-1.915,6.021-2.994,8.532-.056,.131-.131,.23-.193,.35-.002,.135-.004,.261-.006,.397-.064,4.307,.054,6.363,1.029,8.775,1.411,3.493,4.346,7.06,5.62,6.56,.465-.182,.619-.872,.626-.904,.217-1.032-.947-1.656-1.759-3.298-.664-1.344-.762-2.697-.618-2.751,.388-.146,3.166,8.877,7.957,11.095,.596,.276,1.443,.548,1.635,.288,.275-.372-1.09-1.433-1.812-3.591-.364-1.089-.532-2.36-.3-2.452,.421-.166,1.292,3.882,4.722,7.036,1.897,1.745,2.285,1.106,4.119,2.955,2.283,2.302,2.422,4.035,4.376,4.659,1.295,.413,2.968,.205,3.385-.589,.418-.794-.723-1.591-1.171-3.814-.37-1.838-.046-3.561,.199-3.586,.333-.034,.321,3.084,2.107,6.865,1.475,3.121,2.888,3.967,3.263,4.178,1.395,.783,2.74,.802,3.827,.817,1.007,.014,4.021,.057,4.706-1.423,.302-.652-.107-1.038-.299-2.452-.323-2.381,.373-4.722,.785-4.736,.52-.018-.025,3.7,2.286,6.941,1.475,2.068,3.429,2.985,4.502,3.473,2.497,1.136,6.324,1.896,8.177,.975-.012-1.341,.012-2.682,.053-4.025Z"/>
            <path class="cls-8" d="M34.856,485.459c3.118-.724,4.893-2.725,9.587-2.742,3.452-.013,6.897,.815,6.897,.815,4.337,1.043,5.407,2.312,6.75,1.186,2.067-1.732,3.056-7.681,1.761-11.488-1.061-3.119-3.577-4.571-13.354-5.781-16.658-2.062-17.071,1.198-21.963-2.223-5.03-3.518-7.405-8.929-13.403-9.116-1.305-.041-4.186-.131-4.843,2.001-1.257,4.078,6.442,13.632,11.691,18.603,5.52,5.228,10.739,10.171,16.876,8.746Z"/>
            <path class="cls-3" d="M43.378,317.558c-4.045,7.969-8.09,15.939-12.135,23.908-4.698,2.615-5.593,3.708-5.415,4.205,.245,.682,2.541,.327,2.702,1.026,.111,.481-.918,.9-2.4,2.33-.923,.89-2.184,2.105-1.899,2.772,.33,.774,2.608,.48,3.018,.424-2.436,10.769-4.871,21.538-7.307,32.306-3.092,4.9-4.34,7.599-3.745,8.097,.379,.317,1.506-.258,3.379-1.726-2.066,3.972-3.49,7.129-2.973,7.469,.498,.328,2.964-1.851,2.964-1.852,0,0,.249,5.028,.264,5.327,.134,2.632,.94,8.321,3.886,21.729-2.913,9.003-5.826,18.005-8.739,27.008-2.524,1.118-3.888,2.625-3.608,3.545,.242,.792,1.671,1.035,2.06,1.096-2.257,1.228-3.264,2.948-2.845,3.897,.059,.134,.337,.683,1.547,.92-.961,1.978-4.262,9.373-1.961,18.638,2.363,9.514,9.032,14.551,10.786,15.795-2.312,2.609-2.763,3.526-2.557,3.765,.528,.612,5.379-3.216,6.373-2.236,.712,.702-1.093,3.338-.58,3.714,.733,.537,4.839-4.536,6.002-3.825,.814,.497-.392,3.476,.354,3.841,.774,.378,2.618-2.555,3.447-2.164,.828,.391-.518,3.553,.894,4.696,.488,.395,1.261,.513,1.869,.309,1.899-.639,1.626-4.248,3.442-4.669,.373-.087,.68-.003,.895,.056,2.148,.587,1.996,4.082,3.838,4.534,.649,.159,1.318-.114,1.696-.453,.963-.864,.918-2.942-.391-5.087,4.1-1.29,10.102-3.908,14.486-9.551,4.147-5.336,4.658-11.549,6.249-23.669,1.028-7.835,2.203-17.868,3.22-29.634,3.206-3.619,7.397-8.832,11.512-15.607,13.02-21.438,15.119-41.803,15.946-50.785,1.489-16.183-.326-30.304-2.881-41.283-17.131-2.954-34.262-5.909-51.393-8.863Z"/>
          </g>
          <g>
            <path class="cls-12" d="M34.267,326.003c-1.323-.244-5.45-1.019-9.07,1.134-.826,.491-3.81,2.434-3.857,5.131-.043,2.456,2.399,2.811,3.479,5.829,.699,1.955,.375,3.762-2.267,11.337-1.585,4.544-2.377,6.816-3.023,8.314-3.585,8.314-5.456,22.353-7.558,42.325-2.856,27.142-1.808,24.095-3.401,34.389-2.996,19.361-5.297,21.053-3.401,26.075,6.879,18.223,48.77,26.641,61.975,12.093,4.057-4.47,2.309-7.695,5.669-21.54,4.626-19.064,10.863-24.993,17.762-41.947,4.029-9.901,8.846-24.947,10.581-45.348,3.35-2.446,9.489-6.264,18.084-8.125,7.829-1.695,14.41-1.054,18.371-.361,.708-.116,2.2-.47,3.169-1.718,1.221-1.57,.876-3.606,.567-5.291-.684-3.717-2.181-3.814-2.549-6.425-.561-3.984,2.615-5.952,1.604-8.124-.512-1.1-2.086-2.226-6.803-2.267-4.849,1.113-10.424,2.086-16.627,2.645-7.491,.676-14.23,.597-19.974,.189-8.168-.597-14.782-1.532-19.273-2.267-14.434-2.362-29.075-3.392-43.459-6.046Z"/>
            <path class="cls-3" d="M35.093,326.003c-1.323-.244-5.45-1.019-9.07,1.134-.826,.491-3.81,2.434-3.857,5.131-.043,2.456,2.399,2.811,3.479,5.829,.699,1.955,.375,3.762-2.267,11.337-1.585,4.544-2.377,6.816-3.023,8.314-3.585,8.314-5.456,22.353-7.558,42.325-2.856,27.142-1.808,24.095-3.401,34.389-2.996,19.361-5.297,21.053-3.401,26.075,6.879,18.223,48.77,26.641,61.975,12.093,3.084-3.398,.676-4.25,5.669-21.54,3.851-13.336,8.298-23.501,11.293-29.723,4.316-8.965,4.121-6.64,6.468-12.224,7.397-17.596,8.909-37.506,8.909-37.506,.272-3.589,.254-5.53,1.672-7.842,2.154-3.513,8.063-5.256,19.792-8.599,6.459-1.841,8.436-2.045,10.692-1.415,2.58,.719,4.234,2.168,6.177,1.385,2.343-.944,2.964-4.269,2.989-4.413,.689-3.975-2.739-5.385-2.894-9.82-.155-4.432,3.16-6.119,2.231-7.937-1.24-2.427-7.825-.732-17.783,.414,0,0-12.053,1.388-25.361,.909-6.305-.227-10.549-1.565-19.273-2.267-10.622-.855-33.055-4.128-43.459-6.046Z"/>
            <path class="cls-10" d="M34.589,335.639c-2.84-1.678-6.505-4.498-6.046-5.479,.505-1.081,5.774,.56,10.959,1.889,9,2.308,16.436,3.161,31.309,4.868,5.027,.577,13.613,1.54,24.999,1.745,12.18,.219,18.269,.329,25.508-.945,6.325-1.113,14.501-3.267,14.927-2.079,.285,.796-3.308,1.958-3.401,4.346-.111,2.849,4.897,4.003,4.724,6.613-.127,1.909-2.981,3.93-5.291,3.59-2.924-.43-3.09-4.37-6.311-7.04-3.702-3.067-8.736-2.219-13.906-1.652-3.365,.369-10.746,.435-25.508,.567-13.559,.121-10.653-1.795-27.965-2.267-9.942-.271-16.615,.205-23.997-4.157Z"/>
            <path class="cls-10" d="M17.23,401.967c1.063,.209,.145,6.455,2.456,16.114,1.357,5.674,2.306,6.161,2.267,9.4-.05,4.142-1.62,4.888-4.535,12.892-1.589,4.362-2.936,9.12-4.157,13.429-1.648,5.819-2.097,8.105-2.835,8.057-1.021-.066-2.152-4.569-1.89-8.863,.224-3.662,1.354-5.405,4.346-12.354,2.812-6.531,4.219-9.796,4.346-11.549,.467-6.432-3.171-8.193-3.212-15.846-.033-6.036,2.195-11.48,3.212-11.28Z"/>
            <path class="cls-11" d="M24.554,334.255c6.98,6.276,15.508,10.089,24.753,11.525-9.475,1.469-19.854-3.235-24.753-11.525h0Z"/>
            <path class="cls-11" d="M6.153,445.987c6.193,9.353,14.252,18.622,25.981,20.217-12.247,1.373-22.374-9.392-25.981-20.217h0Z"/>
            <path class="cls-11" d="M116.16,340.633c7.834,1.06,16.794,3.98,23.738-1.229-4.946,7.689-17.048,5.124-23.738,1.229h0Z"/>
            <path class="cls-11" d="M58.596,399.241c6.193,9.353,14.252,18.622,25.981,20.217-12.248,1.373-22.374-9.392-25.981-20.217h0Z"/>
            <path class="cls-11" d="M80.922,419.846c-7.892,.075-15.55,1.894-21.93,6.711,4.451-7.061,14.296-9.559,21.93-6.711h0Z"/>
            <path class="cls-6" d="M62.486,395.918c-.361,.244,3.319,7.13,10.203,14.171,5.853,5.986,8.023,5.947,9.07,5.669,1.066-.283,1.639-.995,4.535-6.424,4.625-8.669,5.245-10.758,4.535-13.037-.38-1.221-1.272-2.916-2.078-2.834-1.968,.199-.237,10.658-5.291,13.794-2.441,1.514-5.464,.701-7.369,.189-8.969-2.412-13.192-11.805-13.604-11.526Z"/>
          </g>
        </g>
      </g>
    </g>
  </g>
</svg>