<?xml version="1.0" encoding="UTF-8"?>
<svg id="_Слой_26" data-name="Слой 26" xmlns="http://www.w3.org/2000/svg" viewBox="0 0 1078.846 1068.725">
  <defs>
    <style>
      .cls-1 {
        fill: #8a5033;
      }

      .cls-2 {
        fill: #100806;
      }

      .cls-3 {
        fill: #5e3722;
      }

      .cls-4 {
        fill: #452709;
        opacity: .45;
      }

      .cls-4, .cls-5, .cls-6, .cls-7, .cls-8, .cls-9, .cls-10, .cls-11 {
        fill-rule: evenodd;
      }

      .cls-4, .cls-5, .cls-10 {
        isolation: isolate;
      }

      .cls-12 {
        fill: #944939;
      }

      .cls-5 {
        fill: #472614;
        opacity: .86;
      }

      .cls-6 {
        fill: #d09961;
      }

      .cls-6, .cls-8 {
        stroke: #100806;
        stroke-width: 2px;
      }

      .cls-6, .cls-8, .cls-9 {
        stroke-miterlimit: 10;
      }

      .cls-7 {
        fill: #ffc494;
      }

      .cls-8 {
        fill: #804b33;
      }

      .cls-9 {
        fill: #27221e;
        stroke: #000;
        stroke-width: 6px;
      }

      .cls-10 {
        fill: #cc825a;
        opacity: .31;
      }
    </style>
  </defs>
  <g id="_Слой_2" data-name=" Слой 2">
    <g id="_голова" data-name=" голова">
      <path class="cls-6" d="M200.2,180.457c38.377-3.513,83.753-4.981,134.458-1.401,46.87,3.309,88.524,10.241,123.953,18.208,1.305,48.757-.258,104.046-7.178,164.396-4.665,40.686-11.157,78.371-18.558,112.748-1.926-5.661-3.852-11.321-5.777-16.982-1.517,4.435-3.035,8.87-4.552,13.306l-7.353-10.505c-5.194,6.186-10.388,12.372-15.582,18.558-3.793-4.786-7.587-9.571-11.38-14.356-3.56,5.077-7.12,10.154-10.68,15.232-2.159-4.143-4.318-8.287-6.478-12.43-3.91,5.719-7.82,11.438-11.73,17.157-2.86-4.669-5.719-9.337-8.579-14.006-4.318,5.077-8.637,10.154-12.956,15.232-4.961-6.769-9.921-13.539-14.881-20.309-6.419,7.237-12.839,14.473-19.258,21.709-4.26-6.011-8.52-12.022-12.78-18.033-3.986,4.35-7.973,8.7-11.96,13.05-3.017-5.4-6.033-10.801-9.049-16.201-2.511,3.586-5.021,7.173-7.532,10.759-1.574-4.637-3.149-9.274-4.723-13.911l-18.033,18.033c-.88-12.131-2.189-29.029-4.027-49.196-1.829-20.071-4.021-44.128-6.889-66.027-5.588-42.667-10.543-52.709-17.672-93.457-3.708-21.198-8.317-52.488-10.804-91.574h0Z"/>
      <path class="cls-8" d="M200.2,180.457c-6.632,5.351-14.208,10.936-22.76,16.457-7.58,4.893-14.878,9.058-21.709,12.605,3.87,39.475,9.342,70.913,13.656,92.44,14.408,71.899,18.357,88.27,18.357,88.27,2.049,8.494,5.578,22.723,7.447,42.354,1.61,16.915,1.338,31.01,.807,40.599,3.268-4.493,6.536-8.987,9.804-13.481,.584,6.594,1.167,13.189,1.751,19.783,3.268-7.878,6.536-15.757,9.804-23.635,2.735,5.853,5.47,11.706,8.205,17.558,1.117-4.452,2.234-8.904,3.35-13.356,3.56,6.886,7.12,13.772,10.68,20.659-.82-45.137-5.243-82.347-9.629-109.772-5.196-32.484-9.77-47.669-16.226-84.15-7.685-43.417-11.492-80.017-13.536-106.332h0Z"/>
    </g>
    <g id="_тень" data-name=" тень">
      <g id="_Слой_8" data-name=" Слой 8">
        <path class="cls-5" d="M167.076,215.556c1.74,.135,4.197,.514,6.89,1.644,4.325,1.814,5.546,4.006,7.438,3.445,2.051-.609,1.744-3.519,4.583-7.463,1.641-2.28,3.53-3.79,4.969-4.751-2.01,7.542-4.019,15.085-6.029,22.627-5.95-5.168-11.901-10.335-17.851-15.502h0Z"/>
        <path class="cls-10" d="M168.329,217.592c.693,1.415,1.848,3.564,3.602,5.95,4.819,6.56,7.697,6.127,9.16,10.1,1.528,4.148-1.142,5.89-.626,14.171,.185,2.971,.693,5.385,1.096,6.968l4.228-23.253c-5.82-4.645-11.64-9.291-17.46-13.936h0Z"/>
      </g>
    </g>
    <g id="_складки" data-name=" складки">
      <g id="_Слой_3" data-name=" Слой 3">
        <path class="cls-2" d="M161.158,210.395c4.847,2.928,9.226,6.439,13.498,10.111,4.234,3.716,8.32,7.564,11.89,11.96-4.85-2.924-9.229-6.436-13.498-10.111-4.231-3.72-8.316-7.568-11.89-11.96h0Z"/>
        <path class="cls-2" d="M195.082,196.552c-4.813,14.496-8.268,29.415-10.121,44.577-.81,6.014-1.544,12.047-1.422,18.101,.167,5.992,1.004,12.015,2.751,17.755,1.79,5.792,4.469,11.326,6.598,17.039,5.457,14.376,8.392,29.757,8.766,45.064-1.643-15.223-5.056-30.137-10.767-44.284-2.265-5.709-5.044-11.195-6.885-17.11-.936-2.979-1.625-6.041-2.092-9.12-1.48-9.217-.585-18.617,.93-27.752,2.198-15.191,6.232-30.181,12.241-44.271h0Z"/>
        <path class="cls-2" d="M203.334,352.716c2.074,14.452,4.168,28.838,6.98,43.152,2.7,14.335,6.084,28.473,9.512,42.665-5.327-13.629-9.108-27.853-11.917-42.203-2.711-14.376-4.46-28.975-4.575-43.614h0Z"/>
      </g>
      <g id="_Слой_5" data-name=" Слой 5">
        <path class="cls-3" d="M175.867,265.282c2.51,7.126,.768,16.36-4.202,22.059,.409-1.92,.892-3.732,1.315-5.546,1.376-5.482,2.061-10.9,2.886-16.514h0Z"/>
        <path class="cls-3" d="M192.674,366.826c8.229,17.002,11.465,36.581,9.104,55.324-.664-9.382-1.486-18.661-3.035-27.912-1.489-9.26-3.689-18.314-6.068-27.412h0Z"/>
        <path class="cls-3" d="M223.487,409.194c8.495,12.05,10.445,28.701,4.902,42.368,2.034-14.942,.487-28.293-4.902-42.368h0Z"/>
        <path class="cls-1" d="M220.657,192.303c-3.053,22.687-.956,44.989,6.264,66.707-10.441-20.279-12.772-44.843-6.264-66.707h0Z"/>
        <path class="cls-1" d="M361.921,209.018c5.438,12.542,5.203,28.491-.808,40.793,1.25-6.783,2.108-13.499,2.22-20.357,.145-6.857-.46-13.605-1.413-20.436h0Z"/>
        <path class="cls-1" d="M263.118,416.693c2.915,6.854,4.708,14.118,5.888,21.453,1.122,7.344,1.624,14.811,.937,22.227-1.265-7.299-2.191-14.561-3.358-21.849-1.111-7.296-2.438-14.496-3.468-21.832h0Z"/>
        <path class="cls-1" d="M368.499,214.41c6.071,10.48,5.732,24.641-.939,34.767,3.375-11.83,3.65-22.774,.939-34.767h0Z"/>
      </g>
      <g id="_Слой_16" data-name=" Слой 16">
        <path class="cls-1" d="M453.529,202.834c-3.522,1.064-6.892,2.239-10.111,3.947-3.238,1.675-6.116,3.78-8.993,6.075,3.812-6.484,11.609-10.546,19.104-10.022h0Z"/>
        <path class="cls-1" d="M425.97,198.762c5.997,5.988,9.657,14.235,10.535,22.649,.637,6.538-.309,13.336-3.019,19.316,1.599-6.745,2.134-13.644,1.112-20.479-1.108-7.752-4.221-15.004-8.628-21.487h0Z"/>
        <path class="cls-1" d="M415.113,455.372c.359-4.454,.819-8.847,1.056-13.294,.281-4.444,.339-8.86,.51-13.326,.943,4.398,1.134,8.927,.888,13.408-.282,4.479-1.004,8.955-2.454,13.212h0Z"/>
      </g>
    </g>
    <g id="_глаза" data-name=" глаза">
      <g id="_Слой_4" data-name=" Слой 4">
        <path class="cls-9" d="M393.529,248.04c3.91,1.976,7.82,3.951,11.729,5.926,3.512-.79,7.024-1.58,10.537-2.371,.199,5.202,.398,10.404,.596,15.606,4.639,1.383,9.278,2.765,13.916,4.148-1.723,6.519-3.446,13.038-5.169,19.557,4.115,4.981,8.23,9.963,12.345,14.944-.603,6.081-1.206,12.162-1.808,18.243,3.446,4.675,6.892,9.35,10.338,14.025-2.584,4.412-5.169,8.823-7.753,13.235,1.392,3.687,2.783,7.375,4.175,11.062-4.705,2.305-9.41,4.609-14.115,6.914,2.253,3.292,4.506,6.585,6.759,9.877-4.506,2.239-9.013,4.478-13.519,6.717-.096,7.551-.192,15.102-.289,22.653-5.735,1.207-11.471,2.414-17.206,3.62-3.007,6.056-6.015,12.112-9.022,18.168-6.866,.199-13.733,.399-20.6,.598l-19.702,7.57c-6.885-5.618-13.77-11.236-20.655-16.855-8.377,2.589-16.754,5.178-25.131,7.767-3.22-6.803-6.44-13.606-9.659-20.41-6.188,2.7-12.376,5.399-18.563,8.099-3.247-10.667-6.494-21.334-9.741-32.002-8.085-6.321-16.169-12.643-24.254-18.964,1.922-5.531,3.844-11.062,5.765-16.594-3.311-6.195-6.623-12.39-9.934-18.585,2.516-3.484,5.032-6.969,7.549-10.453-2.193-5.617-4.387-11.235-6.58-16.852,2.723-3.074,5.447-6.149,8.17-9.223-.928-5.399-1.855-10.799-2.783-16.198,4.44-1.514,8.88-3.029,13.32-4.544,1.613-5.906,3.226-11.812,4.838-17.718,5.162-4.073,10.325-8.147,15.487-12.22,2.304,1.288,4.607,2.575,6.911,3.863,1.029-2.941,2.059-5.883,3.089-8.824,3.145,1.164,6.291,2.327,9.436,3.49,1.458-4.017,2.916-8.034,4.374-12.05,5.368,3.885,10.735,7.77,16.103,11.655,5.77-.755,11.54-1.51,17.31-2.265,.194,2.994,.388,5.987,.582,8.981,2.783-.197,5.566-.395,8.35-.593,3.214,4.507,6.427,9.015,9.641,13.522,5.275-3.447,10.55-6.894,15.824-10.341,6.447-1.06,12.893-2.121,19.34-3.181h0Z"/>
        <path class="cls-7" d="M442.743,336.864c0-1.092-.024-2.178-.059-3.262-2.336-3.17-4.672-6.339-7.009-9.509,.603-6.081,1.206-12.162,1.808-18.243-4.115-4.982-8.23-9.963-12.345-14.944,.664-2.511,1.327-5.023,1.991-7.534-2.777-5.564-7.781-13.869-16.385-21.736-6.88-6.29-13.73-10.169-18.791-12.527-5.922,.704-11.844,1.408-17.766,2.112-5.275,3.447-10.55,6.894-15.824,10.341-3.214-4.507-6.427-9.015-9.641-13.522-2.783,.197-5.566,.395-8.35,.593-.194-2.994-.388-5.987-.582-8.981-5.77,.755-11.54,1.51-17.31,2.265-.777-.562-1.553-1.124-2.33-1.686-35.866,8.588-64.171,36.619-73.149,72.333,1.038,2.658,2.076,5.317,3.114,7.975-1.92,2.659-3.84,5.318-5.76,7.977-.145,1.742-.246,3.495-.3,5.261,2.815,5.267,5.63,10.534,8.446,15.801-1.621,4.665-3.242,9.33-4.863,13.996,.406,1.458,.846,2.902,1.316,4.333,7.345,5.743,14.69,11.486,22.035,17.229,2.822,9.27,5.643,18.539,8.465,27.809,1.255,1.055,2.535,2.08,3.842,3.074,5.332-2.327,10.665-4.653,15.998-6.98,3.22,6.803,6.44,13.606,9.659,20.41,8.377-2.589,16.754-5.178,25.131-7.767,5.809,4.74,11.618,9.481,17.427,14.221,6.508-.528,12.84-1.679,18.933-3.401,1.332-.512,2.665-1.024,3.997-1.536,.341-.01,.683-.02,1.024-.03,9.36-3.192,18.088-7.745,25.956-13.417,.881-1.773,1.761-3.546,2.642-5.319,1.799-.379,3.599-.757,5.399-1.136,4.336-3.865,8.334-8.101,11.937-12.664,.053-4.158,.106-8.315,.159-12.473,3.724-1.85,7.447-3.7,11.17-5.55,.44-.901,.869-1.809,1.282-2.725-1.898-2.773-3.795-5.546-5.693-8.319,3.546-1.737,7.092-3.474,10.638-5.211,.617-2.17,1.158-4.371,1.629-6.599-.776-2.055-1.551-4.111-2.327-6.166,1.405-2.399,2.811-4.798,4.216-7.197,.175-2.409,.267-4.84,.267-7.293v-.002Z"/>
        <g id="_Слой_18" data-name=" Слой 18">
          <path class="cls-4" d="M442.743,336.864c0-1.092-.024-2.178-.059-3.262-2.336-3.17-4.672-6.339-7.009-9.509,.603-6.081,1.206-12.162,1.808-18.243-4.115-4.982-8.23-9.963-12.345-14.944,.664-2.511,1.327-5.023,1.991-7.534-1.362-2.78-3.039-5.785-5.11-8.896-5.638-8.463-12.214-14.25-12.214-14.25-6.204-5.458-12.597-8.916-17.851-11.118-5.922,.704-11.844,1.408-17.766,2.112-5.275,3.447-10.55,6.894-15.824,10.341-3.214-4.507-6.427-9.015-9.641-13.522-2.465,.175-4.929,.35-7.394,.525-.35-3.211-.7-6.422-1.049-9.634-2.217-.025-4.748,.09-7.516,.47-4.046,.554-7.508,1.524-10.283,2.515-.777-.562-1.553-1.124-2.33-1.686-35.866,8.588-64.171,36.619-73.149,72.333,1.038,2.658,2.076,5.317,3.114,7.975-1.92,2.659-3.84,5.318-5.76,7.977-.145,1.742-.246,3.495-.3,5.261,2.815,5.267,5.63,10.534,8.446,15.801-1.621,4.665-3.242,9.33-4.863,13.996,.406,1.458,.846,2.902,1.316,4.333,7.345,5.743,14.69,11.486,22.035,17.229-6.587-3.39-14.852-9.054-16.679-17.8-1.225-5.866,1.383-8.637,2.505-18.321,1.502-12.959-2.128-16.971-1.879-26.777,.31-12.241,6.348-21.028,13.31-31.161,4.428-6.445,19.309-26.534,45.411-35.076,7.235-2.368,14.095-4.517,22.236-2.505,11.737,2.9,11.867,10.924,22.079,13.78,16.305,4.559,27.899-12.562,37.425-6.107,3.712,2.515,4.505,6.845,15.972,17.694,.682,.646,.568,.512,.86,.807,2.132,2.159,5.634,7.053,12.137,24.09,4.49,11.762,6.76,17.801,7.986,25.524,1.227,7.727,2.155,13.576,.783,20.983-2.643,14.266-10.161,14.555-15.502,32.884-1.666,5.718-1.876,8.92-5.011,13.153-3.743,5.055-7.726,6.274-10.022,11.588-1.58,3.657-1.486,7.229-1.179,9.625,.881-1.773,1.761-3.546,2.642-5.319,1.799-.379,3.599-.757,5.399-1.136,4.336-3.865,8.334-8.101,11.937-12.664,.053-4.158,.106-8.315,.159-12.473,3.724-1.85,7.447-3.7,11.17-5.55,.44-.901,.869-1.809,1.282-2.725-1.898-2.773-3.795-5.546-5.693-8.319,3.546-1.737,7.092-3.474,10.638-5.211,.617-2.17,1.158-4.371,1.629-6.599-.776-2.055-1.551-4.111-2.327-6.166,1.405-2.399,2.811-4.798,4.216-7.197,.175-2.409,.267-4.84,.267-7.293h0Z"/>
        </g>
      </g>
      <g id="_Слой_13" data-name=" Слой 13">
        <path class="cls-11" d="M353.434,322.254c.557-5.677,2.727-19.535,13.592-31.599,19.548-21.704,49.341-17.728,52.007-17.327,.382,1.664,.765,3.328,1.147,4.992-2.36,.868-4.721,1.736-7.081,2.604,2.85,.265,5.699,.53,8.549,.795,.338,2.465,.675,4.93,1.013,7.395-15.498-.643-27.46,1.83-35.102,4.018-5.486,1.57-10.255,2.974-15.641,6.425-10.916,6.994-16.153,17.129-18.484,22.698h0Z"/>
        <path class="cls-11" d="M353.398,323.167c.241-5.959-.01-20.621-9.524-34.679-17.115-25.29-48.539-25.465-51.358-25.434l-6.031,15.823c16.141,1.567,28.171,5.85,35.77,9.216,5.455,2.416,10.19,4.557,15.271,8.906,10.297,8.814,14.259,20.064,15.871,26.166h0Z"/>
      </g>
    </g>
    <g id="_Слой_21" data-name=" Слой 21">
      <path class="cls-12" d="M414.443,378.441c4.853,3.363,6.293,10.439,3.306,15.513-.971,1.659-2.276,3.119-3.881,4.099,2.063-2.441,3.545-5.252,3.935-8.395,.546-4.04-.877-7.998-3.36-11.217h0Z"/>
      <path class="cls-12" d="M276.862,377.982c-1.326,4.547-1.478,9.372,.091,13.834,1.188,3.491,3.273,6.515,5.859,9.185-1.867-1.087-3.484-2.614-4.8-4.369-4.013-5.249-4.604-12.987-1.15-18.65h0Z"/>
      <path class="cls-12" d="M305.987,415.564c3.025,.969,5.94,2.044,8.956,2.97,3.007,.956,6.014,1.736,9.051,2.667-6.279,.24-12.983-1.866-18.008-5.637h0Z"/>
      <path class="cls-12" d="M266.997,374.851c-1.527-.459-5.304-1.964-5.56-3.714-.084-.697,.617-1.169,1.177-1.244,1.366-.198,2.499,.054,3.771,.327,1.177,.287,2.324,.66,3.431,1.186-1.816,.064-3.559-.12-5.337-.191-.571-.009-1.268-.062-1.781,.103-.003,0,.035-.02,.068-.081,.041-.06,.056-.138,.05-.19,.004-.019-.02-.058-.004-.02,.332,.574,.929,1.001,1.47,1.488,.889,.754,1.831,1.49,2.715,2.335h0Z"/>
      <path class="cls-12" d="M418.105,372.188c2.147-.764,4.42-1.171,6.712-1.1,1.386,.033,4.032,.492,3.681,2.467-.595,2.186-4.042,3.854-6.009,4.583,1.128-1.006,2.282-1.943,3.305-2.954,.576-.604,1.185-1.168,1.368-1.875-.231-1.361-7.605-.991-9.057-1.122h0Z"/>
      <path class="cls-12" d="M290.798,284.185c-9.761,5.672-16.626,14.3-20.043,25.054,1.319-11.158,9.437-21.331,20.043-25.054h0Z"/>
      <path class="cls-12" d="M267.623,316.13c-3.899,9.069-4.883,19.288-2.245,28.817,.839,3.166,2.041,6.242,3.498,9.235-3.93-5.43-6.112-12.133-6.349-18.841-.236-6.699,1.488-13.561,5.097-19.21h0Z"/>
      <path class="cls-12" d="M342.003,361.227c1.16-2.191,3.069-5.102,4.391-7.22,1.53-2.375,2.99-4.745,4.691-7.029-.707,2.784-1.988,5.365-3.51,7.782-1.55,2.399-3.349,4.65-5.572,6.468h0Z"/>
      <path class="cls-12" d="M354.686,350.423c1.298,3.292,2.549,6.527,4.087,9.691,1.508,3.179,3.246,6.179,4.996,9.256-5.151-4.817-8.551-11.915-9.082-18.947h0Z"/>
      <path class="cls-12" d="M357.771,365.594c.781,1.176,1.894,2.906,2.777,3.971,1.016,1.282,2.116,2.358,3.268,3.58-3.433-.611-6.201-4.068-6.045-7.552h0Z"/>
      <path class="cls-12" d="M339.815,366.166c1.387-1.511,3.418-3.461,4.858-4.932,1.449-1.472,3.346-3.527,4.842-4.947-1.604,4.354-5.379,8.189-9.7,9.878h0Z"/>
      <path class="cls-12" d="M407.144,299.531c6.892,2.927,11.717,10.366,11.588,17.851-1.984-7.242-5.767-13.103-11.588-17.851h0Z"/>
      <path class="cls-12" d="M420.964,321.688c4.057,6.996,4.141,16.221,.3,23.326,1.917-7.952,1.875-15.428-.3-23.326h0Z"/>
      <path class="cls-12" d="M262.142,320.358c.033-6.048,2.564-12.37,6.733-16.755-1.212,2.793-2.489,5.473-3.603,8.282-1.143,2.798-2.075,5.616-3.131,8.473h0Z"/>
      <path class="cls-12" d="M344.665,278.705c4.503,4.366,7.774,9.972,9.564,15.98,.606,2.014,1.024,4.083,1.306,6.168l-1.364-.097c2.292-8.402,7.601-16.036,14.922-20.798-6.457,5.558-11.345,12.93-13.577,21.167l-.941,3.417c-.345-3.072-.756-6.541-1.607-9.498-1.594-5.95-4.502-11.49-8.303-16.339h0Z"/>
    </g>
  </g>
</svg>