<?xml version="1.0" encoding="UTF-8"?>
<svg id="_Слой_26" data-name="Слой 26" xmlns="http://www.w3.org/2000/svg" viewBox="0 0 1078.846 1068.725">
  <defs>
    <style>
      .cls-1 {
        fill: #facf98;
      }

      .cls-1, .cls-2, .cls-3, .cls-4, .cls-5 {
        stroke-miterlimit: 10;
      }

      .cls-1, .cls-4, .cls-5 {
        stroke: #000;
        stroke-width: 3px;
      }

      .cls-6 {
        fill: #e8c08d;
      }

      .cls-2 {
        stroke: #e3a28a;
      }

      .cls-2, .cls-3 {
        stroke-width: 2px;
      }

      .cls-2, .cls-3, .cls-4 {
        fill: none;
      }

      .cls-7 {
        fill: #e3a28a;
      }

      .cls-8 {
        fill: #018785;
      }

      .cls-3 {
        stroke: #00c7c4;
      }

      .cls-9 {
        fill: #00c7c4;
      }

      .cls-10 {
        fill: #017a78;
      }

      .cls-5 {
        fill: #019d9a;
      }
    </style>
  </defs>
  <g id="_рука" data-name="рука">
    <g>
      <path class="cls-1" d="M195.197,518.768c-.764,7.068-1.273,14.721-1.37,22.891-.178,15.081,1.09,28.64,2.935,40.304-2.804,3.044-6.486,7.9-8.804,14.674-1.661,4.853-4.321,12.624-.978,20.543,2.711,6.422,7.978,9.645,10.761,11.348,7.798,4.772,22.242,9.011,33.01,1.243,5.165-3.726,7.752-8.965,9.056-12.917,4.094-.669,6.79-4.157,6.457-7.5-.24-2.407-2.031-4.547-4.527-5.552,.615-2.361,1.375-6.576,.418-11.665-.695-3.698-2.052-6.552-3.13-8.413,.74-11.778,1.395-23.714,1.957-35.804,.373-8.022,.698-15.979,.978-23.87-15.587-1.761-31.174-3.522-46.761-5.283Z"/>
      <path class="cls-5" d="M218.154,448.659c-2.148,1.28-5.176,3.442-7.826,6.913-2.524,3.305-3.617,6.371-5.152,11.283-1.559,4.988-3.419,11.385-5.283,18.978-3.021-.679-6.174,.38-8.152,2.739-2.036,2.428-2.494,5.837-1.174,8.739-.276,.189-2.839,2.009-2.954,5.328-.104,3,1.873,4.895,2.171,5.172-3.804,4.03-4.044,6.408-3.587,7.826,1.62,5.03,13.381,2.241,32.478,6.261,15.755,3.316,24.363,8.712,28.174,4.696,1.916-2.019,1.651-5.398,1.174-7.826,2.103,.507,4.164-.632,4.761-2.413,.469-1.401-.02-3.039-1.239-4.109,.266-.231,3.075-2.752,2.674-6.652-.285-2.777-2.089-5.199-4.696-6.326,1.159-4.553,2.221-10.417,2.413-17.283,.174-6.221-.411-11.633-1.176-15.963-10.869-5.788-21.738-11.575-32.607-17.363Z"/>
      <path class="cls-10" d="M191.48,490.594c1.339-1.397,4.344-.561,6.359,0,4.573,1.273,4.96,3.194,8.315,4.011,3.934,.958,4.709-1.364,9.391-1.174,4.918,.2,4.861,2.794,11.935,4.891,6.242,1.851,7.564,.21,11.935,2.641,2.964,1.649,3.111,2.824,6.359,4.109,3.842,1.52,5.855,.753,7.045,2.441,1.309,1.856,.731,5.415-1.175,6.754-1.743,1.224-4.642,.115-10.37-2.152-6.629-2.625-6.245-3.204-9.293-3.913-5.481-1.276-6.666,.685-11.881-.706-3.677-.981-3.184-1.981-8.271-4.088-3.066-1.27-7.618-3.154-13.207-3.033-5.221,.114-8.795,1.922-9.489,.685-.391-.698,.748-1.352,1.435-3.75,1.065-3.717-.281-5.471,.913-6.717Z"/>
    </g>
    <path d="M207.065,570.938c-3.009,3.035-3.514,7.299-1.304,10.957-3.638-2.757-2.872-9.127,1.304-10.957h0Z"/>
    <path d="M239.325,618.403c-5.422,.034-9.654-5.269-7.541-10.417-.352,2.262,.36,4.586,1.88,5.958,1.396,1.354,3.541,1.833,5.374,1.473,0,0,.287,2.986,.287,2.986h0Z"/>
    <path d="M225.412,633.704c-6.094-3.642-9.214-11.382-6.997-18.023-.503,3.272,.092,6.625,1.648,9.354,1.536,2.733,4.012,4.838,6.746,6.014l-1.397,2.655h0Z"/>
    <path class="cls-6" d="M226.102,630.707c-1.092-.55-4.383-2.384-6.383-6.418-1.902-3.837-1.501-7.376-1.304-8.609,.218,1.907,.784,4.826,2.389,8.03,1.698,3.39,3.847,5.673,5.299,6.997Z"/>
    <path class="cls-6" d="M239.333,615.42c-.541,.115-2.696,.506-4.712-.766-2.109-1.331-3.223-3.951-2.837-6.669,.19,.849,.793,3.017,2.755,4.908,1.87,1.801,3.935,2.349,4.793,2.527Z"/>
    <path class="cls-10" d="M246.458,525.159c-2.696,3.769-13.594-2.397-29.478-5.348-16.749-3.111-28.566-.701-29.609-4.696-.399-1.53,.982-3.232,2.217-4.435,2.644,1.495,6.735,3.439,12,4.435,8.35,1.58,10.674-.922,18.652,.783,6.406,1.368,6.86,3.398,14.739,5.348,4.968,1.229,9.204,1.515,12,1.565,.058,.67,.021,1.589-.522,2.348Z"/>
    <g>
      <path class="cls-9" d="M202.895,486.323c4.376,4.129,8.746,11.641,.365,14.088-1.834,.586-3.738,.857-5.183,1.53-.734,.33-1.11,.743-1.171,1.213-.112,.452,.293,1.142,.801,1.819,1.018,1.385,2.532,2.742,3.289,4.725,1.696,4.145-2.389,7.662-5.801,9.07,12.579-9.564-4.015-11.4,.591-17.62,1.879-1.829,4.831-1.857,6.93-2.547,7.143-1.462,2.582-8.424,.177-12.279h0Z"/>
      <path class="cls-9" d="M221.806,490.594c-1.84,2.834-2.699,6.532-.479,9.318,.483,.682,1.089,1.291,1.605,2.23,2.146,4.817-4.884,5.681-7.902,6.773-.924,.377-1.793,.744-1.368,1.383,.714,.942,1.862,1.688,2.708,2.643,2.625,2.599,3.787,6.557,3.089,10.131-.182-3.466-1.531-6.771-4.172-9.007-1.009-.927-2.2-1.569-3.12-2.723-.949-1.16-.427-2.867,.794-3.561,2.485-1.644,6.059-1.436,8.239-3.373,.993-1.224-.555-2.403-1.172-3.644-2.232-3.243-.947-7.707,1.779-10.169h0Z"/>
      <path class="cls-9" d="M244.068,497.207c-2.556,2.051-4.19,4.95-2.226,7.941,.357,.707,.89,1.486,.942,2.65-.032,3.395-4.069,3.672-6.385,4.481-.233,.089-.506,.207-.643,.363-.082,.102-.109,.112-.07,.246,.139,.471,.787,1.029,1.208,1.437,6.304,4.963,2.456,9.206-3.51,11.538,1.325-.987,2.646-1.976,3.716-3.144,1.087-1.125,1.864-2.566,1.473-3.743-.488-1.566-2.618-2.776-3.911-4.154-1.234-1.16-1.339-3.148,.311-4.074,1.648-.907,3.702-.859,5.215-1.726,.543-.301,.803-.731,.849-1.225-.058-1.344-1.304-2.995-1.309-4.571-.23-2.773,2.092-5.005,4.341-6.019h0Z"/>
      <path class="cls-3" d="M190.142,501.49c9.252,.413,20.767,1.736,33.62,5.147,10.921,2.899,20.19,6.61,27.652,10.174"/>
    </g>
    <path class="cls-4" d="M190.567,497.311c6.69,.235,12.445,.851,17.022,1.5,15.476,2.196,26.429,6.052,28.826,6.913,6.231,2.238,11.344,4.602,15.13,6.522"/>
    <path class="cls-8" d="M201.589,484.725c7.508,1.126,15.844,2.78,24.783,5.217,8.137,2.219,15.502,4.739,22.043,7.304,.977-3.482,1.89-7.945,2.152-13.174,.21-4.184-.045-7.888-.457-10.956-.713-1.426-6.274-12.087-19.109-15-12.711-2.885-22.257,4.167-23.543,5.152-1.957,7.152-3.913,14.304-5.87,21.456Z"/>
    <g>
      <path class="cls-9" d="M215.741,453.225c1.423,11.453-1.739,23.591-8.608,32.87,4.367-10.576,7.236-21.51,8.608-32.87h0Z"/>
      <path class="cls-9" d="M232.514,456.306c-3.122,11.497-6.203,22.886-9.321,34.384,.381-11.947,3.631-23.875,9.321-34.384h0Z"/>
      <path class="cls-9" d="M245.177,463.049c-5.735,9.696-8.464,20.786-7.234,32.024-4.117-10.753-.922-23.951,7.234-32.024h0Z"/>
      <path class="cls-9" d="M207.132,460.855c15.655-1.763,32.125,2.854,44.574,12.509-13.876-7.202-28.974-11.457-44.574-12.509h0Z"/>
      <path class="cls-9" d="M202.7,475.186c17.283,.721,34.486,6.347,48.846,15.995-15.665-7.175-31.966-12.528-48.846-15.995h0Z"/>
    </g>
    <path class="cls-5" d="M249.523,499.268c-8.864-3.475-19.001-6.833-30.326-9.587-6.771-1.647-13.23-2.899-19.304-3.848"/>
    <path class="cls-5" d="M248.023,518.768c-8.711-3.378-19.687-6.772-32.609-8.87-9.513-1.544-18.165-2.074-25.63-2.087"/>
    <path class="cls-4" d="M218.154,448.659c-2.148,1.28-5.176,3.442-7.826,6.913-2.524,3.305-3.617,6.371-5.152,11.283-1.559,4.988-3.419,11.385-5.283,18.978-3.021-.679-6.174,.38-8.152,2.739-2.036,2.428-2.494,5.837-1.174,8.739-.276,.189-2.839,2.009-2.954,5.328-.104,3,1.873,4.895,2.171,5.172-3.804,4.03-4.044,6.408-3.587,7.826,1.62,5.03,13.381,2.241,32.478,6.261,15.755,3.316,24.363,8.712,28.174,4.696,1.916-2.019,1.651-5.398,1.174-7.826,2.103,.507,4.164-.632,4.761-2.413,.469-1.401-.02-3.039-1.239-4.109,.266-.231,3.075-2.752,2.674-6.652-.285-2.777-2.089-5.199-4.696-6.326,1.159-4.553,2.221-10.417,2.413-17.283,.174-6.221-.411-11.633-1.176-15.963-10.869-5.788-21.738-11.575-32.607-17.363Z"/>
    <g>
      <path class="cls-2" d="M222.98,541.725c1.295,.594,2.002,2.018,1.696,3.391-.298,1.335-1.485,2.311-2.87,2.348"/>
      <path class="cls-2" d="M228.671,540.681c-1.031,1.469-.856,3.378,.261,4.435,.827,.783,2.087,1.019,3.261,.652"/>
      <path class="cls-2" d="M225.217,551.184c-.452-1.352,.348-2.756,1.545-3.069,1.251-.326,2.692,.604,2.87,2.087"/>
      <path class="cls-7" d="M210.458,544.985c-2.37,3.734-4.662,8.452-1.144,12.106,1.561,1.789,3.242,4.213,3.238,6.772,.131,2.618-.891,5.05-2.356,6.948,.737-2.293,1.188-4.625,.804-6.784-.353-3.581-4.226-5.581-5.098-9.168-.932-3.904,1.754-7.637,4.556-9.875h0Z"/>
    </g>
  </g>
</svg>