<?xml version="1.0" encoding="UTF-8"?>
<svg id="_Слой_26" data-name="Слой 26" xmlns="http://www.w3.org/2000/svg" viewBox="0 0 1078.846 1068.725">
  <defs>
    <style>
      .cls-1 {
        fill: #00dbd7;
        stroke: #ccc;
      }

      .cls-1, .cls-2, .cls-3, .cls-4, .cls-5, .cls-6 {
        stroke-miterlimit: 10;
      }

      .cls-7 {
        fill: #d1ad7f;
      }

      .cls-2 {
        fill: #bfbfbf;
        stroke: #a6a6a6;
      }

      .cls-8 {
        fill: #008785;
      }

      .cls-9 {
        fill: #018785;
      }

      .cls-3, .cls-4 {
        fill: none;
      }

      .cls-3, .cls-4, .cls-5, .cls-6 {
        stroke: #000;
      }

      .cls-3, .cls-6 {
        stroke-width: 3px;
      }

      .cls-10 {
        fill: #01807d;
      }

      .cls-11 {
        fill: #00c7c4;
      }

      .cls-4, .cls-5 {
        stroke-width: 2px;
      }

      .cls-5, .cls-6 {
        fill: #019d9a;
      }

      .cls-12 {
        fill: #017a78;
      }

      .cls-13 {
        fill: #018a87;
      }
    </style>
  </defs>
  <g>
    <g>
      <path class="cls-7" d="M404.936,517.985c-2.714,10.355,1.104,23.115,5.87,23.674,3.843,.451,10.3-6.797,21.522-44.022-13.283,.322-24.373,8.832-27.391,20.348Z"/>
      <path d="M404.936,517.985c-1.484,6.132-1.034,12.893,1.595,18.629,1.105,2.369,3.494,5.823,6.274,3.718,2.327-1.837,3.781-4.804,5.156-7.439,1.992-4.062,3.796-8.833,5.425-13.097,2.717-7.411,5.283-15.014,7.89-22.475,0,0,1.078,1.414,1.078,1.414-2.944-.022-5.914,.323-8.782,1.134-8.736,2.342-16.329,9.232-18.636,18.116h0Zm0,0c1.518-5.956,5.249-11.198,10.088-14.961,5.247-4.11,11.964-6.397,18.746-6.574,0,0-.391,1.504-.391,1.504-3.139,11.509-10.181,36.692-19.745,43.662-5.679,3.171-8.325-5.211-9.083-9.364-.864-4.706-.823-9.633,.385-14.267h0Z"/>
    </g>
    <path class="cls-6" d="M403.24,446.254c2.148,1.28,5.176,3.442,7.826,6.913,2.524,3.305,3.617,6.371,5.152,11.283,1.559,4.988,3.419,11.385,5.283,18.978,3.021-.679,6.174,.38,8.152,2.739,2.036,2.428,2.494,5.837,1.174,8.739,.276,.189,2.839,2.009,2.954,5.328,.104,3-1.873,4.895-2.171,5.172,3.804,4.03,4.044,6.408,3.587,7.826-1.62,5.03-13.381,2.241-32.478,6.261-15.755,3.316-24.363,8.712-28.174,4.696-1.916-2.019-1.651-5.398-1.174-7.826-2.103,.507-4.164-.632-4.761-2.413-.469-1.401,.02-3.039,1.239-4.109-.266-.231-3.075-2.752-2.674-6.652,.285-2.777,2.089-5.199,4.696-6.326-1.159-4.553-2.221-10.417-2.413-17.283-.174-6.221,.411-11.633,1.176-15.963,10.869-5.788,21.738-11.575,32.607-17.363Z"/>
    <path class="cls-10" d="M420.099,484.235c-.793-3.268-1.66-6.618-2.609-10.043-.95-3.433-1.932-6.76-2.935-9.978-2.593,3.012-5.186,6.024-7.779,9.035,.245,4.401,.49,8.802,.735,13.204l12.587-2.217Z"/>
    <g>
      <path class="cls-11" d="M402.784,448.529c1.851,12.472,6.033,24.488,12.326,35.413-.953-1.262-1.82-2.587-2.673-3.922-5.8-9.447-9.262-20.4-9.653-31.491h0Z"/>
      <path class="cls-11" d="M391.045,453.616c3.91,11.256,8.408,22.334,13.436,33.139-6.257-10.194-10.826-21.465-13.436-33.139h0Z"/>
      <path class="cls-11" d="M379.306,458.507c5.272,9.926,8.87,20.781,10.565,31.891,0,0-1.182-4.042-1.182-4.042-2.678-9.435-5.905-18.679-9.384-27.849h0Z"/>
      <path class="cls-11" d="M371.867,462.96c3.859,8.272,5.226,17.669,4.176,26.721-.179,1.291-.364,2.578-.651,3.847,.062-1.299,.149-2.59,.162-3.883,.302-9.037-1.053-18.041-3.687-26.685h0Z"/>
      <path class="cls-11" d="M369.57,472.627c12.88-3.391,25.307-8.415,36.744-15.255,1.652-.948,3.261-1.967,4.884-2.974-12.067,9.375-26.555,15.719-41.628,18.229h0Z"/>
      <path class="cls-11" d="M369.523,482.964c16.636-2.08,32.943-6.262,48.525-12.441-15.064,7.434-31.743,11.709-48.525,12.441h0Z"/>
    </g>
    <path class="cls-12" d="M368.852,504.603c.496-2.353,2.749-3.574,3.41-3.932,4.31-2.335,6.893,.941,11.935-.391,5.176-1.368,4.946-5.478,9.88-6.261,4.279-.679,5.189,2.296,9.196,1.467,4.735-.979,4.984-5.447,9.88-6.261,2.923-.486,2.924,1.091,7.239,.978,5.027-.132,7.307-2.332,9.293-.88,.958,.7,1.2,1.788,1.683,3.966,.413,1.858,1.355,6.105-.509,7.578-1.539,1.216-3.244-.836-7.924-.783-3.267,.038-3.259,1.047-7.826,1.565-4.373,.496-4.977-.361-7.826,.391-3.511,.927-3.559,2.485-6.602,3.751-5.973,2.485-8.803-2.26-14.43-.131-4.439,1.679-4.561,5.343-9.293,5.967-.862,.114-3.302,.399-5.422-1.123-1.663-1.194-3.182-3.538-2.685-5.901Z"/>
    <path class="cls-3" d="M403.24,446.254c2.148,1.28,5.176,3.442,7.826,6.913,2.524,3.305,3.617,6.371,5.152,11.283,1.559,4.988,3.419,11.385,5.283,18.978,3.021-.679,6.174,.38,8.152,2.739,2.036,2.428,2.494,5.837,1.174,8.739,.276,.189,2.839,2.009,2.954,5.328,.104,3-1.873,4.895-2.171,5.172,3.804,4.03,4.044,6.408,3.587,7.826-1.62,5.03-13.381,2.241-32.478,6.261-15.755,3.316-24.363,8.712-28.174,4.696-1.916-2.019-1.651-5.398-1.174-7.826-2.103,.507-4.164-.632-4.761-2.413-.469-1.401,.02-3.039,1.239-4.109-.266-.231-3.075-2.752-2.674-6.652,.285-2.777,2.089-5.199,4.696-6.326-1.159-4.553-2.221-10.417-2.413-17.283-.174-6.221,.411-11.633,1.176-15.963,10.869-5.788,21.738-11.575,32.607-17.363Z"/>
    <path class="cls-12" d="M433.481,513.666c.812-1.684-.043-4.282-1.349-4.778-1.41-.536-2.418,1.732-5.38,2.935-4.035,1.639-5.658-1.209-11.446-.391-4.226,.597-4.425,2.202-8.511,2.25-3.475,.041-3.963-1.112-6.554-.587-3.475,.704-3.554,2.972-7.162,3.956-1.553,.424-1.156-.101-7.316-.239-1.009-.023-4.911-.081-8.873,1.265-.734,.249-1.737,.637-2.181,1.572-.523,1.102-.082,2.57,.489,3.326,.558,.738,2.523,2.49,16.043-1.174,6.746-1.828,6.307-2.278,11.054-3.424,5.756-1.389,10.648-1.753,16.337-2.152,9.842-.691,13.714-.203,14.849-2.559Z"/>
    <g>
      <path class="cls-11" d="M368.776,514.348c19.834-10.418,42.586-15.522,64.97-14.554-22.251,1.822-44.073,6.695-64.97,14.554h0Z"/>
      <path class="cls-11" d="M417.458,484.627c-.14,5.878,.887,8.438,6.999,9.282,1.749,.41,2.344,2.061,1.476,3.453-1.112,1.714-2.856,2.62-3.898,4.108-.266,.424-.496,.758,.033,1.144,1.337,.901,3.452,1.16,5.042,2.013,2.735,1.347,2.57,3.588,.845,5.715-1.769,2.498,.882,4.943,2.907,6.273-2.803-.938-5.831-3.744-4.054-6.906,.621-1.282,1.366-2.015,.477-2.928-1.891-1.455-4.31-1.13-6.406-2.618-2.586-2.01-.088-4.626,1.648-6.001,.766-.734,1.8-1.413,1.967-2.249,.039-.023-.164-.216-.563-.339-6.285-1.144-8.047-5.002-6.47-10.948h0Z"/>
      <path class="cls-11" d="M398.588,488.097c3.322,.736,9.147,3.437,6.483,7.698-.854,1.475-2.489,2.563-2.696,4.138-.042,2.71,3.28,3.275,4.675,5.397,1.634,2.262-.007,4.555-1.922,5.751-1.084,.908-3.008,1.601-2.005,3.143,1.638,1.967,4.362,2.892,6.679,4.013-2.652-.604-7.9-1.531-8.423-4.809-.3-3.092,5.763-4.23,4.083-6.959-1.749-1.914-5.549-3.433-4.958-6.789,.356-2.151,2.157-3.281,3.271-4.744,2.231-3.197-2.899-5.495-5.187-6.839h0Z"/>
      <path class="cls-11" d="M378.915,495.094c-.749,1.534-1.714,3.29-1.676,4.978,.034,1.653,1.97,1.519,3.787,1.529,.919,.039,1.968-.054,3.114,.681,1.15,.71,1.288,2.416,.863,3.501-.417,1.354-1.232,2.315-1.308,3.535,.179,1.706,3.375,1.261,4.845,1.681,1.092,.138,2.518,1.17,1.937,2.481-.819,2.138-6.875,3.259-3.946,5.737,1.309,1.105,3.049,1.829,4.71,2.583-1.808-.346-3.612-.772-5.299-1.797-1.752-1.057-1.956-2.926-.461-4.32,.959-1.068,2.555-1.861,3.333-2.861-.008,.014-.007,.032-.018,.13,.043,.096,.01,.083,.024,.095-1.293-.499-3.349-.233-4.859-.81-3.722-1.426-1.908-4.618-.746-7.067,.702-1.801-.761-1.831-2.268-2.016-6.489-.1-5.287-4.318-2.034-8.06h0Z"/>
    </g>
    <path class="cls-5" d="M371.48,497.54c8.466-3.808,18.84-7.617,30.954-10.364,6.6-1.496,12.805-2.471,18.497-3.087"/>
    <path class="cls-4" d="M430.827,494.906c-6.69,.235-12.445,.851-17.022,1.5-15.476,2.196-26.429,6.052-28.826,6.913-6.231,2.238-11.344,4.602-15.13,6.522"/>
    <path class="cls-4" d="M373.371,516.363c8.711-3.378,19.687-6.772,32.609-8.87,9.513-1.544,18.165-2.074,25.63-2.087"/>
    <path class="cls-3" d="M403.24,446.254c2.148,1.28,5.176,3.442,7.826,6.913,2.524,3.305,3.617,6.371,5.152,11.283,1.559,4.988,3.419,11.385,5.283,18.978,3.021-.679,6.174,.38,8.152,2.739,2.036,2.428,2.494,5.837,1.174,8.739,.276,.189,2.839,2.009,2.954,5.328,.104,3-1.873,4.895-2.171,5.172,3.804,4.03,4.044,6.408,3.587,7.826-1.62,5.03-13.381,2.241-32.478,6.261-15.755,3.316-24.363,8.712-28.174,4.696-1.916-2.019-1.651-5.398-1.174-7.826-2.103,.507-4.164-.632-4.761-2.413-.469-1.401,.02-3.039,1.239-4.109-.266-.231-3.075-2.752-2.674-6.652,.285-2.777,2.089-5.199,4.696-6.326-1.159-4.553-2.221-10.417-2.413-17.283-.174-6.221,.411-11.633,1.176-15.963,10.869-5.788,21.738-11.575,32.607-17.363Z"/>
  </g>
  <g>
    <path id="_тело" data-name="тело" class="cls-6" d="M236.465,597.334c.768,1.802,1.893,3.842,3.854,5.632,3.759,3.43,8.116,3.68,12.4,4.432,12.113,2.127,10.676,5.996,19.565,6.848,9.829,.942,12.529-3.697,21.326-1.174,5.007,1.436,4.331,2.996,9,4.304,8.649,2.424,13.437-2.24,24.065-3.326,8.597-.878,7.675,1.948,20.152,2.543,13.03,.622,13.092-2.505,30.913-3.326,11.772-.542,15.715,.639,21.522-2.739,5.525-3.214,8.367-8.013,10.222-11.23,6.106-10.589,5.558-21.28,6.017-26.14,1.969-20.827-1.937-36.19-4.246-47.359-3.175-15.357-6.354-37.394-5.928-65.728-5.946-5.443-39.864-35.443-89.609-31.696-36.452,2.746-60.726,22.056-68.928,29.227-5.224,17.105-8.264,31.811-10.115,42.773-4.601,27.248-4.887,49.334-4.304,64.565,0,0-2.263,17.486,4.094,32.392Z"/>
    <path class="cls-9" d="M414.589,561.811c.595,5.62,.87,14.487-1.826,24.783-2.393,9.139-5.119,13.436-6.261,15-1.695,2.322-4.801,6.481-10.043,8.87-4.66,2.124-6.899,.976-15.587,1.239-11.88,.36-13.452,2.68-27.848,3.261-1.343,.054-11.84,.458-11.935-.456-.095-.91,10.266-1.562,21.717-4.826,8.712-2.484,32.04-9.052,44.565-29.386,2.516-4.084,5.522-10.179,7.218-18.484Z"/>
    <path class="cls-13" d="M351.458,497.898c1.979,22.661,1.124,45.647-1.989,68.168-.738-11.222-.477-22.875-.077-34.116,.492-11.362,.65-22.736,2.066-34.052h0Z"/>
    <g>
      <path class="cls-8" d="M251.996,471.816c4.844,.287,7.815,11.64,8.609,14.609,2.166,8.096,1.008,14.837,0,20.348-1.011,5.53-3.109,10.556-7.304,20.609-4.541,10.88-7.045,16.784-8.87,16.435-2.118-.405-2.311-9.047-2.348-10.696-.128-5.743,.475-8.144,.522-12,.094-7.788-2.845-11.039-4.168-16.635-3.484-14.74,7.253-33.043,13.559-32.669Z"/>
      <g>
        <path class="cls-11" d="M251.936,454.398c-8.795,43.067-12.569,87.171-10.381,131.093,.241,6.28,.692,12.549,1.136,18.825-.895-6.229-1.541-12.491-2.115-18.761-3.595-43.924,.081-88.535,11.359-131.157h0Z"/>
        <path class="cls-11" d="M269.523,441.932c-8.868,54.826-12.243,110.466-10.098,165.963-4.852-55.387-1.424-111.572,10.098-165.963h0Z"/>
        <path class="cls-11" d="M290.657,433.114c-10.993,59.658-15.274,120.468-12.778,181.079-5.205-60.504-.863-121.904,12.778-181.079h0Z"/>
        <path class="cls-11" d="M308.284,429.681c-8.475,61.242-11.398,123.191-8.608,184.957-5.499-61.64-2.53-124.088,8.608-184.957h0Z"/>
        <path class="cls-11" d="M333.934,428.468c-4.912,61.74-7.317,123.648-7.258,185.582-2.759-61.903-.324-124.084,7.258-185.582h0Z"/>
        <path class="cls-11" d="M342.312,429.503c12.244,53.284,12.979,109.135,2.816,162.825-1.521,7.656-3.177,15.284-5.148,22.831,1.529-7.648,2.991-15.302,4.182-23.001,8.76-53.817,7.882-109.032-1.85-162.655h0Z"/>
        <path class="cls-11" d="M371.115,438.047c3.882,59.041,1.031,118.589-8.501,176.986,6.849-58.728,9.699-117.872,8.501-176.986h0Z"/>
        <path class="cls-11" d="M389.676,448.464c3.959,54.907,1.425,110.35-7.554,164.664,6.296-54.644,8.83-109.672,7.554-164.664h0Z"/>
        <path class="cls-11" d="M403.133,458.119c.459,10.941,.796,27.03,1.025,38.164,.164,25.455,2.261,50.945,.199,76.382-.989,12.704-2.598,25.369-5.094,37.863,3.384-25.199,4.818-50.632,3.84-76.044-.702-25.021-.569-51.316,.03-76.366h0Z"/>
        <path class="cls-11" d="M244.767,464.488c44.149-24.592,97.526-31.974,142.865-6.248,6.21,3.482,12.1,7.506,17.694,11.883-5.694-4.248-11.664-8.127-17.929-11.454-45.296-24.922-98.299-17.502-142.63,5.819h0Z"/>
        <path class="cls-11" d="M239.154,488.116c36.402-20.424,80.184-26.928,120.972-18.128,15.929,3.416,31.406,8.954,45.856,16.472-12.986-6.337-26.674-11.223-40.741-14.496-42.201-10.136-87.737-4.115-126.087,16.152h0Z"/>
        <path class="cls-11" d="M235.03,511.198c47.764-20.653,102.748-23.608,152.52-8.497,7.099,2.161,14.086,4.672,20.944,7.483-6.919-2.66-13.952-5.013-21.081-7.014-49.855-14.365-104.294-11.41-152.383,8.027h0Z"/>
        <path class="cls-11" d="M232.762,534.053c50.735-17.17,106.384-19.313,158.312-6.212,7.413,1.871,14.734,4.082,21.972,6.521-7.289-2.285-14.649-4.336-22.088-6.046-52.002-12.371-107.204-10.204-158.196,5.737h0Z"/>
        <path class="cls-11" d="M232.156,551.509c60.708-10.568,123.477-9.287,183.702,3.754-60.442-11.705-122.832-12.989-183.702-3.754h0Z"/>
        <path class="cls-11" d="M231.983,573.161c60.928-6.598,122.591-6.599,183.519-.002-61.03-5.255-122.489-5.264-183.519,.002h0Z"/>
        <path class="cls-11" d="M234.264,590.928c59.367,2.854,118.832,3.435,178.244,1.771-59.374,3.006-118.942,2.414-178.244-1.771h0Z"/>
        <path class="cls-11" d="M251.154,606.29c50.925,2.635,101.965,2.793,152.907,.504-50.882,3.632-102.051,3.463-152.907-.504h0Z"/>
      </g>
      <path d="M331.006,600.67c-4.016,2.736-9.059,4.367-13.946,3.349-3.463-.997-6.99-1.676-10.55-.859-1.153,.227-2.251,.682-3.528,.932-2.545,.403-5.226-.483-7.13-2.105-1.804-1.524-4.145-2.145-6.486-2.313-1.159-.071-2.409,.118-3.673-.155-1.251-.259-2.365-.867-3.398-1.494-2.008-1.328-4.357-2.039-6.772-2.269,2.421-.001,4.882,.63,7.014,1.842,1.057,.581,2.13,1.11,3.272,1.3,2.318,.218,4.953-.292,7.268,.601,1.205,.348,2.36,1.009,3.323,1.762,1.795,1.487,4.147,2.211,6.409,1.847,1.108-.196,2.277-.652,3.507-.882,3.654-.783,7.45-.124,10.914,1.047,4.68,1.15,9.639-.281,13.775-2.602h0Z"/>
      <path id="_тело-2" data-name="тело" class="cls-3" d="M236.465,597.334c.768,1.802,1.893,3.842,3.854,5.632,3.759,3.43,8.116,3.68,12.4,4.432,12.113,2.127,10.676,5.996,19.565,6.848,9.829,.942,12.529-3.697,21.326-1.174,5.007,1.436,4.331,2.996,9,4.304,8.649,2.424,13.437-2.24,24.065-3.326,8.597-.878,7.675,1.948,20.152,2.543,13.03,.622,13.092-2.505,30.913-3.326,11.772-.542,15.715,.639,21.522-2.739,5.525-3.214,8.367-8.013,10.222-11.23,6.106-10.589,5.558-21.28,6.017-26.14,1.969-20.827-1.937-36.19-4.246-47.359-3.175-15.357-6.354-37.394-5.928-65.728-5.946-5.443-39.864-35.443-89.609-31.696-36.452,2.746-60.726,22.056-68.928,29.227-5.224,17.105-8.264,31.811-10.115,42.773-4.601,27.248-4.887,49.334-4.304,64.565,0,0-2.263,17.486,4.094,32.392Z"/>
      <path d="M349.763,474.29c8.527,46.741,5.159,95.761-9.782,140.87,12.234-45.824,15.551-93.795,9.782-140.87h0Z"/>
      <g>
        <path class="cls-2" d="M345.458,498.42c-1.984-.128-3.706,1.394-3.913,3.326-.215,2.013,1.275,3.917,3.326,4.109,2.091,.195,3.932-1.467,4.036-3.529,.1-1.979-1.427-3.775-3.449-3.906Z"/>
        <circle class="cls-1" cx="346.673" cy="501.133" r=".305"/>
        <circle class="cls-1" cx="346.333" cy="503.553" r=".34"/>
        <circle class="cls-1" cx="344.205" cy="500.828" r=".372"/>
        <circle class="cls-1" cx="343.833" cy="503.434" r=".22"/>
      </g>
      <g>
        <path class="cls-2" d="M347.217,523.067c-1.984-.128-3.706,1.394-3.913,3.326-.215,2.013,1.275,3.917,3.326,4.109,2.091,.195,3.932-1.467,4.036-3.529,.1-1.979-1.427-3.775-3.449-3.906Z"/>
        <circle class="cls-1" cx="348.432" cy="525.781" r=".305"/>
        <circle class="cls-1" cx="348.092" cy="528.201" r=".34"/>
        <circle class="cls-1" cx="345.964" cy="525.476" r=".372"/>
        <circle class="cls-1" cx="345.592" cy="528.082" r=".22"/>
      </g>
      <g>
        <path class="cls-2" d="M344.859,549.405c-1.984-.128-3.706,1.394-3.913,3.326-.215,2.013,1.275,3.917,3.326,4.109,2.091,.195,3.932-1.467,4.036-3.529,.1-1.979-1.427-3.775-3.449-3.906Z"/>
        <circle class="cls-1" cx="346.073" cy="552.118" r=".305"/>
        <circle class="cls-1" cx="345.733" cy="554.539" r=".34"/>
        <circle class="cls-1" cx="343.606" cy="551.814" r=".372"/>
        <circle class="cls-1" cx="343.233" cy="554.419" r=".22"/>
      </g>
      <g>
        <path class="cls-2" d="M341.504,575.567c-1.984-.128-3.706,1.394-3.913,3.326-.215,2.013,1.275,3.917,3.326,4.109,2.091,.195,3.932-1.467,4.036-3.529,.1-1.979-1.427-3.775-3.449-3.906Z"/>
        <circle class="cls-1" cx="342.719" cy="578.281" r=".305"/>
        <circle class="cls-1" cx="342.379" cy="580.701" r=".34"/>
        <circle class="cls-1" cx="340.252" cy="577.976" r=".372"/>
        <circle class="cls-1" cx="339.879" cy="580.582" r=".22"/>
      </g>
      <path class="cls-13" d="M326.81,482.312c3.694,13.474,.426,28.862-8.448,39.657,6.381-12.235,9.3-25.882,8.448-39.657h0Z"/>
      <path class="cls-5" d="M387.689,518.106c-9.984-3.927-16.871-15.407-19.167-24.59,10.331,1.148,21.811-4.592,28.699,0,3.444,2.296,4.592,11.479,.161,17.448-2.631,4.555-6.459,7.212-9.692,7.143Z"/>
      <path class="cls-5" d="M387.638,518.124c-9.933-.502-16.821-10.834-17.969-20.017,10.331,0,20.663-2.296,29.847,1.148,3.444,1.148,1.148,8.036-1.584,12.993-2.551,3.689-6.404,5.949-10.294,5.876Z"/>
      <path class="cls-9" d="M389.995,516.654c8.374-2.476,10.67-10.511,9.522-17.399-2.296,3.444,0,8.036-3.561,10.624-1.801,3.059-4.073,5.27-5.96,6.775Z"/>
      <path class="cls-13" d="M331.006,600.67c-1.436,.778-2.789,1.375-4.004,1.837-2.178,.828-3.686,1.401-5.734,1.461-1.443,.043-2.535-.188-4.244-.548-2.464-.52-2.524-.865-4.37-1.174-.521-.087-2.561-.402-5.152-.065-2.693,.35-2.83,.995-4.957,1.043-.904,.021-2.632-.056-4.5-.848-2.264-.959-2.008-1.813-4.109-2.674-1.789-.733-3.542-.757-5.413-.783-1.966-.027-2.196,.229-3.457,0-1.561-.284-2.165-.849-3.913-1.696-3.162-1.531-5.639-1.835-5.609-1.956,.031-.127,2.64,.642,6.065,1.043,5.39,.631,5.849-.463,9.522,.261,4.074,.803,4.025,2.252,8.413,3.13,3.073,.615,3.665,.019,7.63,.261,5.742,.351,7.077,1.759,11.478,2.283,2.833,.337,7.002,.315,12.352-1.576Z"/>
      <path class="cls-13" d="M336.458,561.225c.084,15.065-15.271,23.007-28.661,18.537,6.287,.369,12.852-.286,18.272-3.531,5.528-3.178,8.917-8.834,10.389-15.006h0Z"/>
      <g>
        <path class="cls-11" d="M371.706,501.798c9.36,1.596,19.072,2.593,28.273-.375-8.905,3.968-19.126,2.98-28.273,.375h0Z"/>
        <path class="cls-11" d="M376.461,510.504c7.4,.792,14.933,4.063,22.145,.765-6.666,4.668-15.186,1.395-22.145-.765h0Z"/>
        <path class="cls-11" d="M378.643,498.407c.837,6.241,.976,12.42,3.837,18.172-4.101-5.032-4.412-11.99-3.837-18.172h0Z"/>
        <path class="cls-11" d="M386.32,497.539c4.238,5.762,3.798,13.557,1.255,19.899,.414-3.414,1.074-6.76,.967-10.103-.048-3.348-.953-6.601-2.222-9.796h0Z"/>
        <path class="cls-11" d="M393.649,496.817c4.142,5.881,4.172,13.884,.059,19.787,1.182-3.252,2.154-6.538,2.126-9.9,.008-3.362-.982-6.643-2.185-9.887h0Z"/>
      </g>
      <path class="cls-4" d="M387.638,518.124c-9.933-.502-16.821-10.834-17.969-20.017,10.331,0,20.663-2.296,29.847,1.148,3.444,1.148,1.148,8.036-1.584,12.993-2.551,3.689-6.404,5.949-10.294,5.876Z"/>
    </g>
  </g>
</svg>