<?xml version="1.0" encoding="UTF-8"?>
<svg id="_Слой_26" data-name="Слой 26" xmlns="http://www.w3.org/2000/svg" viewBox="0 0 1078.846 1068.725">
  <defs>
    <style>
      .cls-1 {
        fill: #fff;
      }

      .cls-1, .cls-2, .cls-3, .cls-4, .cls-5 {
        fill-rule: evenodd;
      }

      .cls-2 {
        fill: #f6f9fb;
      }

      .cls-3 {
        fill: #090909;
      }

      .cls-4 {
        fill: #09090a;
      }

      .cls-5 {
        fill: #f3f6f9;
      }

      .cls-6 {
        fill: #cc3f3f;
      }
    </style>
  </defs>
  <g id="_Слой_2" data-name=" Слой 2">
    <g id="_глаза" data-name=" глаза">
      <g id="_Слой_4" data-name=" Слой 4">
        <g id="_Слой_9" data-name=" Слой 9">
          <g>
            <path class="cls-5" d="M352.226,314.862c-.636-3.394-3.959-21.14-20.203-30.2-14.752-8.229-32.356-4.941-43.752,2.952-9.487,6.57-13.242,15.339-16.696,23.404-.855,1.996-9.371,22.622-2.087,41.739,1.942,5.096,3.603,6.401,5.068,6.857,5.556,1.73,9.816-8.267,21.615-11.031,1.741-.408,7.872-1.844,13.863,.596,11.334,4.617,10.434,18.329,16.547,19.528,9.302,1.825,30.839-26.111,25.644-53.844Z"/>
            <g>
              <path class="cls-6" d="M294.609,341.357c-1.56-1.324-3.234-2.915-5.308-2.971-1.465,.005-2.071,1.276-3.257,2.069-.642,.474-1.362,.835-2.117,1.106-2.276,.812-4.554,.477-6.817,.217-2.26-.276-4.629-.75-6.433-2.325-2.385-2.001-3.302-5.305-2.824-8.261,.28,2.783,1.355,5.548,3.666,7.185,2.16,1.548,5.072,1.582,7.921,1.891,3.13,.321,5.081-.346,7.454-2.354,2.966-2.1,6.208,1.043,7.715,3.443h0Z"/>
              <path class="cls-6" d="M278.018,341.007c-1.599-.703-3.951-1.851-4.383-3.722-.155-.636,.321-1.485,.878-1.755,1.595-.861,3.541-.631,4.918-1.652,1.115-.814,1.327-2.32,1.311-3.693,0-.773-.084-1.565-.153-2.382,2.096,3.363,1.858,7.572-2.582,8.543-.945,.27-2.027,.244-2.866,.669-.338,.842,2.276,3.235,2.878,3.991h0Z"/>
              <path class="cls-6" d="M277.083,340.773c3-.37,5.758,1.413,6.258,4.486,.186,.932,.202,1.839,.244,2.675,.086,1.175,.039,2.131,.939,2.728,1.767,.836,3.985,.02,5.87-.298-1.841,1.265-4.256,2.578-6.565,1.677-4.534-2.495,1.316-8.827-6.747-11.267h0Z"/>
            </g>
            <g>
              <path class="cls-6" d="M331.649,349.71c-.673,1.252-1.694,2.792-.958,4.169,.367,.536,.973,.738,1.48,1.244,.37,.336,.685,.729,.951,1.151,1.952,3.439,.845,7.913-1.907,10.575-.673,.652-1.427,1.211-2.251,1.62,1.404-1.192,2.49-2.628,3.226-4.238,1.068-2.297,1.251-5.178,.078-7.452-.201-.361-.444-.7-.734-.994-.436-.469-1.178-.88-1.503-1.538-.784-1.668,.53-3.401,1.618-4.537h0Z"/>
              <path class="cls-6" d="M333.566,359.989c-.206,1.206-1.251,4.302-2.906,2.851-.926-1.14-1.033-3.178-2.749-3.275-.874-.083-1.852,.229-2.82,.536,1.158-1.078,3.076-1.964,4.532-.86,.909,.671,1.216,1.831,1.622,2.727,.088,.192,.197,.315,.223,.326,.014,.037,.127,.038,.291-.07,.715-.524,1.249-1.494,1.806-2.236h0Z"/>
              <path class="cls-6" d="M333.542,360.596c-.606-1.759,.175-3.744,1.972-4.414,.792-.342,1.578-.435,2.334-.709,.373-.13,.727-.348,.86-.735,.288-1.22-.508-2.456-.962-3.588,1.085,1.054,2.458,2.726,1.661,4.329-1.578,2.361-5.404,.13-5.865,5.117h0Z"/>
            </g>
            <g>
              <path class="cls-6" d="M320.201,305.29c-2.478-.347-5.837-1.245-6.477-4.114-.234-1.142,.299-2.39,.377-3.401,.07-.648,.048-1.306-.055-1.944-.199-1.283-.77-2.492-1.492-3.687-1.53-2.424-2.841-5.024-5.181-6.283-2.486-1.356-5.441-1.107-8.065-.134,2.445-1.729,5.816-2.357,8.661-1.095,2.208,.929,3.675,2.847,4.916,4.756,1.229,1.918,2.531,3.818,2.802,6.218,.088,.796,.081,1.602-.063,2.387-.191,1.414-1.066,2.517-.426,3.835,.963,1.839,3.126,2.642,5.002,3.462h0Z"/>
              <path class="cls-6" d="M312.592,290.542c-.94-.207-4.238-1.504-4.85-.831-.013,.942,.486,1.901,.659,2.869,1.082,4.413-2.601,6.481-6.538,6.074,.764-.297,1.512-.569,2.207-.909,1.239-.589,2.499-1.443,2.74-2.801,.312-1.687-.75-3.332-.678-5.143-.001-.618,.55-1.422,1.191-1.56,1.871-.435,3.934,1.173,5.27,2.301h0Z"/>
              <path class="cls-6" d="M311.972,289.805c1.676,1.819,3.87,3.026,6.304,2.062,1.159-.39,2.342-1.097,3.603-1.461,1.659-.549,3.43,.133,4.135,1.771,.772,1.751,.708,3.566,.424,5.368-.227-.855-.409-1.699-.667-2.503-.362-1.106-.74-2.252-1.646-2.9-.931-.547-1.77-.084-2.863,.355-1.613,.725-3.553,1.536-5.425,1.042-1.883-.455-3.246-2.009-3.866-3.735h0Z"/>
            </g>
          </g>
          <g>
            <path class="cls-2" d="M413.191,370.197c5.392-1.008,7.839-18.173,6.174-33.09-1.466-13.134-2.84-26.47-14.454-34.762-10.654-7.607-26.231-9.303-37.508-2.156-19.49,12.352-12.464,42.839-11.449,47.256,3.809,16.559,15.17,30.905,20.566,29.46,3.337-.894,2.292-7.265,8.795-12.373,.834-.655,6.285-4.818,12.671-4.025,8.75,1.087,11.073,10.462,15.205,9.689Z"/>
            <g>
              <path class="cls-6" d="M398.761,329.249c1.262,1.275,2.771,3.111,4.703,2.724,.786-.248,1.259-.907,2.069-1.331,.551-.324,1.152-.56,1.775-.72,1.879-.474,3.673-.027,5.46,.357,1.781,.398,3.636,.964,4.955,2.357,1.748,1.783,2.224,4.492,1.613,6.816,.002-2.233-.666-4.564-2.367-6.024-1.6-1.414-3.93-1.656-6.179-2.129-2.428-.505-4.131-.113-6.137,1.3-2.532,1.445-4.875-1.317-5.892-3.35h0Z"/>
              <path class="cls-6" d="M411.983,330.822c1.445,.712,4.792,3.177,2.372,4.645-1.341,.563-2.877,.227-4.056,.936-.954,.564-1.241,1.751-1.335,2.848-.065,.618-.05,1.256-.062,1.914-1.408-2.823-.888-6.204,2.728-6.619,.803-.142,1.734-.051,2.342-.312,.018-.009,.038-.024,.049-.085,.022-.337-.185-.68-.372-1.016-.486-.812-1.096-1.528-1.665-2.311h0Z"/>
              <path class="cls-6" d="M412.711,331.081c-2.412,.069-4.488-1.591-4.645-4.07-.162-1.302,.201-2.485-.065-3.708-.513-1.762-3.748-1.009-5.173-.918,1.837-1.095,5.196-2.191,6.396,.336,.521,1.321,.113,2.876,.164,4.202-.04,2.088,1.488,3.424,3.323,4.159h0Z"/>
            </g>
            <g>
              <path class="cls-6" d="M370.679,317.481c.473-1.34,1.248-3.019,.31-4.267-.444-.473-1.074-.581-1.653-1.004-.417-.276-.789-.616-1.116-.992-2.454-3.093-2.043-7.699,.269-10.742,.565-.747,1.225-1.415,1.977-1.945-1.206,1.392-2.059,2.977-2.54,4.682-.704,2.433-.445,5.309,1.061,7.377,.254,.326,.546,.624,.877,.87,.502,.397,1.299,.69,1.72,1.29,1.029,1.529-.005,3.443-.906,4.731h0Z"/>
              <path class="cls-6" d="M367.213,307.614c.02-1.223,.58-4.443,2.436-3.261,1.089,.985,1.507,2.983,3.217,2.816,.876-.051,1.795-.509,2.706-.961-.98,1.243-2.74,2.411-4.348,1.542-1-.525-1.481-1.624-2.02-2.448-.117-.176-.243-.281-.27-.289-.02-.035-.131-.019-.277,.114-.627,.627-1.006,1.668-1.444,2.486h0Z"/>
              <path class="cls-6" d="M367.144,307.011c.868,1.646,.399,3.727-1.274,4.663-.73,.459-1.493,.671-2.199,1.057-.349,.185-.665,.454-.737,.858-.098,1.249,.877,2.35,1.498,3.399-1.233-.875-2.846-2.318-2.303-4.024,1.199-2.574,5.321-.954,5.015-5.953h0Z"/>
            </g>
            <g>
              <path class="cls-6" d="M368.898,350.919c1.748,.894,4.037,2.347,3.847,4.632-.1,.914-.789,1.695-1.101,2.455-.22,.487-.36,1.008-.436,1.533-.286,2.151,.591,4.453,1.184,6.503,1.054,3.507,4.34,5.031,7.837,4.673-2.264,.665-4.931,.328-6.762-1.293-1.887-1.636-2.385-4.125-3.012-6.409-.452-1.716-.508-3.751,.358-5.398,.365-.82,1.002-1.359,1.184-2.175,.245-1.997-1.697-3.367-3.1-4.52h0Z"/>
              <path class="cls-6" d="M371.239,363.934c.718,.457,2.834,2.347,3.595,1.886,.346-.642,.13-1.62,.246-2.443,.122-2.499,1.914-3.803,4.333-3.535,.656,.067,1.29,.208,1.898,.425-.645,.013-1.279,.013-1.894,.091-3.429,.379-3.21,2.183-3.429,5.034-.104,.996-.898,1.686-1.895,1.259-1.295-.591-2.068-1.631-2.854-2.719h0Z"/>
              <path class="cls-6" d="M371.539,364.641c-1.324-3.039-3.117-3.581-6.312-3.013-.685,.078-1.45,.117-2.132-.105-2.476-1.021-1.592-4.292-.761-6.167-.091,1.491-.737,4.765,1.173,5.232,1.239,.215,2.426-.217,3.721-.15,2.418-.001,4.126,1.872,4.311,4.203h0Z"/>
            </g>
          </g>
        </g>
      </g>
    </g>
    <g id="_Слой_12" data-name=" Слой 12">
      <g>
        <path class="cls-3" d="M393.455,340.406c3.273,.004,4.662,1.616,4.165,4.837-1.599,2.506-3.48,2.775-5.643,.806-1.12-2.321-.629-4.202,1.478-5.643Z"/>
        <path class="cls-1" d="M393.995,343.826c-.596-.007-1.032-.231-1.224-.345-.051-.198-.126-.609,.029-1.067,.163-.484,.662-1.255,1.412-1.195,.692,.054,1.164,.78,1.195,1.412,.022,.445-.176,.785-.273,.931-.198,.1-.603,.271-1.139,.265h0Z"/>
      </g>
      <g>
        <path class="cls-4" d="M327.069,335.209c4.081,.093,5.469,2.064,4.165,5.911-2.664,2.781-4.725,2.422-6.18-1.075-.43-2.094,.242-3.706,2.015-4.837h0Z"/>
        <path class="cls-1" d="M328.739,337.269c.072,.42-.112,.766-.19,.895-.088,.113-.385,.468-.911,.592-.69,.162-1.228-.2-1.314-.26-.084-.176-.195-.474-.172-.841,.03-.498,.318-1.367,1.101-1.487,.702-.107,1.376,.454,1.487,1.101h0Z"/>
      </g>
    </g>
  </g>
</svg>