<?xml version="1.0" encoding="UTF-8"?>
<svg id="_Слой_26" data-name="Слой 26" xmlns="http://www.w3.org/2000/svg" viewBox="0 0 1078.846 1068.725">
  <defs>
    <style>
      .cls-1, .cls-2 {
        fill: #292f53;
      }

      .cls-3 {
        fill: #1a1e36;
      }

      .cls-4, .cls-5, .cls-2, .cls-6, .cls-7 {
        stroke: #000;
        stroke-miterlimit: 10;
      }

      .cls-4, .cls-6 {
        fill: none;
      }

      .cls-8 {
        fill: #bfbfbf;
      }

      .cls-9 {
        fill: #301e08;
      }

      .cls-5 {
        fill: #42290b;
      }

      .cls-5, .cls-6, .cls-7 {
        stroke-width: 2px;
      }

      .cls-10 {
        fill: #262b4d;
      }

      .cls-11, .cls-7 {
        fill: #cfcfcf;
      }

      .cls-2 {
        stroke-width: 3px;
      }

      .cls-12 {
        fill: #8f8f8f;
      }

      .cls-13 {
        fill: #202542;
      }

      .cls-14 {
        fill: #331f09;
      }

      .cls-15 {
        fill: #525252;
      }

      .cls-16 {
        fill: #919191;
      }
    </style>
  </defs>
  <g id="_НОГИ" data-name=" НОГИ">
    <g id="_нога1" data-name=" нога1">
      <g>
        <path class="cls-5" d="M322.719,735.469c-2.359,3.502-5.77,9.534-7.41,17.743-2.025,10.14-.322,18.477,.885,22.795,12.159,5.272,27.998,10.786,47.002,14.154,26.392,4.678,49.041,3.472,65.06,1.312,1.455-1.25,8.135-7.251,8.069-16.146-.037-5.021-2.206-8.685-3.076-10.112-4.092-6.721-9.574-7.6-22.876-16.032-3.621-2.296-6.463-4.29-8.172-5.519-3.635,3.512-14.843,13.41-31.844,14.79-28.423,2.306-46.445-21.361-47.64-22.986h.001Z"/>
        <path class="cls-4" d="M410.375,749.184c4.286,2.404,14.9,9.903,6.137,13.627-3.517,1.304-7.287,1.403-10.948,1.488-4.844,.002-9.648-.367-14.417-.957-4.77-.581-9.508-1.363-14.201-2.402,4.801,.214,9.575,.561,14.343,.848,8.171,.263,16.639,1.444,24.608-.612,6.999-2.185-3.06-9.639-5.522-11.992h0Z"/>
        <path class="cls-9" d="M326.198,761.576c4.104,4.095,10.775,9.845,20.231,14.42,11.955,5.783,22.157,6.684,33.758,7.71,8.578,.758,21.153,1.767,36.911-1.88,8.099-1.874,14.628-4.421,19.227-6.496-.025,.983-.122,2.135-.364,3.407-.269,1.416-.65,2.634-1.03,3.627-15.485,5.213-52.201,14.98-89.721-1.012-7.647-3.259-14.3-7.151-20.028-11.197,.25-1.38,.473-2.85,.653-4.403,.17-1.458,.286-2.853,.36-4.177h.001Z"/>
        <path class="cls-14" d="M368.261,758.676c4.926-.311,12.994-1.483,21.654-6.054,5.425-2.864,9.474-6.212,12.289-8.956,2.724,1.839,5.449,3.679,8.172,5.519,8.119,5.813,9.159,8.807,8.637,10.463-1.802,5.714-24.917,4.095-38.631,1.736-5.137-.884-9.32-1.934-12.121-2.708h0Z"/>
      </g>
      <g>
        <path class="cls-11" d="M314.493,764.469c-.154-3.321-.012-7.802,1.18-12.922,.94-4.034,2.28-7.379,3.532-9.953,1.956,2.745,5.213,8.105,6.358,15.617,.852,5.59,.214,10.261-.443,13.245,2.192,1.274,5.429,3.061,9.464,4.94,24.893,11.601,47.756,11.636,60.839,11.564,9.724-.054,23.462-.969,39.643-4.907-.745,1.799-1.937,4.1-3.861,6.422-1.001,1.207-2.014,2.198-2.948,3-13.193,1.788-30.063,2.81-49.438,.854-26.513-2.677-47.863-9.933-62.625-16.32-.517-1.789-.997-3.88-1.315-6.233-.261-1.933-.369-3.715-.387-5.308h0Z"/>
        <path class="cls-7" d="M325.12,770.455c-1.808-.707-3.852-1.646-6.013-2.9-1.765-1.024-3.3-2.081-4.613-3.086"/>
        <path class="cls-16" d="M431.863,787.983c-1.106,1.081-2.213,2.161-3.319,3.243-14.814,2.16-35.726,3.575-60.267-.07-21.769-3.234-39.495-9.424-52.314-15.016-.305-1.748-.61-3.495-.915-5.243,6.321,3.573,15.549,8.131,27.305,11.719,7.074,2.159,12.424,3.161,18.86,4.346,9.988,1.838,23.085,4.183,40.049,4.016,7.807-.077,18.295-.704,30.603-2.993v-.002Z"/>
        <path class="cls-6" d="M314.493,764.469c-.154-3.321-.012-7.802,1.18-12.922,.94-4.034,2.28-7.379,3.532-9.953,1.956,2.745,5.213,8.105,6.358,15.617,.852,5.59,.214,10.261-.443,13.245,2.192,1.274,5.429,3.061,9.464,4.94,24.893,11.601,47.756,11.636,60.839,11.564,9.724-.054,23.462-.969,39.643-4.907-.745,1.799-1.937,4.1-3.861,6.422-1.001,1.207-2.014,2.198-2.948,3-13.193,1.788-30.063,2.81-49.438,.854-26.513-2.677-47.863-9.933-62.625-16.32-.517-1.789-.997-3.88-1.315-6.233-.261-1.933-.369-3.715-.387-5.308h0Z"/>
      </g>
      <g>
        <path d="M318.083,766.338c-.093,3.71,.153,6.992,.764,10.652-3.245-2.378-3.627-7.833-.764-10.652h0Z"/>
        <path d="M323.144,769.41c-.199,3.391,.19,6.286,1.349,9.481-3.609-1.417-4.403-7.081-1.349-9.481h0Z"/>
        <path d="M328.811,772.565c.073,3.04,.282,5.6,.534,8.63-2.889-1.758-3.212-6.541-.534-8.63h0Z"/>
        <path d="M334.584,775.396c.202,2.649,.137,4.878-.25,7.507-2.352-1.771-2.206-5.893,.25-7.507h0Z"/>
        <path d="M341.046,778.019c.195,1.598,.167,3.161,.162,4.716-.019,.524-.022,1.072-.103,1.769-.648-.281-1.094-.784-1.413-1.35-.936-1.705-.486-4.221,1.353-5.135h.001Z"/>
        <path d="M346.763,780.205c.24,2.251,.105,4.046-.498,6.23-2.161-1.421-1.853-5.164,.498-6.23h0Z"/>
        <path d="M315.609,749.679c2.487,.427,2.887,.443,5.412,.512-.647,2.756-5.305,2.298-5.412-.512h0Z"/>
        <path d="M314.523,760.714c2.487,.427,2.887,.443,5.412,.512-.646,2.756-5.305,2.298-5.412-.512h0Z"/>
        <path d="M314.568,755.192c2.487,.427,2.887,.443,5.412,.512-.647,2.756-5.305,2.298-5.412-.512h0Z"/>
        <path d="M353.412,782.121c.24,2.251,.105,4.046-.498,6.23-2.161-1.421-1.853-5.164,.498-6.23h0Z"/>
        <path d="M359.439,783.424c.24,2.251,.105,4.046-.498,6.23-2.161-1.421-1.853-5.164,.498-6.23h0Z"/>
        <path d="M365.245,784.352c.24,2.251,.105,4.046-.498,6.23-2.161-1.421-1.853-5.164,.498-6.23h0Z"/>
        <path d="M371.02,785.382c.24,2.251,.105,4.046-.498,6.23-2.161-1.421-1.853-5.164,.498-6.23h0Z"/>
        <path d="M376.744,785.745c.24,2.251,.105,4.046-.498,6.23-2.161-1.421-1.853-5.164,.498-6.23h0Z"/>
        <path d="M382.702,786.394c.24,2.251,.105,4.046-.498,6.23-2.161-1.421-1.853-5.164,.498-6.23h0Z"/>
        <path d="M387.003,786.429c2.787,.967,2.422,5.713-.498,6.23,.433-2.691,.513-3.505,.498-6.23h0Z"/>
        <path d="M393.493,786.818c2.786,.967,2.422,5.713-.498,6.23,.433-2.691,.513-3.505,.498-6.23h0Z"/>
        <path d="M399.403,786.866c2.787,.967,2.422,5.713-.498,6.23,.433-2.691,.513-3.505,.498-6.23h0Z"/>
        <path d="M405.843,786.583c2.786,.967,2.422,5.713-.498,6.23,.433-2.691,.513-3.505,.498-6.23h0Z"/>
        <path d="M411.855,785.859c2.992,1.248,2.607,6.396-.573,7.165,.684-2.93,.798-4.165,.573-7.165h0Z"/>
        <path d="M418.619,785.301c2.992,1.248,2.607,6.396-.573,7.165,.684-2.93,.798-4.165,.573-7.165h0Z"/>
        <path d="M425.197,784.371c2.992,1.248,2.607,6.396-.573,7.165,.684-2.93,.798-4.165,.573-7.165h0Z"/>
      </g>
      <g>
        <g>
          <g>
            <circle class="cls-12" cx="373.877" cy="762.358" r="2.174"/>
            <path d="M375.61,761.045c1.859,2.525-1.798,5.479-3.865,2.927-1.901-2.684,1.938-5.403,3.865-2.927h0Zm0,0c-1.66-2.038-4.543,.331-3.068,2.324,1.521,1.964,4.583-.172,3.068-2.324h0Z"/>
          </g>
          <circle class="cls-15" cx="374.235" cy="762.087" r="1.031"/>
          <path class="cls-8" d="M373.085,761.193c-.123-.051-.839,.665-.645,1.374,.203,.743,1.27,.97,1.354,.85,.07-.103-.59-.429-.754-1.18-.129-.584,.134-1.006,.046-1.043h0Z"/>
        </g>
        <g>
          <g>
            <circle class="cls-12" cx="384.35" cy="764.524" r="2.174"/>
            <path d="M386.084,763.211c1.859,2.525-1.798,5.479-3.865,2.927-1.901-2.684,1.938-5.403,3.865-2.927h0Zm0,0c-1.66-2.038-4.543,.331-3.068,2.324,1.521,1.964,4.582-.172,3.068-2.324h0Z"/>
          </g>
          <circle class="cls-15" cx="384.709" cy="764.253" r="1.031"/>
          <path class="cls-8" d="M383.559,763.359c-.123-.051-.839,.665-.645,1.374,.203,.743,1.27,.97,1.354,.85,.07-.103-.59-.429-.754-1.18-.129-.584,.134-1.006,.046-1.043h0Z"/>
        </g>
        <g>
          <g>
            <circle class="cls-12" cx="396.843" cy="765.888" r="2.174"/>
            <path d="M398.576,764.575c1.859,2.525-1.798,5.479-3.865,2.927-1.901-2.684,1.938-5.403,3.865-2.927h0Zm0,0c-1.661-2.038-4.543,.331-3.068,2.324,1.521,1.964,4.582-.172,3.068-2.324h0Z"/>
          </g>
          <circle class="cls-15" cx="397.201" cy="765.617" r="1.031"/>
          <path class="cls-8" d="M396.05,764.723c-.123-.051-.839,.665-.645,1.374,.203,.743,1.27,.97,1.354,.85,.07-.103-.59-.429-.754-1.18-.129-.584,.134-1.006,.046-1.043h0Z"/>
        </g>
        <g>
          <path d="M396.733,766.224c3.547-7.639,11.863-13.041,20.305-13.027-7.746,2.791-14.517,7.178-20.305,13.027h0Z"/>
          <path d="M410.82,749.742c-10.512,1.464-19.914,6.911-26.51,15.214,4.209-10.068,15.691-16.681,26.51-15.214h0Z"/>
          <path d="M408.101,747.26c-12.701,1.465-24.546,6.794-34.088,15.301,7.523-10.594,21.171-16.71,34.088-15.301h0Z"/>
        </g>
      </g>
    </g>
  </g>
  <path id="_ноги" data-name="ноги" class="cls-2" d="M404.056,603.583c5.671,23.836,5.722,42.924,4.645,56.165-1.509,18.569-5.663,30.897-5.982,55.845-.164,12.789,.751,23.302,1.565,30.261-21.366,6.834-39.761,9.412-54,10.304-26.685,1.673-38.375-2.595-60.783,.913-20.702,3.241-37.474,11.072-49.891,18.587-1.122-17.943-.326-32.404,.587-42.196,2.413-25.88,7.402-37.99,6.054-63.835-.202-3.883-.938-10.015-2.402-22.122-2.772-22.923-5.364-41.482-7.174-53.902,9.635-6.466,41.98-26.426,87.065-23.185,43.016,3.092,71.304,25.413,80.315,33.163Z"/>
  <g>
    <path class="cls-10" d="M396.458,654.811c-1.872,5.783-5.011,8.828-6.782,10.245-8.135,6.507-21.567,5.982-33.392-1.636,4.475,.78,11.95,1.511,20.87-.391,8.975-1.914,15.533-5.666,19.304-8.217Z"/>
    <path class="cls-10" d="M316.659,662.039c-2.695,4.937-6.611,7.282-8.793,8.337-10.023,4.844-25.551,2.794-38.573-5.394,5.119,1.223,13.721,2.755,24.236,2.11,10.581-.649,18.526-3.223,23.13-5.053Z"/>
    <path d="M312.665,672.168c-5.697,8.045-17.981,9.506-26.048,4.291,8.939,2.313,18.531,1.349,26.048-4.291h0Z"/>
    <path d="M389.569,670.011c-6.806,7.132-19.171,6.792-26.395,.461,8.508,3.588,18.138,4.028,26.395-.461h0Z"/>
    <g>
      <path class="cls-3" d="M239.579,773.706c3.541-7.155,7.718-10.213,10.923-11.678,5.945-2.716,8.839-.082,15.522-3.652,4.763-2.545,5.963-5.309,10.304-5.609,3.456-.239,4.031,1.42,7.435,1.174,4.927-.356,5.859-3.985,10.565-5.739,5.502-2.05,6.621,2.018,16.435,2.087,8.759,.061,12.1-3.016,17.467-.44,2.724,1.308,4.463,3.377,5.489,4.874-3.192,.302-7.913,1.146-12.913,3.783-3.264,1.721-4.445,3.045-7.696,4.826-2.914,1.597-7.373,3.497-13.696,4.304-4.843,.896-12.675,1.605-21.522-1.043-3.065-.918-5.721-2.079-7.957-3.261-6.715-.38-11.391,.976-14.478,2.348-1.923,.855-3.227,1.714-8.511,4.402-3.087,1.57-5.65,2.807-7.368,3.623Z"/>
      <path d="M239.579,773.706c2.801-5.908,7.59-11.574,14.288-12.964,2.198-.479,4.448-.338,6.592-.708,4.463-.629,7.967-3.501,11.475-6.103,7.704-4.847,9.984,4.13,18.34-3.826,1.736-1.427,3.826-2.556,6.149-2.86,2.32-.293,4.467,.8,6.591,1.441,2.075,.657,4.224,1.013,6.402,1.1,4.461,.316,8.671-.765,13.092-1.382,4.986-.643,9.606,2.625,12.092,6.737-5.805,.414-11.541,2.204-16.38,5.454-2.296,1.601-4.707,3.207-7.301,4.333-12.832,5.425-29.13,5.349-40.999-1.313-5.372-.327-10.898,.393-15.739,2.847-4.226,2.236-10.228,5.187-14.602,7.243h0Zm0,0c4.394-2.161,10.256-5.19,14.462-7.519,4.851-2.582,10.465-3.429,15.911-3.137,8.712,4.55,18.876,6.013,28.546,4.313,4.15-.583,8.24-1.489,12.05-3.256,2.572-1.132,4.848-2.667,7.155-4.286,4.733-3.193,10.307-5.059,15.97-5.591l-.362,.773c-2.356-3.517-6.359-6.178-10.713-5.64-4.313,.598-8.786,1.679-13.226,1.338-2.239-.097-4.484-.477-6.625-1.163-2.139-.649-4.151-1.695-6.229-1.428-3.316,.328-5.758,2.8-8.351,4.719-1.909,1.302-4.344,1.8-6.625,1.356-1.154-.239-2.142-.765-3.169-.957-2.071-.367-4.319,.033-6.091,1.241-3.501,2.569-7.244,5.485-11.746,6.058-2.225,.337-4.451,.153-6.596,.582-6.641,1.259-11.455,6.771-14.361,12.596h0Z"/>
    </g>
    <g>
      <path class="cls-3" d="M334.693,755.672c1.046-2.263,2.947-5.389,6.33-6.817,4.121-1.74,6.301,.642,12.783,0,5.826-.577,5.747-2.948,12-3.652,5.657-.637,5.862,1.288,11.087,.783,7.444-.719,9.038-4.82,15.13-4.957,2.56-.057,6.311,.576,10.957,4.043-3.449,1.799-8.556,4.387-14.87,7.304-6.48,2.994-9.72,4.491-12.398,5.306-2.5,.761-12.247,3.524-23.863,1.607-2.733-.451-5.708-2.558-11.085-3.292-2.535-.346-4.656-.366-6.072-.326Z"/>
      <path d="M334.693,755.672c1.711-4.209,5.743-8.256,10.657-7.582,1.558,.16,3.065,.485,4.595,.564,3.036,.164,6.19-.108,8.885-1.526,2.698-1.557,5.864-2.414,9.01-2.439,3.149-.072,5.997,1.402,9.144,.848,4.81-.181,8.37-3.744,12.944-4.758,4.773-.926,9.616,1.069,13.348,3.895,0,0,.657,.488,.657,.488l-.725,.352c-8.114,3.908-16.086,8.049-24.409,11.51-8.437,3.259-17.815,3.937-26.708,2.545-2.995-.559-5.571-2.201-8.52-2.891-2.884-.747-5.89-1.023-8.88-1.005h0Zm0,0c2.989-.123,6.011,.06,8.944,.752,2.92,.605,5.615,2.196,8.531,2.668,8.803,1.246,18.027,.394,26.309-2.866,8.252-3.48,16.223-7.669,24.272-11.595,0,0-.068,.84-.068,.84-3.589-2.703-8.06-4.615-12.578-3.773-3.035,.544-5.508,2.589-8.409,3.646-1.487,.552-3.05,.906-4.621,1.055-3.119,.567-6.176-.928-9.229-.936-1.507,.01-3.041,.191-4.508,.538-2.979,.7-5.588,2.838-8.745,3.041-3.101,.476-6.25-.058-9.284-.573-4.804-.757-8.747,3.105-10.616,7.204h0Z"/>
    </g>
    <path class="cls-13" d="M338.258,693.521c.992,18.101,3.772,35.937,8.348,53.478-7.234-16.691-10.125-35.378-8.348-53.478h0Z"/>
    <path class="cls-13" d="M251.942,695.954c-.708,10.758-2.027,21.929-3.57,32.625-1.799,10.808-2.053,21.603-.673,32.482-2.962-10.627-3.06-21.909-1.306-32.763,1.636-10.834,3.262-21.621,5.549-32.344h0Z"/>
    <path class="cls-13" d="M332.741,638.703c-1.516,10.621-1.783,21.172-.659,31.841,.955,10.728-.533,21.779-4.624,31.746,2.511-10.386,3.646-20.958,2.631-31.594-1.04-10.68-.456-21.685,2.652-31.993h0Z"/>
    <g>
      <path class="cls-13" d="M272.284,689.246c1.678,12.103-.453,24.85-6,35.739,1.182-5.223,2.903-12.541,3.71-17.75,.937-5.161,1.711-12.702,2.29-17.989h0Z"/>
      <path class="cls-13" d="M280.241,690.811c1.854,11.293-.358,23.375-6.13,33.261,3.162-10.914,5.202-21.935,6.13-33.261h0Z"/>
      <path class="cls-13" d="M263.415,700.725c7.037,3.535,14.557,5.278,22.435,5.087-7.51,3.077-16.96,.877-22.435-5.087h0Z"/>
      <path class="cls-13" d="M261.98,708.42c7.134,3.91,14.962,5.713,23.087,5.348-7.722,3.262-17.581,.967-23.087-5.348h0Z"/>
    </g>
    <g>
      <path class="cls-13" d="M355.492,623.722c7.196,9.875,11.339,22.117,11.593,34.335-1.425-5.162-3.365-12.425-5.114-17.398-1.612-4.991-4.492-12.004-6.479-16.937h0Z"/>
      <path class="cls-13" d="M363.245,621.344c6.969,9.078,10.725,20.772,10.308,32.212-2.368-11.113-5.776-21.791-10.308-32.212h0Z"/>
      <path class="cls-13" d="M353.096,638.029c7.872-.208,15.324-2.224,22.177-6.114-5.166,6.259-14.535,8.784-22.177,6.114h0Z"/>
      <path class="cls-13" d="M355.467,645.49c8.135,.076,15.886-2.032,22.875-6.192-5.265,6.523-15.039,9.157-22.875,6.192h0Z"/>
    </g>
  </g>
  <g>
    <path class="cls-1" d="M334.76,756.549c-1.198-15.444-1.05-27.873-.743-35.972,.944-24.934,4.404-35.579,3.541-56.901-.546-13.494-2.542-24.293-3.968-30.778"/>
    <path d="M333.264,756.665c-1.415-20.725-.606-41.559,2.05-62.146,2.883-20.481,2.577-41.349-1.726-61.621,3.486,15.121,5.093,30.749,4.409,46.278-.87,15.481-3.053,30.885-3.003,46.389-.094,10.306,.346,20.611,1.261,30.867l-2.991,.232h0Z"/>
  </g>
  <g id="_НОГИ-2" data-name=" НОГИ">
    <g id="_нога1-2" data-name=" нога1">
      <g>
        <path class="cls-5" d="M242.336,744.078c-2.359,3.502-5.77,9.534-7.41,17.743-2.025,10.14-.322,18.477,.885,22.795,12.159,5.272,27.998,10.786,47.002,14.154,26.392,4.678,49.041,3.472,65.06,1.312,1.455-1.25,8.135-7.251,8.069-16.146-.037-5.021-2.206-8.685-3.076-10.112-4.092-6.721-9.574-7.6-22.876-16.032-3.621-2.296-6.463-4.29-8.172-5.519-3.635,3.512-14.843,13.41-31.844,14.79-28.423,2.306-46.445-21.361-47.64-22.986h.001Z"/>
        <path class="cls-4" d="M329.992,757.793c4.286,2.404,14.9,9.903,6.137,13.627-3.517,1.304-7.287,1.403-10.948,1.488-4.844,.002-9.648-.367-14.417-.957-4.77-.581-9.508-1.363-14.201-2.402,4.801,.214,9.575,.561,14.343,.848,8.171,.263,16.639,1.444,24.608-.612,6.999-2.185-3.06-9.639-5.522-11.992h0Z"/>
        <path class="cls-9" d="M245.815,770.185c4.104,4.095,10.775,9.845,20.231,14.42,11.955,5.783,22.157,6.684,33.758,7.71,8.578,.758,21.153,1.767,36.911-1.88,8.099-1.874,14.628-4.421,19.227-6.496-.025,.983-.122,2.135-.364,3.407-.269,1.416-.65,2.634-1.03,3.627-15.485,5.213-52.201,14.98-89.721-1.012-7.647-3.259-14.3-7.151-20.028-11.197,.25-1.38,.473-2.85,.653-4.403,.17-1.458,.286-2.853,.36-4.177h.001Z"/>
        <path class="cls-14" d="M291.277,768.171c4.781-1.041,11.278-3.01,18.255-6.941,5.214-2.938,9.279-6.175,12.289-8.956,2.047,1.099,4.994,2.869,8.172,5.519,5.195,4.331,9.689,8.078,8.944,10.692-1.514,5.312-24.124,4.07-38.938,1.507-3.675-.636-6.687-1.322-8.722-1.821Z"/>
      </g>
      <g>
        <path class="cls-11" d="M234.11,773.078c-.154-3.321-.012-7.802,1.18-12.922,.94-4.034,2.28-7.379,3.532-9.953,1.956,2.745,5.213,8.105,6.358,15.617,.852,5.59,.214,10.261-.443,13.245,2.192,1.274,5.429,3.061,9.464,4.94,24.893,11.601,47.756,11.636,60.839,11.564,9.724-.054,23.462-.969,39.643-4.907-.745,1.799-1.937,4.1-3.861,6.422-1.001,1.207-2.014,2.198-2.948,3-13.193,1.788-30.063,2.81-49.438,.854-26.513-2.677-47.863-9.933-62.625-16.32-.517-1.789-.997-3.88-1.315-6.233-.261-1.933-.369-3.715-.387-5.308h0Z"/>
        <path class="cls-7" d="M244.736,779.063c-1.808-.707-3.852-1.646-6.013-2.9-1.765-1.024-3.3-2.081-4.613-3.086"/>
        <path class="cls-16" d="M351.479,796.591c-1.106,1.081-2.213,2.161-3.319,3.243-14.814,2.16-35.726,3.575-60.267-.07-21.769-3.234-39.495-9.424-52.314-15.016-.305-1.748-.61-3.495-.915-5.243,6.321,3.573,15.549,8.131,27.305,11.719,7.074,2.159,12.424,3.161,18.86,4.346,9.988,1.838,23.085,4.183,40.049,4.016,7.807-.077,18.295-.704,30.603-2.993v-.002Z"/>
        <path class="cls-6" d="M234.11,773.078c-.154-3.321-.012-7.802,1.18-12.922,.94-4.034,2.28-7.379,3.532-9.953,1.956,2.745,5.213,8.105,6.358,15.617,.852,5.59,.214,10.261-.443,13.245,2.192,1.274,5.429,3.061,9.464,4.94,24.893,11.601,47.756,11.636,60.839,11.564,9.724-.054,23.462-.969,39.643-4.907-.745,1.799-1.937,4.1-3.861,6.422-1.001,1.207-2.014,2.198-2.948,3-13.193,1.788-30.063,2.81-49.438,.854-26.513-2.677-47.863-9.933-62.625-16.32-.517-1.789-.997-3.88-1.315-6.233-.261-1.933-.369-3.715-.387-5.308h0Z"/>
      </g>
      <g>
        <path d="M237.699,774.947c-.093,3.71,.153,6.992,.764,10.652-3.245-2.378-3.627-7.833-.764-10.652h0Z"/>
        <path d="M242.76,778.019c-.199,3.391,.19,6.286,1.349,9.481-3.609-1.417-4.403-7.081-1.349-9.481h0Z"/>
        <path d="M248.428,781.174c.073,3.04,.282,5.6,.534,8.63-2.889-1.758-3.212-6.541-.534-8.63h0Z"/>
        <path d="M254.2,784.005c.202,2.649,.137,4.878-.25,7.507-2.352-1.771-2.206-5.893,.25-7.507h0Z"/>
        <path d="M260.663,786.628c.195,1.598,.167,3.161,.162,4.716-.019,.524-.022,1.072-.103,1.769-.648-.281-1.094-.784-1.413-1.35-.936-1.705-.486-4.221,1.353-5.135h.001Z"/>
        <path d="M266.38,788.813c.24,2.251,.105,4.046-.498,6.23-2.161-1.421-1.853-5.164,.498-6.23h0Z"/>
        <path d="M235.225,758.287c2.487,.427,2.887,.443,5.412,.512-.647,2.756-5.305,2.298-5.412-.512h0Z"/>
        <path d="M234.14,769.323c2.487,.427,2.887,.443,5.412,.512-.646,2.756-5.305,2.298-5.412-.512h0Z"/>
        <path d="M234.184,763.801c2.487,.427,2.887,.443,5.412,.512-.647,2.756-5.305,2.298-5.412-.512h0Z"/>
        <path d="M273.028,790.73c.24,2.251,.105,4.046-.498,6.23-2.161-1.421-1.853-5.164,.498-6.23h0Z"/>
        <path d="M279.056,792.033c.24,2.251,.105,4.046-.498,6.23-2.161-1.421-1.853-5.164,.498-6.23h0Z"/>
        <path d="M284.861,792.961c.24,2.251,.105,4.046-.498,6.23-2.161-1.421-1.853-5.164,.498-6.23h0Z"/>
        <path d="M290.637,793.99c.24,2.251,.105,4.046-.498,6.23-2.161-1.421-1.853-5.164,.498-6.23h0Z"/>
        <path d="M296.361,794.354c.24,2.251,.105,4.046-.498,6.23-2.161-1.421-1.853-5.164,.498-6.23h0Z"/>
        <path d="M302.319,795.003c.24,2.251,.105,4.046-.498,6.23-2.161-1.421-1.853-5.164,.498-6.23h0Z"/>
        <path d="M306.619,795.038c2.787,.967,2.422,5.713-.498,6.23,.433-2.691,.513-3.505,.498-6.23h0Z"/>
        <path d="M313.109,795.426c2.786,.967,2.422,5.713-.498,6.23,.433-2.691,.513-3.505,.498-6.23h0Z"/>
        <path d="M319.019,795.474c2.787,.967,2.422,5.713-.498,6.23,.433-2.691,.513-3.505,.498-6.23h0Z"/>
        <path d="M325.459,795.192c2.786,.967,2.422,5.713-.498,6.23,.433-2.691,.513-3.505,.498-6.23h0Z"/>
        <path d="M331.471,794.468c2.992,1.248,2.607,6.396-.573,7.165,.684-2.93,.798-4.165,.573-7.165h0Z"/>
        <path d="M338.235,793.909c2.992,1.248,2.607,6.396-.573,7.165,.684-2.93,.798-4.165,.573-7.165h0Z"/>
        <path d="M344.813,792.98c2.992,1.248,2.607,6.396-.573,7.165,.684-2.93,.798-4.165,.573-7.165h0Z"/>
      </g>
      <g>
        <g>
          <g>
            <circle class="cls-12" cx="293.493" cy="770.967" r="2.174"/>
            <path d="M295.227,769.654c1.859,2.525-1.798,5.479-3.865,2.927-1.901-2.684,1.938-5.403,3.865-2.927h0Zm0,0c-1.66-2.038-4.543,.331-3.068,2.324,1.521,1.964,4.583-.172,3.068-2.324h0Z"/>
          </g>
          <circle class="cls-15" cx="293.852" cy="770.696" r="1.031"/>
          <path class="cls-8" d="M292.702,769.802c-.123-.051-.839,.665-.645,1.374,.203,.743,1.27,.97,1.354,.85,.07-.103-.59-.429-.754-1.18-.129-.584,.134-1.006,.046-1.043h0Z"/>
        </g>
        <g>
          <g>
            <circle class="cls-12" cx="303.967" cy="773.133" r="2.174"/>
            <path d="M305.7,771.82c1.859,2.525-1.798,5.479-3.865,2.927-1.901-2.684,1.938-5.403,3.865-2.927h0Zm0,0c-1.66-2.038-4.543,.331-3.068,2.324,1.521,1.964,4.582-.172,3.068-2.324h0Z"/>
          </g>
          <circle class="cls-15" cx="304.325" cy="772.862" r="1.031"/>
          <path class="cls-8" d="M303.175,771.968c-.123-.051-.839,.665-.645,1.374,.203,.743,1.27,.97,1.354,.85,.07-.103-.59-.429-.754-1.18-.129-.584,.134-1.006,.046-1.043h0Z"/>
        </g>
        <g>
          <g>
            <circle class="cls-12" cx="316.459" cy="774.497" r="2.174"/>
            <path d="M318.193,773.184c1.859,2.525-1.798,5.479-3.865,2.927-1.901-2.684,1.938-5.403,3.865-2.927h0Zm0,0c-1.661-2.038-4.543,.331-3.068,2.324,1.521,1.964,4.582-.172,3.068-2.324h0Z"/>
          </g>
          <circle class="cls-15" cx="316.818" cy="774.226" r="1.031"/>
          <path class="cls-8" d="M315.667,773.332c-.123-.051-.839,.665-.645,1.374,.203,.743,1.27,.97,1.354,.85,.07-.103-.59-.429-.754-1.18-.129-.584,.134-1.006,.046-1.043h0Z"/>
        </g>
        <g>
          <path d="M316.349,774.833c3.547-7.639,11.863-13.041,20.305-13.027-7.746,2.791-14.517,7.178-20.305,13.027h0Z"/>
          <path d="M330.436,758.35c-10.512,1.464-19.914,6.911-26.51,15.214,4.209-10.068,15.691-16.681,26.51-15.214h0Z"/>
          <path d="M327.717,755.869c-12.701,1.465-24.546,6.794-34.088,15.301,7.523-10.594,21.171-16.71,34.088-15.301h0Z"/>
        </g>
      </g>
    </g>
  </g>
  <path d="M396.458,654.811c-2.217,14.071-17.246,19.079-29.579,14.671-3.922-1.328-7.556-3.379-10.595-6.063,4.637,2.032,9.19,3.599,14.069,4.322,11.235,1.657,21.093-2.24,26.105-12.931h0Z"/>
  <path d="M316.659,662.039c-5.374,13.786-23.892,14.516-35.81,9.646-4.201-1.614-8.153-3.843-11.556-6.703,4.063,1.797,8.129,3.339,12.284,4.479,11.943,3.242,27.031,3.685,35.082-7.421h0Z"/>
</svg>