<?xml version="1.0" encoding="UTF-8"?>
<svg id="_голова" data-name="голова" xmlns="http://www.w3.org/2000/svg" viewBox="0 0 903.13 831.014">
  <defs>
    <style>
      .cls-1 {
        fill: #372213;
      }

      .cls-1, .cls-2, .cls-3, .cls-4, .cls-5, .cls-6, .cls-7, .cls-8, .cls-9, .cls-10, .cls-11, .cls-12, .cls-13, .cls-14, .cls-15, .cls-16, .cls-17, .cls-18, .cls-19, .cls-20, .cls-21, .cls-22, .cls-23, .cls-24, .cls-25, .cls-26, .cls-27, .cls-28, .cls-29, .cls-30, .cls-31, .cls-32, .cls-33, .cls-34, .cls-35, .cls-36, .cls-37, .cls-38, .cls-39, .cls-40, .cls-41, .cls-42 {
        fill-rule: evenodd;
      }

      .cls-1, .cls-7, .cls-12 {
        stroke: #020203;
        stroke-width: 3px;
      }

      .cls-1, .cls-12 {
        stroke-miterlimit: 10;
      }

      .cls-2 {
        fill: #b4aa79;
      }

      .cls-3 {
        fill: #d6bf5a;
      }

      .cls-4 {
        fill: #c6b963;
      }

      .cls-5 {
        fill: #bd9027;
      }

      .cls-6 {
        fill: #ebd46c;
      }

      .cls-7 {
        stroke-linecap: round;
        stroke-linejoin: round;
      }

      .cls-7, .cls-12 {
        fill: none;
      }

      .cls-8 {
        fill: #bc8c27;
      }

      .cls-9 {
        fill: #bf9830;
      }

      .cls-10 {
        fill: #99681c;
      }

      .cls-11 {
        fill: #bea644;
      }

      .cls-13 {
        fill: #fae9b3;
        opacity: .27;
      }

      .cls-14 {
        fill: #cba134;
      }

      .cls-15 {
        fill: #b19233;
      }

      .cls-16 {
        fill: #d6b84c;
      }

      .cls-17 {
        fill: #d6c663;
      }

      .cls-18 {
        fill: #e5c655;
      }

      .cls-19 {
        fill: #130f0a;
      }

      .cls-20 {
        fill: #3c341f;
      }

      .cls-21 {
        fill: #f4f8cf;
      }

      .cls-22 {
        fill: #dddaba;
      }

      .cls-23 {
        fill: #c89a29;
      }

      .cls-24 {
        fill: #6a6351;
      }

      .cls-25 {
        fill: #997c32;
      }

      .cls-26 {
        fill: #544a31;
      }

      .cls-27 {
        fill: #f4f8db;
      }

      .cls-28 {
        fill: #8b621e;
      }

      .cls-29 {
        fill: #291e12;
      }

      .cls-30 {
        fill: #a46e1c;
      }

      .cls-31 {
        fill: #f7f1bc;
      }

      .cls-32 {
        fill: #cdaa3f;
      }

      .cls-33 {
        fill: #d2af40;
      }

      .cls-34 {
        fill: #a3802b;
      }

      .cls-35 {
        fill: #e0b346;
      }

      .cls-36 {
        fill: #110e0a;
      }

      .cls-37 {
        fill: #dad5b0;
      }

      .cls-38 {
        fill: #ecea97;
      }

      .cls-39 {
        fill: #524628;
      }

      .cls-40 {
        fill: #ede080;
      }

      .cls-41 {
        fill: #dcc45c;
      }

      .cls-42 {
        fill: #d9c567;
      }
    </style>
  </defs>
  <g id="Layer_2" data-name="Layer 2">
    <g id="Layer_1-2" data-name="Layer 1-2">
      <g id="Layer_1-3" data-name="Layer 1-3">
        <g>
          <path class="cls-42" d="M593.496,174.155c-5.891-3.238-11.783-6.477-17.675-9.715,2.456,6.696,23.007,64.318-.089,79.782-1.526,1.022-3.273,1.88-5.282,2.525-8.556-3.151-14.905-7.199-19.541-10.941-32.153-25.955-25.241-72.194-24.213-78.403-.148-6.33-.295-12.661-.443-18.991,9.442-9.43,18.885-18.86,28.327-28.29l34.116-41.015,38.942-17.823,26.279,28.041-3.099,23.529,11.861,20.919-8.204,15.085-12.004,13.306-19.696,3.447,5.931,19.76-7.718,8.673-10.522,1.515-16.972-11.404Z"/>
          <path class="cls-6" d="M574.185,139.895l-1.742,8.863,6.821,25.836,7.611,19.128,28.495,21.462,24.23,4.366,15.264-2.704,8.344-7.933,4.011-9.812-31.3-4.305-13.21-7.192-4.746-4.847s-3.799-1.224-6.05-2.571c-2.211-1.375-7.572-1.432-8.876-4.316-1.304-2.885-3.546-5.388-4.55-8.977-.977-3.581-2.728-4.778-2.728-4.778,0,0-11.158-11.572-15.144-11.572-5.321-5.837-6.43-10.648-6.43-10.648h.001Z"/>
          <path class="cls-40" d="M638.823,218.948h0l.416,2.293,2.935,1.525,8.324,.912,6.393-3.035,3.342-.724,4.323-1.022,6.093-1.948,5.225-1.286,7.39-2.696,4.737-2.772s2.456-2.576,3.231-3.463c-2.109,.605-5.709,2.151-8.523,3.216-2.105,.807-3.844,1.362-3.844,1.362,0,0,.393-.417,.709-.694-.911-.075-1.678,.074-2.755,.465,.035-1.022,1.162-2.533,1.162-2.533,0,0-3.213-1.48-1.921-3.457,1.521-2.283,6.13-2.323,8.248-2.496,2.118-.173,1.606-.258,5.088-3.016,3.458-2.827,7.664-3.618,9.773-5.955,3.094-3.368,5.528-9.481,5.528-9.481l-.855,.59-10.173,6.444-13.944-.026-12.615,3.281-10.659,5.247s8.367-2.344,8.208-.298-5.689,5.013-6.682,5.904c.794-.549,1.788-.296,1.788-.296l-.311,.795,2.418,.884s-2.664,1.254-3.013,3.459c-.434,2.176-1.206,2.359-2.902,3.675-1.675,1.304-4.985,1.123-5.726,1.342s-.886,.237-2.154,1.692c-1.243,1.447-3.545,2.009-3.545,2.009l-5.71,.099v.003Z"/>
          <path class="cls-38" d="M723.487,173.477c-.04-.017-.123,.08-.165,.13-1.204,1.443-3.148,5.87-4.254,7.075-2.465,2.685-8.43-2.279-15.036-.474-4.167,1.138-6.969,4.789-12.575,12.089-3.369,4.388-4.023,6.333-7.099,7.626-3.309,1.391-5.562,.406-8.533,2.486-1.552,1.086-3.959,3.47-3.399,5.526,.891,3.27,8.686,3.484,8.568,4.934-.059,.732-2.298,.694-6.22,2.182-1.698,.644-3.257,.636-4.75,1.02-1.539,.33-4.256,1.911-6.823,2.891-1.75,.619-3.565,1.066-5.416,1.334l-.2,.343s11.004-1.586,17.883-4.015c4.118-1.493,9.764-3.719,18.017-8.537,8.184-4.781,13.55-9.72,18.52-14.529s8.135-11.778,8.135-11.778c1.733-3.885,3.597-8.199,3.347-8.304Z"/>
          <path class="cls-41" d="M591.568,254.772c-7.601-2.583-14.646-5.298-21.117-8.024l1.468-2.998,4.651-15.33c.412-8.464,.825-16.928,1.237-25.392,2.194-.711,9.897-2.928,18.591,.181,6.087,2.177,9.72,5.913,11.309,7.783,5.338,.956,10.677,1.912,16.015,2.869,3.438,.351,6.876,.702,10.313,1.053,4.375,.912,8.751,1.823,13.127,2.735,1.242,.054,2.484,.107,3.726,.161,2.423,.681,4.845,1.363,7.268,2.044,.101,.041,.196,.094,.284,.156-11.593,7.947-11.356,13.799-11.356,13.799,0,0-1.076,.039-2.386,.063-1.309,.024-2.755-.005-4.191,.927-1.816,1.167-2.804,4.901-4.735,6.674-1.477,1.314-3.145,2.232-5.367,3.561-.168,.101-3.37,2.529-5.406,5.17-3.442,4.465-3.694,9.812-3.511,12.937-2.643-.587-5.286-1.175-7.929-1.762-6.923-1.812-14.287-3.986-21.993-6.605Z"/>
          <path class="cls-17" d="M508.704,192.728c-14.083-22.548-18.017-43.577-19.293-55.394,2.249-5.936,4.586-12.109,5.037-13.319,.31-.768,.754-1.969,1.132-3.477,.7-2.792,.425-3.641,.982-5.825,.731-2.865,1.43-2.287,2.43-5.513,.928-2.992,.651-4.537,2.187-5.951,.835-.769,1.8-1.125,2.444-1.303,1.209,.779,2.522,1.567,3.941,2.343,2.291,1.253,4.491,2.273,6.529,3.108,.731,.505,1.521,.933,2.353,1.276,1.158-1.592,3.409-2.296,4.438-3.064,.175,.525,.513,1.143,.976,1.995,.162,.382,.252,.787,.264,1.197,0,0,4.498,1.819,5.939,5.466,.764,1.937,1.017,5.839,1.006,9.251-.044,2.785,.429,4.634,.504,4.727,.229,.194,.902-.623,1.465-.513-.483,9.252-3.085,10.463-3.848,10.696,1.405,6.637-.493,18.973-.493,18.973,1.654,.613,3.027,1.739,3.886,3.185,1.549,2.716-.123,6.744,.383,8.948,.489,2.186,2.39,2.899,2.973,3.23,.237,2.304,.012,4.628-.665,6.856,2.533,2.682,4.163,5.107,4.422,10.591,.203,3.626-.745,7.227-2.726,10.358,3.253,3.857-.071,10.436-.161,12.963,1.199-.302,2.417-.535,3.647-.698-.219,2.651-.114,4.861,.046,6.481,.336,3.401,.911,4.153,1.477,4.583,1.536,1.168,3.873,.633,4.585,.444,.075,.8,.782,1.485,.945,2.752,.691-.477,1.153-.297,1.153-.297l.689,.463,3.56,8.544c-10.418-6.907-28.125-20.534-42.206-43.078Z"/>
          <path class="cls-4" d="M696.292,179.548c-3.015,6.024-7.184,9.942-9.843,12.076-5.09,1.587-10.181,3.174-15.271,4.761-2.148,.998-4.295,1.996-6.443,2.994-7.845-8.564-15.689-17.127-23.534-25.691-2.466-3.478-4.932-6.956-7.398-10.433-.739-3.224-1.477-6.448-2.216-9.672,5.67-3.416,11.34-6.832,17.01-10.248,1.071-1.222,2.143-2.444,3.214-3.666,.486-2.263,1.63-6.002,4.619-9.699,1.084-1.341,7.227-8.936,14.302-8.21,3.913,.401,3.951,2.939,10.322,5.74,5.29,2.326,7.434,1.284,12.016,3.78,6.226,3.392,6.179,12.85,6.616,27.557,.121,4.077,.033,7.463-.071,9.797-.353,2.78-1.196,6.663-3.323,10.914Z"/>
          <path class="cls-11" d="M673.756,123.815l1.254-5.649c3.817-8.161,7.634-16.321,11.451-24.482-1.268-6.519-2.536-13.037-3.804-19.556,.378-.563,3.003-4.624,1.264-9.236-1.552-4.117-5.949-6.994-11.051-7.164l-29-5.802-18.206,5.381c1.111,.549,2.091,1.3,2.881,2.208,1.198,1.403,4.621,6.813,5.963,8.206,1.342,1.393,3.137,3.117,5.466,5.94,2.288,2.85,4.261,3.455,4.261,3.455,0,0,.256,.908,1.186,2.145,.97,1.208,2.178,2.045,3.907,4.198,.969,1.207,.894,2.571,.849,3.696-.045,1.126-.16,1.851-.16,1.851-.529-.606-.984-1.265-1.356-1.965,.828,1.543-.184,4.353-1.553,7.324-1.026,2.232-1.382,4.152-1.446,5.136-.222,2.09,.654,4.243,1.551,6.821,1.226,3.496,.955,9.583,4.319,13.773,1.395,1.737,3.282,2.077,4.408,3.558,.702,.955,.865,2.221,.962,3.328,.194,1.882-.106,3.78-.873,5.532,1.181-.97,3.788-2.101,4.025-2.199s.324,.128,.434,.346c1.236-.708,4.424-2.177,4.424-2.177-.284,.208-.536,.451-.749,.722,1.608-.756,3.944-1.431,3.944-1.431,1.883-1.319,3.766-2.639,5.649-3.958Z"/>
          <path class="cls-15" d="M634.114,219.07c-2.709,1.988-6.842,.939-9.314-.17-.591-.238-1.159-.523-1.697-.851,0,0-4.491-.156-11.533-2.778-8.134-3.039-9.905-5.718-9.905-5.718,0,0-.666-.039-1.373-.725-.481-.519-.745-1.716-1.226-2.117-.466-.383-1.646-.593-3.098-.824s-2.054-.903-2.054-.903c.086,.44,.245,.864,.472,1.258,.491,.806,.185,1.017,.013,1.078,.075,.093,.222,.199,.449,.481,.304,.378,.611,.959,.97,1.208-.681-.058-1.448-.819-2.031-1.151-.568-.312-1.87-.585-2.682-.818-.776-.257-2.497-1.533-2.497-1.533,.052,.405,.141,.805,.264,1.197-.358-.252-1.937-.246-2.409-.362,.116,.419-.125,1.026-.116,1.312-.31,.009-1.273-.206-1.571-.499-.412,.284-.342,.677-.405,1.073-1.878-.287-2.247,.319-2.247,.319,0,0,.344,.348,.602,.669-.612,.015-1.221,.073-1.823,.174,.064,.181,.108,.367,.13,.556,.061,.524,.206,1.037,.431,1.521,.554,1.085,1.599,2.387,2.315,2.686,2.914,1.686,5.529,2.198,7.466,2.679,1.634,.458,2.715,.739,2.715,.739,0,0,1.302-.309,2.908,.313s2.258,2.145,2.416,2.616c-1.146-.443-2.71,.051-3.544,.275,.903,.021,1.456,.314,1.678,.513-.132,.596-1.232,.211-1.507,.461-.101,.069,.596,.82,.894,1.114-.425,.06-2.261,.888-2.979,1.177s-2.626,.434-2.626,.434c0,0,.717,.971,.863,1.075-.263-.052-2.078,.408-2.662,.664-.335,.173-.565,.479-.907,.92-.219,.291-.468,.561-.743,.807-.632,.2-2.559-.345-2.777-.342-.351,.035-.316,1.537-.493,1.514-1.279-.057-3.08-.132-5.343,1.225-2.509,1.528-1.867,4.575-1.785,4.871-.162,.112-.709-.096-1.065-.145-.208-.012-.416,.03-.6,.12-.162,.112-.448,1.689-1.398,4.603-.968,2.899-3.163,4.062-3.163,4.062,0,0,1.601-.45,.726-3.983-.92-3.591-.693-4.458-.59-5.109-.767,.383-2.884,1.845-3.871,2.468,.574-6.617,4.679-10.565,5.096-10.913,.362-.337-.085-.381-.431-.142,.368-.606,1.449-2.965,.647-4.437s-2.76-1.586-3.78-1.674c.911-.834,1.695-2.461,2.68-3.874,.433-.663,.921-1.294,1.459-1.887-.687,.093-1.613-.354-2.266-.695-.359-.165-.732-.3-1.116-.403,.883-1.343,.791-2.012,1.537-4.905s3.122-3.243,3.722-3.363c-.313-.412-.603-.839-.868-1.279-.845-1.447-1.244-2.611-1.645-3.506-.469-1.057-.776-1.636-.776-1.636,0,0,.254,.119,1.121,.017,.411-.078,1.109-.471,1.661-.648,.315-.091,.641-.148,.97-.171,0,0,.05-6.638,.027-7.061,1.078-.216,3.035-.423,3.356-.497-.166-.326-.318-.515-.46-.77-.221-.493-.353-1.016-.39-1.549-.023-.164-.076-.324-.157-.472,0,0,.032-.08,.178,.024-.518-.803-2.358-3.014-2.358-3.014l.837-.139s-.698-.396-1.527-2.495c-.604-1.459-.851-3.109-1.258-4.207-.563-1.371-1.225-1.92-1.525-2.294-.407-2.476-2.047-5.188-2.047-5.188,0,0,.086,.029,.606,.755,.589-3.457,.517-5.279-.11-9.489-.29-1.707-.939-4.164-1.158-6.684-.326-3.913,.309-8.399,.342-11.474,.044-4.99-.251-7.602-.251-7.602,0,0,1.4,1.939,2.449,3.326-.29-3.79,1.147-5.31,1.846-6.292,1.441,3.055,1.067,6.805,1.584,11.231,.353,3.159,1.422,6.618,2.32,10.574,1.198,5.482,2.126,9.478,4.87,15.417,2.153,4.616,4.92,8.574,7.044,11.891,3.891,6.147,5.519,12.153,10.97,18.747,2.027,2.444,4.789,4.821,7.713,7.084,5.052,3.967,11.386,7.954,16.334,9.82,5.555,2.033,9.465,1.74,9.465,1.74l.012-.024Z"/>
          <path class="cls-5" d="M702.602,64.842l-7.141-10.944-24.87-7.211-34.089-7.654c-6.907,4.523-13.815,9.047-20.722,13.57-1.751,3.661-3.96,5.657-5.56,6.779-1.856,1.3-3.246,1.669-8.673,3.957-2.713,1.144-4.887,2.115-6.241,2.729,13.958-.816,19.338-2.706,21.468-4.46,.244-.201,1.079-.824,2.294-1.53,1.339-.777,5.473-1.46,8.376-1.352,2.955,.043,8.418-2.704,14.926-3.06,6.508-.356,11.273,1.282,14.575,3.345,3.281,2.079,1.83,3.462,.802,4.23,2.577-.725,5.224-1.216,7.903-1.465,1.929-.159,3.375-.013,4.05-.04,1.473-.017,4.948-.467,6.617-.24s2.177,1.843,2.177,1.843c0,0,1.07-1.385,2.26-.77,2.601,1.384,2.397,5.308,2.397,5.308,.425-.13,.819-.333,1.163-.598,.191,1.893,.374,4.76,.295,6.986-.04,1.072-.179,2.138-.415,3.188,2.475-1.796,3.011-4.044,3.011-4.044,0,0,1.044,.511,2.332-.525,1.593-1.247,2.234-4.154,2.57-5.471,.458,.76,.818,1.019,1.759,1.602,.598-3.552,3.128-4.419,4.94-4.291,.616,.033,1.21,.226,1.714,.558,.695-.147,1.389-.294,2.084-.441Z"/>
          <path class="cls-34" d="M646.422,32.511l18.845-11.486,14.503-5.819c5.736-2.043,10.147-2.211,12.659-2.11,1.653,.066,3.035,.271,4.277,1.131,2.541,1.758,2.69,5,2.733,5.916,.222,4.813-3.626,8.167-4.39,8.809l-6.514,17.894-.58,9.409s-5.113,3.091-8.182,2.539c-3.13-.589-10.504,.278-14.856-.768-5.598-1.415-8.553-5.096-15.722-7.483-7.21-2.356-9.451-1.25-9.451-1.25,2.226-5.594,4.452-11.189,6.678-16.783Z"/>
          <path class="cls-9" d="M528.445,126.909c-.226-5.715-.624-15.752-6.321-18.107-2.006-.829-2.922,.037-6.161-.34-5.599-.652-9.732-3.893-12.341-6.515,4.378-5.112,8.755-10.224,13.133-15.336,0,0,6.315-5.503,6.53-7.472s1.475-2.839,2.934-4.14c1.503-1.243,3.897-2.397,4.081-2.524s.659-.718,1.747-1.411c.831-.444,1.698-.826,2.593-1.145l10.382-5.789,6.232-2.562,8.024-2.577,3.3-1.252,3.126-1.071,2.132-.182,7.254-2.749,10.77-3.651,10.105-3.573,9.205-3.745c15.632-6.562,31.264-13.123,46.896-19.685-1.679,12.434-5.498,16.323-8.836,17.461-3.3,1.125-8.124,.24-13.397,3.642-1.29,.832-2.22,1.672-2.784,2.225-1.866,1.031-3.915,2.303-6.037,3.866-1.765,1.3-3.302,2.596-4.627,3.82-1.812,1.705-3.862,3.488-6.167,5.285-1.886,1.47-3.728,2.784-5.491,3.955-3.141,.91-6.282,1.821-9.423,2.731l-23.296,29.348s-9.676,9.111-18.607,19.204c-8.245,9.317-9.446,12.228-16.015,17.319-3.869,2.999-7.4,5.049-9.762,6.306,.492-2.649,1.008-6.578,.82-11.337Z"/>
          <path class="cls-14" d="M492.25,151.625c-.384-.675-.401-1.367-.281-3.504,.151-2.06-.415-2.764-.647-3.25,.411,.156,1.423,.315,1.967,.52-.61-.958-.503-1.889,.052-2.852,.629-.991,1.471-2.66,1.261-4.774-.148-2.157-.4-4.008-.118-4.642,.344,.114,.496,.304,1.017,.677-.297-.646-.997-1.836-1.161-3.101-.165-1.265,.178-2.382,.809-3.17,1.188-1.555,.768-2.356,.569-2.799,.762-.313,1.502-.966,1.614-1.695,.111-.729-1.188-2.15-.24-4.476,.737-1.801,1.625-5.465,1.625-5.465-.354,.209-.723,.396-1.104,.557,1.039-.865,1.966-3.031,2.455-5.336,.299-1.205,.586-1.637,.996-2.858,1.217-3.451,4.76-4.871,4.76-4.871,0,0,.506,.355,.987,.756-.072-.954,.391-1.56,1.298-2.48,.967-1.043,3.307-2.511,4.28-3.536,.974-1.024,2.773-3.352,3.313-3.667,.35-.154,1.491,.202,2.01-.214,.275-.25,.482-1.567,.621-1.868,.082-.291,.143-.333,2.069-2.309,1.947-1.989,2.388-3.173,2.388-3.173-.242,.269-.505,.519-.789,.75-.467,.403-.558,.092-.868,.101-.31,.009-1.085,.896-1.059,.731,.026-.165,.741-1.01,1.097-1.551-.148,.102-.553,.295-.701,.192,.59-.408,2.755-2.196,3.717-2.86,.962-.664,4.152-4.101,4.087-4.261-.12-.149-1.928-.429-4.393,.48-2.434,.948-11.213,5.425-13.242,6.679-2.03,1.255-5.227,3.814-8.802,5.786-1.689,.926-6.024,3.701-10.231,6.437-13.522,3.768-27.044,7.536-40.566,11.304l40.694,43.54c.172,.067,.344,.134,.516,.201Z"/>
          <path class="cls-32" d="M692.775,128.228l6.876-16.777,6.674-19.628-7.348-11.476-16.321-6.218-4.324,13.137,8.128,6.419c-2.115,4.522-4.231,9.045-6.346,13.567-1.702,3.638-3.404,7.276-5.105,10.915-.418,1.883-.836,3.766-1.254,5.649,.578,.727,1.156,1.455,1.733,2.182l-2.068,1.722s.448,1.07,.988,.757c.473-.226,.982-.381,1.507-.461-.851,.86-1.622,1.785-2.304,2.765-1.216,1.718-1.224,3.164-1.015,3.9,.136,.525,.196,1.065,.181,1.604,0,0,1.073-.594,1.68-1.218,.638-.588,1.605-1.313,1.504-1.244-.07,.15-.125,.306-.164,.466,2.075-.64,5.37-2.77,5.37-2.77-.102-.015-.202-.045-.293-.09,.319-.012,.628-.104,.894-.266-.074,.147-.186,.275-.328,.371,1.66,.299,3.131-.195,3.059-.087-.037,.081-.079,.159-.127,.234,.388-.067,.765-.18,1.122-.336,.586-.258,1.145-.938,1.669-1.153-.049,.261-.047,.528,.007,.788,0,0,.554-.295,.93-.497,.391-.181,.453-.223,.749-.722,1.495,1.668,2.888,1.352,2.888,1.352,.346-.963,.691-1.925,1.037-2.888Z"/>
          <path class="cls-18" d="M695.919,163.532c2.413-4.923,4.826-9.846,7.239-14.769-1.366-5.102-2.731-10.204-4.097-15.305,1.169-5.809,2.339-11.618,3.508-17.428,7.898,1.944,17.87,3.035,24.532-1.933,6.088-4.54,6.849-12.231,10.494-12.241,2.134-.006,4.644,2.621,7.475,10.65-.084,9.716-.169,19.431-.253,29.147l-1.864,8.477-5.483,11.179-6.932,8.984-4.464,4.961-5.097,6.421-.736,.067c-.781,.869-1.235,1.334-1.661,1.715,0,0-.932,.852-2,1.607-2.511,1.774-28.42,10.588-30.471,6.1-.934-2.043,4.336-4.087,9.368-12.767,2.256-3.892,3.468-7.398,4.14-9.762l-3.696-5.102Z"/>
          <path class="cls-35" d="M705.259,147.169l2.136-12.04-3.863-14.741-.893-1.705-5.374,3.711c-1.558,1.973-3.116,3.946-4.674,5.919-.082,.375-.181,.769-.299,1.178-.161,.556-.34,1.071-.525,1.544,.773,.652,2.189,2.046,2.751,4.194,.179,.685,.237,1.314,.237,1.852,.244-.063,.506,.005,.68,.177,.331,.293-.249,.752-.249,.752,0,0,.285,.714,.381,2.408,.096,1.694-.541,3.424-.355,6.494,.05,1.637-1.874,1.646-1.482,5.366,.352,3.748,2.27,5.386,2.861,6.005s1.571,.499,2.152,.04c.939,1.17,1.384,5.704,2.627,7.252-.388-.875-.507-4.139-.185-4.8,.399-.685,1.055-2.313,1.416-3.794,.392-1.445,.36-3.535,.482-3.971,.153-.399,.735-.069,1.004,.185,.17-.851-.005-3.987-.005-3.987,.393-.68,.786-1.359,1.179-2.039Z"/>
          <polygon class="cls-16" points="736.543 124.182 740.028 107.28 752.407 93.655 762.172 87.411 769.797 87.371 773.114 88.864 772.868 89.622 771.732 90.964 767.631 94.528 760.61 99.024 748.783 107.191 742.527 116.147 739.89 122.399 738.118 123.974 736.543 124.182"/>
          <path class="cls-8" d="M741.392,110.177h0l-5.73-14.823,12.689-3.978,9.085-4.391s7.073-3.094,10.051-2.892c2.062,.174,3.957,1.126,5.242,2.632,.636,.675,.722,1.759,.565,2.161s-1.052,.345-3.261,.433c-2.165,.027-5.434-.533-7.825,.386-3.213,1.28-5.162,2.831-9.772,6.747-.779,.685-1.533,1.792-2.44,2.712-4.449,4.666-8.595,11.01-8.595,11.01l-.01,.003Z"/>
          <path class="cls-30" d="M730.689,84.848h0c1.857,1.534,5.57,1.464,7.916,1.546,1.583,.002,2.259-.024,2.813-.201,1.448-.325,9.688-3.051,12.58-3.522s6.838,.356,7.369,.428c.487,.014,1.036-.365,3.741,.088,3.307,.533,4.753,1.94,5.037,2.096-1.045,.078-1.246,.508-1.724,.692-.333-.414-.672-.561-1.107-.907-.855,.59-1.278,.736-2.716,1.581s-3.036,.512-7.944,2.874c-3.321,1.618-6.779,6.058-10.663,7.567-5.79,2.325-9.216-.679-9.216-.679,0,0-5.265-7.898-6.248-8.452-.053-.786,.373-1.534,1.103-1.936-.808-.614-.939-1.17-.939-1.17v-.007Z"/>
          <path class="cls-33" d="M725.692,139.01h0l-7.812-10.49-13.899-11.873,6.068-9.588,15.315-17.529,11.057,6.362,1.912,10.065s-.082,2.813-.821,10.366c-.739,7.553-4.34,9.688-5.295,11.14-1.484,2.257-1.862,6.947-2.873,9.671-.815,2.294-2.718,3.314-3.333,3.533-.197-.534-.304-1.093-.319-1.658h.001Z"/>
          <path class="cls-23" d="M690.517,51.893c-.739,2.834-.294,5.23,.058,6.521-8.528,9.922-8.756,14.291-7.371,16.446,1.415,2.202,4.468,1.163,9.032,4.047,5.899,3.727,7.879,9.568,8.17,10.48,1.77,5.549,.226,10.467-.824,13.815-1.425,4.541-2.657,4.635-3.832,9.458-.908,3.724-.537,5.16-1.358,9.491-.739,3.897-1.841,6.963-2.624,8.884,6.516-4.667,9.621-8.323,11.243-10.912,.349-.556,1.237-2.029,2.722-3.894,1.558-1.956,3.216-2.811,5.451-5.584,2.235-2.773,4.75-7.562,7.074-10.107,1.005-1.191,5.766-5.506,10.76-5.316,4.999,.155,8.737,7.964,9.181,8.595,.074-3.36-.368-9.373-4.347-15.196-1.008-1.475-2.097-2.724-3.163-3.774-10.198-5.082-15.867-10.826-19.188-15.266-3.099-4.141-6.336-8.708-12.256-15.54-1.999-2.307-4.375-4.309-7.042-5.934-.585,.896-1.265,2.169-1.686,3.785Z"/>
          <path class="cls-10" d="M699.18,21.804h0l-2.363,2.338-3.343,6.95-3.218,5.921-3.015,7.95s-1.613,4.808-3.373,8.842c-1.761,4.034-.288,5.276-.066,5.475,.982-.393,2.038-.604,3.107-.621,.851,0,2.339,.116,3.431,.095,.451,.027,.904,.009,1.351-.053,0,0-.567-.195-1.069-.347,.753-.52,1.839-2.003,2.251-3.226,.367-1.278,1.348-6.006,2.311-10.165,.964-4.159,1.006-7.299,1.7-10.534,.719-3.402,1.117-7.081,1.681-10.082,.29-1.374,.617-2.541,.617-2.541l-.003-.004Z"/>
          <path class="cls-28" d="M650.776,23.957c3.728-4.435,7.267-7.254,8.469-8.169,2.907-2.212,3.59-2.624,12.938-7.846,9.404-5.174,15.817-6.047,17.282-6.272s5.577-.738,9.431,4.14c2.097,2.654,2.089,5.485,2.14,7.717,.083,3.634-.959,6.638-1.969,8.708,.628-3.486-.375-6.824-2.796-8.305-2.148-1.314-5.099-.65-6.951-.775-1.906-.129-5.32,1.648-5.32,1.648l-6.107,1.458s-11.834,8.465-20.689,13.2c-8.817,4.709-12.937,4.15-12.937,4.15,1.55-2.933,3.653-6.258,6.507-9.654Z"/>
          <path class="cls-1" d="M656.644,49.3h0l-.045-4.311,1.388-5.683,4.112-6.977,4.362-7.847,3.398-3.374,4.575,5.028,4.504,9.507,.752,3.97s-1.257,1.073-1.685,2.396c-.417,1.174-.942,2.314-1.569,3.405-.101,.157-.537,.313-.579,.342s.086,.294,.116,.419-.083,.291-.221,.592c-.344-1.964-.65-3.922-1.172-5.44-.229-.869-.87-1.863-.87-1.863,0,0-.214,.44-.352,.74-.131-.438-.031-1.886-.043-2.376s-.402-.896-.467-1.057c.108-.141,.068-.194-.089-.584s-.405-.307-.578-.247c-.171-.23-.385-.43-.633-.59,0,0,.04,.325,.063,.749-1.613,.909-1.116,2.237-.901,3.175-1.556-1.744-1.916-3.373-2.126-4.108-1.182,1.168-1.237,3.465-1.162,5.292,.09,1.255,.1,2.252,.094,2.837-1.153,1.676-1.749,3.378-2.135,5.025-.594,2.375-.678,4.398-.445,4.883-.535,.516-1.029,.768-1.914,1.321-1.1-3.144-3.572-3.108-5.394-2.935-.699,.092-1.408,.097-2.108,.016,.986-1.414,1.125-2.303,1.125-2.303h0Z"/>
          <path class="cls-25" d="M708.036,152.869l-.843-2.263s-1.228-7.369-1.432-8.019c-.221-.67-.51-2.495-.592-3.377-.094-.904,.033-1.93,.046-2.585-.109,.34-.593,1.202-.738,1.801-.164,.466-.152,.954-.281,1.778-.141,.968-.479,2.004-.707,3.099-.404,1.863-.543,5.392,.794,7.138,1.346,1.767,3.752,2.426,3.752,2.426h0Z"/>
          <path class="cls-3" d="M632.448,150.515c.545,4.182,1.09,8.364,1.635,12.545,5.23,6.514,10.46,13.028,15.691,19.542,4.764,5.091,9.528,10.181,14.292,15.272,0,0,.844,.942,.669,1.503-3.375-.223-5.12,.835-10.198,1.525-2.319,.305-5.084,.487-7.095,.702-1.31,.132-2.611,.326-3.9,.58,0,0-5.809-2.063-6.818-2.54,.214,.937,.198,1.507,.22,2.519-2.053-.902-1.469-2.537-3.429-3.795-1.301-.833-7.15,2.326-12.12-1.343-1.979-1.481-3.589-8.644-3.821-9.921-.232-1.277,.549-4.283,.549-4.283,0,0,.548,.21,.979,.351,.011-.3-.436-1.724-.868-2.658,.299,.294,1.369,.643,2.094,.875-.132-1.346-2.093-4.776-3.121-7.118-.89-2.055-.81-3.137-.81-3.137,0,0,1.795,1.929,3.206,3.214,1.428,1.275,1.862,2.208,2.055,1.78,.216-.443-.179-1.405-2.623-4.646-2.444-3.241-1.745-4.223-1.745-4.223,0,0,1.432,1.389,1.726,1.479,.31,.072,1.585-.361,2.068-1.722s-2.701-4.151-3.437-5.463c-.768-1.348-.752-1.212-1.577-4.486-.795-3.237-1.522-8.398-.815-9.091,1.075-1.183,2.834,1.007,2.834,1.007,0,0-.284-2.326,2.59-2.726,3.89-.514,9.257,1.796,9.257,1.796,.837,.82,1.674,1.64,2.511,2.46Z"/>
        </g>
        <g>
          <path class="cls-20" d="M670.364,120.062l-.728-2.205-4.935-18.914-3.184-5.345-1.443-1.325s-1.798,.361-3.013,5.191c-1.335,5.353-.262,9.013,.14,9.909,.355,.836,.949,2.246,3.646,5.606,5.669,7.061,9.511,7.077,9.511,7.077l.005,.006Z"/>
          <path class="cls-36" d="M665.522,115.21l-2.858-10.733,6.257-5.053,3.937-1.048,4.532,5.645s1.023,2.932,1.057,4.434c.006,1.464-1.238,8.192-5.31,11.003-4.173,2.882-7.617-4.247-7.617-4.247h.001Z"/>
          <path class="cls-2" d="M673.158,101.161h0l-10.986,7.44s-2.111-.068-2.507-.089c.408,.892,1.301,2.595,3.387,4.998,2.77,3.252,6.437,4.035,8.956,2.091,2.861-2.18,4.4-6.589,3.826-10.331-.574-3.741-2.674-4.109-2.674-4.109h-.002Z"/>
          <path class="cls-22" d="M673.445,102.776h0l-11.02,6.255c2.863,5.418,5.768,6.316,7.444,6.04s3.352-2.959,3.919-5.17c.114-.528,.059-.989,.098-1.808,.116-1.312,.362-3.066,.204-4.042-.184-1.175-.655-1.289-.655-1.289l.01,.015Z"/>
          <path class="cls-36" d="M672.152,106.054h0l.854-5.52,2.365,1.566s2.219,5.011,3.163,6.385c1.818-5.54-2.606-10.379-8.87-13.097-6.29-2.787-9.682-3.114-9.682-3.114,0,0,.777,1.048,.66,3.74-.14,3.53-3.43,8.97-.786,11.868,3.427,3.796,7.569,2.61,9.624,1.19,2.015-1.392,2.672-3.019,2.672-3.019h-.001Z"/>
          <path class="cls-26" d="M664.732,101.966c-.894,.029-1.648-.595-1.712-.99-.041-.407,.477-.478,1.073-.596s.852,.087,1.191,.704-.145,.804-.555,.883h.004Zm3.586-1.091c-.016,.038-.038,.073-.065,.104-.147,.169-.414,.195-.595,.058-.45-.277-.51-1.019-.386-1.26s.73-.862,1.358-.358,.214,1.173-.101,1.449c-.209,.291-.218,.004-.218,.004l.007,.003Z"/>
          <path class="cls-27" d="M670.57,103.214c.04-1.407,.311-3.12,.958-3.772,.333-.375,1.159-.094,1.572,.498,1.141,1.621,1.102,3.027,1.01,4.175s-1.677,3.27-2.584,2.811c-1.023-.526-1.01-1.769-.956-3.713Z"/>
          <path class="cls-12" d="M662.431,115.078c-1.304-1.381-2.323-2.905-3.236-4.268-1.378-2.06-2.068-3.09-2.484-4.347-.625-1.884-.346-3.613-.041-7.091,.252-2.88,.723-4.424,1.852-5.765,.527-.626,1.073-1.06,1.46-1.333,1.935,.218,4.834,.743,8.016,2.157,3.148,1.399,8.363,3.716,10.205,8.848,1.474,4.106-.005,7.804-.796,9.784-.997,2.494-2.617,6.544-5.927,7.12-3.634,.633-7.313-3.265-9.05-5.104Z"/>
        </g>
        <g>
          <path class="cls-20" d="M719.544,147.745l-.323-.922-4.13-.348s-9.281-2.101-9.565-2.257c-.138-.052-.183,1.152-.192,2.597-.047,1.029,.046,2.059,.278,3.066,.168,.645,.472,1.253,.897,1.787,1.828,2.08,4.718,1.696,5.837,1.633s4.135-.919,5.755-2.683c1.573-1.732,1.445-2.876,1.445-2.876l-.002,.003Z"/>
          <path class="cls-29" d="M709.323,149.516l5.491-3.292s-8.482-1.186-8.4-.216,.876,2.153,.876,2.153l2.033,1.355Z"/>
          <path class="cls-24" d="M720.078,146.114l-.375-4.172-1.913-2.383-2.175,4.318s-1.676,1.302-1.877,2.234c-.065,.397-.778,.889-1.458,1.301-1.054,.646-2.131,1.243-2.715,1.294-1.061,.146-2.382-1.114-2.585-.973-.162,.112,.279,1.922,1.066,2.902,1.274,1.587,3.867,1.704,5.107,1.199,1.179-.462,4.541-2.343,5.462-3.126,.306-.211,1.012-1.579,1.012-1.579l.452-1.016Z"/>
          <path class="cls-36" d="M719.07,148.599c4.691-5.585,1.581-9.893,1.156-10.421s-2.726-3.193-6.678-2.873c-3.994,.294-6.178,2.829-7.658,5.083-1.547,2.448-.704,4.563-.218,5.168s1.258,1.684,3.948,2c2.689,.315,4.766-1.473,4.766-1.473l.931-.496,.547-2.55,1.92-2.852s.972,.499,1.711,2.604-.429,5.813-.429,5.813l.004-.003Z"/>
          <path class="cls-21" d="M713.323,138.337c-.125,.266-.317,.499-.561,.681-.305,.21-1.697,.526-2.333-.267-.788-.982,.151-2.334,.908-2.652,.702-.279,1.675,.076,2.044,.614,.61,.958-.026,1.544-.058,1.624Z"/>
          <path class="cls-31" d="M718.819,144.395h0s-2.763-.997-3.585,.421c-.763,1.494-3.054,3.136-3.602,3.515s-.934,1.67-.718,2.02,.871,.573,1.577,.584,2.346-.388,2.93-.644c1.241-.564,2.261-1.471,2.921-2.597,.877-1.544,.482-3.296,.482-3.296l-.004-.003Z"/>
          <path class="cls-37" d="M718.772,144.139h0s.071-1.368,.048-1.793-.355-2.219-1.097-2.353-1.23,.408-1.557,.781c-.308-.581-1.569-1.087-2.105-.572-.422,.381-.232,.893,.102,1.309,.213,.265,.582,.449,.81,.733,.349,.434,.066,1.42-.109,2.187-.058,.336-.051,.679,.021,1.013,.23-.306,.881-.755,1.749-.856,.824-.128,1.618,.556,1.939,.482,.339-.089,.241-.607,.201-.932h-.001Z"/>
          <path class="cls-12" d="M719.546,147.742c.377-.405,.872-1.022,1.273-1.857,.105-.219,.84-1.797,.677-3.697-.185-2.155-1.558-5.103-4.664-6.317-3.486-1.363-6.723,.41-7.432,.798-.663,.363-3.864,2.223-4.299,5.626-.15,1.173,.077,2.154,.274,2.762-.155,.619-.311,1.544-.215,2.656,.069,.796,.181,2.097,1.048,3.288,1.325,1.819,3.585,2.248,4.133,2.351,2.754,.522,5.513-.549,7.233-2.234,1.281-1.255,1.771-2.641,1.969-3.377Z"/>
        </g>
        <g>
          <g id="_рот" data-name="рот">
            <path class="cls-39" d="M673.421,150.497s-2.557-4.25-5.75-2.984c-3.165,1.334-4.469,5.345-4.469,5.345-.292,.481-.725,1.134-1.327,1.854-.668,.8-4.352,5.211-8.788,5.317-1.917,.046-2.177-.755-7.704-3.36-3.619-1.706-5.428-2.559-7.491-3.105-5.698-1.508-10.694-.452-12.922,.044-4.278,.953-8.623,2.896-8.428,3.599,.092,.331,1.141,.217,3.316,.334,.922,.05,5.303,.286,8.784,1.453,.349,.117,2.455,1.383,6.689,3.858,3.461,2.023,5.63,3.346,6.584,3.931,2.533,1.553,3.799,2.33,4.258,2.661,5.046,3.634,7.499,8.235,7.927,9.059,1.613,3.107,1.026,3.704,3.127,7.453,2.414,4.306,4.005,4.972,4.655,5.187,2.093,.695,4.11-.065,6.367-.914,3.101-1.167,5.007-2.668,7.677-4.771,4.054-3.192,7.604-7.058,7.799-7.277,.035-.039,.205-.236,.462-.485,.295-.286,.471-.404,1.194-1.158,1.016-1.059,1.225-1.784,1.225-1.784-4.395-8.087-8.79-16.173-13.185-24.26Z"/>
            <path class="cls-36" d="M659.743,182.279c-1.74-5.331-4.34-9.003-5.703-10.897-2.395-3.329-4.285-5.956-7.921-8.104-1.49-.88-3.041-1.443-6.144-2.57-2.667-.968-5.835-2.118-10.044-2.955-2.93-.582-6.997-1.138-11.937-1.042,2.632-.984,7.526-2.445,13.782-2.149,7.403,.35,12.686,2.971,14.701,4.079,6.719,3.691,10.026,8.628,11.429,10.778,3.72,5.704,4.435,10.773,4.564,11.784,.598,4.658-.181,9.079-.75,9.096-.488,.014-.412-3.226-1.977-8.02Z"/>
          </g>
          <g>
            <path class="cls-19" d="M667.646,174.117c.46,.376,.874,.799,1.233,1.261-5.031,4.06-6.993,3.744-6.993,3.744,1.157-2.737,5.76-5.004,5.76-5.004Z"/>
            <path class="cls-36" d="M690.268,171.438h0c1.49-1.969,1.964-3.822,1.33-6.934-.779-3.1-4.203-7.75-9.827-11.642s-9.962-6.18-13.544-3.706c-1.75,1.208-1.288,2.768-1.858,5.567-.326,1.838-1.097,4.191-1.642,6.151-1.333,4.959-1.79,8.806,1.845,13.016,3.635,4.21,9.974,5.289,15.818,3.426,5.866-1.878,7.494-5.681,7.947-6.575-.047,.229-.07,.461-.069,.694v.002Z"/>
          </g>
        </g>
        <path class="cls-13" d="M619.648,263.1c1.755-2.198-.134-8.919,5.228-15.693,1.426-1.802,2.876-2.99,3.671-3.594,2.672-2.071,3.437-1.693,4.939-3.306,1.856-1.994,1.179-3.1,3.348-5.163,.535-.509,1.526-1.432,3.144-2.043,2.042-.771,3.906-.601,4.819-.457,.526-1.784,1.636-4.671,4.072-7.629,2.493-3.026,5.281-4.797,7.02-5.732,4.36-.515,10.496-1.566,17.503-3.9,11.637-3.877,19.329-9.183,24.064-12.502,5.101-3.576,10.007-7.073,14.734-13.206,2.756-3.576,4.556-6.886,5.706-9.321,.264,.052,.528,.103,.793,.155,7.316-9.194,12.059-15.01,14.215-17.413,.359-.4,1.29-1.422,2.278-2.953,1.225-1.897,1.158-2.436,2.502-5.102,1.707-3.386,2.369-3.614,3.076-5.916,.266-.867,.324-1.327,.678-3.673,.812-5.379,.924-5.713,1.111-7.128,.519-3.933,.382-6.915,.288-12.23-.061-3.458-.115-8.487-.054-14.755,1.237-1.772,2.475-3.543,3.713-5.315,6.283-4.221,12.566-8.442,18.849-12.663,1.888-1.881,3.776-3.761,5.663-5.642-.054-.47-.202-1.184-.664-1.912-.723-1.14-1.786-1.642-3.844-2.583-1.541-.704-2.446-1.117-3.805-1.319-1.367-.203-1.951-.007-3.615,.027-2.556,.053-3.112-.369-5.173-.468-2.525-.121-4.342,.384-7.923,1.381-4.152,1.156-3.585,1.516-5.994,2.022-1.015,.213-5.676,1.108-10.769-.663-1.751-.609-3.058-1.455-5.6-3.121-3.049-1.999-7.184-4.746-11.478-9.281-1.457-1.539-2.99-3.585-6.055-7.677-4.159-5.551-5.253-7.576-8.296-10.671-2.324-2.364-4.496-4.041-5.908-5.054,1.491-6.429,2.416-11.704,2.991-15.386,1.08-6.923,.616-6.263,1.405-9.832,1.325-5.992,2.814-8.671,2.139-13.404-.467-3.272-1.585-4.842-2.056-5.44-.261-.332-2.868-3.538-7.242-3.96-1.499-.145-2.677,.088-4.101,.437-6.92,1.695-12.229,4.305-13.268,4.822-4.009,1.997-6.824,3.777-9.082,5.214-3.32,2.113-6.218,3.976-9.499,7.001-1.87,1.725-3.283,3.291-4.24,4.422-16.574,6.613-27.829,11.472-35.267,14.804-3.562,1.595-10.13,4.578-19.24,7.967-1.298,.483-4.981,1.783-12.346,4.383-11.537,4.073-14.336,5.014-16.155,5.617-9.542,3.164-8.131,2.342-13.344,4.198,0,0-11.321,4.032-24.468,11.869-1.011,.603-2.404,1.49-3.938,2.82-1.149,.996-2.005,1.918-2.577,2.58-2.051,.951-5.112,2.43-8.727,4.417-3.716,2.043-6.01,3.52-12.265,7.445-2.555,1.603-6.438,4.034-11.283,7.04-13.522,3.768-27.044,7.536-40.566,11.304,8.272,20.495,23.139,50.955,49.693,81.461,51.511,59.177,115.301,82.112,121.204,74.719Z"/>
        <path class="cls-7" d="M621.937,264.064c.056-.807,.802-10.449,5.228-15.693,1.823-2.16,3.671-3.594,3.671-3.594,2.672-2.071,3.437-1.693,4.939-3.306,1.856-1.994,1.179-3.1,3.348-5.163,.535-.509,1.526-1.432,3.144-2.043,2.042-.771,3.906-.601,4.819-.457,.526-1.784,1.636-4.671,4.072-7.629,2.493-3.026,5.281-4.797,7.02-5.732,4.36-.515,10.496-1.566,17.503-3.9,11.637-3.877,19.329-9.183,24.064-12.502,5.101-3.576,10.007-7.073,14.734-13.206,2.756-3.576,4.556-6.886,5.706-9.321,.264,.052,.528,.103,.793,.155,7.316-9.194,12.059-15.01,14.215-17.413,.359-.4,1.29-1.422,2.278-2.953,1.225-1.897,1.158-2.436,2.502-5.102,1.707-3.386,2.369-3.614,3.076-5.916,.266-.867,.324-1.327,.678-3.673,.812-5.379,.924-5.713,1.111-7.128,.519-3.933,.382-6.915,.288-12.23-.061-3.458-.115-8.487-.054-14.755,1.237-1.772,2.475-3.543,3.713-5.315,6.283-4.221,12.566-8.442,18.849-12.663,1.888-1.881,3.776-3.761,5.663-5.642-.054-.47-.202-1.184-.664-1.912-.723-1.14-1.786-1.642-3.844-2.583-1.541-.704-2.446-1.117-3.805-1.319-1.367-.203-1.951-.007-3.615,.027-2.556,.053-3.112-.369-5.173-.468-2.525-.121-4.342,.384-7.923,1.381-4.152,1.156-3.585,1.516-5.994,2.022-1.015,.213-5.676,1.108-10.769-.663-1.751-.609-3.058-1.455-5.6-3.121-3.049-1.999-7.184-4.746-11.478-9.281-1.457-1.539-2.99-3.585-6.055-7.677-4.159-5.551-5.253-7.576-8.296-10.671-2.324-2.364-4.496-4.041-5.908-5.054,1.491-6.429,2.416-11.704,2.991-15.386,1.08-6.923,.616-6.263,1.405-9.832,1.325-5.992,2.814-8.671,2.139-13.404-.467-3.272-1.585-4.842-2.056-5.44-.261-.332-2.868-3.538-7.242-3.96-1.499-.145-2.677,.088-4.101,.437-6.92,1.695-12.229,4.305-13.268,4.822-4.009,1.997-6.824,3.777-9.082,5.214-3.32,2.113-6.218,3.976-9.499,7.001-1.87,1.725-3.283,3.291-4.24,4.422-16.574,6.613-27.829,11.472-35.267,14.804-3.562,1.595-10.13,4.578-19.24,7.967-1.298,.483-4.981,1.783-12.346,4.383-11.537,4.073-14.336,5.014-16.155,5.617-9.542,3.164-8.131,2.342-13.344,4.198,0,0-11.321,4.032-24.468,11.869-1.011,.603-2.404,1.49-3.938,2.82-1.149,.996-2.005,1.918-2.577,2.58-2.051,.951-5.112,2.43-8.727,4.417-3.716,2.043-6.01,3.52-12.265,7.445-2.555,1.603-6.438,4.034-11.283,7.04-13.522,3.768-27.044,7.536-40.566,11.304"/>
      </g>
    </g>
  </g>
</svg>