<?xml version="1.0" encoding="UTF-8"?>
<svg id="_хвост" data-name="хвост" xmlns="http://www.w3.org/2000/svg" viewBox="0 0 903.13 831.014">
  <defs>
    <style>
      .cls-1 {
        fill: #fae9b3;
        opacity: .27;
      }

      .cls-2 {
        fill: #dbaf38;
      }

      .cls-3 {
        fill: #bb9430;
        stroke: #000;
        stroke-miterlimit: 10;
        stroke-width: 3px;
      }
    </style>
  </defs>
  <g>
    <path class="cls-3" d="M136.346,389.232c10.337-8.727-39.476-60.527-23.079-121.693,3.137-11.703,7.932-20.889,11.851-27.228-5.91,3.727-11.819,7.454-17.729,11.181,.892-4.334,2.041-8.919,3.522-13.696,4.096-13.215,9.576-24.187,14.87-32.87-6.166,2.505-17.276,7.971-27.391,19.174-9.147,10.13-13.457,20.497-15.492,26.65l.498-25.178c-3.409,4.167-37.624,47.397-22.18,97.528,14.789,48.004,66.263,73.617,75.13,66.13Z"/>
    <path class="cls-2" d="M136.015,387.246c8.28-8.637-36.738-54.389-26.182-112.144,2.02-11.051,5.58-19.839,8.555-25.935-4.803,3.763-9.605,7.526-14.408,11.288,.519-4.079,1.243-8.404,2.237-12.924,2.749-12.505,6.794-22.991,10.804-31.337-5.086,2.638-14.2,8.277-22.157,19.208-7.196,9.884-10.282,19.749-11.67,25.578-.317-7.821-.634-15.643-.951-23.464-2.661,4.049-29.287,45.989-13.472,91.893,15.144,43.955,60.141,65.246,67.245,57.837Z"/>
    <path d="M95.259,296.884c1.013,10.241,2.515,20.286,5.357,30.146,2.709,9.899,6.656,19.256,11.078,28.549-12.854-16.3-18.991-38.089-16.435-58.696h0Z"/>
  </g>
  <path class="cls-1" d="M136.346,389.232c10.337-8.727-39.476-60.527-23.079-121.693,3.137-11.703,7.932-20.889,11.851-27.228-5.91,3.727-11.819,7.454-17.729,11.181,.892-4.334,2.041-8.919,3.522-13.696,4.096-13.215,9.576-24.187,14.87-32.87-6.166,2.505-17.276,7.971-27.391,19.174-9.147,10.13-13.457,20.497-15.492,26.65l.498-25.178c-3.409,4.167-37.624,47.397-22.18,97.528,14.789,48.004,66.263,73.617,75.13,66.13Z"/>
</svg>